<svg id="Layer_1" data-name="Layer 1" xmlns="http://www.w3.org/2000/svg" viewBox="0 0 742.91 480.14"><title>average-age-of-civilian-casualties-per-harm-event-gaza-and-israel-may-2021-he</title><path d="M358.56,474.09a5.43,5.43,0,0,1,1.15-.07h.21c0-1.36-.13-4.17-.22-5.07h-.05a4.1,4.1,0,0,1-1.06-.1l.25-1.23a17.39,17.39,0,0,0,2.2.06h2.3c2.06,0,2.45.49,2.45,2.88v4.74H364.7V471c0-1.38-.16-2-1.46-2h-2.47c.07.9.23,4.1.21,5.08l-.19,1.27h-1.11a13.17,13.17,0,0,0-1.39.05Z"/><path d="M369,470.91c0-1.2-.14-1.64-1.23-1.9a9.09,9.09,0,0,1-.95-.27l.23-1.23a5.32,5.32,0,0,0,1,.22c1.57.34,2.07.86,2.07,3v4.59H369Z"/><path d="M371.51,474.08a18,18,0,0,1,1.91-.05h2.67a14.93,14.93,0,0,0,.27-2.6c0-1.88-.42-2.48-1.95-2.48h-1.29a10,10,0,0,1-1.61-.08l.25-1.25a12.67,12.67,0,0,0,1.75.06h1.17c2.31,0,2.76,1,2.76,3.64a18.64,18.64,0,0,1-.47,4h-3.85a17.22,17.22,0,0,0-1.85,0Z"/><path d="M382.67,471c0-1.38-.15-2-1.47-2h-1.39a8.87,8.87,0,0,1-1.55-.08l.24-1.25a14.54,14.54,0,0,0,1.94.06h.87c2.05,0,2.44.49,2.44,2.88v4.74h-1.08Z"/><path d="M388,474a31.15,31.15,0,0,0-2.93-6.28l1.48-.12A30.69,30.69,0,0,1,389,473.7c1-.44,1.58-1.35,1.58-3.07a8.37,8.37,0,0,0-.59-2.89l1.39-.14a9,9,0,0,1,.36,2.67c0,2-.52,3.67-2.81,4.69a15.47,15.47,0,0,1-4,1l.23-1.37A15,15,0,0,0,388,474Z"/><path d="M398.65,471.12c0-1.55-.15-2.17-1.46-2.17h-2.38a9.69,9.69,0,0,1-1.61-.08l.23-1.25a14.54,14.54,0,0,0,1.94.06h1.92c2,0,2.43.57,2.43,2.87v4.75h-1.07Zm-5.17.17h1.09v4h-1.09Z"/><path d="M407,471.12c0-1.55-.15-2.17-1.46-2.17h-2.38a9.69,9.69,0,0,1-1.61-.08l.23-1.25a14.54,14.54,0,0,0,1.94.06h1.92c2,0,2.43.57,2.43,2.87v4.75H407Zm-5.17.17h1.09v4h-1.09Z"/><path d="M416.54,471c0-1.38-.16-2-1.47-2h-1.39a9,9,0,0,1-1.56-.08l.24-1.25a14.72,14.72,0,0,0,1.95.06h.87c2,0,2.43.49,2.43,2.88v4.74h-1.07Z"/><path d="M419.35,474.09c.33-.06,1.27-.06,2.13-.07h3v-2.51c0-1.54-.49-2.13-2.23-2.42l-1.55-.25a2.69,2.69,0,0,0-.4,1.15c0,.5.34.84,1.36,1l-.28,1.21c-1.55-.2-2.08-.93-2.08-1.95a9.43,9.43,0,0,1,.92-2.74c.23.05,1,.18,2.17.35,2.1.28,3.18.95,3.17,3.39v2.85c0,.16-.14,1-.18,1.2H421c-.71,0-1.59,0-1.91,0Z"/><path d="M427.4,468.94a4.8,4.8,0,0,1-.72-.09l.26-1.25a14.39,14.39,0,0,0,2,.08h3.18c1.71,0,2,.89,2,2.33,0,3.3-1.92,4.82-3.78,5.16a15.93,15.93,0,0,1-1.81.22C428.18,473.5,427.59,470,427.4,468.94Zm3.14,5c1.73-.35,2.48-1.79,2.48-3.59,0-.92-.27-1.37-1.24-1.37h-3.26c.17,1,.64,3.8.87,5.13C429.64,474.05,430.07,474,430.54,473.91Z"/><path d="M436.33,471c.2-1.4-.36-1.94-1.25-2.15l.26-1.31a2.14,2.14,0,0,1,1.91,2,2.91,2.91,0,0,1,2.72-2c2.19,0,2.72,2,2.72,4.71v1.79c0,.12-.15,1.05-.2,1.25h-2.76c-.56,0-1.28,0-1.58,0l.24-1.25a12.33,12.33,0,0,1,1.72-.06h1.47c0-.58,0-1.16,0-1.72,0-1.76-.23-3.49-1.87-3.49s-2.1,1.54-2.31,2.5-.52,2.63-.77,4h-1.09C435.84,473.85,436.18,472,436.33,471Z"/><path d="M213.49,441.28c0-1.33-.12-1.86-1.25-1.86h-2a7.55,7.55,0,0,1-1.38-.07l.21-1.07a12.62,12.62,0,0,0,1.65.05h1.64c1.71,0,2.09.49,2.09,2.46v4.07h-.92Zm-4.43.15H210v3.43h-.94Z"/><path d="M216.47,441a2,2,0,0,1,.43-1.44,9.52,9.52,0,0,1-1.5-.33l.2-1.06a17.7,17.7,0,0,0,3.37.55l-.18,1.08c-.25,0-.69-.09-.86-.1-.34,0-.49.17-.53,1,0,.63.07,2.78.16,4.12h-.95C216.51,442.83,216.45,441.58,216.47,441Z"/><path d="M222.24,443.76a27.34,27.34,0,0,0-2.51-5.37l1.27-.11a26.93,26.93,0,0,1,2.1,5.21c.89-.37,1.36-1.15,1.36-2.63a7,7,0,0,0-.51-2.47l1.19-.12a7.86,7.86,0,0,1,.31,2.28c0,1.75-.44,3.14-2.41,4a13.23,13.23,0,0,1-3.44.84l.2-1.18A12,12,0,0,0,222.24,443.76Z"/><path d="M564.35,443.74a3.67,3.67,0,0,0,2.85-3.42c0-.75-.3-.9-.94-.9h-2.85V437.7a7.1,7.1,0,0,0-.17-1.91l1-.17a9.09,9.09,0,0,1,.12,1.86v.85h2.31c1.23,0,1.52.61,1.52,1.68a5.19,5.19,0,0,1-4,4.95Z"/><path d="M569.38,443.26a4.4,4.4,0,0,1,1.13-3.17,21.58,21.58,0,0,0-1.62-1.66l0-.06,1.28-.1c.61.63,1.5,1.63,2.76,3.19a1.73,1.73,0,0,0,.78-1.57,4.09,4.09,0,0,0-.36-1.51l1.17-.11a4.11,4.11,0,0,1,.23,1.42,2.68,2.68,0,0,1-1.37,2.36c.65.79,1.67,2.23,2,2.81h-1.27a37.82,37.82,0,0,0-3.15-4.13,3.39,3.39,0,0,0-.62,2.27,7.09,7.09,0,0,0,.34,1.86H569.6A6.31,6.31,0,0,1,569.38,443.26Z"/><path d="M579.51,441.14c0-1.19-.13-1.72-1.26-1.72h-1.19a6.88,6.88,0,0,1-1.33-.07l.2-1.07a13,13,0,0,0,1.67.05h.75c1.75,0,2.08.42,2.08,2.47v4.06h-.92Z"/><path d="M581.62,438.38l1.14-.11c.09.29.24,1.19.61,3.42,1.2-.28,1.41-.76,1.41-1.62a5.94,5.94,0,0,0-.33-1.69l1.13-.11a6.74,6.74,0,0,1,.25,1.64c0,1.13-.33,2.16-2.36,2.55,0,.12.15,1,.23,1.36a8.88,8.88,0,0,0,1.3-.19c1.49-.32,2.39-1,2.39-3a6.84,6.84,0,0,0-.41-2.25l1.15-.1a7.49,7.49,0,0,1,.29,2.11,3.91,3.91,0,0,1-3.58,4.29c-.76.13-1.5.22-1.91.26C582.68,443.36,582,439.36,581.62,438.38Z"/><path d="M590.08,442a3.79,3.79,0,0,0,.76-1.83c0-.4-.23-.53-.78-.69a5.21,5.21,0,0,1-.73-.24l.2-1.05a7,7,0,0,0,.71.2c1.14.25,1.53.61,1.53,1.5a4.69,4.69,0,0,1-.94,2.47Z"/><path d="M10.16,236.83a30,30,0,0,0-6,2.8L4,238.21a30.31,30.31,0,0,1,5.81-2.34c-.42-1-1.29-1.51-2.93-1.51a8,8,0,0,0-2.76.56L4,233.59a8.56,8.56,0,0,1,2.54-.35c1.95,0,3.51.5,4.49,2.7a14.79,14.79,0,0,1,.93,3.84l-1.31-.23A13.83,13.83,0,0,0,10.16,236.83Z"/><path d="M10.23,231.69a14.1,14.1,0,0,1-.07-1.84v-2.07c-.38.37-1.43,1.22-3.35,2.66-.91.68-2,1.49-2.66,2L4,231c.81-.57,2.17-1.5,3.19-2.25a1.62,1.62,0,0,0-1.74-1.18,3.75,3.75,0,0,0-1.31.31L4,226.54a3.92,3.92,0,0,1,1.15-.17,2.65,2.65,0,0,1,2.72,1.89,19.18,19.18,0,0,0,2.49-2.09l1,.23V230c0,.89,0,1.68,0,2Z"/><path d="M7.19,223.19c-1.16,0-1.57.14-1.83,1.18a7.36,7.36,0,0,1-.25.91l-1.18-.23a4.52,4.52,0,0,0,.22-.92c.32-1.5.81-2,2.85-2h4.38v1Z"/><path d="M7.27,219.79c-1.34-.19-1.87.35-2.07,1.19L4,220.74a2,2,0,0,1,1.89-1.83A2.76,2.76,0,0,1,4,216.31c0-2.09,1.92-2.6,4.5-2.6h1.72c.12,0,1,.15,1.19.19v2.64c0,.53,0,1.23,0,1.51l-1.19-.23a11.35,11.35,0,0,1-.06-1.65v-1.4H8.52c-1.68,0-3.33.21-3.33,1.78s1.47,2,2.38,2.21,2.52.49,3.81.73v1.05C10,220.26,8.26,219.94,7.27,219.79Z"/><path d="M7.27,211.36c-1.34-.18-1.87.35-2.07,1.19L4,212.31a2,2,0,0,1,1.89-1.83A2.76,2.76,0,0,1,4,207.88c0-2.09,1.92-2.6,4.5-2.6h1.72c.12,0,1,.15,1.19.19v2.64c0,.53,0,1.23,0,1.51l-1.19-.23a11.27,11.27,0,0,1-.06-1.64v-1.41H8.52c-1.68,0-3.33.21-3.33,1.78s1.47,2,2.38,2.21,2.52.49,3.81.73v1C10,211.83,8.26,211.51,7.27,211.36Z"/><path d="M10.13,199.48a4.09,4.09,0,0,0-3.82-3.17c-.84,0-1,.33-1,1v3.19H3.38a8.32,8.32,0,0,0-2.13.18l-.18-1.08a10,10,0,0,1,2.07-.13h.95v-2.59c0-1.36.69-1.69,1.88-1.69a5.8,5.8,0,0,1,5.53,4.49Z"/><path d="M8.19,193.42a4.17,4.17,0,0,0-2-.84c-.44,0-.59.25-.76.87-.1.32-.18.59-.27.82L3.93,194a7.53,7.53,0,0,0,.23-.79c.28-1.27.68-1.71,1.67-1.71a5.24,5.24,0,0,1,2.76,1.05Z"/><path d="M10.14,190.72a2.48,2.48,0,0,0-2.54-2.51H7.08c-1.1,0-1.42.27-1.68,1.27-.08.29-.2.9-.29,1.1l-1.18-.24a8.52,8.52,0,0,0,.27-1.07c.39-1.78,1.06-2.05,2.8-2.1L9,187.11a11.88,11.88,0,0,0,2.43-.24v1a6.85,6.85,0,0,1-2,.21,2.91,2.91,0,0,1,2.07,2.8Z"/><g style="isolation:isolate"><path d="M40,426.31c2,0,3.21,1.51,3.21,4.61s-1.25,4.6-3.21,4.6-3.17-1.52-3.17-4.6S38.13,426.31,40,426.31Zm2,4.63c0-2.47-.76-3.73-2-3.73s-2,1.2-2,3.73.74,3.69,2,3.69S42.08,433.35,42.08,430.94Z"/></g><g style="isolation:isolate"><path d="M30.28,381.59H28.5v-.77h.27a1.74,1.74,0,0,0,1.3-.43,1.55,1.55,0,0,0,.4-1.17h.9v8.92H30.28Z"/><path d="M36.9,379.12c1.94,0,3.2,1.51,3.2,4.61s-1.24,4.6-3.2,4.6-3.18-1.52-3.18-4.6S35,379.12,36.9,379.12Zm2,4.63c0-2.47-.77-3.73-2-3.73s-2,1.2-2,3.73.74,3.69,2,3.69S38.94,386.16,38.94,383.75Z"/></g><g style="isolation:isolate"><path d="M28.68,334.79a2.72,2.72,0,0,1,2.87-2.86,2.42,2.42,0,0,1,2.74,2.42c0,1.23-.5,1.92-2,3.33L29.92,340h4.43v1h-5.9v-.83l3.05-3c1-1,1.66-1.68,1.66-2.69a1.5,1.5,0,0,0-1.61-1.58c-.94,0-1.74.55-1.74,2Z"/><path d="M39.19,331.93c1.94,0,3.2,1.51,3.2,4.61s-1.24,4.6-3.2,4.6S36,339.62,36,336.54,37.27,331.93,39.19,331.93Zm2,4.63c0-2.47-.77-3.73-2-3.73s-2,1.2-2,3.73.74,3.69,2,3.69S41.23,339,41.23,336.56Z"/></g><g style="isolation:isolate"><path d="M31.18,289.73v-1h.46a1.55,1.55,0,0,0,1.6-1.56,1.5,1.5,0,0,0-1.63-1.54,1.62,1.62,0,0,0-1.8,1.76H28.73a2.63,2.63,0,0,1,2.88-2.67,2.42,2.42,0,0,1,2.71,2.39,2.24,2.24,0,0,1-1.48,2v0a2.17,2.17,0,0,1,1.73,2.23c0,1.36-1.1,2.54-3,2.54a2.7,2.7,0,0,1-3-2.67h1.1a1.88,1.88,0,0,0,2,1.76,1.69,1.69,0,0,0,1.85-1.63c0-1.06-.68-1.66-1.85-1.66Z"/><path d="M39.29,284.73c1.94,0,3.2,1.51,3.2,4.61s-1.25,4.6-3.2,4.6-3.18-1.52-3.18-4.6S37.37,284.73,39.29,284.73Zm2,4.63c0-2.47-.77-3.73-2-3.73s-2,1.2-2,3.73.75,3.69,2,3.69S41.33,291.77,41.33,289.36Z"/></g><g style="isolation:isolate"><path d="M33.53,244.4v2.16H32.48V244.4H28.32v-.86l4-5.87h1.18v5.8h1.16v.93Zm-1.05-.92V239h0a7.32,7.32,0,0,1-.54.92l-2.47,3.6Z"/><path d="M39.34,237.54c1.94,0,3.2,1.51,3.2,4.61s-1.25,4.6-3.2,4.6-3.18-1.52-3.18-4.6S37.42,237.54,39.34,237.54Zm2,4.63c0-2.47-.77-3.73-2-3.73s-2,1.2-2,3.73.74,3.69,2,3.69S41.38,244.58,41.38,242.17Z"/></g><g style="isolation:isolate"><path d="M31.46,194.44a1.86,1.86,0,0,0-1.64.78h-.93l.38-4.74H34v.94H30.18L30,194.25h0a2.24,2.24,0,0,1,1.72-.73,2.68,2.68,0,0,1,2.76,3,2.85,2.85,0,0,1-3.06,3.05,2.57,2.57,0,0,1-2.83-2.49h1.1a1.57,1.57,0,0,0,1.79,1.58,1.89,1.89,0,0,0,1.87-2.11A1.86,1.86,0,0,0,31.46,194.44Z"/><path d="M39.29,190.35c1.94,0,3.2,1.51,3.2,4.61s-1.25,4.6-3.2,4.6S36.11,198,36.11,195,37.37,190.35,39.29,190.35Zm2,4.63c0-2.47-.77-3.73-2-3.73s-2,1.2-2,3.73.75,3.69,2,3.69S41.33,197.39,41.33,195Z"/></g><g style="isolation:isolate"><path d="M33.47,145.2A1.42,1.42,0,0,0,31.92,144c-1.58,0-2.12,1.66-2.18,3.71h.05A2.48,2.48,0,0,1,32,146.46a2.62,2.62,0,0,1,2.72,2.84,2.88,2.88,0,0,1-3,3c-1.61,0-3.09-.78-3.09-4.11s1.06-5.09,3.27-5.09c1.6,0,2.45.76,2.58,2Zm.15,4.2a1.82,1.82,0,0,0-1.87-2,1.78,1.78,0,0,0-1.87,2,1.83,1.83,0,0,0,1.87,2A1.85,1.85,0,0,0,33.62,149.4Z"/><path d="M39.52,143.15c1.94,0,3.2,1.51,3.2,4.61s-1.25,4.6-3.2,4.6-3.18-1.52-3.18-4.6S37.6,143.15,39.52,143.15Zm2,4.63c0-2.47-.76-3.73-2-3.73s-2,1.2-2,3.73.74,3.69,2,3.69S41.55,150.19,41.55,147.78Z"/></g><g style="isolation:isolate"><path d="M32.65,97.06H28.26v-1h5.66v.71L30.21,105H29.05Z"/><path d="M38.24,96c1.95,0,3.21,1.51,3.21,4.61s-1.25,4.6-3.21,4.6-3.17-1.52-3.17-4.6S36.33,96,38.24,96Zm2,4.63c0-2.47-.76-3.73-2-3.73s-2,1.2-2,3.73.74,3.69,2,3.69S40.28,103,40.28,100.59Z"/></g><g style="isolation:isolate"><path d="M31.57,48.77a2.55,2.55,0,0,1,2.82,2.42,2.14,2.14,0,0,1-1.45,2.07v0a2.13,2.13,0,0,1,1.7,2.16c0,1.43-1.2,2.54-3.07,2.54s-3.06-1.09-3.06-2.54a2.16,2.16,0,0,1,1.7-2.16v0a2.14,2.14,0,0,1-1.44-2.07A2.54,2.54,0,0,1,31.57,48.77Zm2,6.66c0-1.18-.91-1.71-2-1.71a1.71,1.71,0,1,0,0,3.4C32.64,57.12,33.54,56.6,33.54,55.43Zm-3.66-4.18a1.69,1.69,0,1,0,1.69-1.62A1.55,1.55,0,0,0,29.88,51.25Z"/><path d="M39.35,48.77c1.94,0,3.2,1.51,3.2,4.61S41.3,58,39.35,58s-3.18-1.52-3.18-4.6S37.43,48.77,39.35,48.77Zm2,4.63c0-2.47-.77-3.73-2-3.73s-2,1.2-2,3.73.75,3.69,2,3.69S41.39,55.81,41.39,53.4Z"/></g><g style="isolation:isolate"><path d="M29.85,8.59a1.6,1.6,0,0,0,1.63,1.32c1.4,0,2.07-1.13,2.07-3.73h0a2.44,2.44,0,0,1-2.21,1.14,2.66,2.66,0,0,1-2.71-2.78,2.89,2.89,0,0,1,3-3c1.92,0,3.09,1.16,3.09,4.14,0,3.72-1.13,5.06-3.21,5.06A2.45,2.45,0,0,1,28.8,8.59Zm-.11-4.14a1.78,1.78,0,0,0,1.83,2,1.82,1.82,0,0,0,1.9-1.95,1.86,1.86,0,0,0-1.9-2A1.8,1.8,0,0,0,29.74,4.45Z"/><path d="M39.58,1.57c1.94,0,3.2,1.51,3.2,4.61s-1.25,4.6-3.2,4.6S36.4,9.26,36.4,6.18,37.66,1.57,39.58,1.57Zm2,4.63c0-2.47-.77-3.73-2-3.73s-2,1.2-2,3.73.74,3.69,2,3.69S41.62,8.61,41.62,6.2Z"/></g><line x1="49.6" y1="429.33" x2="49.6" y2="4.59" style="fill:none;stroke:#000;stroke-miterlimit:10"/><line x1="49.6" y1="429.33" x2="742.91" y2="429.33" style="fill:none;stroke:#000;stroke-miterlimit:10"/><line x1="49.6" y1="382.13" x2="58.14" y2="382.13" style="fill:none;stroke:#000;stroke-miterlimit:10"/><line x1="49.6" y1="334.94" x2="58.14" y2="334.94" style="fill:none;stroke:#000;stroke-miterlimit:10"/><line x1="49.6" y1="287.75" x2="58.14" y2="287.75" style="fill:none;stroke:#000;stroke-miterlimit:10"/><line x1="49.6" y1="240.55" x2="58.14" y2="240.55" style="fill:none;stroke:#000;stroke-miterlimit:10"/><line x1="49.6" y1="193.36" x2="58.14" y2="193.36" style="fill:none;stroke:#000;stroke-miterlimit:10"/><line x1="49.6" y1="146.17" x2="58.14" y2="146.17" style="fill:none;stroke:#000;stroke-miterlimit:10"/><line x1="49.6" y1="98.97" x2="58.14" y2="98.97" style="fill:none;stroke:#000;stroke-miterlimit:10"/><line x1="49.6" y1="51.78" x2="58.14" y2="51.78" style="fill:none;stroke:#000;stroke-miterlimit:10"/><line x1="49.6" y1="4.59" x2="58.14" y2="4.59" style="fill:none;stroke:#000;stroke-miterlimit:10"/><circle cx="54.48" cy="382.13" r="3.34" style="fill:#5a8bba"/><circle cx="54.48" cy="382.13" r="3.34" style="fill:none;stroke:#5a8bba;stroke-linecap:round;stroke-linejoin:round;stroke-width:3px"/><circle cx="64.24" cy="259.43" r="3.34" style="fill:#5a8bba"/><circle cx="64.24" cy="259.43" r="3.34" style="fill:none;stroke:#5a8bba;stroke-linecap:round;stroke-linejoin:round;stroke-width:3px"/><circle cx="74.01" cy="386.85" r="3.34" style="fill:#5a8bba"/><circle cx="74.01" cy="386.85" r="3.34" style="fill:none;stroke:#5a8bba;stroke-linecap:round;stroke-linejoin:round;stroke-width:3px"/><circle cx="83.77" cy="264.15" r="3.34" style="fill:#5a8bba"/><circle cx="83.77" cy="264.15" r="3.34" style="fill:none;stroke:#5a8bba;stroke-linecap:round;stroke-linejoin:round;stroke-width:3px"/><circle cx="93.54" cy="221.67" r="3.34" style="fill:#5a8bba"/><circle cx="93.54" cy="221.67" r="3.34" style="fill:none;stroke:#5a8bba;stroke-linecap:round;stroke-linejoin:round;stroke-width:3px"/><circle cx="103.3" cy="334.94" r="3.34" style="fill:#5a8bba"/><circle cx="103.3" cy="334.94" r="3.34" style="fill:none;stroke:#5a8bba;stroke-linecap:round;stroke-linejoin:round;stroke-width:3px"/><circle cx="113.07" cy="198.08" r="3.34" style="fill:#5a8bba"/><circle cx="113.07" cy="198.08" r="3.34" style="fill:none;stroke:#5a8bba;stroke-linecap:round;stroke-linejoin:round;stroke-width:3px"/><circle cx="122.83" cy="353.82" r="3.34" style="fill:#5a8bba"/><circle cx="122.83" cy="353.82" r="3.34" style="fill:none;stroke:#5a8bba;stroke-linecap:round;stroke-linejoin:round;stroke-width:3px"/><circle cx="132.59" cy="245.27" r="3.34" style="fill:#5a8bba"/><circle cx="132.59" cy="245.27" r="3.34" style="fill:none;stroke:#5a8bba;stroke-linecap:round;stroke-linejoin:round;stroke-width:3px"/><circle cx="142.36" cy="254.71" r="3.34" style="fill:#5a8bba"/><circle cx="142.36" cy="254.71" r="3.34" style="fill:none;stroke:#5a8bba;stroke-linecap:round;stroke-linejoin:round;stroke-width:3px"/><circle cx="152.12" cy="372.69" r="3.34" style="fill:#5a8bba"/><circle cx="152.12" cy="372.69" r="3.34" style="fill:none;stroke:#5a8bba;stroke-linecap:round;stroke-linejoin:round;stroke-width:3px"/><circle cx="161.89" cy="283.03" r="3.34" style="fill:#5a8bba"/><circle cx="161.89" cy="283.03" r="3.34" style="fill:none;stroke:#5a8bba;stroke-linecap:round;stroke-linejoin:round;stroke-width:3px"/><circle cx="171.65" cy="358.54" r="3.34" style="fill:#5a8bba"/><circle cx="171.65" cy="358.54" r="3.34" style="fill:none;stroke:#5a8bba;stroke-linecap:round;stroke-linejoin:round;stroke-width:3px"/><circle cx="181.42" cy="283.03" r="3.34" style="fill:#5a8bba"/><circle cx="181.42" cy="283.03" r="3.34" style="fill:none;stroke:#5a8bba;stroke-linecap:round;stroke-linejoin:round;stroke-width:3px"/><circle cx="191.18" cy="292.46" r="3.34" style="fill:#5a8bba"/><circle cx="191.18" cy="292.46" r="3.34" style="fill:none;stroke:#5a8bba;stroke-linecap:round;stroke-linejoin:round;stroke-width:3px"/><circle cx="200.95" cy="287.75" r="3.34" style="fill:#5a8bba"/><circle cx="200.95" cy="287.75" r="3.34" style="fill:none;stroke:#5a8bba;stroke-linecap:round;stroke-linejoin:round;stroke-width:3px"/><circle cx="210.71" cy="358.54" r="3.34" style="fill:#5a8bba"/><circle cx="210.71" cy="358.54" r="3.34" style="fill:none;stroke:#5a8bba;stroke-linecap:round;stroke-linejoin:round;stroke-width:3px"/><circle cx="220.48" cy="320.78" r="3.34" style="fill:#5a8bba"/><circle cx="220.48" cy="320.78" r="3.34" style="fill:none;stroke:#5a8bba;stroke-linecap:round;stroke-linejoin:round;stroke-width:3px"/><circle cx="230.24" cy="344.38" r="3.34" style="fill:#5a8bba"/><circle cx="230.24" cy="344.38" r="3.34" style="fill:none;stroke:#5a8bba;stroke-linecap:round;stroke-linejoin:round;stroke-width:3px"/><circle cx="240.01" cy="297.18" r="3.34" style="fill:#5a8bba"/><circle cx="240.01" cy="297.18" r="3.34" style="fill:none;stroke:#5a8bba;stroke-linecap:round;stroke-linejoin:round;stroke-width:3px"/><circle cx="249.77" cy="132.01" r="3.34" style="fill:#5a8bba"/><circle cx="249.77" cy="132.01" r="3.34" style="fill:none;stroke:#5a8bba;stroke-linecap:round;stroke-linejoin:round;stroke-width:3px"/><circle cx="259.54" cy="240.55" r="3.34" style="fill:#5a8bba"/><circle cx="259.54" cy="240.55" r="3.34" style="fill:none;stroke:#5a8bba;stroke-linecap:round;stroke-linejoin:round;stroke-width:3px"/><circle cx="269.3" cy="372.69" r="3.34" style="fill:#5a8bba"/><circle cx="269.3" cy="372.69" r="3.34" style="fill:none;stroke:#5a8bba;stroke-linecap:round;stroke-linejoin:round;stroke-width:3px"/><circle cx="279.06" cy="316.06" r="3.34" style="fill:#5a8bba"/><circle cx="279.06" cy="316.06" r="3.34" style="fill:none;stroke:#5a8bba;stroke-linecap:round;stroke-linejoin:round;stroke-width:3px"/><circle cx="288.83" cy="249.99" r="3.34" style="fill:#5a8bba"/><circle cx="288.83" cy="249.99" r="3.34" style="fill:none;stroke:#5a8bba;stroke-linecap:round;stroke-linejoin:round;stroke-width:3px"/><circle cx="298.59" cy="292.46" r="3.34" style="fill:#5a8bba"/><circle cx="298.59" cy="292.46" r="3.34" style="fill:none;stroke:#5a8bba;stroke-linecap:round;stroke-linejoin:round;stroke-width:3px"/><circle cx="308.36" cy="367.97" r="3.34" style="fill:#5a8bba"/><circle cx="308.36" cy="367.97" r="3.34" style="fill:none;stroke:#5a8bba;stroke-linecap:round;stroke-linejoin:round;stroke-width:3px"/><circle cx="318.12" cy="358.54" r="3.34" style="fill:#5a8bba"/><circle cx="318.12" cy="358.54" r="3.34" style="fill:none;stroke:#5a8bba;stroke-linecap:round;stroke-linejoin:round;stroke-width:3px"/><circle cx="327.89" cy="278.31" r="3.34" style="fill:#5a8bba"/><circle cx="327.89" cy="278.31" r="3.34" style="fill:none;stroke:#5a8bba;stroke-linecap:round;stroke-linejoin:round;stroke-width:3px"/><circle cx="337.65" cy="353.82" r="3.34" style="fill:#5a8bba"/><circle cx="337.65" cy="353.82" r="3.34" style="fill:none;stroke:#5a8bba;stroke-linecap:round;stroke-linejoin:round;stroke-width:3px"/><circle cx="347.42" cy="278.31" r="3.34" style="fill:#5a8bba"/><circle cx="347.42" cy="278.31" r="3.34" style="fill:none;stroke:#5a8bba;stroke-linecap:round;stroke-linejoin:round;stroke-width:3px"/><circle cx="357.18" cy="339.66" r="3.34" style="fill:#5a8bba"/><circle cx="357.18" cy="339.66" r="3.34" style="fill:none;stroke:#5a8bba;stroke-linecap:round;stroke-linejoin:round;stroke-width:3px"/><circle cx="366.95" cy="320.78" r="3.34" style="fill:#5a8bba"/><circle cx="366.95" cy="320.78" r="3.34" style="fill:none;stroke:#5a8bba;stroke-linecap:round;stroke-linejoin:round;stroke-width:3px"/><circle cx="376.71" cy="372.69" r="3.34" style="fill:#5a8bba"/><circle cx="376.71" cy="372.69" r="3.34" style="fill:none;stroke:#5a8bba;stroke-linecap:round;stroke-linejoin:round;stroke-width:3px"/><circle cx="386.48" cy="268.87" r="3.34" style="fill:#5a8bba"/><circle cx="386.48" cy="268.87" r="3.34" style="fill:none;stroke:#5a8bba;stroke-linecap:round;stroke-linejoin:round;stroke-width:3px"/><line x1="398.25" y1="429.33" x2="398.25" y2="4.59" style="fill:none;stroke:#000;stroke-miterlimit:10"/><circle cx="407.24" cy="278.31" r="3.34" style="fill:#e84e0f"/><circle cx="407.24" cy="278.31" r="3.34" style="fill:none;stroke:#e84e0f;stroke-miterlimit:10;stroke-width:3px"/><circle cx="425.23" cy="179.2" r="3.34" style="fill:#e84e0f"/><circle cx="425.23" cy="179.2" r="3.34" style="fill:none;stroke:#e84e0f;stroke-miterlimit:10;stroke-width:3px"/><circle cx="443.21" cy="278.31" r="3.34" style="fill:#e84e0f"/><circle cx="443.21" cy="278.31" r="3.34" style="fill:none;stroke:#e84e0f;stroke-miterlimit:10;stroke-width:3px"/><circle cx="461.2" cy="84.81" r="3.34" style="fill:#e84e0f"/><circle cx="461.2" cy="84.81" r="3.34" style="fill:none;stroke:#e84e0f;stroke-miterlimit:10;stroke-width:3px"/><circle cx="479.19" cy="169.76" r="3.34" style="fill:#e84e0f"/><circle cx="479.19" cy="169.76" r="3.34" style="fill:none;stroke:#e84e0f;stroke-miterlimit:10;stroke-width:3px"/><circle cx="497.18" cy="132.01" r="3.34" style="fill:#e84e0f"/><circle cx="497.18" cy="132.01" r="3.34" style="fill:none;stroke:#e84e0f;stroke-miterlimit:10;stroke-width:3px"/><circle cx="515.16" cy="32.9" r="3.34" style="fill:#e84e0f"/><circle cx="515.16" cy="32.9" r="3.34" style="fill:none;stroke:#e84e0f;stroke-miterlimit:10;stroke-width:3px"/><circle cx="533.15" cy="193.36" r="3.34" style="fill:#e84e0f"/><circle cx="533.15" cy="193.36" r="3.34" style="fill:none;stroke:#e84e0f;stroke-miterlimit:10;stroke-width:3px"/><circle cx="551.14" cy="401.01" r="3.34" style="fill:#e84e0f"/><circle cx="551.14" cy="401.01" r="3.34" style="fill:none;stroke:#e84e0f;stroke-miterlimit:10;stroke-width:3px"/><circle cx="569.13" cy="268.87" r="3.34" style="fill:#e84e0f"/><circle cx="569.13" cy="268.87" r="3.34" style="fill:none;stroke:#e84e0f;stroke-miterlimit:10;stroke-width:3px"/><circle cx="587.11" cy="240.55" r="3.34" style="fill:#e84e0f"/><circle cx="587.11" cy="240.55" r="3.34" style="fill:none;stroke:#e84e0f;stroke-miterlimit:10;stroke-width:3px"/><circle cx="605.1" cy="165.04" r="3.34" style="fill:#e84e0f"/><circle cx="605.1" cy="165.04" r="3.34" style="fill:none;stroke:#e84e0f;stroke-miterlimit:10;stroke-width:3px"/><circle cx="623.09" cy="183.92" r="3.34" style="fill:#e84e0f"/><circle cx="623.09" cy="183.92" r="3.34" style="fill:none;stroke:#e84e0f;stroke-miterlimit:10;stroke-width:3px"/><circle cx="641.08" cy="235.83" r="3.34" style="fill:#e84e0f"/><circle cx="641.08" cy="235.83" r="3.34" style="fill:none;stroke:#e84e0f;stroke-miterlimit:10;stroke-width:3px"/><circle cx="659.06" cy="183.92" r="3.34" style="fill:#e84e0f"/><circle cx="659.06" cy="183.92" r="3.34" style="fill:none;stroke:#e84e0f;stroke-miterlimit:10;stroke-width:3px"/><circle cx="677.05" cy="320.78" r="3.34" style="fill:#e84e0f"/><circle cx="677.05" cy="320.78" r="3.34" style="fill:none;stroke:#e84e0f;stroke-miterlimit:10;stroke-width:3px"/><circle cx="695.04" cy="98.97" r="3.34" style="fill:#e84e0f"/><circle cx="695.04" cy="98.97" r="3.34" style="fill:none;stroke:#e84e0f;stroke-miterlimit:10;stroke-width:3px"/><circle cx="713.03" cy="273.59" r="3.34" style="fill:#e84e0f"/><circle cx="713.03" cy="273.59" r="3.34" style="fill:none;stroke:#e84e0f;stroke-miterlimit:10;stroke-width:3px"/><circle cx="695.12" cy="198.08" r="3.34" style="fill:#e84e0f"/><circle cx="695.12" cy="198.08" r="3.34" style="fill:none;stroke:#e84e0f;stroke-miterlimit:10;stroke-width:3px"/></svg>