<svg id="Layer_1" data-name="Layer 1" xmlns="http://www.w3.org/2000/svg" viewBox="0 0 783.97 503.06"><title>2021_10_27 GRAPHS MASTER_COPY_1_FIGURE_1</title><g style="isolation:isolate"><g style="isolation:isolate"><path d="M325.78,492.33h1.64l4.69,7.85a7.36,7.36,0,0,1,.54,1h0v-8.88h1.22v10.55h-1.65L327.59,495a7,7,0,0,1-.55-1h0v8.86h-1.23Z"/><path d="M337.81,500.08a2.59,2.59,0,0,0,.27,1.48,1.3,1.3,0,0,0,1.11.48c1.35,0,2-.9,2-2.5v-3.93h1.24v7.27h-1.18v-1.24h0a2.45,2.45,0,0,1-2.29,1.42,2.1,2.1,0,0,1-2.33-2.39v-5.06h1.22Z"/><path d="M345,495.61h1.18v1.23h0a2.49,2.49,0,0,1,2.33-1.41,2,2,0,0,1,2.19,1.5h0a2.51,2.51,0,0,1,2.37-1.5,2.08,2.08,0,0,1,2.3,2.39v5.06h-1.24v-4.5a2.59,2.59,0,0,0-.26-1.45,1.31,1.31,0,0,0-1.13-.46,1.83,1.83,0,0,0-2,2v4.36H349.6v-4.5a2.52,2.52,0,0,0-.26-1.43,1.29,1.29,0,0,0-1.13-.48,1.81,1.81,0,0,0-2,2v4.39H345Z"/></g><g style="isolation:isolate"><path d="M358,492h1.24v4.8h0a2.5,2.5,0,0,1,2.29-1.38c1.54,0,2.92.95,2.92,3.71s-1.35,3.92-3,3.92a2.52,2.52,0,0,1-2.28-1.34h0v1.16H358Zm5.22,7.13c0-1.54-.46-2.72-1.95-2.72a2.13,2.13,0,0,0-2.07,2.32v.77c0,1.44.71,2.57,2.09,2.57S363.19,501,363.19,499.14Z"/></g><g style="isolation:isolate"><path d="M369.18,503.06c-2.22,0-3.28-1.61-3.28-3.78s1.15-3.85,3.24-3.85,3,1.68,3,3.52v.63h-5c.09,1.51.69,2.53,2.06,2.53a1.5,1.5,0,0,0,1.65-1.13h1.2A2.71,2.71,0,0,1,369.18,503.06Zm1.72-4.54c0-1.21-.51-2.15-1.78-2.15s-1.79.91-1.94,2.23h3.72Z"/></g><g style="isolation:isolate"><path d="M374.06,495.61h1.18V497h0a2.63,2.63,0,0,1,2.31-1.51h.12v1.3h-.23a2,2,0,0,0-2.16,2.15v4h-1.24Z"/><path d="M382.56,499.24c0-2.25,1.25-3.81,3.27-3.81,2.17,0,3.25,1.56,3.25,3.81s-1.23,3.82-3.27,3.82S382.56,501.51,382.56,499.24Zm1.29,0c0,1.78.59,2.85,2,2.85s1.94-1.07,1.94-2.85-.58-2.86-2-2.86S383.85,497.47,383.85,499.24Z"/><path d="M392.57,502.88h-1.24v-6.32H390v-.95h1.33V494c0-1.49.85-2,2.2-2a4.61,4.61,0,0,1,.78.07v1a3.28,3.28,0,0,0-.68-.06c-.72,0-1.06.27-1.06,1.13v1.48h1.74v.95h-1.74Z"/></g><g style="isolation:isolate"><path d="M399.47,497.6c0-1.29,1-2.17,2.74-2.17s2.69.76,2.69,2.7v3c0,.58.13.81.66.83v1h-.15c-1.16,0-1.54-.41-1.67-1.28h0a2.43,2.43,0,0,1-2.34,1.35,2,2,0,0,1-2.3-2.08,1.93,1.93,0,0,1,1.09-1.83,8.68,8.68,0,0,1,3.52-.6v-.31c0-1.31-.5-1.82-1.52-1.82a1.33,1.33,0,0,0-1.52,1.24Zm4.22,2v-.16a6,6,0,0,0-2.94.54,1,1,0,0,0-.4.89c0,.75.48,1.15,1.27,1.15A2.12,2.12,0,0,0,403.69,499.58Z"/></g><g style="isolation:isolate"><path d="M411,497.43c-.07-.65-.59-1.06-1.45-1.06a1.26,1.26,0,0,0-1.42,1.17c0,.59.36.87,1.09,1l1.12.16c1.51.23,2.07.86,2.07,2.11,0,1.46-1.19,2.25-2.85,2.25-1.5,0-2.74-.68-2.84-2.24H408c0,.57.37,1.29,1.65,1.29,1,0,1.62-.47,1.62-1.23,0-.58-.16-.9-1.15-1.06l-1.12-.17c-1.29-.2-2-.74-2-2s1-2.21,2.63-2.21,2.47.73,2.6,2Z"/></g><g style="isolation:isolate"><path d="M418,497.43c-.07-.65-.59-1.06-1.45-1.06a1.26,1.26,0,0,0-1.42,1.17c0,.59.36.87,1.09,1l1.12.16c1.51.23,2.07.86,2.07,2.11,0,1.46-1.19,2.25-2.85,2.25-1.5,0-2.74-.68-2.84-2.24h1.22c.05.57.37,1.29,1.65,1.29,1,0,1.62-.47,1.62-1.23,0-.58-.15-.9-1.15-1.06l-1.12-.17c-1.29-.2-2-.74-2-2s1-2.21,2.63-2.21,2.47.73,2.6,2Z"/></g><g style="isolation:isolate"><path d="M424,503.06c-2.22,0-3.29-1.61-3.29-3.78s1.16-3.85,3.25-3.85,3,1.68,3,3.52v.63h-5c.09,1.51.69,2.53,2.06,2.53a1.5,1.5,0,0,0,1.65-1.13h1.2A2.71,2.71,0,0,1,424,503.06Zm1.72-4.54c0-1.21-.51-2.15-1.78-2.15s-1.79.91-1.94,2.23h3.72Z"/><path d="M432.58,497.43c-.07-.65-.59-1.06-1.45-1.06a1.26,1.26,0,0,0-1.42,1.17c0,.59.36.87,1.09,1l1.12.16c1.51.23,2.07.86,2.07,2.11,0,1.46-1.19,2.25-2.85,2.25-1.5,0-2.74-.68-2.84-2.24h1.22c.05.57.37,1.29,1.65,1.29,1,0,1.62-.47,1.62-1.23,0-.58-.16-.9-1.15-1.06l-1.12-.17c-1.29-.2-2-.74-2-2s1-2.21,2.63-2.21,2.47.73,2.6,2Z"/><path d="M439.52,497.43c-.07-.65-.59-1.06-1.45-1.06a1.26,1.26,0,0,0-1.42,1.17c0,.59.36.87,1.09,1l1.12.16c1.52.23,2.07.86,2.07,2.11,0,1.46-1.19,2.25-2.84,2.25s-2.75-.68-2.84-2.24h1.21c.05.57.37,1.29,1.65,1.29,1,0,1.62-.47,1.62-1.23,0-.58-.15-.9-1.15-1.06l-1.11-.17c-1.3-.2-2-.74-2-2s1-2.21,2.63-2.21,2.47.73,2.6,2Z"/><path d="M442.88,495.61h1.17v1.23h0a2.49,2.49,0,0,1,2.33-1.41,2,2,0,0,1,2.19,1.5h0a2.51,2.51,0,0,1,2.37-1.5,2.08,2.08,0,0,1,2.3,2.39v5.06h-1.24v-4.5a2.59,2.59,0,0,0-.26-1.45,1.31,1.31,0,0,0-1.13-.46,1.83,1.83,0,0,0-2,2v4.36h-1.24v-4.5a2.52,2.52,0,0,0-.26-1.43,1.29,1.29,0,0,0-1.13-.48,1.81,1.81,0,0,0-2,2v4.39h-1.24Z"/></g><g style="isolation:isolate"><path d="M458.48,503.06c-2.22,0-3.28-1.61-3.28-3.78s1.15-3.85,3.24-3.85,3,1.68,3,3.52v.63h-5c.09,1.51.69,2.53,2.06,2.53a1.5,1.5,0,0,0,1.65-1.13h1.21A2.73,2.73,0,0,1,458.48,503.06Zm1.72-4.54c0-1.21-.51-2.15-1.78-2.15s-1.79.91-1.94,2.23h3.72Z"/></g><g style="isolation:isolate"><path d="M468,498.4a2.54,2.54,0,0,0-.26-1.45,1.31,1.31,0,0,0-1.14-.48,1.84,1.84,0,0,0-2,2v4.36h-1.24v-7.27h1.18v1.23h0a2.55,2.55,0,0,1,2.35-1.41,2.09,2.09,0,0,1,2.32,2.39v5.06H468Z"/></g><g style="isolation:isolate"><path d="M473.28,493.5v2.11h1.8v.95h-1.8v4.29c0,.77.32,1.08,1.11,1.08a5.88,5.88,0,0,0,.8-.07v1.05A8.26,8.26,0,0,1,474,503c-1.42,0-2-.69-2-1.93v-4.5h-1.33v-.91H471c1,0,1.2-.23,1.2-1.63v-.52Z"/></g><g style="isolation:isolate"><path d="M480.42,497.43c-.07-.65-.59-1.06-1.45-1.06a1.26,1.26,0,0,0-1.42,1.17c0,.59.36.87,1.09,1l1.12.16c1.52.23,2.07.86,2.07,2.11,0,1.46-1.19,2.25-2.84,2.25s-2.75-.68-2.85-2.24h1.22c.05.57.37,1.29,1.65,1.29,1,0,1.62-.47,1.62-1.23,0-.58-.15-.9-1.15-1.06l-1.12-.17c-1.29-.2-2-.74-2-2s1-2.21,2.63-2.21,2.47.73,2.6,2Z"/></g></g><line x1="48.67" y1="461.78" x2="291.84" y2="462.07" style="fill:none;stroke:#000;stroke-miterlimit:10"/><line x1="48.67" y1="461.78" x2="48.67" y2="450.25" style="fill:none;stroke:#000;stroke-miterlimit:10"/><g style="isolation:isolate"><path d="M41.16,457.77c1.81,0,3,1.34,3,4.09s-1.16,4.08-3,4.08-3-1.35-3-4.08S39.37,457.77,41.16,457.77Zm1.9,4.11c0-2.19-.72-3.31-1.9-3.31s-1.88,1.06-1.88,3.31.69,3.27,1.88,3.27S43.06,464,43.06,461.88Z"/></g><g style="isolation:isolate"><path d="M35,430.2H33.32v-.68h.25a1.74,1.74,0,0,0,1.22-.38,1.42,1.42,0,0,0,.37-1H36V436H35Z"/><path d="M41.14,428c1.81,0,3,1.34,3,4.09s-1.16,4.08-3,4.08-3-1.35-3-4.08S39.36,428,41.14,428Zm1.9,4.11c0-2.19-.71-3.31-1.9-3.31s-1.87,1.06-1.87,3.31.69,3.27,1.87,3.27S43,434.25,43,432.12Z"/></g><g style="isolation:isolate"><path d="M31.35,400.78A2.47,2.47,0,0,1,34,398.25c1.81,0,2.56,1.09,2.56,2.15s-.47,1.7-1.83,3l-2.25,2h4.13v.85H31.14v-.73L34,402.84c.92-.92,1.54-1.49,1.54-2.39a1.37,1.37,0,0,0-1.5-1.4,1.53,1.53,0,0,0-1.62,1.73Z"/><path d="M41.14,398.25c1.81,0,3,1.34,3,4.09s-1.16,4.08-3,4.08-3-1.35-3-4.08S39.35,398.25,41.14,398.25Zm1.9,4.11c0-2.19-.72-3.31-1.9-3.31s-1.88,1.06-1.88,3.31.69,3.27,1.88,3.27S43,404.5,43,402.36Z"/></g><g style="isolation:isolate"><g style="isolation:isolate"><path d="M33.58,372.93V372H34a1.41,1.41,0,0,0,1.49-1.38A1.37,1.37,0,0,0,34,369.3a1.48,1.48,0,0,0-1.68,1.56h-1A2.39,2.39,0,0,1,34,368.49c1.57,0,2.52.91,2.52,2.12a2,2,0,0,1-1.37,1.79v0a2,2,0,0,1,1.61,2c0,1.21-1,2.25-2.82,2.25a2.46,2.46,0,0,1-2.77-2.37h1A1.72,1.72,0,0,0,34,375.84a1.54,1.54,0,0,0,1.72-1.44c0-.94-.64-1.47-1.72-1.47Z"/></g><g style="isolation:isolate"><path d="M41.14,368.49c1.81,0,3,1.34,3,4.09s-1.16,4.08-3,4.08-3-1.35-3-4.08S39.35,368.49,41.14,368.49ZM43,372.6c0-2.19-.72-3.31-1.9-3.31s-1.88,1.06-1.88,3.31.7,3.27,1.88,3.27S43,374.74,43,372.6Z"/></g></g><g style="isolation:isolate"><path d="M35.73,344.82v1.91h-1v-1.91H30.89v-.77l3.75-5.2h1.09V344h1.09v.83Zm-1-.82v-4h0a6.86,6.86,0,0,1-.5.82L31.94,344Z"/><path d="M41.14,338.73c1.81,0,3,1.34,3,4.09s-1.16,4.08-3,4.08-3-1.35-3-4.08S39.35,338.73,41.14,338.73Zm1.9,4.11c0-2.19-.72-3.31-1.9-3.31s-1.88,1.06-1.88,3.31.7,3.27,1.88,3.27S43,345,43,342.84Z"/></g><g style="isolation:isolate"><path d="M33.85,312.6a1.74,1.74,0,0,0-1.53.69h-.87l.36-4.2h4.4v.83H32.66l-.21,2.51h0a2.14,2.14,0,0,1,1.61-.65,2.44,2.44,0,0,1,2.56,2.65,2.59,2.59,0,0,1-2.84,2.7,2.35,2.35,0,0,1-2.64-2.21h1c.07,1,.71,1.4,1.67,1.4a1.71,1.71,0,0,0,1.74-1.87A1.69,1.69,0,0,0,33.85,312.6Z"/><path d="M41.14,309c1.81,0,3,1.34,3,4.09s-1.16,4.08-3,4.08-3-1.35-3-4.08S39.35,309,41.14,309Zm1.9,4.11c0-2.19-.72-3.31-1.9-3.31s-1.88,1.06-1.88,3.31.69,3.27,1.88,3.27S43,315.21,43,313.08Z"/></g><g style="isolation:isolate"><path d="M35.51,281A1.3,1.3,0,0,0,34.07,280c-1.48,0-2,1.46-2,3.28h0a2.36,2.36,0,0,1,2.09-1.09,2.38,2.38,0,0,1,2.53,2.52,2.62,2.62,0,0,1-2.8,2.7c-1.5,0-2.88-.69-2.88-3.65s1-4.51,3.05-4.51c1.48,0,2.28.67,2.4,1.82Zm.14,3.72A1.65,1.65,0,0,0,33.91,283a1.61,1.61,0,0,0-1.74,1.78,1.74,1.74,0,1,0,3.48,0Z"/><path d="M41.14,279.21c1.81,0,3,1.34,3,4.09s-1.16,4.08-3,4.08-3-1.35-3-4.08S39.35,279.21,41.14,279.21Zm1.9,4.11c0-2.19-.72-3.31-1.9-3.31s-1.88,1.06-1.88,3.31.7,3.27,1.88,3.27S43,285.46,43,283.32Z"/></g><g style="isolation:isolate"><g style="isolation:isolate"><path d="M35.94,250.43H31.85v-.86h5.27v.63l-3.46,7.25H32.59Z"/></g><g style="isolation:isolate"><path d="M41.14,249.45c1.81,0,3,1.34,3,4.09s-1.16,4.08-3,4.08-3-1.35-3-4.08S39.35,249.45,41.14,249.45Zm1.9,4.11c0-2.19-.71-3.31-1.9-3.31s-1.87,1.06-1.87,3.31.69,3.27,1.87,3.27S43,255.7,43,253.56Z"/></g></g><g style="isolation:isolate"><path d="M33.9,219.69c1.6,0,2.63,1,2.63,2.15a1.91,1.91,0,0,1-1.35,1.83v0a1.92,1.92,0,0,1,1.58,1.92c0,1.26-1.11,2.25-2.86,2.25s-2.85-1-2.85-2.25a1.94,1.94,0,0,1,1.58-1.92v0a1.91,1.91,0,0,1-1.34-1.83A2.33,2.33,0,0,1,33.9,219.69Zm1.84,5.91c0-1-.85-1.52-1.84-1.52s-1.81.47-1.81,1.52.86,1.49,1.81,1.49S35.74,226.64,35.74,225.6Zm-3.41-3.71a1.58,1.58,0,1,0,1.57-1.43A1.41,1.41,0,0,0,32.33,221.89Z"/><path d="M41.14,219.69c1.81,0,3,1.34,3,4.09s-1.16,4.08-3,4.08-3-1.35-3-4.08S39.36,219.69,41.14,219.69ZM43,223.8c0-2.19-.71-3.31-1.9-3.31s-1.87,1.06-1.87,3.31.69,3.27,1.87,3.27S43,225.94,43,223.8Z"/></g><g style="isolation:isolate"><g style="isolation:isolate"><path d="M32.08,196.15a1.48,1.48,0,0,0,1.52,1.17c1.31,0,1.94-1,1.94-3.3h0a2.29,2.29,0,0,1-2,1,2.43,2.43,0,0,1-2.53-2.46,2.64,2.64,0,0,1,2.79-2.64c1.78,0,2.88,1,2.88,3.67,0,3.3-1.05,4.49-3,4.49a2.25,2.25,0,0,1-2.49-1.94Zm-.1-3.67a1.62,1.62,0,0,0,1.71,1.74,1.66,1.66,0,0,0,1.77-1.74,1.69,1.69,0,0,0-1.77-1.74A1.64,1.64,0,0,0,32,192.48Z"/></g><g style="isolation:isolate"><path d="M41.14,189.93c1.81,0,3,1.34,3,4.09s-1.16,4.08-3,4.08-3-1.35-3-4.08S39.35,189.93,41.14,189.93ZM43,194c0-2.19-.72-3.31-1.9-3.31s-1.88,1.06-1.88,3.31.7,3.27,1.88,3.27S43,196.17,43,194Z"/></g></g><g style="isolation:isolate"><g style="isolation:isolate"><path d="M27.42,162.36H25.76v-.68H26a1.74,1.74,0,0,0,1.22-.38,1.42,1.42,0,0,0,.37-1h.83v7.91h-1Z"/></g><g style="isolation:isolate"><path d="M33.58,160.17c1.81,0,3,1.34,3,4.09s-1.16,4.08-3,4.08-3-1.35-3-4.08S31.79,160.17,33.58,160.17Zm1.9,4.11c0-2.19-.71-3.31-1.9-3.31s-1.87,1.06-1.87,3.31.69,3.27,1.87,3.27S35.48,166.41,35.48,164.28Z"/></g><g style="isolation:isolate"><path d="M41.12,160.17c1.81,0,3,1.34,3,4.09s-1.16,4.08-3,4.08-3-1.35-3-4.08S39.33,160.17,41.12,160.17Zm1.9,4.11c0-2.19-.72-3.31-1.9-3.31s-1.87,1.06-1.87,3.31.69,3.27,1.87,3.27S43,166.41,43,164.28Z"/></g></g><g style="isolation:isolate"><path d="M30.25,132.6H28.59v-.68h.25a1.74,1.74,0,0,0,1.22-.38,1.42,1.42,0,0,0,.37-1h.83v7.91h-1Z"/><path d="M35,132.6H33.32v-.68h.25a1.72,1.72,0,0,0,1.21-.38,1.34,1.34,0,0,0,.37-1H36v7.91H35Z"/><path d="M41.14,130.41c1.81,0,3,1.34,3,4.09s-1.16,4.08-3,4.08-3-1.35-3-4.08S39.35,130.41,41.14,130.41Zm1.9,4.11c0-2.19-.72-3.31-1.9-3.31s-1.88,1.06-1.88,3.31.7,3.27,1.88,3.27S43,136.66,43,134.52Z"/></g><g style="isolation:isolate"><path d="M28.11,102.84H26.45v-.68h.25a1.74,1.74,0,0,0,1.22-.38,1.42,1.42,0,0,0,.37-1h.83v7.91h-1Z"/><path d="M31.35,103.18A2.47,2.47,0,0,1,34,100.65c1.81,0,2.55,1.09,2.55,2.15s-.47,1.7-1.83,3l-2.24,2h4.13v.85h-5.5v-.73L34,105.24c.93-.92,1.54-1.49,1.54-2.39a1.37,1.37,0,0,0-1.49-1.4,1.53,1.53,0,0,0-1.62,1.73Z"/><path d="M41.13,100.65c1.81,0,3,1.34,3,4.09s-1.16,4.08-3,4.08-3-1.35-3-4.08S39.34,100.65,41.13,100.65Zm1.9,4.11c0-2.19-.71-3.31-1.9-3.31s-1.87,1.06-1.87,3.31S40,108,41.13,108,43,106.9,43,104.76Z"/></g><g style="isolation:isolate"><g style="isolation:isolate"><path d="M28.07,73.08H26.41V72.4h.25A1.74,1.74,0,0,0,27.88,72a1.42,1.42,0,0,0,.37-1h.83v7.91h-1Z"/><path d="M33.57,75.33v-.89H34a1.41,1.41,0,0,0,1.49-1.38A1.37,1.37,0,0,0,34,71.7a1.48,1.48,0,0,0-1.68,1.56h-1A2.4,2.4,0,0,1,34,70.89c1.57,0,2.52.91,2.52,2.12a2,2,0,0,1-1.37,1.78v0a2,2,0,0,1,1.6,2c0,1.22-1,2.26-2.81,2.26a2.46,2.46,0,0,1-2.77-2.37h1A1.72,1.72,0,0,0,34,78.24a1.54,1.54,0,0,0,1.72-1.45c0-.93-.64-1.46-1.72-1.46Z"/></g><g style="isolation:isolate"><path d="M41.13,70.89c1.81,0,3,1.34,3,4.09s-1.16,4.08-3,4.08-3-1.35-3-4.08S39.34,70.89,41.13,70.89ZM43,75c0-2.19-.72-3.31-1.9-3.31S39.25,72.75,39.25,75s.7,3.27,1.88,3.27S43,77.13,43,75Z"/></g></g><g style="isolation:isolate"><g style="isolation:isolate"><path d="M28,43.32H26.37v-.68h.25a1.74,1.74,0,0,0,1.22-.38,1.42,1.42,0,0,0,.37-1H29v7.91H28Z"/></g><g style="isolation:isolate"><path d="M35.73,47.22v1.91h-1V47.22H30.88v-.77l3.75-5.2h1.1v5.14h1.08v.83Zm-1-.82v-4h0a5.5,5.5,0,0,1-.5.82l-2.3,3.19Z"/><path d="M41.13,41.13c1.81,0,3,1.34,3,4.09s-1.17,4.08-3,4.08-3-1.35-3-4.08S39.35,41.13,41.13,41.13ZM43,45.24c0-2.19-.71-3.31-1.9-3.31S39.26,43,39.26,45.24s.69,3.27,1.87,3.27S43,47.37,43,45.24Z"/></g></g><g style="isolation:isolate"><path d="M28,13.56H26.36v-.68h.25a1.74,1.74,0,0,0,1.22-.38,1.42,1.42,0,0,0,.37-1H29v7.91H28Z"/><path d="M33.85,15a1.74,1.74,0,0,0-1.53.69h-.87l.35-4.2h4.4v.83H32.65l-.21,2.51h0a2.14,2.14,0,0,1,1.61-.65,2.44,2.44,0,0,1,2.57,2.65,2.59,2.59,0,0,1-2.85,2.7,2.34,2.34,0,0,1-2.63-2.21h1c.08,1,.72,1.4,1.68,1.4a1.71,1.71,0,0,0,1.74-1.87A1.69,1.69,0,0,0,33.85,15Z"/><path d="M41.13,11.37c1.81,0,3,1.34,3,4.09s-1.16,4.08-3,4.08-3-1.35-3-4.08S39.34,11.37,41.13,11.37ZM43,15.48c0-2.19-.71-3.31-1.9-3.31s-1.87,1.06-1.87,3.31.69,3.27,1.87,3.27S43,17.62,43,15.48Z"/></g><line x1="48.67" y1="461.78" x2="48.67" y2="0.5" style="fill:none;stroke:#000;stroke-miterlimit:10"/><line x1="48.67" y1="461.78" x2="54.64" y2="461.78" style="fill:none;stroke:#000;stroke-miterlimit:10"/><line x1="48.67" y1="446.9" x2="54.64" y2="446.9" style="fill:none;stroke:#000;stroke-miterlimit:10"/><line x1="48.67" y1="432.02" x2="54.64" y2="432.02" style="fill:none;stroke:#000;stroke-miterlimit:10"/><line x1="48.67" y1="417.14" x2="54.64" y2="417.14" style="fill:none;stroke:#000;stroke-miterlimit:10"/><line x1="48.67" y1="402.26" x2="54.64" y2="402.26" style="fill:none;stroke:#000;stroke-miterlimit:10"/><line x1="48.67" y1="387.38" x2="54.64" y2="387.38" style="fill:none;stroke:#000;stroke-miterlimit:10"/><line x1="48.67" y1="372.5" x2="54.64" y2="372.5" style="fill:none;stroke:#000;stroke-miterlimit:10"/><line x1="48.67" y1="357.62" x2="54.64" y2="357.62" style="fill:none;stroke:#000;stroke-miterlimit:10"/><line x1="48.67" y1="342.74" x2="54.64" y2="342.74" style="fill:none;stroke:#000;stroke-miterlimit:10"/><line x1="48.67" y1="327.86" x2="54.64" y2="327.86" style="fill:none;stroke:#000;stroke-miterlimit:10"/><line x1="48.67" y1="312.98" x2="54.64" y2="312.98" style="fill:none;stroke:#000;stroke-miterlimit:10"/><line x1="48.67" y1="298.1" x2="54.64" y2="298.1" style="fill:none;stroke:#000;stroke-miterlimit:10"/><line x1="48.67" y1="283.22" x2="54.64" y2="283.22" style="fill:none;stroke:#000;stroke-miterlimit:10"/><line x1="48.67" y1="268.34" x2="54.64" y2="268.34" style="fill:none;stroke:#000;stroke-miterlimit:10"/><line x1="48.67" y1="253.46" x2="54.64" y2="253.46" style="fill:none;stroke:#000;stroke-miterlimit:10"/><line x1="48.67" y1="238.58" x2="54.64" y2="238.58" style="fill:none;stroke:#000;stroke-miterlimit:10"/><line x1="48.67" y1="223.7" x2="54.64" y2="223.7" style="fill:none;stroke:#000;stroke-miterlimit:10"/><line x1="48.67" y1="208.82" x2="54.64" y2="208.82" style="fill:none;stroke:#000;stroke-miterlimit:10"/><line x1="48.67" y1="193.94" x2="54.64" y2="193.94" style="fill:none;stroke:#000;stroke-miterlimit:10"/><line x1="48.67" y1="179.06" x2="54.64" y2="179.06" style="fill:none;stroke:#000;stroke-miterlimit:10"/><line x1="48.67" y1="164.18" x2="54.64" y2="164.18" style="fill:none;stroke:#000;stroke-miterlimit:10"/><line x1="48.67" y1="149.3" x2="54.64" y2="149.3" style="fill:none;stroke:#000;stroke-miterlimit:10"/><line x1="48.67" y1="134.42" x2="54.64" y2="134.42" style="fill:none;stroke:#000;stroke-miterlimit:10"/><line x1="48.67" y1="119.54" x2="54.64" y2="119.54" style="fill:none;stroke:#000;stroke-miterlimit:10"/><line x1="48.67" y1="104.66" x2="54.64" y2="104.66" style="fill:none;stroke:#000;stroke-miterlimit:10"/><line x1="48.67" y1="89.78" x2="54.64" y2="89.78" style="fill:none;stroke:#000;stroke-miterlimit:10"/><line x1="48.67" y1="74.9" x2="54.64" y2="74.9" style="fill:none;stroke:#000;stroke-miterlimit:10"/><line x1="48.67" y1="60.02" x2="54.64" y2="60.02" style="fill:none;stroke:#000;stroke-miterlimit:10"/><line x1="48.67" y1="45.14" x2="54.64" y2="45.14" style="fill:none;stroke:#000;stroke-miterlimit:10"/><line x1="48.67" y1="30.26" x2="54.64" y2="30.26" style="fill:none;stroke:#000;stroke-miterlimit:10"/><line x1="48.67" y1="15.38" x2="54.64" y2="15.38" style="fill:none;stroke:#000;stroke-miterlimit:10"/><line x1="48.67" y1="0.5" x2="54.64" y2="0.5" style="fill:none;stroke:#000;stroke-miterlimit:10"/><ellipse cx="50.52" cy="312.98" rx="3" ry="2.85" style="fill:#5a8bba"/><ellipse cx="50.52" cy="312.98" rx="3" ry="2.85" style="fill:none;stroke:#5a8bba;stroke-miterlimit:10;stroke-width:0.5px"/><ellipse cx="52.37" cy="381.43" rx="3" ry="2.85" style="fill:#5a8bba"/><ellipse cx="52.37" cy="381.43" rx="3" ry="2.85" style="fill:none;stroke:#5a8bba;stroke-miterlimit:10;stroke-width:0.5px"/><ellipse cx="54.22" cy="348.7" rx="3" ry="2.85" style="fill:#5a8bba"/><ellipse cx="54.22" cy="348.7" rx="3" ry="2.85" style="fill:none;stroke:#5a8bba;stroke-miterlimit:10;stroke-width:0.5px"/><ellipse cx="56.08" cy="402.26" rx="3" ry="2.85" style="fill:#5a8bba"/><ellipse cx="56.08" cy="402.26" rx="3" ry="2.85" style="fill:none;stroke:#5a8bba;stroke-miterlimit:10;stroke-width:0.5px"/><ellipse cx="57.93" cy="387.38" rx="3" ry="2.85" style="fill:#5a8bba"/><ellipse cx="57.93" cy="387.38" rx="3" ry="2.85" style="fill:none;stroke:#5a8bba;stroke-miterlimit:10;stroke-width:0.5px"/><ellipse cx="59.78" cy="339.77" rx="3" ry="2.85" style="fill:#5a8bba"/><ellipse cx="59.78" cy="339.77" rx="3" ry="2.85" style="fill:none;stroke:#5a8bba;stroke-miterlimit:10;stroke-width:0.5px"/><ellipse cx="61.63" cy="304.05" rx="3" ry="2.85" style="fill:#5a8bba"/><ellipse cx="61.63" cy="304.05" rx="3" ry="2.85" style="fill:none;stroke:#5a8bba;stroke-miterlimit:10;stroke-width:0.5px"/><ellipse cx="63.49" cy="339.77" rx="3" ry="2.85" style="fill:#5a8bba"/><ellipse cx="63.49" cy="339.77" rx="3" ry="2.85" style="fill:none;stroke:#5a8bba;stroke-miterlimit:10;stroke-width:0.5px"/><ellipse cx="65.34" cy="411.19" rx="3" ry="2.85" style="fill:#5a8bba"/><ellipse cx="65.34" cy="411.19" rx="3" ry="2.85" style="fill:none;stroke:#5a8bba;stroke-miterlimit:10;stroke-width:0.5px"/><ellipse cx="67.19" cy="375.48" rx="3" ry="2.85" style="fill:#5a8bba"/><ellipse cx="67.19" cy="375.48" rx="3" ry="2.85" style="fill:none;stroke:#5a8bba;stroke-miterlimit:10;stroke-width:0.5px"/><ellipse cx="69.04" cy="432.02" rx="3" ry="2.85" style="fill:#5a8bba"/><ellipse cx="69.04" cy="432.02" rx="3" ry="2.85" style="fill:none;stroke:#5a8bba;stroke-miterlimit:10;stroke-width:0.5px"/><ellipse cx="70.9" cy="381.43" rx="3" ry="2.85" style="fill:#5a8bba"/><ellipse cx="70.9" cy="381.43" rx="3" ry="2.85" style="fill:none;stroke:#5a8bba;stroke-miterlimit:10;stroke-width:0.5px"/><ellipse cx="72.75" cy="440.95" rx="3" ry="2.85" style="fill:#5a8bba"/><ellipse cx="72.75" cy="440.95" rx="3" ry="2.85" style="fill:none;stroke:#5a8bba;stroke-miterlimit:10;stroke-width:0.5px"/><ellipse cx="74.6" cy="396.31" rx="3" ry="2.85" style="fill:#5a8bba"/><ellipse cx="74.6" cy="396.31" rx="3" ry="2.85" style="fill:none;stroke:#5a8bba;stroke-miterlimit:10;stroke-width:0.5px"/><ellipse cx="76.45" cy="426.07" rx="3" ry="2.85" style="fill:#5a8bba"/><ellipse cx="76.45" cy="426.07" rx="3" ry="2.85" style="fill:none;stroke:#5a8bba;stroke-miterlimit:10;stroke-width:0.5px"/><ellipse cx="78.3" cy="446.9" rx="3" ry="2.85" style="fill:#5a8bba"/><ellipse cx="78.3" cy="446.9" rx="3" ry="2.85" style="fill:none;stroke:#5a8bba;stroke-miterlimit:10;stroke-width:0.5px"/><ellipse cx="80.16" cy="351.67" rx="3" ry="2.85" style="fill:#5a8bba"/><ellipse cx="80.16" cy="351.67" rx="3" ry="2.85" style="fill:none;stroke:#5a8bba;stroke-miterlimit:10;stroke-width:0.5px"/><ellipse cx="82.01" cy="351.67" rx="3" ry="2.85" style="fill:#5a8bba"/><ellipse cx="82.01" cy="351.67" rx="3" ry="2.85" style="fill:none;stroke:#5a8bba;stroke-miterlimit:10;stroke-width:0.5px"/><ellipse cx="83.86" cy="420.12" rx="3" ry="2.85" style="fill:#5a8bba"/><ellipse cx="83.86" cy="420.12" rx="3" ry="2.85" style="fill:none;stroke:#5a8bba;stroke-miterlimit:10;stroke-width:0.5px"/><ellipse cx="85.71" cy="375.48" rx="3" ry="2.85" style="fill:#5a8bba"/><ellipse cx="85.71" cy="375.48" rx="3" ry="2.85" style="fill:none;stroke:#5a8bba;stroke-miterlimit:10;stroke-width:0.5px"/><ellipse cx="87.57" cy="295.13" rx="3" ry="2.85" style="fill:#5a8bba"/><ellipse cx="87.57" cy="295.13" rx="3" ry="2.85" style="fill:none;stroke:#5a8bba;stroke-miterlimit:10;stroke-width:0.5px"/><ellipse cx="89.42" cy="354.65" rx="3" ry="2.85" style="fill:#5a8bba"/><ellipse cx="89.42" cy="354.65" rx="3" ry="2.85" style="fill:none;stroke:#5a8bba;stroke-miterlimit:10;stroke-width:0.5px"/><ellipse cx="91.27" cy="381.43" rx="3" ry="2.85" style="fill:#5a8bba"/><ellipse cx="91.27" cy="381.43" rx="3" ry="2.85" style="fill:none;stroke:#5a8bba;stroke-miterlimit:10;stroke-width:0.5px"/><ellipse cx="93.12" cy="399.29" rx="3" ry="2.85" style="fill:#5a8bba"/><ellipse cx="93.12" cy="399.29" rx="3" ry="2.85" style="fill:none;stroke:#5a8bba;stroke-miterlimit:10;stroke-width:0.5px"/><ellipse cx="94.98" cy="366.55" rx="3" ry="2.85" style="fill:#5a8bba"/><ellipse cx="94.98" cy="366.55" rx="3" ry="2.85" style="fill:none;stroke:#5a8bba;stroke-miterlimit:10;stroke-width:0.5px"/><ellipse cx="96.83" cy="360.6" rx="3" ry="2.85" style="fill:#5a8bba"/><ellipse cx="96.83" cy="360.6" rx="3" ry="2.85" style="fill:none;stroke:#5a8bba;stroke-miterlimit:10;stroke-width:0.5px"/><ellipse cx="98.68" cy="414.17" rx="3" ry="2.85" style="fill:#5a8bba"/><ellipse cx="98.68" cy="414.17" rx="3" ry="2.85" style="fill:none;stroke:#5a8bba;stroke-miterlimit:10;stroke-width:0.5px"/><ellipse cx="100.53" cy="399.29" rx="3" ry="2.85" style="fill:#5a8bba"/><ellipse cx="100.53" cy="399.29" rx="3" ry="2.85" style="fill:none;stroke:#5a8bba;stroke-miterlimit:10;stroke-width:0.5px"/><ellipse cx="102.38" cy="357.62" rx="3" ry="2.85" style="fill:#5a8bba"/><ellipse cx="102.38" cy="357.62" rx="3" ry="2.85" style="fill:none;stroke:#5a8bba;stroke-miterlimit:10;stroke-width:0.5px"/><ellipse cx="104.24" cy="378.46" rx="3" ry="2.85" style="fill:#5a8bba"/><ellipse cx="104.24" cy="378.46" rx="3" ry="2.85" style="fill:none;stroke:#5a8bba;stroke-miterlimit:10;stroke-width:0.5px"/><ellipse cx="106.09" cy="384.41" rx="3" ry="2.85" style="fill:#5a8bba"/><ellipse cx="106.09" cy="384.41" rx="3" ry="2.85" style="fill:none;stroke:#5a8bba;stroke-miterlimit:10;stroke-width:0.5px"/><ellipse cx="107.94" cy="437.98" rx="3" ry="2.85" style="fill:#5a8bba"/><ellipse cx="107.94" cy="437.98" rx="3" ry="2.85" style="fill:none;stroke:#5a8bba;stroke-miterlimit:10;stroke-width:0.5px"/><ellipse cx="109.79" cy="393.34" rx="3" ry="2.85" style="fill:#5a8bba"/><ellipse cx="109.79" cy="393.34" rx="3" ry="2.85" style="fill:none;stroke:#5a8bba;stroke-miterlimit:10;stroke-width:0.5px"/><ellipse cx="111.65" cy="432.02" rx="3" ry="2.85" style="fill:#5a8bba"/><ellipse cx="111.65" cy="432.02" rx="3" ry="2.85" style="fill:none;stroke:#5a8bba;stroke-miterlimit:10;stroke-width:0.5px"/><ellipse cx="113.5" cy="423.1" rx="3" ry="2.85" style="fill:#5a8bba"/><ellipse cx="113.5" cy="423.1" rx="3" ry="2.85" style="fill:none;stroke:#5a8bba;stroke-miterlimit:10;stroke-width:0.5px"/><ellipse cx="115.35" cy="414.17" rx="3" ry="2.85" style="fill:#5a8bba"/><ellipse cx="115.35" cy="414.17" rx="3" ry="2.85" style="fill:none;stroke:#5a8bba;stroke-miterlimit:10;stroke-width:0.5px"/><ellipse cx="117.2" cy="458.81" rx="3" ry="2.85" style="fill:#5a8bba"/><ellipse cx="117.2" cy="458.81" rx="3" ry="2.85" style="fill:none;stroke:#5a8bba;stroke-miterlimit:10;stroke-width:0.5px"/><ellipse cx="119.05" cy="366.55" rx="3" ry="2.85" style="fill:#5a8bba"/><ellipse cx="119.05" cy="366.55" rx="3" ry="2.85" style="fill:none;stroke:#5a8bba;stroke-miterlimit:10;stroke-width:0.5px"/><ellipse cx="120.91" cy="378.46" rx="3" ry="2.85" style="fill:#5a8bba"/><ellipse cx="120.91" cy="378.46" rx="3" ry="2.85" style="fill:none;stroke:#5a8bba;stroke-miterlimit:10;stroke-width:0.5px"/><ellipse cx="122.76" cy="354.65" rx="3" ry="2.85" style="fill:#5a8bba"/><ellipse cx="122.76" cy="354.65" rx="3" ry="2.85" style="fill:none;stroke:#5a8bba;stroke-miterlimit:10;stroke-width:0.5px"/><ellipse cx="124.61" cy="348.7" rx="3" ry="2.85" style="fill:#5a8bba"/><ellipse cx="124.61" cy="348.7" rx="3" ry="2.85" style="fill:none;stroke:#5a8bba;stroke-miterlimit:10;stroke-width:0.5px"/><ellipse cx="126.46" cy="354.65" rx="3" ry="2.85" style="fill:#5a8bba"/><ellipse cx="126.46" cy="354.65" rx="3" ry="2.85" style="fill:none;stroke:#5a8bba;stroke-miterlimit:10;stroke-width:0.5px"/><ellipse cx="128.32" cy="417.14" rx="3" ry="2.85" style="fill:#5a8bba"/><ellipse cx="128.32" cy="417.14" rx="3" ry="2.85" style="fill:none;stroke:#5a8bba;stroke-miterlimit:10;stroke-width:0.5px"/><ellipse cx="130.17" cy="372.5" rx="3" ry="2.85" style="fill:#5a8bba"/><ellipse cx="130.17" cy="372.5" rx="3" ry="2.85" style="fill:none;stroke:#5a8bba;stroke-miterlimit:10;stroke-width:0.5px"/><ellipse cx="132.02" cy="339.77" rx="3" ry="2.85" style="fill:#5a8bba"/><ellipse cx="132.02" cy="339.77" rx="3" ry="2.85" style="fill:none;stroke:#5a8bba;stroke-miterlimit:10;stroke-width:0.5px"/><ellipse cx="133.87" cy="375.48" rx="3" ry="2.85" style="fill:#5a8bba"/><ellipse cx="133.87" cy="375.48" rx="3" ry="2.85" style="fill:none;stroke:#5a8bba;stroke-miterlimit:10;stroke-width:0.5px"/><ellipse cx="135.73" cy="393.34" rx="3" ry="2.85" style="fill:#5a8bba"/><ellipse cx="135.73" cy="393.34" rx="3" ry="2.85" style="fill:none;stroke:#5a8bba;stroke-miterlimit:10;stroke-width:0.5px"/><ellipse cx="137.58" cy="345.72" rx="3" ry="2.85" style="fill:#5a8bba"/><ellipse cx="137.58" cy="345.72" rx="3" ry="2.85" style="fill:none;stroke:#5a8bba;stroke-miterlimit:10;stroke-width:0.5px"/><ellipse cx="139.43" cy="363.58" rx="3" ry="2.85" style="fill:#5a8bba"/><ellipse cx="139.43" cy="363.58" rx="3" ry="2.85" style="fill:none;stroke:#5a8bba;stroke-miterlimit:10;stroke-width:0.5px"/><ellipse cx="141.28" cy="375.48" rx="3" ry="2.85" style="fill:#5a8bba"/><ellipse cx="141.28" cy="375.48" rx="3" ry="2.85" style="fill:none;stroke:#5a8bba;stroke-miterlimit:10;stroke-width:0.5px"/><ellipse cx="143.13" cy="164.18" rx="3" ry="2.85" style="fill:#5a8bba"/><ellipse cx="143.13" cy="164.18" rx="3" ry="2.85" style="fill:none;stroke:#5a8bba;stroke-miterlimit:10;stroke-width:0.5px"/><ellipse cx="144.99" cy="321.91" rx="3" ry="2.85" style="fill:#5a8bba"/><ellipse cx="144.99" cy="321.91" rx="3" ry="2.85" style="fill:none;stroke:#5a8bba;stroke-miterlimit:10;stroke-width:0.5px"/><ellipse cx="146.84" cy="375.48" rx="3" ry="2.85" style="fill:#5a8bba"/><ellipse cx="146.84" cy="375.48" rx="3" ry="2.85" style="fill:none;stroke:#5a8bba;stroke-miterlimit:10;stroke-width:0.5px"/><ellipse cx="148.69" cy="387.38" rx="3" ry="2.85" style="fill:#5a8bba"/><ellipse cx="148.69" cy="387.38" rx="3" ry="2.85" style="fill:none;stroke:#5a8bba;stroke-miterlimit:10;stroke-width:0.5px"/><ellipse cx="150.54" cy="369.53" rx="3" ry="2.85" style="fill:#5a8bba"/><ellipse cx="150.54" cy="369.53" rx="3" ry="2.85" style="fill:none;stroke:#5a8bba;stroke-miterlimit:10;stroke-width:0.5px"/><ellipse cx="152.4" cy="286.2" rx="3" ry="2.85" style="fill:#5a8bba"/><ellipse cx="152.4" cy="286.2" rx="3" ry="2.85" style="fill:none;stroke:#5a8bba;stroke-miterlimit:10;stroke-width:0.5px"/><ellipse cx="154.25" cy="357.62" rx="3" ry="2.85" style="fill:#5a8bba"/><ellipse cx="154.25" cy="357.62" rx="3" ry="2.85" style="fill:none;stroke:#5a8bba;stroke-miterlimit:10;stroke-width:0.5px"/><ellipse cx="156.1" cy="360.6" rx="3" ry="2.85" style="fill:#5a8bba"/><ellipse cx="156.1" cy="360.6" rx="3" ry="2.85" style="fill:none;stroke:#5a8bba;stroke-miterlimit:10;stroke-width:0.5px"/><ellipse cx="157.95" cy="423.1" rx="3" ry="2.85" style="fill:#5a8bba"/><ellipse cx="157.95" cy="423.1" rx="3" ry="2.85" style="fill:none;stroke:#5a8bba;stroke-miterlimit:10;stroke-width:0.5px"/><ellipse cx="159.81" cy="375.48" rx="3" ry="2.85" style="fill:#5a8bba"/><ellipse cx="159.81" cy="375.48" rx="3" ry="2.85" style="fill:none;stroke:#5a8bba;stroke-miterlimit:10;stroke-width:0.5px"/><ellipse cx="161.66" cy="417.14" rx="3" ry="2.85" style="fill:#5a8bba"/><ellipse cx="161.66" cy="417.14" rx="3" ry="2.85" style="fill:none;stroke:#5a8bba;stroke-miterlimit:10;stroke-width:0.5px"/><ellipse cx="163.51" cy="408.22" rx="3" ry="2.85" style="fill:#5a8bba"/><ellipse cx="163.51" cy="408.22" rx="3" ry="2.85" style="fill:none;stroke:#5a8bba;stroke-miterlimit:10;stroke-width:0.5px"/><ellipse cx="165.36" cy="417.14" rx="3" ry="2.85" style="fill:#5a8bba"/><ellipse cx="165.36" cy="417.14" rx="3" ry="2.85" style="fill:none;stroke:#5a8bba;stroke-miterlimit:10;stroke-width:0.5px"/><ellipse cx="167.21" cy="408.22" rx="3" ry="2.85" style="fill:#5a8bba"/><ellipse cx="167.21" cy="408.22" rx="3" ry="2.85" style="fill:none;stroke:#5a8bba;stroke-miterlimit:10;stroke-width:0.5px"/><ellipse cx="169.07" cy="455.83" rx="3" ry="2.85" style="fill:#5a8bba"/><ellipse cx="169.07" cy="455.83" rx="3" ry="2.85" style="fill:none;stroke:#5a8bba;stroke-miterlimit:10;stroke-width:0.5px"/><ellipse cx="170.92" cy="458.81" rx="3" ry="2.85" style="fill:#5a8bba"/><ellipse cx="170.92" cy="458.81" rx="3" ry="2.85" style="fill:none;stroke:#5a8bba;stroke-miterlimit:10;stroke-width:0.5px"/><ellipse cx="172.77" cy="381.43" rx="3" ry="2.85" style="fill:#5a8bba"/><ellipse cx="172.77" cy="381.43" rx="3" ry="2.85" style="fill:none;stroke:#5a8bba;stroke-miterlimit:10;stroke-width:0.5px"/><ellipse cx="174.62" cy="170.13" rx="3" ry="2.85" style="fill:#5a8bba"/><ellipse cx="174.62" cy="170.13" rx="3" ry="2.85" style="fill:none;stroke:#5a8bba;stroke-miterlimit:10;stroke-width:0.5px"/><ellipse cx="176.48" cy="426.07" rx="3" ry="2.85" style="fill:#5a8bba"/><ellipse cx="176.48" cy="426.07" rx="3" ry="2.85" style="fill:none;stroke:#5a8bba;stroke-miterlimit:10;stroke-width:0.5px"/><ellipse cx="178.33" cy="366.55" rx="3" ry="2.85" style="fill:#5a8bba"/><ellipse cx="178.33" cy="366.55" rx="3" ry="2.85" style="fill:none;stroke:#5a8bba;stroke-miterlimit:10;stroke-width:0.5px"/><ellipse cx="180.18" cy="351.67" rx="3" ry="2.85" style="fill:#5a8bba"/><ellipse cx="180.18" cy="351.67" rx="3" ry="2.85" style="fill:none;stroke:#5a8bba;stroke-miterlimit:10;stroke-width:0.5px"/><ellipse cx="182.03" cy="336.79" rx="3" ry="2.85" style="fill:#5a8bba"/><ellipse cx="182.03" cy="336.79" rx="3" ry="2.85" style="fill:none;stroke:#5a8bba;stroke-miterlimit:10;stroke-width:0.5px"/><ellipse cx="183.88" cy="443.93" rx="3" ry="2.85" style="fill:#5a8bba"/><ellipse cx="183.88" cy="443.93" rx="3" ry="2.85" style="fill:none;stroke:#5a8bba;stroke-miterlimit:10;stroke-width:0.5px"/><ellipse cx="185.74" cy="432.02" rx="3" ry="2.85" style="fill:#5a8bba"/><ellipse cx="185.74" cy="432.02" rx="3" ry="2.85" style="fill:none;stroke:#5a8bba;stroke-miterlimit:10;stroke-width:0.5px"/><ellipse cx="187.59" cy="437.98" rx="3" ry="2.85" style="fill:#5a8bba"/><ellipse cx="187.59" cy="437.98" rx="3" ry="2.85" style="fill:none;stroke:#5a8bba;stroke-miterlimit:10;stroke-width:0.5px"/><ellipse cx="189.44" cy="420.12" rx="3" ry="2.85" style="fill:#5a8bba"/><ellipse cx="189.44" cy="420.12" rx="3" ry="2.85" style="fill:none;stroke:#5a8bba;stroke-miterlimit:10;stroke-width:0.5px"/><ellipse cx="191.29" cy="414.17" rx="3" ry="2.85" style="fill:#5a8bba"/><ellipse cx="191.29" cy="414.17" rx="3" ry="2.85" style="fill:none;stroke:#5a8bba;stroke-miterlimit:10;stroke-width:0.5px"/><ellipse cx="193.15" cy="440.95" rx="3" ry="2.85" style="fill:#5a8bba"/><ellipse cx="193.15" cy="440.95" rx="3" ry="2.85" style="fill:none;stroke:#5a8bba;stroke-miterlimit:10;stroke-width:0.5px"/><ellipse cx="195" cy="402.26" rx="3" ry="2.85" style="fill:#5a8bba"/><ellipse cx="195" cy="402.26" rx="3" ry="2.85" style="fill:none;stroke:#5a8bba;stroke-miterlimit:10;stroke-width:0.5px"/><ellipse cx="196.85" cy="437.98" rx="3" ry="2.85" style="fill:#5a8bba"/><ellipse cx="196.85" cy="437.98" rx="3" ry="2.85" style="fill:none;stroke:#5a8bba;stroke-miterlimit:10;stroke-width:0.5px"/><ellipse cx="198.7" cy="372.5" rx="3" ry="2.85" style="fill:#5a8bba"/><ellipse cx="198.7" cy="372.5" rx="3" ry="2.85" style="fill:none;stroke:#5a8bba;stroke-miterlimit:10;stroke-width:0.5px"/><ellipse cx="200.56" cy="6.45" rx="3" ry="2.85" style="fill:#5a8bba"/><ellipse cx="200.56" cy="6.45" rx="3" ry="2.85" style="fill:none;stroke:#5a8bba;stroke-miterlimit:10;stroke-width:0.5px"/><ellipse cx="202.41" cy="426.07" rx="3" ry="2.85" style="fill:#5a8bba"/><ellipse cx="202.41" cy="426.07" rx="3" ry="2.85" style="fill:none;stroke:#5a8bba;stroke-miterlimit:10;stroke-width:0.5px"/><ellipse cx="204.26" cy="378.46" rx="3" ry="2.85" style="fill:#5a8bba"/><ellipse cx="204.26" cy="378.46" rx="3" ry="2.85" style="fill:none;stroke:#5a8bba;stroke-miterlimit:10;stroke-width:0.5px"/><ellipse cx="206.11" cy="280.25" rx="3" ry="2.85" style="fill:#5a8bba"/><ellipse cx="206.11" cy="280.25" rx="3" ry="2.85" style="fill:none;stroke:#5a8bba;stroke-miterlimit:10;stroke-width:0.5px"/><ellipse cx="207.96" cy="330.84" rx="3" ry="2.85" style="fill:#5a8bba"/><ellipse cx="207.96" cy="330.84" rx="3" ry="2.85" style="fill:none;stroke:#5a8bba;stroke-miterlimit:10;stroke-width:0.5px"/><ellipse cx="209.82" cy="440.95" rx="3" ry="2.85" style="fill:#5a8bba"/><ellipse cx="209.82" cy="440.95" rx="3" ry="2.85" style="fill:none;stroke:#5a8bba;stroke-miterlimit:10;stroke-width:0.5px"/><ellipse cx="211.67" cy="369.53" rx="3" ry="2.85" style="fill:#5a8bba"/><ellipse cx="211.67" cy="369.53" rx="3" ry="2.85" style="fill:none;stroke:#5a8bba;stroke-miterlimit:10;stroke-width:0.5px"/><ellipse cx="213.52" cy="366.55" rx="3" ry="2.85" style="fill:#5a8bba"/><ellipse cx="213.52" cy="366.55" rx="3" ry="2.85" style="fill:none;stroke:#5a8bba;stroke-miterlimit:10;stroke-width:0.5px"/><ellipse cx="215.37" cy="452.86" rx="3" ry="2.85" style="fill:#5a8bba"/><ellipse cx="215.37" cy="452.86" rx="3" ry="2.85" style="fill:none;stroke:#5a8bba;stroke-miterlimit:10;stroke-width:0.5px"/><ellipse cx="217.23" cy="417.14" rx="3" ry="2.85" style="fill:#5a8bba"/><ellipse cx="217.23" cy="417.14" rx="3" ry="2.85" style="fill:none;stroke:#5a8bba;stroke-miterlimit:10;stroke-width:0.5px"/><ellipse cx="219.08" cy="229.65" rx="3" ry="2.85" style="fill:#5a8bba"/><ellipse cx="219.08" cy="229.65" rx="3" ry="2.85" style="fill:none;stroke:#5a8bba;stroke-miterlimit:10;stroke-width:0.5px"/><ellipse cx="220.93" cy="369.53" rx="3" ry="2.85" style="fill:#5a8bba"/><ellipse cx="220.93" cy="369.53" rx="3" ry="2.85" style="fill:none;stroke:#5a8bba;stroke-miterlimit:10;stroke-width:0.5px"/><ellipse cx="222.78" cy="217.75" rx="3" ry="2.85" style="fill:#5a8bba"/><ellipse cx="222.78" cy="217.75" rx="3" ry="2.85" style="fill:none;stroke:#5a8bba;stroke-miterlimit:10;stroke-width:0.5px"/><ellipse cx="224.64" cy="342.74" rx="3" ry="2.85" style="fill:#5a8bba"/><ellipse cx="224.64" cy="342.74" rx="3" ry="2.85" style="fill:none;stroke:#5a8bba;stroke-miterlimit:10;stroke-width:0.5px"/><ellipse cx="226.49" cy="402.26" rx="3" ry="2.85" style="fill:#5a8bba"/><ellipse cx="226.49" cy="402.26" rx="3" ry="2.85" style="fill:none;stroke:#5a8bba;stroke-miterlimit:10;stroke-width:0.5px"/><ellipse cx="228.34" cy="345.72" rx="3" ry="2.85" style="fill:#5a8bba"/><ellipse cx="228.34" cy="345.72" rx="3" ry="2.85" style="fill:none;stroke:#5a8bba;stroke-miterlimit:10;stroke-width:0.5px"/><ellipse cx="230.19" cy="324.89" rx="3" ry="2.85" style="fill:#5a8bba"/><ellipse cx="230.19" cy="324.89" rx="3" ry="2.85" style="fill:none;stroke:#5a8bba;stroke-miterlimit:10;stroke-width:0.5px"/><ellipse cx="232.04" cy="381.43" rx="3" ry="2.85" style="fill:#5a8bba"/><ellipse cx="232.04" cy="381.43" rx="3" ry="2.85" style="fill:none;stroke:#5a8bba;stroke-miterlimit:10;stroke-width:0.5px"/><ellipse cx="233.9" cy="399.29" rx="3" ry="2.85" style="fill:#5a8bba"/><ellipse cx="233.9" cy="399.29" rx="3" ry="2.85" style="fill:none;stroke:#5a8bba;stroke-miterlimit:10;stroke-width:0.5px"/><ellipse cx="235.75" cy="405.24" rx="3" ry="2.85" style="fill:#5a8bba"/><ellipse cx="235.75" cy="405.24" rx="3" ry="2.85" style="fill:none;stroke:#5a8bba;stroke-miterlimit:10;stroke-width:0.5px"/><ellipse cx="237.6" cy="336.79" rx="3" ry="2.85" style="fill:#5a8bba"/><ellipse cx="237.6" cy="336.79" rx="3" ry="2.85" style="fill:none;stroke:#5a8bba;stroke-miterlimit:10;stroke-width:0.5px"/><ellipse cx="239.45" cy="375.48" rx="3" ry="2.85" style="fill:#5a8bba"/><ellipse cx="239.45" cy="375.48" rx="3" ry="2.85" style="fill:none;stroke:#5a8bba;stroke-miterlimit:10;stroke-width:0.5px"/><ellipse cx="241.31" cy="399.29" rx="3" ry="2.85" style="fill:#5a8bba"/><ellipse cx="241.31" cy="399.29" rx="3" ry="2.85" style="fill:none;stroke:#5a8bba;stroke-miterlimit:10;stroke-width:0.5px"/><ellipse cx="243.16" cy="366.55" rx="3" ry="2.85" style="fill:#5a8bba"/><ellipse cx="243.16" cy="366.55" rx="3" ry="2.85" style="fill:none;stroke:#5a8bba;stroke-miterlimit:10;stroke-width:0.5px"/><ellipse cx="245.01" cy="420.12" rx="3" ry="2.85" style="fill:#5a8bba"/><ellipse cx="245.01" cy="420.12" rx="3" ry="2.85" style="fill:none;stroke:#5a8bba;stroke-miterlimit:10;stroke-width:0.5px"/><ellipse cx="246.86" cy="381.43" rx="3" ry="2.85" style="fill:#5a8bba"/><ellipse cx="246.86" cy="381.43" rx="3" ry="2.85" style="fill:none;stroke:#5a8bba;stroke-miterlimit:10;stroke-width:0.5px"/><ellipse cx="248.72" cy="393.34" rx="3" ry="2.85" style="fill:#5a8bba"/><ellipse cx="248.72" cy="393.34" rx="3" ry="2.85" style="fill:none;stroke:#5a8bba;stroke-miterlimit:10;stroke-width:0.5px"/><ellipse cx="250.57" cy="399.29" rx="3" ry="2.85" style="fill:#5a8bba"/><ellipse cx="250.57" cy="399.29" rx="3" ry="2.85" style="fill:none;stroke:#5a8bba;stroke-miterlimit:10;stroke-width:0.5px"/><ellipse cx="252.42" cy="408.22" rx="3" ry="2.85" style="fill:#5a8bba"/><ellipse cx="252.42" cy="408.22" rx="3" ry="2.85" style="fill:none;stroke:#5a8bba;stroke-miterlimit:10;stroke-width:0.5px"/><ellipse cx="254.27" cy="408.22" rx="3" ry="2.85" style="fill:#5a8bba"/><ellipse cx="254.27" cy="408.22" rx="3" ry="2.85" style="fill:none;stroke:#5a8bba;stroke-miterlimit:10;stroke-width:0.5px"/><ellipse cx="256.12" cy="393.34" rx="3" ry="2.85" style="fill:#5a8bba"/><ellipse cx="256.12" cy="393.34" rx="3" ry="2.85" style="fill:none;stroke:#5a8bba;stroke-miterlimit:10;stroke-width:0.5px"/><ellipse cx="257.98" cy="351.67" rx="3" ry="2.85" style="fill:#5a8bba"/><ellipse cx="257.98" cy="351.67" rx="3" ry="2.85" style="fill:none;stroke:#5a8bba;stroke-miterlimit:10;stroke-width:0.5px"/><ellipse cx="259.83" cy="327.86" rx="3" ry="2.85" style="fill:#5a8bba"/><ellipse cx="259.83" cy="327.86" rx="3" ry="2.85" style="fill:none;stroke:#5a8bba;stroke-miterlimit:10;stroke-width:0.5px"/><ellipse cx="261.68" cy="265.37" rx="3" ry="2.85" style="fill:#5a8bba"/><ellipse cx="261.68" cy="265.37" rx="3" ry="2.85" style="fill:none;stroke:#5a8bba;stroke-miterlimit:10;stroke-width:0.5px"/><ellipse cx="263.53" cy="417.14" rx="3" ry="2.85" style="fill:#5a8bba"/><ellipse cx="263.53" cy="417.14" rx="3" ry="2.85" style="fill:none;stroke:#5a8bba;stroke-miterlimit:10;stroke-width:0.5px"/><ellipse cx="265.39" cy="351.67" rx="3" ry="2.85" style="fill:#5a8bba"/><ellipse cx="265.39" cy="351.67" rx="3" ry="2.85" style="fill:none;stroke:#5a8bba;stroke-miterlimit:10;stroke-width:0.5px"/><ellipse cx="267.24" cy="405.24" rx="3" ry="2.85" style="fill:#5a8bba"/><ellipse cx="267.24" cy="405.24" rx="3" ry="2.85" style="fill:none;stroke:#5a8bba;stroke-miterlimit:10;stroke-width:0.5px"/><ellipse cx="269.09" cy="292.15" rx="3" ry="2.85" style="fill:#5a8bba"/><ellipse cx="269.09" cy="292.15" rx="3" ry="2.85" style="fill:none;stroke:#5a8bba;stroke-miterlimit:10;stroke-width:0.5px"/><ellipse cx="270.94" cy="315.96" rx="3" ry="2.85" style="fill:#5a8bba"/><ellipse cx="270.94" cy="315.96" rx="3" ry="2.85" style="fill:none;stroke:#5a8bba;stroke-miterlimit:10;stroke-width:0.5px"/><ellipse cx="272.79" cy="330.84" rx="3" ry="2.85" style="fill:#5a8bba"/><ellipse cx="272.79" cy="330.84" rx="3" ry="2.85" style="fill:none;stroke:#5a8bba;stroke-miterlimit:10;stroke-width:0.5px"/><ellipse cx="274.65" cy="351.67" rx="3" ry="2.85" style="fill:#5a8bba"/><ellipse cx="274.65" cy="351.67" rx="3" ry="2.85" style="fill:none;stroke:#5a8bba;stroke-miterlimit:10;stroke-width:0.5px"/><ellipse cx="276.5" cy="357.62" rx="3" ry="2.85" style="fill:#5a8bba"/><ellipse cx="276.5" cy="357.62" rx="3" ry="2.85" style="fill:none;stroke:#5a8bba;stroke-miterlimit:10;stroke-width:0.5px"/><ellipse cx="278.35" cy="360.6" rx="3" ry="2.85" style="fill:#5a8bba"/><ellipse cx="278.35" cy="360.6" rx="3" ry="2.85" style="fill:none;stroke:#5a8bba;stroke-miterlimit:10;stroke-width:0.5px"/><ellipse cx="280.2" cy="369.53" rx="3" ry="2.85" style="fill:#5a8bba"/><ellipse cx="280.2" cy="369.53" rx="3" ry="2.85" style="fill:none;stroke:#5a8bba;stroke-miterlimit:10;stroke-width:0.5px"/><ellipse cx="282.06" cy="280.25" rx="3" ry="2.85" style="fill:#5a8bba"/><ellipse cx="282.06" cy="280.25" rx="3" ry="2.85" style="fill:none;stroke:#5a8bba;stroke-miterlimit:10;stroke-width:0.5px"/><ellipse cx="283.91" cy="378.46" rx="3" ry="2.85" style="fill:#5a8bba"/><ellipse cx="283.91" cy="378.46" rx="3" ry="2.85" style="fill:none;stroke:#5a8bba;stroke-miterlimit:10;stroke-width:0.5px"/><ellipse cx="285.76" cy="363.58" rx="3" ry="2.85" style="fill:#5a8bba"/><ellipse cx="285.76" cy="363.58" rx="3" ry="2.85" style="fill:none;stroke:#5a8bba;stroke-miterlimit:10;stroke-width:0.5px"/><ellipse cx="287.61" cy="414.17" rx="3" ry="2.85" style="fill:#5a8bba"/><ellipse cx="287.61" cy="414.17" rx="3" ry="2.85" style="fill:none;stroke:#5a8bba;stroke-miterlimit:10;stroke-width:0.5px"/><line x1="535.52" y1="462.07" x2="783.47" y2="462.07" style="fill:none;stroke:#000;stroke-miterlimit:10"/><line x1="535.52" y1="462.07" x2="535.52" y2="0.79" style="fill:none;stroke:#000;stroke-miterlimit:10"/><line x1="783.47" y1="462.07" x2="783.47" y2="0.79" style="fill:none;stroke:#000;stroke-miterlimit:10"/><line x1="535.52" y1="462.07" x2="535.52" y2="0.79" style="fill:none;stroke:#000;stroke-miterlimit:10"/><g style="opacity:0.699999988079071"><ellipse cx="546.38" cy="384.7" rx="3" ry="2.85" style="fill:#5a8bba"/><ellipse cx="546.38" cy="384.7" rx="3" ry="2.85" style="fill:none;stroke:#5a8bba;stroke-miterlimit:10;stroke-width:0.5px"/></g><g style="opacity:0.699999988079071"><ellipse cx="557.24" cy="354.94" rx="3" ry="2.85" style="fill:#5a8bba"/><ellipse cx="557.24" cy="354.94" rx="3" ry="2.85" style="fill:none;stroke:#5a8bba;stroke-miterlimit:10;stroke-width:0.5px"/></g><g style="opacity:0.699999988079071"><ellipse cx="568.11" cy="441.24" rx="3" ry="2.85" style="fill:#5a8bba"/><ellipse cx="568.11" cy="441.24" rx="3" ry="2.85" style="fill:none;stroke:#5a8bba;stroke-miterlimit:10;stroke-width:0.5px"/></g><g style="opacity:0.699999988079071"><ellipse cx="578.97" cy="316.25" rx="3" ry="2.85" style="fill:#5a8bba"/><ellipse cx="578.97" cy="316.25" rx="3" ry="2.85" style="fill:none;stroke:#5a8bba;stroke-miterlimit:10;stroke-width:0.5px"/></g><g style="opacity:0.699999988079071"><ellipse cx="589.83" cy="363.86" rx="3" ry="2.85" style="fill:#5a8bba"/><ellipse cx="589.83" cy="363.86" rx="3" ry="2.85" style="fill:none;stroke:#5a8bba;stroke-miterlimit:10;stroke-width:0.5px"/></g><g style="opacity:0.699999988079071"><ellipse cx="600.69" cy="283.51" rx="3" ry="2.85" style="fill:#5a8bba"/><ellipse cx="600.69" cy="283.51" rx="3" ry="2.85" style="fill:none;stroke:#5a8bba;stroke-miterlimit:10;stroke-width:0.5px"/></g><g style="opacity:0.699999988079071"><ellipse cx="611.55" cy="351.96" rx="3" ry="2.85" style="fill:#5a8bba"/><ellipse cx="611.55" cy="351.96" rx="3" ry="2.85" style="fill:none;stroke:#5a8bba;stroke-miterlimit:10;stroke-width:0.5px"/></g><g style="opacity:0.699999988079071"><ellipse cx="622.41" cy="393.62" rx="3" ry="2.85" style="fill:#5a8bba"/><ellipse cx="622.41" cy="393.62" rx="3" ry="2.85" style="fill:none;stroke:#5a8bba;stroke-miterlimit:10;stroke-width:0.5px"/></g><g style="opacity:0.699999988079071"><ellipse cx="633.27" cy="357.91" rx="3" ry="2.85" style="fill:#5a8bba"/><ellipse cx="633.27" cy="357.91" rx="3" ry="2.85" style="fill:none;stroke:#5a8bba;stroke-miterlimit:10;stroke-width:0.5px"/></g><g style="opacity:0.699999988079071"><ellipse cx="644.13" cy="378.74" rx="3" ry="2.85" style="fill:#5a8bba"/><ellipse cx="644.13" cy="378.74" rx="3" ry="2.85" style="fill:none;stroke:#5a8bba;stroke-miterlimit:10;stroke-width:0.5px"/></g><g style="opacity:0.699999988079071"><ellipse cx="654.99" cy="369.82" rx="3" ry="2.85" style="fill:#5a8bba"/><ellipse cx="654.99" cy="369.82" rx="3" ry="2.85" style="fill:none;stroke:#5a8bba;stroke-miterlimit:10;stroke-width:0.5px"/></g><g style="opacity:0.699999988079071"><ellipse cx="665.86" cy="375.77" rx="3" ry="2.85" style="fill:#5a8bba"/><ellipse cx="665.86" cy="375.77" rx="3" ry="2.85" style="fill:none;stroke:#5a8bba;stroke-miterlimit:10;stroke-width:0.5px"/></g><g style="opacity:0.699999988079071"><ellipse cx="676.72" cy="390.65" rx="3" ry="2.85" style="fill:#5a8bba"/><ellipse cx="676.72" cy="390.65" rx="3" ry="2.85" style="fill:none;stroke:#5a8bba;stroke-miterlimit:10;stroke-width:0.5px"/></g><g style="opacity:0.699999988079071"><ellipse cx="687.58" cy="298.39" rx="3" ry="2.85" style="fill:#5a8bba"/><ellipse cx="687.58" cy="298.39" rx="3" ry="2.85" style="fill:none;stroke:#5a8bba;stroke-miterlimit:10;stroke-width:0.5px"/></g><g style="opacity:0.699999988079071"><ellipse cx="698.44" cy="322.2" rx="3" ry="2.85" style="fill:#5a8bba"/><ellipse cx="698.44" cy="322.2" rx="3" ry="2.85" style="fill:none;stroke:#5a8bba;stroke-miterlimit:10;stroke-width:0.5px"/></g><g style="opacity:0.699999988079071"><ellipse cx="709.3" cy="387.67" rx="3" ry="2.85" style="fill:#5a8bba"/><ellipse cx="709.3" cy="387.67" rx="3" ry="2.85" style="fill:none;stroke:#5a8bba;stroke-miterlimit:10;stroke-width:0.5px"/></g><g style="opacity:0.699999988079071"><ellipse cx="720.16" cy="378.74" rx="3" ry="2.85" style="fill:#5a8bba"/><ellipse cx="720.16" cy="378.74" rx="3" ry="2.85" style="fill:none;stroke:#5a8bba;stroke-miterlimit:10;stroke-width:0.5px"/></g><g style="opacity:0.699999988079071"><ellipse cx="731.02" cy="265.66" rx="3" ry="2.85" style="fill:#5a8bba"/><ellipse cx="731.02" cy="265.66" rx="3" ry="2.85" style="fill:none;stroke:#5a8bba;stroke-miterlimit:10;stroke-width:0.5px"/></g><g style="opacity:0.699999988079071"><ellipse cx="741.88" cy="438.26" rx="3" ry="2.85" style="fill:#5a8bba"/><ellipse cx="741.88" cy="438.26" rx="3" ry="2.85" style="fill:none;stroke:#5a8bba;stroke-miterlimit:10;stroke-width:0.5px"/></g><g style="opacity:0.699999988079071"><ellipse cx="752.75" cy="435.29" rx="3" ry="2.85" style="fill:#5a8bba"/><ellipse cx="752.75" cy="435.29" rx="3" ry="2.85" style="fill:none;stroke:#5a8bba;stroke-miterlimit:10;stroke-width:0.5px"/></g><g style="opacity:0.699999988079071"><ellipse cx="763.61" cy="417.43" rx="3" ry="2.85" style="fill:#5a8bba"/><ellipse cx="763.61" cy="417.43" rx="3" ry="2.85" style="fill:none;stroke:#5a8bba;stroke-miterlimit:10;stroke-width:0.5px"/></g><g style="opacity:0.699999988079071"><ellipse cx="774.47" cy="405.53" rx="3" ry="2.85" style="fill:#5a8bba"/><ellipse cx="774.47" cy="405.53" rx="3" ry="2.85" style="fill:none;stroke:#5a8bba;stroke-miterlimit:10;stroke-width:0.5px"/></g><line x1="291.84" y1="462.07" x2="535.52" y2="462.07" style="fill:none;stroke:#000;stroke-miterlimit:10"/><line x1="291.84" y1="462.07" x2="291.84" y2="450.54" style="fill:none;stroke:#000;stroke-miterlimit:10"/><line x1="291.84" y1="462.07" x2="291.84" y2="0.79" style="fill:none;stroke:#000;stroke-miterlimit:10"/><ellipse cx="298.67" cy="417.43" rx="3" ry="2.85" style="fill:#e84e0f"/><ellipse cx="298.67" cy="417.43" rx="3" ry="2.85" style="fill:none;stroke:#e84e0f;stroke-miterlimit:10;stroke-width:0.5px"/><ellipse cx="305.49" cy="390.65" rx="3" ry="2.85" style="fill:#e84e0f"/><ellipse cx="305.49" cy="390.65" rx="3" ry="2.85" style="fill:none;stroke:#e84e0f;stroke-miterlimit:10;stroke-width:0.5px"/><ellipse cx="312.32" cy="387.67" rx="3" ry="2.85" style="fill:#e84e0f"/><ellipse cx="312.32" cy="387.67" rx="3" ry="2.85" style="fill:none;stroke:#e84e0f;stroke-miterlimit:10;stroke-width:0.5px"/><ellipse cx="319.15" cy="432.31" rx="3" ry="2.85" style="fill:#e84e0f"/><ellipse cx="319.15" cy="432.31" rx="3" ry="2.85" style="fill:none;stroke:#e84e0f;stroke-miterlimit:10;stroke-width:0.5px"/><ellipse cx="325.97" cy="423.38" rx="3" ry="2.85" style="fill:#e84e0f"/><ellipse cx="325.97" cy="423.38" rx="3" ry="2.85" style="fill:none;stroke:#e84e0f;stroke-miterlimit:10;stroke-width:0.5px"/><ellipse cx="332.8" cy="405.53" rx="3" ry="2.85" style="fill:#e84e0f"/><ellipse cx="332.8" cy="405.53" rx="3" ry="2.85" style="fill:none;stroke:#e84e0f;stroke-miterlimit:10;stroke-width:0.5px"/><ellipse cx="339.63" cy="435.29" rx="3" ry="2.85" style="fill:#e84e0f"/><ellipse cx="339.63" cy="435.29" rx="3" ry="2.85" style="fill:none;stroke:#e84e0f;stroke-miterlimit:10;stroke-width:0.5px"/><ellipse cx="346.45" cy="316.25" rx="3" ry="2.85" style="fill:#e84e0f"/><ellipse cx="346.45" cy="316.25" rx="3" ry="2.85" style="fill:none;stroke:#e84e0f;stroke-miterlimit:10;stroke-width:0.5px"/><ellipse cx="353.28" cy="372.79" rx="3" ry="2.85" style="fill:#e84e0f"/><ellipse cx="353.28" cy="372.79" rx="3" ry="2.85" style="fill:none;stroke:#e84e0f;stroke-miterlimit:10;stroke-width:0.5px"/><ellipse cx="360.11" cy="432.31" rx="3" ry="2.85" style="fill:#e84e0f"/><ellipse cx="360.11" cy="432.31" rx="3" ry="2.85" style="fill:none;stroke:#e84e0f;stroke-miterlimit:10;stroke-width:0.5px"/><ellipse cx="366.94" cy="435.29" rx="3" ry="2.85" style="fill:#e84e0f"/><ellipse cx="366.94" cy="435.29" rx="3" ry="2.85" style="fill:none;stroke:#e84e0f;stroke-miterlimit:10;stroke-width:0.5px"/><ellipse cx="373.76" cy="331.13" rx="3" ry="2.85" style="fill:#e84e0f"/><ellipse cx="373.76" cy="331.13" rx="3" ry="2.85" style="fill:none;stroke:#e84e0f;stroke-miterlimit:10;stroke-width:0.5px"/><ellipse cx="380.59" cy="420.41" rx="3" ry="2.85" style="fill:#e84e0f"/><ellipse cx="380.59" cy="420.41" rx="3" ry="2.85" style="fill:none;stroke:#e84e0f;stroke-miterlimit:10;stroke-width:0.5px"/><ellipse cx="387.42" cy="417.43" rx="3" ry="2.85" style="fill:#e84e0f"/><ellipse cx="387.42" cy="417.43" rx="3" ry="2.85" style="fill:none;stroke:#e84e0f;stroke-miterlimit:10;stroke-width:0.5px"/><ellipse cx="394.24" cy="384.7" rx="3" ry="2.85" style="fill:#e84e0f"/><ellipse cx="394.24" cy="384.7" rx="3" ry="2.85" style="fill:none;stroke:#e84e0f;stroke-miterlimit:10;stroke-width:0.5px"/><ellipse cx="401.07" cy="396.6" rx="3" ry="2.85" style="fill:#e84e0f"/><ellipse cx="401.07" cy="396.6" rx="3" ry="2.85" style="fill:none;stroke:#e84e0f;stroke-miterlimit:10;stroke-width:0.5px"/><ellipse cx="407.9" cy="429.34" rx="3" ry="2.85" style="fill:#e84e0f"/><ellipse cx="407.9" cy="429.34" rx="3" ry="2.85" style="fill:none;stroke:#e84e0f;stroke-miterlimit:10;stroke-width:0.5px"/><ellipse cx="414.72" cy="387.67" rx="3" ry="2.85" style="fill:#e84e0f"/><ellipse cx="414.72" cy="387.67" rx="3" ry="2.85" style="fill:none;stroke:#e84e0f;stroke-miterlimit:10;stroke-width:0.5px"/><ellipse cx="421.55" cy="369.82" rx="3" ry="2.85" style="fill:#e84e0f"/><ellipse cx="421.55" cy="369.82" rx="3" ry="2.85" style="fill:none;stroke:#e84e0f;stroke-miterlimit:10;stroke-width:0.5px"/><ellipse cx="428.38" cy="414.46" rx="3" ry="2.85" style="fill:#e84e0f"/><ellipse cx="428.38" cy="414.46" rx="3" ry="2.85" style="fill:none;stroke:#e84e0f;stroke-miterlimit:10;stroke-width:0.5px"/><ellipse cx="435.21" cy="337.08" rx="3" ry="2.85" style="fill:#e84e0f"/><ellipse cx="435.21" cy="337.08" rx="3" ry="2.85" style="fill:none;stroke:#e84e0f;stroke-miterlimit:10;stroke-width:0.5px"/><ellipse cx="442.03" cy="343.03" rx="3" ry="2.85" style="fill:#e84e0f"/><ellipse cx="442.03" cy="343.03" rx="3" ry="2.85" style="fill:none;stroke:#e84e0f;stroke-miterlimit:10;stroke-width:0.5px"/><ellipse cx="448.86" cy="438.26" rx="3" ry="2.85" style="fill:#e84e0f"/><ellipse cx="448.86" cy="438.26" rx="3" ry="2.85" style="fill:none;stroke:#e84e0f;stroke-miterlimit:10;stroke-width:0.5px"/><ellipse cx="455.69" cy="390.65" rx="3" ry="2.85" style="fill:#e84e0f"/><ellipse cx="455.69" cy="390.65" rx="3" ry="2.85" style="fill:none;stroke:#e84e0f;stroke-miterlimit:10;stroke-width:0.5px"/><ellipse cx="462.51" cy="351.96" rx="3" ry="2.85" style="fill:#e84e0f"/><ellipse cx="462.51" cy="351.96" rx="3" ry="2.85" style="fill:none;stroke:#e84e0f;stroke-miterlimit:10;stroke-width:0.5px"/><ellipse cx="469.34" cy="441.24" rx="3" ry="2.85" style="fill:#e84e0f"/><ellipse cx="469.34" cy="441.24" rx="3" ry="2.85" style="fill:none;stroke:#e84e0f;stroke-miterlimit:10;stroke-width:0.5px"/><ellipse cx="476.17" cy="426.36" rx="3" ry="2.85" style="fill:#e84e0f"/><ellipse cx="476.17" cy="426.36" rx="3" ry="2.85" style="fill:none;stroke:#e84e0f;stroke-miterlimit:10;stroke-width:0.5px"/><ellipse cx="482.99" cy="450.17" rx="3" ry="2.85" style="fill:#e84e0f"/><ellipse cx="482.99" cy="450.17" rx="3" ry="2.85" style="fill:none;stroke:#e84e0f;stroke-miterlimit:10;stroke-width:0.5px"/><ellipse cx="489.82" cy="453.14" rx="3" ry="2.85" style="fill:#e84e0f"/><ellipse cx="489.82" cy="453.14" rx="3" ry="2.85" style="fill:none;stroke:#e84e0f;stroke-miterlimit:10;stroke-width:0.5px"/><ellipse cx="496.65" cy="420.41" rx="3" ry="2.85" style="fill:#e84e0f"/><ellipse cx="496.65" cy="420.41" rx="3" ry="2.85" style="fill:none;stroke:#e84e0f;stroke-miterlimit:10;stroke-width:0.5px"/><ellipse cx="503.48" cy="337.08" rx="3" ry="2.85" style="fill:#e84e0f"/><ellipse cx="503.48" cy="337.08" rx="3" ry="2.85" style="fill:none;stroke:#e84e0f;stroke-miterlimit:10;stroke-width:0.5px"/><ellipse cx="510.3" cy="357.91" rx="3" ry="2.85" style="fill:#e84e0f"/><ellipse cx="510.3" cy="357.91" rx="3" ry="2.85" style="fill:none;stroke:#e84e0f;stroke-miterlimit:10;stroke-width:0.5px"/><ellipse cx="517.13" cy="408.5" rx="3" ry="2.85" style="fill:#e84e0f"/><ellipse cx="517.13" cy="408.5" rx="3" ry="2.85" style="fill:none;stroke:#e84e0f;stroke-miterlimit:10;stroke-width:0.5px"/><ellipse cx="523.96" cy="453.14" rx="3" ry="2.85" style="fill:#e84e0f"/><ellipse cx="523.96" cy="453.14" rx="3" ry="2.85" style="fill:none;stroke:#e84e0f;stroke-miterlimit:10;stroke-width:0.5px"/><ellipse cx="530.78" cy="378.74" rx="3" ry="2.85" style="fill:#e84e0f"/><ellipse cx="530.78" cy="378.74" rx="3" ry="2.85" style="fill:none;stroke:#e84e0f;stroke-miterlimit:10;stroke-width:0.5px"/><g style="isolation:isolate"><g style="isolation:isolate"><path d="M.31,278v-1.42l6.83-4.08A6.45,6.45,0,0,1,8,272v0H.31v-1.05H9.49v1.43l-6.82,4.06a8.48,8.48,0,0,1-.88.48v0h7.7V278Z"/><path d="M7.05,267.52a2.29,2.29,0,0,0,1.29-.23,1.15,1.15,0,0,0,.42-1c0-1.18-.78-1.73-2.18-1.73H3.17v-1.08H9.49v1H8.41v0a2.12,2.12,0,0,1,1.23,2,1.82,1.82,0,0,1-2.07,2H3.17v-1.07Z"/><path d="M3.17,261.27v-1H4.23v0a2.18,2.18,0,0,1-1.22-2,1.78,1.78,0,0,1,1.31-1.91v0A2.19,2.19,0,0,1,3,254.2a1.82,1.82,0,0,1,2.08-2h4.4v1.08H5.58a2.2,2.2,0,0,0-1.26.23,1.12,1.12,0,0,0-.41,1,1.59,1.59,0,0,0,1.79,1.7H9.49v1.08H5.58a2.16,2.16,0,0,0-1.25.23,1.13,1.13,0,0,0-.42,1,1.59,1.59,0,0,0,1.76,1.71H9.49v1.08Z"/></g><g style="isolation:isolate"><path d="M0,250v-1.08H4.21a2.18,2.18,0,0,1-1.2-2c0-1.34.83-2.54,3.23-2.54s3.4,1.17,3.4,2.6a2.17,2.17,0,0,1-1.16,2v0h1v1Zm6.2-4.53c-1.35,0-2.37.4-2.37,1.69a1.85,1.85,0,0,0,2,1.8h.67c1.25,0,2.23-.61,2.23-1.81S7.89,245.47,6.24,245.47Z"/></g><g style="isolation:isolate"><path d="M9.64,240.25c0,1.93-1.4,2.86-3.28,2.86S3,242.1,3,240.29s1.46-2.64,3.06-2.64h.55V242c1.31-.07,2.19-.6,2.19-1.78a1.3,1.3,0,0,0-1-1.44v-1.05A2.37,2.37,0,0,1,9.64,240.25Zm-3.94-1.5c-1.06,0-1.87.45-1.87,1.55s.79,1.56,1.94,1.69v-3.24Z"/></g><g style="isolation:isolate"><path d="M3.17,236v-1H4.35v0a2.28,2.28,0,0,1-1.3-2v-.11H4.17v.2A1.71,1.71,0,0,0,6,234.92H9.49V236Z"/><path d="M6.32,228.61c-1.95,0-3.31-1.08-3.31-2.84S4.37,223,6.32,223s3.32,1.07,3.32,2.84S8.3,228.61,6.32,228.61Zm0-1.11c1.55,0,2.48-.52,2.48-1.74s-.93-1.69-2.48-1.69-2.48.5-2.48,1.71S4.79,227.5,6.32,227.5Z"/><path d="M9.49,219.91V221H4v1.15H3.17V221H1.75C.46,221,0,220.25,0,219.07a3.4,3.4,0,0,1,.06-.67H1a2.6,2.6,0,0,0,0,.59c0,.62.23.92,1,.92H3.17V218.4H4v1.51Z"/><path d="M2.77,208.55a1.76,1.76,0,0,0-1.7,1.91c0,1.25.7,1.92,1.58,1.92s1.32-.46,1.52-1.54l.23-1.29c.33-1.79,1.2-2.41,2.51-2.41,1.68,0,2.76,1.14,2.76,3.33s-1.14,3.33-2.76,3.43v-1.16a2.1,2.1,0,0,0,1.86-2.29c0-1.64-.79-2.17-1.77-2.17-.79,0-1.34.43-1.53,1.55l-.23,1.29c-.33,1.8-1.29,2.43-2.49,2.43-1.49,0-2.57-1.22-2.57-3.1s1-2.95,2.59-3Z"/><path d="M6.32,205.68c-1.95,0-3.31-1.08-3.31-2.84S4.37,200,6.32,200s3.32,1.07,3.32,2.84S8.3,205.68,6.32,205.68Zm0-1.11c1.55,0,2.48-.52,2.48-1.74s-.93-1.7-2.48-1.7-2.48.51-2.48,1.72S4.79,204.57,6.32,204.57Z"/><path d="M7.05,197.27A2.29,2.29,0,0,0,8.34,197a1.15,1.15,0,0,0,.42-1c0-1.18-.78-1.73-2.18-1.73H3.17v-1.08H9.49v1H8.41v0a2.12,2.12,0,0,1,1.23,2,1.82,1.82,0,0,1-2.07,2H3.17v-1.07Z"/></g><g style="isolation:isolate"><path d="M3.17,191v-1H4.35v0a2.28,2.28,0,0,1-1.3-2v-.11H4.17v.2A1.71,1.71,0,0,0,6,189.94H9.49V191Z"/></g><g style="isolation:isolate"><path d="M5.07,182.73a1.35,1.35,0,0,0-1.23,1.44c0,1.14,1,1.74,2.47,1.74s2.48-.44,2.48-1.71a1.44,1.44,0,0,0-1.37-1.55v-1a2.37,2.37,0,0,1,2.21,2.57C9.63,186,8.36,187,6.36,187S3,186,3,184.19a2.23,2.23,0,0,1,2.06-2.51Z"/></g><g style="isolation:isolate"><path d="M9.64,177.66c0,1.93-1.4,2.86-3.28,2.86S3,179.51,3,177.7s1.46-2.64,3.06-2.64h.55v4.35c1.31-.07,2.19-.6,2.19-1.78a1.3,1.3,0,0,0-1-1.44v-1.05A2.37,2.37,0,0,1,9.64,177.66Zm-3.94-1.5c-1.06,0-1.87.45-1.87,1.55s.79,1.56,1.94,1.69v-3.24Z"/><path d="M4.75,170.23c-.56.06-.92.52-.92,1.26s.43,1.24,1,1.24.75-.31.86-.95l.14-1c.21-1.32.75-1.8,1.84-1.8,1.27,0,2,1,2,2.47S9.06,173.87,7.7,174v-1c.49-.05,1.11-.33,1.11-1.44,0-.87-.4-1.41-1.06-1.41-.51,0-.78.14-.93,1l-.14,1c-.18,1.13-.65,1.73-1.75,1.73S3,172.9,3,171.46s.64-2.15,1.74-2.26Z"/></g></g><g style="isolation:isolate"><g style="isolation:isolate"><path d="M115,478.46c0,2.43,1,3.79,2.89,3.79a2.53,2.53,0,0,0,2.77-2.79v-.14H118v-1h3.74V483h-1v-1.32h0a3.1,3.1,0,0,1-2.87,1.51c-2.31,0-4-1.51-4-4.74,0-3,1.81-4.76,4.19-4.76,1.88,0,3.24.95,3.46,2.57H120.3a2.12,2.12,0,0,0-2.3-1.68C116,474.55,115,476.11,115,478.46Z"/></g><g style="isolation:isolate"><path d="M123.76,478.38c0-1.12.88-1.89,2.39-1.89s2.34.66,2.34,2.35v2.58c0,.51.11.71.58.72V483h-.14c-1,0-1.34-.36-1.45-1.12h0a2.11,2.11,0,0,1-2,1.18,1.76,1.76,0,0,1-2-1.81,1.68,1.68,0,0,1,.95-1.6,7.3,7.3,0,0,1,3.05-.51v-.28c0-1.14-.43-1.58-1.31-1.58s-1.29.54-1.32,1.08Zm3.67,1.72V480a5.21,5.21,0,0,0-2.55.47.91.91,0,0,0-.35.78c0,.64.42,1,1.11,1A1.84,1.84,0,0,0,127.43,480.1Z"/><path d="M130.3,476.65h4.77v.93l-3.71,4.5h3.79V483h-5v-1l3.68-4.49H130.3Z"/><path d="M136.6,478.38c0-1.12.88-1.89,2.39-1.89s2.34.66,2.34,2.35v2.58c0,.51.11.71.58.72V483h-.14c-1,0-1.34-.36-1.45-1.12h0a2.11,2.11,0,0,1-2,1.18,1.76,1.76,0,0,1-2-1.81,1.68,1.68,0,0,1,.95-1.6,7.3,7.3,0,0,1,3.05-.51v-.28c0-1.14-.43-1.58-1.31-1.58s-1.29.54-1.32,1.08Zm3.67,1.72V480a5.21,5.21,0,0,0-2.55.47.91.91,0,0,0-.35.78c0,.64.42,1,1.11,1A1.84,1.84,0,0,0,140.27,480.1Z"/><path d="M146.34,478.56h3.33v1h-3.33Z"/><path d="M154.9,473.79h1.69l2.33,6.58c.29.8.41,1.2.41,1.2h0s.12-.4.41-1.2l2.36-6.58h1.68V483h-1.14v-7.88h0s-.15.47-.49,1.44L159.82,483h-1l-2.26-6.44c-.32-1-.49-1.44-.49-1.44h0V483H154.9Z"/></g><g style="isolation:isolate"><path d="M166,478.38c0-1.12.88-1.89,2.39-1.89s2.34.66,2.34,2.35v2.58c0,.51.11.71.58.72V483h-.14c-1,0-1.34-.36-1.45-1.12h0a2.11,2.11,0,0,1-2,1.18,1.76,1.76,0,0,1-2-1.81,1.68,1.68,0,0,1,.95-1.6,7.3,7.3,0,0,1,3.05-.51v-.28c0-1.14-.43-1.58-1.31-1.58s-1.29.54-1.32,1.08Zm3.67,1.72V480a5.21,5.21,0,0,0-2.55.47.91.91,0,0,0-.35.78c0,.64.42,1,1.11,1A1.84,1.84,0,0,0,169.62,480.1Z"/></g><g style="isolation:isolate"><path d="M172.09,476.65h1.08l1.32,4c.2.6.31,1,.31,1h0s.11-.38.31-1l1.3-3.94h1.08l-2.31,6.72c-.5,1.45-.92,2-2.29,2a3,3,0,0,1-.65-.08v-.88a2.66,2.66,0,0,0,.56.06c.8,0,1.06-.3,1.34-1.15l.12-.34Z"/><path d="M182,476.81a2.72,2.72,0,0,1,2.87-2.86,2.43,2.43,0,0,1,2.75,2.42c0,1.23-.51,1.92-2,3.33l-2.41,2.3h4.44v1h-5.9v-.83l3-3c1-1,1.66-1.68,1.66-2.69a1.5,1.5,0,0,0-1.61-1.58c-.93,0-1.74.55-1.74,2Z"/></g><g style="isolation:isolate"><path d="M192.51,474c2,0,3.2,1.51,3.2,4.61s-1.24,4.6-3.2,4.6-3.18-1.52-3.18-4.6S190.59,474,192.51,474Zm2,4.63c0-2.47-.77-3.73-2-3.73s-2,1.2-2,3.73.74,3.69,2,3.69S194.55,481,194.55,478.58Z"/></g><g style="isolation:isolate"><path d="M197.36,476.81a2.72,2.72,0,0,1,2.87-2.86,2.42,2.42,0,0,1,2.74,2.42c0,1.23-.5,1.92-2,3.33L198.6,482H203v1h-5.9v-.83l3.05-3c1-1,1.65-1.68,1.65-2.69a1.5,1.5,0,0,0-1.6-1.58c-.94,0-1.74.55-1.74,2Z"/><path d="M206.32,476.42h-1.77v-.77h.26a1.78,1.78,0,0,0,1.31-.43,1.63,1.63,0,0,0,.4-1.17h.89V483h-1.09Z"/></g></g><g style="isolation:isolate"><g style="isolation:isolate"><path d="M357.24,472.81h1.12V482h-1.12Z"/><path d="M363.87,477.24c-.06-.56-.52-.92-1.26-.92s-1.24.43-1.24,1,.31.75.95.86l1,.15c1.32.2,1.8.74,1.8,1.83,0,1.27-1,2-2.47,2s-2.39-.59-2.47-1.95h1.05c.05.5.33,1.12,1.44,1.12.87,0,1.41-.41,1.41-1.07,0-.5-.14-.78-1-.92l-1-.15c-1.13-.18-1.73-.64-1.73-1.75s.85-1.92,2.29-1.92,2.15.64,2.26,1.74Z"/></g><g style="isolation:isolate"><path d="M366.78,475.66h1v1.19h0a2.29,2.29,0,0,1,2-1.31h.11v1.13h-.21a1.72,1.72,0,0,0-1.87,1.87V482h-1.08Z"/></g><g style="isolation:isolate"><path d="M371.11,477.39c0-1.12.88-1.89,2.39-1.89s2.34.66,2.34,2.35v2.58c0,.51.11.71.58.72V482h-.14c-1,0-1.34-.36-1.45-1.12h0a2.11,2.11,0,0,1-2,1.18,1.76,1.76,0,0,1-2-1.81,1.68,1.68,0,0,1,1-1.6,7.3,7.3,0,0,1,3-.51v-.28c0-1.14-.43-1.58-1.32-1.58a1.14,1.14,0,0,0-1.31,1.08Zm3.67,1.72V479a5.21,5.21,0,0,0-2.55.47.91.91,0,0,0-.35.78c0,.65.42,1,1.11,1A1.84,1.84,0,0,0,374.78,479.11Z"/></g><g style="isolation:isolate"><path d="M380.34,482.14c-1.93,0-2.85-1.41-2.85-3.29s1-3.35,2.82-3.35S383,477,383,478.56v.55h-4.36c.08,1.31.6,2.2,1.79,2.2a1.3,1.3,0,0,0,1.44-1h1A2.35,2.35,0,0,1,380.34,482.14Zm1.5-3.95c0-1.06-.44-1.87-1.54-1.87s-1.56.79-1.69,1.94h3.23Z"/><path d="M384.65,472.53h1.08V482h-1.08Z"/><path d="M390.83,477.57h3.34v1h-3.34Z"/><path d="M399.4,472.81h1.69l2.33,6.57c.29.8.41,1.2.41,1.2h0s.12-.4.41-1.2l2.36-6.57h1.68V482h-1.14V474.1h0s-.14.47-.49,1.44L404.32,482h-1.06L401,475.54l-.49-1.44h0V482H399.4Z"/></g><g style="isolation:isolate"><path d="M410.45,477.39c0-1.12.88-1.89,2.39-1.89s2.34.66,2.34,2.35v2.58c0,.51.11.71.57.72V482h-.13c-1,0-1.34-.36-1.45-1.12h0a2.11,2.11,0,0,1-2,1.18,1.76,1.76,0,0,1-2-1.81,1.68,1.68,0,0,1,.95-1.6,7.3,7.3,0,0,1,3.05-.51v-.28c0-1.14-.43-1.58-1.32-1.58a1.14,1.14,0,0,0-1.31,1.08Zm3.67,1.72V479a5.21,5.21,0,0,0-2.55.47.91.91,0,0,0-.35.78c0,.65.42,1,1.11,1A1.84,1.84,0,0,0,414.12,479.11Z"/></g><g style="isolation:isolate"><path d="M416.59,475.66h1.08l1.32,4c.21.6.31,1,.31,1h0s.11-.38.31-1l1.3-3.95H422l-2.31,6.72c-.5,1.45-.92,2-2.29,2a3,3,0,0,1-.65-.08v-.88a2.66,2.66,0,0,0,.56.06c.8,0,1.06-.3,1.34-1.15l.12-.34Z"/><path d="M426.5,475.82a2.72,2.72,0,0,1,2.87-2.86,2.43,2.43,0,0,1,2.75,2.42c0,1.23-.51,1.92-2,3.33l-2.41,2.3h4.44v1h-5.9v-.83l3-3c1-1,1.66-1.68,1.66-2.69a1.5,1.5,0,0,0-1.61-1.58c-.93,0-1.74.55-1.74,2Z"/></g><g style="isolation:isolate"><path d="M437,473c1.95,0,3.2,1.51,3.2,4.61s-1.24,4.6-3.2,4.6-3.18-1.52-3.18-4.6S435.09,473,437,473Zm2,4.63c0-2.47-.77-3.73-2-3.73s-2,1.2-2,3.73.74,3.7,2,3.7S439.05,480,439.05,477.59Z"/></g><g style="isolation:isolate"><path d="M441.86,475.82a2.72,2.72,0,0,1,2.87-2.86,2.42,2.42,0,0,1,2.74,2.42c0,1.23-.5,1.92-2,3.33L443.1,481h4.43v1h-5.9v-.83l3.05-3c1-1,1.65-1.68,1.65-2.69a1.5,1.5,0,0,0-1.6-1.58c-.94,0-1.74.55-1.74,2Z"/><path d="M450.82,475.43h-1.77v-.77h.26a1.78,1.78,0,0,0,1.31-.43,1.63,1.63,0,0,0,.4-1.17h.9V482h-1.1Z"/></g></g><g style="isolation:isolate"><g style="isolation:isolate"><path d="M617.73,475.27a1.77,1.77,0,0,0-1.91-1.7c-1.25,0-1.92.71-1.92,1.58s.46,1.32,1.54,1.53l1.29.23c1.79.32,2.41,1.19,2.41,2.5,0,1.68-1.14,2.76-3.33,2.76s-3.34-1.14-3.43-2.76h1.16a2.09,2.09,0,0,0,2.29,1.86c1.63,0,2.17-.79,2.17-1.76,0-.79-.43-1.35-1.56-1.54l-1.28-.23c-1.8-.33-2.43-1.29-2.43-2.49,0-1.49,1.22-2.57,3.1-2.57s2.95,1,3,2.59Z"/></g><g style="isolation:isolate"><path d="M620.31,475.67h1.08l1.32,4c.21.6.31,1,.31,1h0s.11-.38.31-1l1.3-3.95h1.08l-2.31,6.72c-.5,1.45-.92,2-2.29,2a3,3,0,0,1-.65-.08v-.88a2.66,2.66,0,0,0,.56.06c.8,0,1.06-.3,1.34-1.15l.12-.34Z"/><path d="M627.22,475.67h1v1.19h0a2.29,2.29,0,0,1,2-1.31h.11v1.13h-.21a1.72,1.72,0,0,0-1.87,1.87V482h-1.08Z"/><path d="M631.89,473.07H633v1.16h-1.14Zm0,2.6H633V482h-1.09Z"/><path d="M635,477.4c0-1.12.88-1.89,2.39-1.89s2.34.66,2.34,2.35v2.58c0,.51.11.71.57.72V482h-.13c-1,0-1.34-.36-1.45-1.12h0a2.11,2.11,0,0,1-2,1.18,1.76,1.76,0,0,1-2-1.81,1.69,1.69,0,0,1,.94-1.6,7.35,7.35,0,0,1,3.06-.51v-.28c0-1.14-.43-1.58-1.32-1.58a1.16,1.16,0,0,0-1.32,1.08Zm3.67,1.72V479a5.21,5.21,0,0,0-2.55.47.91.91,0,0,0-.35.78c0,.64.42,1,1.1,1A1.84,1.84,0,0,0,638.69,479.12Z"/><path d="M644.9,475.83a2.72,2.72,0,0,1,2.87-2.86,2.42,2.42,0,0,1,2.74,2.42c0,1.23-.5,1.92-2,3.33l-2.42,2.3h4.44v1h-5.9v-.83l3.05-3c1-1,1.65-1.68,1.65-2.69a1.5,1.5,0,0,0-1.6-1.58c-.94,0-1.74.55-1.74,2Z"/><path d="M655.41,473c1.94,0,3.2,1.51,3.2,4.61s-1.24,4.6-3.2,4.6-3.18-1.52-3.18-4.6S653.49,473,655.41,473Zm2,4.63c0-2.47-.77-3.73-2-3.73s-2,1.2-2,3.73.74,3.69,2,3.69S657.45,480,657.45,477.6Z"/></g><g style="isolation:isolate"><path d="M661.91,475.44h-1.78v-.77h.26a1.76,1.76,0,0,0,1.31-.43,1.58,1.58,0,0,0,.4-1.17h.9V482h-1.09Z"/><path d="M667.7,478v-1h.47a1.55,1.55,0,0,0,1.59-1.56,1.5,1.5,0,0,0-1.63-1.54,1.62,1.62,0,0,0-1.8,1.77h-1.08a2.63,2.63,0,0,1,2.88-2.68,2.42,2.42,0,0,1,2.71,2.39,2.24,2.24,0,0,1-1.47,2v0a2.18,2.18,0,0,1,1.73,2.23c0,1.37-1.11,2.54-3,2.54a2.69,2.69,0,0,1-3-2.67h1.09a1.89,1.89,0,0,0,2,1.76,1.69,1.69,0,0,0,1.85-1.63c0-1.06-.69-1.66-1.85-1.66Z"/></g><g style="isolation:isolate"><path d="M672.65,477.58H676v1h-3.33Z"/></g><g style="isolation:isolate"><path d="M677,475.83a2.72,2.72,0,0,1,2.87-2.86,2.42,2.42,0,0,1,2.74,2.42c0,1.23-.5,1.92-2,3.33L678.2,481h4.43v1h-5.9v-.83l3-3c1-1,1.65-1.68,1.65-2.69a1.5,1.5,0,0,0-1.6-1.58c-.94,0-1.74.55-1.74,2Z"/></g><g style="isolation:isolate"><path d="M687.47,473c1.95,0,3.2,1.51,3.2,4.61s-1.24,4.6-3.2,4.6-3.18-1.52-3.18-4.6S685.55,473,687.47,473Zm2,4.63c0-2.47-.77-3.73-2-3.73s-2,1.2-2,3.73.74,3.69,2,3.69S689.51,480,689.51,477.6Z"/></g><g style="isolation:isolate"><path d="M692.31,475.83a2.72,2.72,0,0,1,2.87-2.86,2.42,2.42,0,0,1,2.74,2.42c0,1.23-.5,1.92-2,3.33l-2.42,2.3H698v1h-5.9v-.83l3-3c1-1,1.65-1.68,1.65-2.69a1.5,1.5,0,0,0-1.6-1.58c-.94,0-1.74.55-1.74,2Z"/><path d="M701.27,475.44H699.5v-.77h.26a1.78,1.78,0,0,0,1.31-.43,1.58,1.58,0,0,0,.39-1.17h.91V482h-1.1Z"/></g></g></svg>