<svg id="Layer_1" data-name="Layer 1" xmlns="http://www.w3.org/2000/svg" viewBox="0 0 783.97 509.21"><title>number-of-unique-sources-airwars-identified-per-assessment-in-gaza-and-israel-may-2021-and-syria-2013-2021-ar</title><g style="isolation:isolate"><path d="M37.15,461.37c1.12.61,1.52,1,1.52,1.15a4,4,0,0,1-.72,1.21,11.15,11.15,0,0,0-1.61-1.06C36.62,462.21,36.89,461.76,37.15,461.37Z"/></g><g style="isolation:isolate"><path d="M31.78,428.68l.12,0a12.38,12.38,0,0,0,1.19,1.4l-.41.41a12.39,12.39,0,0,1,1.16,4.29,2.91,2.91,0,0,1-.66,1.4l-.13-.08a2.84,2.84,0,0,0,.06-.6,15.49,15.49,0,0,0-2-5.93C31.35,429.27,31.57,429,31.78,428.68Z"/><path d="M38.33,431.61c1.12.61,1.52,1,1.52,1.15a4,4,0,0,1-.72,1.21,11.15,11.15,0,0,0-1.61-1.06C37.8,432.45,38.07,432,38.33,431.61Z"/></g><g style="isolation:isolate"><path d="M30,401.47a9.48,9.48,0,0,1,.7,3.35c0,.4,0,.66-.69,1.62l-.14-.07a4.37,4.37,0,0,0,.1-1,15.91,15.91,0,0,0-1.69-5.64,9.05,9.05,0,0,1,.53-.82h.14a4.35,4.35,0,0,0,.56,1.05,2.17,2.17,0,0,0,1.57.55c.56,0,1.32-.28,1.46-1.6l.35.1c0,.12,0,.24,0,.35,0,1.33-.64,2.19-1.92,2.19a3.6,3.6,0,0,1-1-.14Z"/><path d="M36.2,401.85c1.11.61,1.51,1,1.51,1.15a4,4,0,0,1-.72,1.21,11.15,11.15,0,0,0-1.61-1.06C35.66,402.69,35.93,402.24,36.2,401.85Z"/></g><g style="isolation:isolate"><g style="isolation:isolate"><path d="M29.47,371.64a9.93,9.93,0,0,1,.72,3.42c0,.45,0,.65-.73,1.58l-.14-.08a2.43,2.43,0,0,0,.14-.92A16.16,16.16,0,0,0,27.79,370a9,9,0,0,1,.54-.82h.14a4,4,0,0,0,.56,1.05,1.64,1.64,0,0,0,1.13.47c.47,0,.75-.21.75-.95a2.69,2.69,0,0,0,0-.47,2.42,2.42,0,0,1,.35-.12c.2.88.46,1.17.85,1.17s.65-.24.65-.83a1.82,1.82,0,0,0,0-.32,1.4,1.4,0,0,1,.4.07,3.5,3.5,0,0,1,.06.62c0,.95-.48,1.51-1.1,1.51a1.33,1.33,0,0,1-.8-.3h0a1.17,1.17,0,0,1-1.12.68,1.56,1.56,0,0,1-.63-.14Z"/></g><g style="isolation:isolate"><path d="M37.13,372.09c1.12.61,1.52,1,1.52,1.15a4,4,0,0,1-.72,1.21,11.15,11.15,0,0,0-1.61-1.06C36.6,372.93,36.87,372.48,37.13,372.09Z"/></g></g><g style="isolation:isolate"><path d="M31.36,339.4a8.94,8.94,0,0,0-.45,1c-1.07.5-1.92,1-1.92,1.18s.83.84,2.28.84l.6,0a5.57,5.57,0,0,1-.36.84c-1.05.47-2,1.15-2,1.54s.6.82,1.65.82a4.4,4.4,0,0,0,1.7-.33l.06.05a6.86,6.86,0,0,1-.75,1.08,4,4,0,0,1-1.4.22c-.9,0-1.88-.41-1.88-1.55a2.34,2.34,0,0,1,1.06-1.81c-.95-.08-1.58-.52-1.58-1.19a2,2,0,0,1,.54-1.35,9.2,9.2,0,0,1,2.38-1.45Z"/><path d="M36.07,342.33c1.11.61,1.51,1,1.51,1.15a4,4,0,0,1-.72,1.21,11.15,11.15,0,0,0-1.61-1.06C35.53,343.17,35.8,342.72,36.07,342.33Z"/></g><g style="isolation:isolate"><path d="M30.61,310.23c1.31,0,2.18,2,2.18,3.3a4.46,4.46,0,0,1-.28,1.73,2.87,2.87,0,0,1-2.22,1.23c-.94,0-2.13-.58-2.15-2.48C28.12,311.93,29.31,310.23,30.61,310.23Zm1.71,3.88c0-.45-.62-2.71-1.88-2.71-.91,0-1.79,1.4-1.79,2.34a1.82,1.82,0,0,0,1.78,1.62A2.08,2.08,0,0,0,32.32,314.11Z"/><path d="M36.11,312.57c1.11.61,1.51,1,1.51,1.15a4,4,0,0,1-.72,1.21,11.15,11.15,0,0,0-1.61-1.06C35.57,313.41,35.84,313,36.11,312.57Z"/></g><g style="isolation:isolate"><path d="M31.57,280.4a11.44,11.44,0,0,0-.12,1.6,9.66,9.66,0,0,0,1.1,4.5c-.24.3-.55.59-.83.9a10.47,10.47,0,0,1-1-4.15,12.12,12.12,0,0,1,.19-1.8c-.38,0-1.43.06-1.74.06-1.45,0-1.42-.51-1.44-1.61H28c.24.46.68.57,1.57.57.51,0,1.15,0,1.93-.11Z"/><path d="M35.9,282.81c1.11.61,1.51,1,1.51,1.15a4,4,0,0,1-.72,1.21,11.15,11.15,0,0,0-1.61-1.06C35.36,283.65,35.63,283.2,35.9,282.81Z"/></g><g style="isolation:isolate"><g style="isolation:isolate"><path d="M31.71,255.82a57.7,57.7,0,0,1,1.92-5.68h.08c.22.41.35.63.5,1a31.87,31.87,0,0,0-2.16,5.84l-.58.58h-.08A25.55,25.55,0,0,0,28.66,251c.22-.26.42-.52.65-.83h.1a21.55,21.55,0,0,1,2.27,5.68Z"/></g><g style="isolation:isolate"><path d="M37.14,253.05c1.11.61,1.52,1,1.52,1.15a4.19,4.19,0,0,1-.73,1.21,11.15,11.15,0,0,0-1.61-1.06C36.6,253.89,36.87,253.44,37.14,253.05Z"/></g></g><g style="isolation:isolate"><path d="M30.17,222.12a59.07,59.07,0,0,1-2,5.64h-.07c-.22-.41-.35-.63-.5-1A27.77,27.77,0,0,0,29.78,221c.21-.22.49-.46.69-.64h.07a23.86,23.86,0,0,0,2.64,6.55c-.22.27-.43.52-.65.83h-.1a21.36,21.36,0,0,1-2.23-5.64Z"/><path d="M36.06,223.29c1.11.61,1.51,1,1.51,1.15a4,4,0,0,1-.72,1.21,11.15,11.15,0,0,0-1.61-1.06C35.52,224.13,35.79,223.68,36.06,223.29Z"/></g><g style="isolation:isolate"><g style="isolation:isolate"><path d="M31.61,198a8,8,0,0,1-1.07-3.39,3.43,3.43,0,0,1,.05-.56,5.19,5.19,0,0,1-.77.06c-1.13,0-1.9-.46-1.9-1.54a2.13,2.13,0,0,1,1.85-2c.65,0,1.38.62,1.38,2.69a7.09,7.09,0,0,0,1.24,3.84c-.32.43-.49.66-.69.91Zm-2.2-6.39a.92.92,0,0,0-.93.64c0,.54,1,.85,1.75.85a1.67,1.67,0,0,0,.32,0C30.4,191.87,29.73,191.65,29.41,191.65Z"/></g><g style="isolation:isolate"><path d="M37.14,193.53c1.11.61,1.51,1,1.51,1.15a4,4,0,0,1-.72,1.21,11.15,11.15,0,0,0-1.61-1.06C36.6,194.37,36.87,193.92,37.14,193.53Z"/></g></g><g style="isolation:isolate"><g style="isolation:isolate"><path d="M24.22,160.84l.12,0a12.38,12.38,0,0,0,1.19,1.4l-.41.41A12.39,12.39,0,0,1,26.28,167a2.91,2.91,0,0,1-.66,1.4l-.13-.07a3,3,0,0,0,.06-.61,15.49,15.49,0,0,0-2-5.93C23.79,161.43,24,161.11,24.22,160.84Z"/></g><g style="isolation:isolate"><path d="M29.58,163.77c1.11.61,1.52,1,1.52,1.15a4.19,4.19,0,0,1-.73,1.21,11.15,11.15,0,0,0-1.61-1.06C29,164.61,29.31,164.16,29.58,163.77Z"/></g><g style="isolation:isolate"><path d="M37.12,163.77c1.11.61,1.51,1,1.51,1.15a4,4,0,0,1-.72,1.21,11.15,11.15,0,0,0-1.61-1.06C36.58,164.61,36.85,164.16,37.12,163.77Z"/></g></g><g style="isolation:isolate"><path d="M27.05,131.08l.12,0a12.38,12.38,0,0,0,1.19,1.4l-.41.41a12.38,12.38,0,0,1,1.16,4.3,2.92,2.92,0,0,1-.66,1.39l-.13-.07a3,3,0,0,0,.06-.61,15.49,15.49,0,0,0-2-5.93C26.62,131.67,26.84,131.35,27.05,131.08Z"/><path d="M33,131.08l.12,0a12.38,12.38,0,0,0,1.19,1.4l-.4.41a12.58,12.58,0,0,1,1.15,4.3,2.9,2.9,0,0,1-.65,1.39l-.13-.07a3,3,0,0,0,0-.61,15.49,15.49,0,0,0-2-5.93C32.55,131.67,32.76,131.35,33,131.08Z"/><path d="M39.53,134c1.11.61,1.52,1,1.52,1.15a4.3,4.3,0,0,1-.72,1.21,11.73,11.73,0,0,0-1.61-1.06C39,134.85,39.27,134.4,39.53,134Z"/></g><g style="isolation:isolate"><path d="M24.91,101.32l.12,0a12.38,12.38,0,0,0,1.19,1.4l-.41.41a12.38,12.38,0,0,1,1.16,4.3,2.92,2.92,0,0,1-.66,1.39l-.13-.07a3,3,0,0,0,.06-.61,15.49,15.49,0,0,0-2-5.93C24.48,101.91,24.7,101.59,24.91,101.32Z"/><path d="M31.17,103.87a9.27,9.27,0,0,1,.71,3.35c0,.4,0,.66-.7,1.62l-.14-.07a4.37,4.37,0,0,0,.1-1,15.7,15.7,0,0,0-1.69-5.64,9,9,0,0,1,.54-.82h.14a4,4,0,0,0,.56,1,2.16,2.16,0,0,0,1.56.56c.56,0,1.33-.29,1.46-1.61a2.08,2.08,0,0,1,.35.11c0,.11,0,.23,0,.34,0,1.33-.64,2.19-1.93,2.19a3.53,3.53,0,0,1-1-.14Z"/><path d="M37.39,104.25c1.11.61,1.52,1,1.52,1.15a4.19,4.19,0,0,1-.73,1.21,11.65,11.65,0,0,0-1.6-1.06C36.85,105.09,37.12,104.64,37.39,104.25Z"/></g><g style="isolation:isolate"><g style="isolation:isolate"><path d="M24.87,71.56l.12,0A12.38,12.38,0,0,0,26.18,73l-.41.41a12.39,12.39,0,0,1,1.16,4.29,2.91,2.91,0,0,1-.66,1.4L26.14,79a2.84,2.84,0,0,0,.06-.6,15.49,15.49,0,0,0-2-5.93C24.44,72.15,24.66,71.83,24.87,71.56Z"/><path d="M30.71,74a9.7,9.7,0,0,1,.72,3.42c0,.45,0,.65-.73,1.58L30.56,79A2.24,2.24,0,0,0,30.7,78,16.33,16.33,0,0,0,29,72.4a7.31,7.31,0,0,1,.53-.82h.14a4,4,0,0,0,.56,1,1.66,1.66,0,0,0,1.13.47c.47,0,.76-.21.76-.95a2.79,2.79,0,0,0,0-.47,2.42,2.42,0,0,1,.35-.12c.2.87.47,1.17.85,1.17s.65-.24.65-.83c0-.1,0-.21,0-.32a1.34,1.34,0,0,1,.39.07,3.57,3.57,0,0,1,.07.62c0,1-.49,1.51-1.11,1.51a1.4,1.4,0,0,1-.8-.3h0a1.15,1.15,0,0,1-1.12.68,1.6,1.6,0,0,1-.63-.14Z"/></g><g style="isolation:isolate"><path d="M37.13,74.49c1.11.61,1.51,1,1.51,1.15a4,4,0,0,1-.72,1.21,11.15,11.15,0,0,0-1.61-1.06C36.59,75.33,36.86,74.88,37.13,74.49Z"/></g></g><g style="isolation:isolate"><g style="isolation:isolate"><path d="M24.83,41.8l.12,0a12.38,12.38,0,0,0,1.19,1.4l-.41.41a12.39,12.39,0,0,1,1.16,4.29,2.91,2.91,0,0,1-.66,1.4l-.13-.07a3,3,0,0,0,.06-.61,15.49,15.49,0,0,0-2-5.93C24.4,42.39,24.62,42.07,24.83,41.8Z"/></g><g style="isolation:isolate"><path d="M31.35,41.8a9.05,9.05,0,0,0-.44,1c-1.08.5-1.92,1-1.92,1.18s.82.84,2.27.84l.6,0a5.6,5.6,0,0,1-.35.84c-1.06.47-2,1.15-2,1.54s.6.82,1.64.82a4.4,4.4,0,0,0,1.7-.33l.06,0a6.86,6.86,0,0,1-.75,1.08,3.93,3.93,0,0,1-1.4.22c-.9,0-1.88-.41-1.88-1.55a2.34,2.34,0,0,1,1.06-1.81c-1-.09-1.57-.52-1.57-1.19a2,2,0,0,1,.54-1.35,9,9,0,0,1,2.37-1.45Z"/><path d="M36.06,44.73c1.11.61,1.52,1,1.52,1.15a4.19,4.19,0,0,1-.73,1.21A11.65,11.65,0,0,0,35.25,46C35.52,45.57,35.79,45.12,36.06,44.73Z"/></g></g><g style="isolation:isolate"><path d="M24.82,12l.12,0a12.38,12.38,0,0,0,1.19,1.4l-.41.41a12.39,12.39,0,0,1,1.16,4.29,2.91,2.91,0,0,1-.66,1.4l-.13-.07a3,3,0,0,0,.06-.61,15.49,15.49,0,0,0-2-5.93C24.39,12.63,24.61,12.31,24.82,12Z"/><path d="M31.8,12.63c1.31,0,2.18,2,2.18,3.3a4.66,4.66,0,0,1-.27,1.73,2.9,2.9,0,0,1-2.23,1.23c-.93,0-2.13-.58-2.15-2.48C29.31,14.33,30.5,12.63,31.8,12.63Zm1.71,3.88c0-.45-.62-2.71-1.88-2.71-.9,0-1.79,1.4-1.79,2.34a1.83,1.83,0,0,0,1.78,1.62A2.08,2.08,0,0,0,33.51,16.51Z"/><path d="M37.3,15c1.11.61,1.52,1,1.52,1.15a4.19,4.19,0,0,1-.73,1.21,11.07,11.07,0,0,0-1.6-1.06C36.76,15.81,37,15.36,37.3,15Z"/></g><path d="M368.64,475.64a9.79,9.79,0,0,1,.67,3.35c0,.4,0,.67-.66,1.63l-.13-.08a4.22,4.22,0,0,0,.1-1,16.53,16.53,0,0,0-1.61-5.65,7.15,7.15,0,0,1,.51-.81h.13a4.3,4.3,0,0,0,.53,1.05,2,2,0,0,0,1.49.55c.53,0,1.26-.28,1.39-1.61a1.58,1.58,0,0,1,.33.11c0,.12,0,.24,0,.34,0,1.33-.61,2.2-1.83,2.2a3.61,3.61,0,0,1-.92-.14Z"/><path d="M374.56,476c1.07.6,1.45,1,1.45,1.14a3.87,3.87,0,0,1-.69,1.21,12,12,0,0,0-1.53-1.06C374.06,476.87,374.31,476.42,374.56,476Z"/><path d="M379.92,475.64a9.79,9.79,0,0,1,.67,3.35c0,.4,0,.67-.66,1.63l-.13-.08a4.22,4.22,0,0,0,.1-1,16.53,16.53,0,0,0-1.61-5.65,8.92,8.92,0,0,1,.51-.81h.13a4.3,4.3,0,0,0,.53,1.05,2,2,0,0,0,1.49.55c.54,0,1.26-.28,1.39-1.61a1.58,1.58,0,0,1,.33.11c0,.12,0,.24,0,.34,0,1.33-.61,2.2-1.83,2.2a3.61,3.61,0,0,1-.92-.14Z"/><path d="M385.24,473.1h.11a12.1,12.1,0,0,0,1.14,1.41l-.39.4a13,13,0,0,1,1.1,4.3,3,3,0,0,1-.62,1.39l-.13-.07a2.93,2.93,0,0,0,.06-.61,16,16,0,0,0-1.87-5.93C384.84,473.69,385,473.37,385.24,473.1Z"/><path d="M397.73,478.1H395l.16-.65h2.73Z"/><path d="M406.26,475.64a9.79,9.79,0,0,1,.67,3.35c0,.4,0,.67-.66,1.63l-.14-.08a4.21,4.21,0,0,0,.11-1,16.53,16.53,0,0,0-1.61-5.65,9,9,0,0,1,.5-.81h.14a4.3,4.3,0,0,0,.53,1.05,2,2,0,0,0,1.49.55c.53,0,1.26-.28,1.39-1.61a1.82,1.82,0,0,1,.33.11c0,.12,0,.24,0,.34,0,1.33-.6,2.2-1.82,2.2a3.69,3.69,0,0,1-.93-.14Z"/><path d="M412.18,476c1.06.6,1.45,1,1.45,1.14a3.87,3.87,0,0,1-.69,1.21,12,12,0,0,0-1.53-1.06C411.67,476.87,411.93,476.42,412.18,476Z"/><path d="M417.22,473.1h.11a13.16,13.16,0,0,0,1.13,1.41l-.38.4a13,13,0,0,1,1.1,4.3,3,3,0,0,1-.62,1.39l-.13-.07a2.93,2.93,0,0,0,.06-.61,16.19,16.19,0,0,0-1.87-5.93C416.81,473.69,417,473.37,417.22,473.1Z"/><path d="M422.78,475.58a10.1,10.1,0,0,1,.69,3.41c0,.46,0,.65-.7,1.58l-.13-.08a2.34,2.34,0,0,0,.13-.91,17,17,0,0,0-1.58-5.65,7.15,7.15,0,0,1,.51-.81h.13a4.3,4.3,0,0,0,.53,1.05,1.58,1.58,0,0,0,1.08.46c.44,0,.72-.21.72-.94a4.4,4.4,0,0,0,0-.48l.32-.11c.2.87.45,1.17.82,1.17s.61-.24.61-.84a1.72,1.72,0,0,0,0-.31,1.26,1.26,0,0,1,.38.06,4.94,4.94,0,0,1,.06.63c0,.94-.46,1.5-1.05,1.5a1.25,1.25,0,0,1-.76-.29h0a1.09,1.09,0,0,1-1.06.68,1.36,1.36,0,0,1-.6-.15Z"/><path d="M432.84,471.23h1.07v8.18h1.58s.06,0,.06,0v.83a.05.05,0,0,1-.06.06h-2.65Z"/><path d="M435.37,480.35a.05.05,0,0,1-.06-.06v-.83s0,0,.06,0h2.3v-4.88h1.07v5.82Zm.78,2.4a.72.72,0,0,1-.48-.17.71.71,0,0,1-.19-.55.63.63,0,0,1,.67-.72.69.69,0,0,1,.49.18.73.73,0,0,1,.18.54.72.72,0,0,1-.18.53A.63.63,0,0,1,436.15,482.75Zm2.07,0a.64.64,0,0,1-.49-.19.72.72,0,0,1-.18-.53.77.77,0,0,1,.18-.54.66.66,0,0,1,.49-.18.63.63,0,0,1,.5.19.76.76,0,0,1,.18.53.73.73,0,0,1-.18.52A.64.64,0,0,1,438.22,482.75Z"/><path d="M440.66,483.23a2.6,2.6,0,0,1-1.22-.34l.31-.8a2.23,2.23,0,0,0,.48.16,1.73,1.73,0,0,0,.41,0,1,1,0,0,0,.84-.44,2,2,0,0,0,.31-1.16v-6.16h1v6.1a3,3,0,0,1-.55,1.91A1.92,1.92,0,0,1,440.66,483.23Z"/><path d="M449.53,480.63a2.5,2.5,0,0,1-.72,1.91,2.86,2.86,0,0,1-2.05.69,3.83,3.83,0,0,1-2.16-.62l.48-.8a4.69,4.69,0,0,0,.8.34,2.58,2.58,0,0,0,.9.14,1.75,1.75,0,0,0,1.28-.44,1.5,1.5,0,0,0,.46-1.16v-.34h-1.17a2.68,2.68,0,0,1-2-.71,2.74,2.74,0,0,1-.7-2,2.93,2.93,0,0,1,.9-2.25,3.37,3.37,0,0,1,2.39-.83h1.57v4.88h1s.06,0,.06,0v.83a.05.05,0,0,1-.06.06h-1Zm-1-1.22v-4H448a2.33,2.33,0,0,0-1.66.56,2.07,2.07,0,0,0-.6,1.58,2,2,0,0,0,.41,1.37,1.6,1.6,0,0,0,1.23.44Z"/><path d="M458.22,480.35a2.64,2.64,0,0,1-1-.18,2.9,2.9,0,0,1-.94-.66,2,2,0,0,1-.71.6,2.13,2.13,0,0,1-1,.24H450.4a.05.05,0,0,1-.06-.06v-.83s0,0,.06,0h1.72v-4h1v4h1.29a1.09,1.09,0,0,0,.9-.39,1.47,1.47,0,0,0,.33-1v-2.56h1v3a2,2,0,0,0,.66.72,1.71,1.71,0,0,0,.9.21H459v-4.88h1v5.82Z"/><path d="M372.37,504.55a2.71,2.71,0,0,1-2.05-.78,2.91,2.91,0,0,1-.76-2.13,7.48,7.48,0,0,1,.11-1.15,6.45,6.45,0,0,1,.27-1.11h1.2a10.63,10.63,0,0,0-.23,2.15,2.12,2.12,0,0,0,.39,1.33,1.21,1.21,0,0,0,1,.52h5.39v-6.1H379v7.27Zm.6-7.28a.79.79,0,0,1-.84-.9.87.87,0,0,1,.24-.69.9.9,0,0,1,.6-.21.81.81,0,0,1,.61.23.9.9,0,0,1,.22.67.89.89,0,0,1-.22.66A.79.79,0,0,1,373,497.27Zm2.59,0A.79.79,0,0,1,375,497a.86.86,0,0,1-.23-.66.93.93,0,0,1,.22-.67.81.81,0,0,1,.62-.23.78.78,0,0,1,.62.24.94.94,0,0,1,.22.66.92.92,0,0,1-.22.65A.76.76,0,0,1,375.56,497.27Z"/><path d="M381.76,493.15h1.33v10.23h2c.05,0,.08,0,.08.06v1a.07.07,0,0,1-.08.07h-3.31Z"/><path d="M384.92,504.55a.06.06,0,0,1-.07-.07v-1s0-.06.07-.06h1.86a7.3,7.3,0,0,1-.55-2.57,5.09,5.09,0,0,1,.54-2.38,4.15,4.15,0,0,1,1.26-.74,4.09,4.09,0,0,1,1.48-.27,3.21,3.21,0,0,1,1.65.42,2.75,2.75,0,0,1,1.09,1.17,3.89,3.89,0,0,1,.38,1.73,4.75,4.75,0,0,1-.32,1.76,2,2,0,0,0,.72.69,2.59,2.59,0,0,0,1.05.19h.08s.08,0,.08.06v1a.07.07,0,0,1-.08.07h-.08a3.69,3.69,0,0,1-1.36-.22,3.1,3.1,0,0,1-1.08-.76,2.93,2.93,0,0,1-1.11.74,3.68,3.68,0,0,1-1.32.24Zm2.65-4a6.82,6.82,0,0,0,.13,1.36,7.64,7.64,0,0,0,.44,1.46h1.07a1.86,1.86,0,0,0,1.54-.68,3.21,3.21,0,0,0,.53-2,2.27,2.27,0,0,0-.52-1.55,1.59,1.59,0,0,0-1.25-.6,2.79,2.79,0,0,0-.94.17,3.16,3.16,0,0,0-.81.44,2.14,2.14,0,0,0-.16.65Q387.57,500.16,387.57,500.56Z"/><path d="M394,504.55a.06.06,0,0,1-.07-.07v-1s0-.06.07-.06h2.43v-6.1h1.34v6.1H400c.05,0,.08,0,.08.06v1a.07.07,0,0,1-.08.07Zm1.85,3a.9.9,0,1,1,0-1.8.81.81,0,0,1,.6.23.88.88,0,0,1,.23.67.93.93,0,0,1-.22.67A.82.82,0,0,1,395.86,507.55Zm2.59,0a.86.86,0,0,1-.62-.23,1.13,1.13,0,0,1,0-1.34.85.85,0,0,1,.62-.23.76.76,0,0,1,.62.25.92.92,0,0,1,.22.65,1,1,0,0,1-.22.66A.78.78,0,0,1,398.45,507.55Z"/><path d="M399.88,504.55a.07.07,0,0,1-.08-.07v-1s0-.06.08-.06h2.43v-6.1h1.33v6.1h2.25c.05,0,.07,0,.07.06v1a.06.06,0,0,1-.07.07Zm1.84,3a.87.87,0,0,1-.59-.21,1.08,1.08,0,0,1,0-1.38.87.87,0,0,1,.59-.21.82.82,0,0,1,.61.23.92.92,0,0,1,.23.67.94.94,0,0,1-.23.67A.81.81,0,0,1,401.72,507.55Zm2.6,0a.85.85,0,0,1-.62-.23,1.09,1.09,0,0,1,0-1.34.83.83,0,0,1,.62-.23.79.79,0,0,1,.62.25.92.92,0,0,1,.22.65,1,1,0,0,1-.22.66A.81.81,0,0,1,404.32,507.55Z"/><path d="M405.75,504.55a.07.07,0,0,1-.08-.07v-1s0-.06.08-.06H408a3.13,3.13,0,0,1-.58-1.05,4,4,0,0,1-.19-1.22,3.63,3.63,0,0,1,1.11-2.81,4.26,4.26,0,0,1,3-1h2v6.1h1.59a.06.06,0,0,1,.06,0v1.08s0,.06-.07.06Zm6.29-1.17v-4.94h-.64a2.9,2.9,0,0,0-2.08.71,2.59,2.59,0,0,0-.74,2c0,1.51.68,2.27,2.05,2.27Zm-2.49-7.53a.81.81,0,0,1-.84-.9.84.84,0,0,1,.25-.69.87.87,0,0,1,.59-.21.78.78,0,0,1,.61.23.91.91,0,0,1,.23.67,1,1,0,0,1-.22.66A.81.81,0,0,1,409.55,495.85Zm2.6,0a.81.81,0,0,1-.62-.24.91.91,0,0,1-.23-.66.94.94,0,0,1,.23-.67.94.94,0,0,1,1.24,0,.94.94,0,0,1,.22.66.92.92,0,0,1-.22.65A.77.77,0,0,1,412.15,495.85Z"/><path d="M414.76,504.55a.06.06,0,0,1-.07-.07v-1s0-.06.07-.06h2.43v-6.1h1.34v6.1h2.24c.05,0,.08,0,.08.06v1a.07.07,0,0,1-.08.07Zm1.79-8.7a.84.84,0,0,1-.6-.22.86.86,0,0,1-.24-.68.79.79,0,0,1,.84-.9.81.81,0,0,1,.61.23,1.12,1.12,0,0,1,0,1.33A.79.79,0,0,1,416.55,495.85Zm2.59,0a.79.79,0,0,1-.61-.24.87.87,0,0,1-.23-.66.93.93,0,0,1,.22-.67.81.81,0,0,1,.62-.23.78.78,0,0,1,.62.24.94.94,0,0,1,.22.66.92.92,0,0,1-.22.65A.76.76,0,0,1,419.14,495.85Z"/><path d="M420.63,504.55a.07.07,0,0,1-.08-.07v-1s0-.06.08-.06h2V493.15h1.33v11.4Z"/><path d="M426.94,493.15h1.33v11.4h-1.33Z"/><path d="M435.55,503.38h5a9.3,9.3,0,0,0-1.12-3.43,7.43,7.43,0,0,0-2.36-2.45l.49-1.14a7.12,7.12,0,0,1,2.81,2.67,11.31,11.31,0,0,1,1.47,4.38v1.14h-6.28Z"/><path d="M443.18,503.38h5a9.3,9.3,0,0,0-1.12-3.43,7.43,7.43,0,0,0-2.36-2.45l.49-1.14a7.24,7.24,0,0,1,2.81,2.69,11.23,11.23,0,0,1,1.46,4.33h1.67c.05,0,.07,0,.07.06v1a.06.06,0,0,1-.07.07h-7.94Z"/><path d="M451,504.55a.07.07,0,0,1-.07-.07v-1s0-.06.07-.06h2.31a2.89,2.89,0,0,1-.77-1.11,4.13,4.13,0,0,1-.29-1.56,3.5,3.5,0,0,1,1-2.64,3.57,3.57,0,0,1,2.6-.95,5,5,0,0,1,1.19.13,4.14,4.14,0,0,1,.89.31l-.4,1.12a4.57,4.57,0,0,0-1.76-.39c-1.42,0-2.13.83-2.13,2.48a3.22,3.22,0,0,0,.51,1.89,1.57,1.57,0,0,0,1.34.72h2.67v1.17Z"/><path d="M104.18,475.07a9.7,9.7,0,0,1,.67,3.35c0,.4,0,.66-.66,1.63l-.13-.08a4.34,4.34,0,0,0,.1-1,16.47,16.47,0,0,0-1.61-5.65,7.15,7.15,0,0,1,.51-.81h.13a4.23,4.23,0,0,0,.53,1,2,2,0,0,0,1.49.56c.53,0,1.26-.28,1.39-1.61a1.58,1.58,0,0,1,.33.11c0,.11,0,.23,0,.34,0,1.33-.61,2.2-1.83,2.2a3.61,3.61,0,0,1-.92-.14Z"/><path d="M110.1,475.45c1.07.61,1.45,1,1.45,1.15a4,4,0,0,1-.69,1.21,11.08,11.08,0,0,0-1.53-1.06C109.6,476.3,109.85,475.84,110.1,475.45Z"/><path d="M115.46,475.07a9.7,9.7,0,0,1,.67,3.35c0,.4,0,.66-.66,1.63l-.13-.08a4.34,4.34,0,0,0,.1-1,16.47,16.47,0,0,0-1.61-5.65,8.92,8.92,0,0,1,.51-.81h.13a4.23,4.23,0,0,0,.53,1,2,2,0,0,0,1.49.56c.53,0,1.26-.28,1.39-1.61a1.58,1.58,0,0,1,.33.11c0,.11,0,.23,0,.34,0,1.33-.61,2.2-1.83,2.2a3.61,3.61,0,0,1-.92-.14Z"/><path d="M120.78,472.52l.11,0a13,13,0,0,0,1.13,1.4l-.38.41a12.94,12.94,0,0,1,1.1,4.3,3,3,0,0,1-.62,1.39L122,480a2.93,2.93,0,0,0,.06-.61,15.94,15.94,0,0,0-1.87-5.93C120.38,473.12,120.58,472.8,120.78,472.52Z"/><path d="M129.28,482.66a2.72,2.72,0,0,1-1.22-.34l.31-.81a2.84,2.84,0,0,0,.48.17,1.78,1.78,0,0,0,.41,0,1,1,0,0,0,.84-.44,1.94,1.94,0,0,0,.31-1.16V474h1v6.11a2.94,2.94,0,0,1-.55,1.9A1.9,1.9,0,0,1,129.28,482.66Z"/><path d="M133.64,470.66h1.07v8.17h1.58c.05,0,.07,0,.07.05v.83s0,.06-.07.06h-2.65Z"/><path d="M136.18,479.77a.05.05,0,0,1-.06-.06v-.83s0-.05.06-.05h2.3V474h1.06v5.82Zm.77,2.4a.67.67,0,0,1-.47-.17.68.68,0,0,1-.2-.55.64.64,0,0,1,.67-.72.63.63,0,0,1,.49.19.72.72,0,0,1,.18.53.77.77,0,0,1-.18.54A.66.66,0,0,1,137,482.17Zm2.08,0a.66.66,0,0,1-.49-.18.77.77,0,0,1-.19-.54.74.74,0,0,1,.18-.53.69.69,0,0,1,.5-.19.65.65,0,0,1,.5.2.79.79,0,0,1,.17.52.8.8,0,0,1-.17.53A.65.65,0,0,1,139,482.17Z"/><path d="M141.25,470.23l.57-.08a.86.86,0,0,1-.42-.76,1,1,0,0,1,.33-.8,1.39,1.39,0,0,1,.89-.28,1.59,1.59,0,0,1,.79.18l-.18.54a1.11,1.11,0,0,0-.6-.14.67.67,0,0,0-.44.15.55.55,0,0,0-.18.46.58.58,0,0,0,.36.56l.57-.09a6,6,0,0,1,.63-.06v.59l-.42,0-1.23.15-.67.1Zm.67,1.14H143v8.4h-1.07Z"/><path d="M149,480.15h-.5l1.92-6.08h.52Z"/><path d="M161,480.06a2.48,2.48,0,0,1-.73,1.91,2.83,2.83,0,0,1-2,.69A3.88,3.88,0,0,1,156,482l.48-.8a6.19,6.19,0,0,0,.8.34,2.94,2.94,0,0,0,.91.14,1.81,1.81,0,0,0,1.28-.44,1.51,1.51,0,0,0,.46-1.16v-.35h-1.18a2.67,2.67,0,0,1-2-.7,2.79,2.79,0,0,1-.7-2,2.92,2.92,0,0,1,.9-2.25,3.38,3.38,0,0,1,2.4-.84H161v4.88h1s.06,0,.06.05v.83a.05.05,0,0,1-.06.06h-1Zm-1-1.23v-3.94h-.52a2.3,2.3,0,0,0-1.66.56,2.07,2.07,0,0,0-.59,1.57,2,2,0,0,0,.4,1.38,1.64,1.64,0,0,0,1.24.43Z"/><path d="M161.85,479.77a.05.05,0,0,1-.06-.06v-.83s0-.05.06-.05h2.3V474h1.06v5.82Zm.77,2.4a.67.67,0,0,1-.47-.17.68.68,0,0,1-.2-.55.64.64,0,0,1,.67-.72.63.63,0,0,1,.49.19.72.72,0,0,1,.18.53.77.77,0,0,1-.18.54A.66.66,0,0,1,162.62,482.17Zm2.08,0a.66.66,0,0,1-.49-.18.77.77,0,0,1-.19-.54.74.74,0,0,1,.18-.53.69.69,0,0,1,.5-.19.65.65,0,0,1,.5.2.79.79,0,0,1,.17.52.8.8,0,0,1-.17.53A.65.65,0,0,1,164.7,482.17Z"/><path d="M167.59,470.66h1.07v8.17h1.58s.07,0,.07.05v.83s0,.06-.07.06h-2.65Z"/><path d="M170.12,479.77s-.05,0-.05-.06v-.83a0,0,0,0,1,.05-.05h1.49a5.92,5.92,0,0,1-.44-2.05,4.1,4.1,0,0,1,.43-1.91,3.46,3.46,0,0,1,1-.58,3.17,3.17,0,0,1,1.18-.22,2.59,2.59,0,0,1,1.32.33,2.2,2.2,0,0,1,.87.94,3,3,0,0,1,.31,1.39,3.69,3.69,0,0,1-.34,1.62,2.49,2.49,0,0,1-1,1.06,2.81,2.81,0,0,1-1.43.36Zm2.13-3.19a5.67,5.67,0,0,0,.1,1.09,5.39,5.39,0,0,0,.35,1.16h.85a1.46,1.46,0,0,0,1.23-.54,2.48,2.48,0,0,0,.43-1.58,1.84,1.84,0,0,0-.41-1.23,1.29,1.29,0,0,0-1-.48,2.1,2.1,0,0,0-.74.13,2.33,2.33,0,0,0-.66.36,1.89,1.89,0,0,0-.12.51A5.34,5.34,0,0,0,172.25,476.58Z"/><path d="M183.68,478.09h-2l.12-.49h2.05Z"/><path d="M191.93,479.89a2.53,2.53,0,0,1-2.79-2.78,3.76,3.76,0,0,1,.37-1.64,2.91,2.91,0,0,1,1-1.2,2.57,2.57,0,0,1,1.44-.44,2.38,2.38,0,0,1,1.39.45,3.08,3.08,0,0,1,1,1.22,3.65,3.65,0,0,1,.37,1.61,2.84,2.84,0,0,1-.71,2.07A2.89,2.89,0,0,1,191.93,479.89Zm-1.17-7.08a.72.72,0,0,1-.48-.17.86.86,0,0,1,0-1.1.72.72,0,0,1,.48-.17.65.65,0,0,1,.48.18.77.77,0,0,1,.18.54.72.72,0,0,1-.18.53A.6.6,0,0,1,190.76,472.81ZM192,479c1.15,0,1.72-.62,1.72-1.85a2.89,2.89,0,0,0-.46-1.73,1.48,1.48,0,0,0-1.27-.63,1.5,1.5,0,0,0-1.23.65,2.84,2.84,0,0,0-.49,1.71C190.22,478.35,190.8,479,192,479Zm.88-6.16a.63.63,0,0,1-.49-.19.72.72,0,0,1-.18-.53.77.77,0,0,1,.17-.53.74.74,0,0,1,1,0,.77.77,0,0,1,.17.52.82.82,0,0,1-.17.53A.65.65,0,0,1,192.83,472.81Z"/><path d="M198.41,479.77v.29a2.94,2.94,0,0,1-.55,1.9,1.9,1.9,0,0,1-1.59.7,2.72,2.72,0,0,1-1.22-.34l.31-.81a2.84,2.84,0,0,0,.48.17,1.78,1.78,0,0,0,.41,0,1,1,0,0,0,.85-.44,2,2,0,0,0,.3-1.16V474h1v4.88h1.49s.06,0,.06.05v.83a.05.05,0,0,1-.06.06Zm-.32-7a.65.65,0,0,1-.5-.19.87.87,0,0,1,0-1.06.63.63,0,0,1,.5-.19.62.62,0,0,1,.49.2.73.73,0,0,1,.18.52.77.77,0,0,1-.18.53A.61.61,0,0,1,198.09,472.81Z"/><path d="M199.78,479.77a.05.05,0,0,1-.06-.06v-.83s0-.05.06-.05h1.84A2.26,2.26,0,0,1,201,478a3.13,3.13,0,0,1-.24-1.25,2.66,2.66,0,0,1,2.86-2.87,4.69,4.69,0,0,1,1,.1,3.16,3.16,0,0,1,.72.25l-.32.9a3.64,3.64,0,0,0-1.41-.31q-1.71,0-1.71,2a2.59,2.59,0,0,0,.41,1.51,1.26,1.26,0,0,0,1.07.57h2.14v.94Zm3.53-7a.66.66,0,0,1-.5-.19.87.87,0,0,1,0-1.06.65.65,0,0,1,.5-.19.62.62,0,0,1,.49.2.73.73,0,0,1,.18.52.77.77,0,0,1-.18.53A.61.61,0,0,1,203.31,472.81Z"/><path d="M213.37,483.62a2.65,2.65,0,0,1-1.83-.6,2.22,2.22,0,0,1-.66-1.71,2.87,2.87,0,0,1,1.54-2.36,3,3,0,0,1-1.06-2.39,2.64,2.64,0,0,1,.38-1.45,2.45,2.45,0,0,1,1.06-.95,3.38,3.38,0,0,1,1.51-.33,4.69,4.69,0,0,1,.95.1,3.16,3.16,0,0,1,.72.25l-.33.9a3.56,3.56,0,0,0-1.4-.31,1.81,1.81,0,0,0-1.33.46,1.72,1.72,0,0,0-.47,1.31,3.17,3.17,0,0,0,.19,1.14,2,2,0,0,0,.54.82,13.06,13.06,0,0,1,2.07-.81l.28.88a9,9,0,0,0-1.9.7,3.84,3.84,0,0,0-1.26.92,1.59,1.59,0,0,0-.4,1,1.34,1.34,0,0,0,.45,1.13,2.2,2.2,0,0,0,1.39.36,11.38,11.38,0,0,0,1.76-.19l.13.82a13.2,13.2,0,0,1-1.35.24C214,483.6,213.69,483.62,213.37,483.62Z"/><path d="M217.72,470.66h1.07v8.17h1.58s.06,0,.06.05v.83a.05.05,0,0,1-.06.06h-2.65Z"/><path d="M220.25,479.77a.05.05,0,0,1-.06-.06v-.83s0-.05.06-.05h1.47v-8.17h1v5.87a4.92,4.92,0,0,1,1.41-2,3,3,0,0,1,1.91-.68,2.69,2.69,0,0,1,2.05.74,3.29,3.29,0,0,1,.7,2.31v1.95h1.58s.06,0,.06.05v.83a.05.05,0,0,1-.06.06Zm7.54-.94v-1.9a2.3,2.3,0,0,0-.49-1.63,1.89,1.89,0,0,0-1.46-.52q-1.84,0-3.1,3.07v1Z"/><path d="M230.27,479.77a.05.05,0,0,1-.06-.06v-.83s0-.05.06-.05h1.82a2.38,2.38,0,0,1-.46-.83,3.09,3.09,0,0,1-.16-1,2.94,2.94,0,0,1,.88-2.23,3.35,3.35,0,0,1,2.41-.84h1.57v5.82Zm5-.94v-3.94h-.52a2.34,2.34,0,0,0-1.66.55,2.07,2.07,0,0,0-.59,1.57c0,1.22.55,1.82,1.64,1.82Zm-2-6a.72.72,0,0,1-.48-.17.86.86,0,0,1,0-1.1.72.72,0,0,1,.48-.17.65.65,0,0,1,.48.18.87.87,0,0,1,0,1.07A.64.64,0,0,1,233.32,472.81Zm2.07,0a.64.64,0,0,1-.49-.19.87.87,0,0,1,0-1.06.63.63,0,0,1,.49-.19.64.64,0,0,1,.5.2.73.73,0,0,1,.18.52.77.77,0,0,1-.18.53A.63.63,0,0,1,235.39,472.81Z"/><path d="M15.91,247.27a2.7,2.7,0,0,1-.33,1.22l-.81-.31a1.9,1.9,0,0,0,.21-.89,1,1,0,0,0-.44-.84,2,2,0,0,0-1.16-.31H7.21v-1h6.11a2.94,2.94,0,0,1,1.9.55A1.91,1.91,0,0,1,15.91,247.27Z"/><path d="M12.09,243.57v-4a7.69,7.69,0,0,0-2.74.9,6,6,0,0,0-2,1.89L6.48,242a5.7,5.7,0,0,1,2.14-2.25,9.14,9.14,0,0,1,3.5-1.18H13v5Z"/><path d="M3.91,236.8v-1.06h8.18v-1.59s0-.06.05-.06H13a.05.05,0,0,1,.06.06v2.65Z"/><path d="M13,234.27a.05.05,0,0,1-.06.06h-.83s-.05,0-.05-.06v-1.46H7.57v-1H9.79a5,5,0,0,1-2-1.42,3,3,0,0,1-.68-1.91,2.69,2.69,0,0,1,.74-2.05,3.29,3.29,0,0,1,2.31-.69h1.95v-1.59s0-.06.05-.06H13a.05.05,0,0,1,.06.06Zm-.94-7.53h-1.9a2.35,2.35,0,0,0-1.63.48A1.89,1.89,0,0,0,8,228.68q0,1.84,3.07,3.11h1Z"/><path d="M13,224.25a.05.05,0,0,1-.06.06h-.83s-.05,0-.05-.06v-1.49a5.73,5.73,0,0,1-2.05.45,4.1,4.1,0,0,1-1.91-.44,3.41,3.41,0,0,1-.58-1,3.22,3.22,0,0,1-.22-1.19,2.59,2.59,0,0,1,.33-1.32,2.26,2.26,0,0,1,.94-.87,3.12,3.12,0,0,1,1.39-.3,3.8,3.8,0,0,1,1.41.25,1.47,1.47,0,0,0,.54-.58,2,2,0,0,0,.15-.84v-.06s0-.06.05-.06H13a.05.05,0,0,1,.06.06v.06a3.16,3.16,0,0,1-.17,1.09,2.52,2.52,0,0,1-.61.87,2.32,2.32,0,0,1,.59.89,2.87,2.87,0,0,1,.19,1Zm-3.19-2.12a5.67,5.67,0,0,0,1.09-.1,6.1,6.1,0,0,0,1.16-.36v-.85a1.49,1.49,0,0,0-.54-1.23,2.54,2.54,0,0,0-1.58-.43,1.8,1.8,0,0,0-1.23.42,1.27,1.27,0,0,0-.48,1,2.11,2.11,0,0,0,.13.75,2.41,2.41,0,0,0,.36.65,1.91,1.91,0,0,0,.51.13Z"/><path d="M13,217A.05.05,0,0,1,13,217h-.83s-.05,0-.05-.06V215.4H3.91v-1.07H13Z"/><path d="M3.91,211.93v-1.07H13v1.07Z"/><path d="M12.09,205v-4a7.49,7.49,0,0,0-2.74.89,6.07,6.07,0,0,0-2,1.89l-.91-.39a5.7,5.7,0,0,1,2.14-2.25,9.14,9.14,0,0,1,3.5-1.17H13v5Z"/><path d="M12.09,198.94v-4a7.69,7.69,0,0,0-2.74.9,6,6,0,0,0-2,1.89l-.91-.39a5.87,5.87,0,0,1,2.15-2.25,9.12,9.12,0,0,1,3.46-1.17v-1.33s0-.06.05-.06H13a.05.05,0,0,1,.06.06v6.35Z"/><path d="M13,192.71a.05.05,0,0,1-.06.06h-.83s-.05,0-.05-.06v-1.85a2.25,2.25,0,0,1-.88.62,3.16,3.16,0,0,1-1.25.23,2.81,2.81,0,0,1-2.11-.77,2.83,2.83,0,0,1-.76-2.08,4.07,4.07,0,0,1,.1-1,3.16,3.16,0,0,1,.25-.72l.9.32A3.64,3.64,0,0,0,8,188.92c0,1.14.66,1.7,2,1.7a2.59,2.59,0,0,0,1.51-.4,1.26,1.26,0,0,0,.57-1.07V187H13Z"/><path d="M598.91,475.07a9.7,9.7,0,0,1,.67,3.35c0,.4,0,.66-.66,1.63l-.14-.08a4.35,4.35,0,0,0,.11-1,16.47,16.47,0,0,0-1.61-5.65,9,9,0,0,1,.5-.81h.14a4.23,4.23,0,0,0,.53,1,2,2,0,0,0,1.49.56c.53,0,1.26-.28,1.39-1.61a1.82,1.82,0,0,1,.33.11c0,.11,0,.23,0,.34,0,1.33-.6,2.2-1.82,2.2a3.69,3.69,0,0,1-.93-.14Z"/><path d="M604.83,475.45c1.06.61,1.45,1,1.45,1.15a4,4,0,0,1-.69,1.21,11.08,11.08,0,0,0-1.53-1.06C604.32,476.3,604.58,475.84,604.83,475.45Z"/><path d="M610.19,475.07a9.7,9.7,0,0,1,.67,3.35c0,.4,0,.66-.66,1.63l-.13-.08a4.34,4.34,0,0,0,.1-1,16.47,16.47,0,0,0-1.61-5.65,7.15,7.15,0,0,1,.51-.81h.13a4.23,4.23,0,0,0,.53,1,2,2,0,0,0,1.49.56c.53,0,1.26-.28,1.39-1.61a1.58,1.58,0,0,1,.33.11c0,.11,0,.23,0,.34,0,1.33-.61,2.2-1.83,2.2a3.55,3.55,0,0,1-.92-.14Z"/><path d="M615.51,472.52l.11,0a13,13,0,0,0,1.13,1.4l-.38.41a12.94,12.94,0,0,1,1.1,4.3,3,3,0,0,1-.62,1.39l-.13-.07a2.93,2.93,0,0,0,.06-.61,15.94,15.94,0,0,0-1.87-5.93C615.1,473.12,615.31,472.8,615.51,472.52Z"/><path d="M624,482.66a2.72,2.72,0,0,1-1.22-.34l.31-.81a2.34,2.34,0,0,0,.48.17,1.73,1.73,0,0,0,.41,0,1,1,0,0,0,.84-.44,1.94,1.94,0,0,0,.31-1.16V474h1v6.11a2.94,2.94,0,0,1-.55,1.9A1.93,1.93,0,0,1,624,482.66Z"/><path d="M628.37,470.66h1.07v8.17H631s.06,0,.06.05v.83a.05.05,0,0,1-.06.06h-2.65Z"/><path d="M630.9,479.77a.05.05,0,0,1-.06-.06v-.83s0-.05.06-.05h2.31V474h1.06v5.82Zm.78,2.4a.67.67,0,0,1-.47-.17.65.65,0,0,1-.2-.55.68.68,0,0,1,.2-.55.71.71,0,0,1,.47-.17.63.63,0,0,1,.49.19.72.72,0,0,1,.18.53.77.77,0,0,1-.18.54A.66.66,0,0,1,631.68,482.17Zm2.08,0a.7.7,0,0,1-.5-.18.77.77,0,0,1-.18-.54.74.74,0,0,1,.18-.53.69.69,0,0,1,.5-.19.62.62,0,0,1,.49.2.75.75,0,0,1,.18.52.76.76,0,0,1-.18.53A.61.61,0,0,1,633.76,482.17Z"/><path d="M636,470.23l.57-.08a.85.85,0,0,1-.43-.76,1,1,0,0,1,.34-.8,1.39,1.39,0,0,1,.89-.28,1.62,1.62,0,0,1,.79.18L638,469a1.11,1.11,0,0,0-.6-.14.65.65,0,0,0-.44.15.52.52,0,0,0-.19.46.61.61,0,0,0,.37.56l.57-.09a5.81,5.81,0,0,1,.63-.06v.59l-.43,0-1.22.15-.67.1Zm.67,1.14h1.07v8.4h-1.07Z"/><path d="M643.71,480.15h-.5l1.92-6.08h.52Z"/><path d="M655.71,480.06A2.52,2.52,0,0,1,655,482a2.84,2.84,0,0,1-2.05.69,3.88,3.88,0,0,1-2.16-.62l.48-.8a6.19,6.19,0,0,0,.8.34,2.9,2.9,0,0,0,.91.14,1.81,1.81,0,0,0,1.28-.44,1.55,1.55,0,0,0,.46-1.16v-.35h-1.18a2.67,2.67,0,0,1-2-.7,2.79,2.79,0,0,1-.7-2,2.92,2.92,0,0,1,.9-2.25,3.38,3.38,0,0,1,2.4-.84h1.57v4.88h1s.06,0,.06.05v.83a.05.05,0,0,1-.06.06h-1Zm-1-1.23v-3.94h-.52a2.3,2.3,0,0,0-1.66.56,2,2,0,0,0-.59,1.57,2,2,0,0,0,.4,1.38,1.61,1.61,0,0,0,1.24.43Z"/><path d="M656.57,479.77a.05.05,0,0,1-.06-.06v-.83s0-.05.06-.05h2.31V474h1.06v5.82Zm.78,2.4a.67.67,0,0,1-.47-.17.65.65,0,0,1-.2-.55.68.68,0,0,1,.2-.55.71.71,0,0,1,.47-.17.63.63,0,0,1,.49.19.72.72,0,0,1,.18.53.77.77,0,0,1-.18.54A.66.66,0,0,1,657.35,482.17Zm2.08,0a.7.7,0,0,1-.5-.18.77.77,0,0,1-.18-.54.74.74,0,0,1,.18-.53.69.69,0,0,1,.5-.19.62.62,0,0,1,.49.2.75.75,0,0,1,.18.52.76.76,0,0,1-.18.53A.61.61,0,0,1,659.43,482.17Z"/><path d="M662.32,470.66h1.07v8.17H665s.06,0,.06.05v.83a.05.05,0,0,1-.06.06h-2.65Z"/><path d="M664.85,479.77a.05.05,0,0,1-.06-.06v-.83s0-.05.06-.05h1.49a5.7,5.7,0,0,1-.44-2.05,4.1,4.1,0,0,1,.43-1.91,3.46,3.46,0,0,1,1-.58,3.17,3.17,0,0,1,1.18-.22,2.59,2.59,0,0,1,1.32.33,2.2,2.2,0,0,1,.87.94,3,3,0,0,1,.31,1.39,3.55,3.55,0,0,1-.35,1.62,2.47,2.47,0,0,1-1,1.06,2.81,2.81,0,0,1-1.43.36Zm2.12-3.19a6.59,6.59,0,0,0,.1,1.09,6.1,6.1,0,0,0,.36,1.16h.85a1.46,1.46,0,0,0,1.23-.54,2.48,2.48,0,0,0,.43-1.58,1.84,1.84,0,0,0-.41-1.23,1.29,1.29,0,0,0-1-.48,2.19,2.19,0,0,0-.75.13,2.41,2.41,0,0,0-.65.36,1.58,1.58,0,0,0-.12.51A5.22,5.22,0,0,0,667,476.58Z"/><path d="M678.41,478.09h-2l.11-.49h2Z"/><path d="M690.14,479.77a2.6,2.6,0,0,1-3,2.89h-.86a2.14,2.14,0,0,1-1.77-.83,3.52,3.52,0,0,1-.65-2.25,9.7,9.7,0,0,1,.13-1.5,7.08,7.08,0,0,1,.36-1.33h1a8,8,0,0,0-.41,2.83,2.65,2.65,0,0,0,.41,1.58,1.35,1.35,0,0,0,1.15.56h.59a2.09,2.09,0,0,0,1.53-.48,1.92,1.92,0,0,0,.49-1.43v-9.15h1v8.17h1.31s.07,0,.07.05v.83s0,.06-.07.06Z"/><path d="M691.34,479.77a.05.05,0,0,1-.06-.06v-.83s0-.05.06-.05h1.94V474h1.07v4.88h1.8s.06,0,.06.05v.83a.05.05,0,0,1-.06.06Zm1.47,2.4a.67.67,0,0,1-.47-.17.68.68,0,0,1-.2-.55.64.64,0,0,1,.67-.72.63.63,0,0,1,.49.19.72.72,0,0,1,.18.53.77.77,0,0,1-.18.54A.66.66,0,0,1,692.81,482.17Zm2.08,0a.66.66,0,0,1-.49-.18.73.73,0,0,1-.19-.54.74.74,0,0,1,.18-.53.69.69,0,0,1,.5-.19.65.65,0,0,1,.5.2.79.79,0,0,1,.17.52.8.8,0,0,1-.17.53A.65.65,0,0,1,694.89,482.17Z"/><path d="M696,479.77a.05.05,0,0,1-.06-.06v-.83s0-.05.06-.05h2.3V474h1.07v5.82Zm1.47-7.47.57-.08a.86.86,0,0,1-.42-.76,1,1,0,0,1,.33-.8,1.34,1.34,0,0,1,.89-.28,1.59,1.59,0,0,1,.79.18l-.18.54a1.11,1.11,0,0,0-.6-.15.67.67,0,0,0-.44.15.69.69,0,0,0-.08.82.75.75,0,0,0,.26.21l.57-.09a6,6,0,0,1,.63-.06v.59l-.42,0-1.23.15-.67.1Z"/><path d="M701.78,470.66h1.06v9.11h-1.06Z"/><path d="M706.93,479.77v.29a2.94,2.94,0,0,1-.55,1.9,1.93,1.93,0,0,1-1.59.7,2.72,2.72,0,0,1-1.22-.34l.31-.81a2.34,2.34,0,0,0,.48.17,1.73,1.73,0,0,0,.41,0,1,1,0,0,0,.84-.44,2,2,0,0,0,.31-1.16V474h1v4.88h1.48s.07,0,.07.05v.83s0,.06-.07.06Z"/><path d="M716.12,479.77a2.73,2.73,0,0,1-1-.18,3,3,0,0,1-.94-.66,2,2,0,0,1-.7.61,2.26,2.26,0,0,1-1.05.23h-4.14s0,0,0-.06v-.83s0-.05,0-.05H710v-3.94h1v3.94h1.3a1.11,1.11,0,0,0,.9-.38,1.52,1.52,0,0,0,.32-1v-2.56h1v3a1.89,1.89,0,0,0,.65.73,1.78,1.78,0,0,0,.91.2h.73V474h1v5.82Z"/><path d="M719.5,482.39l.57-.09a.86.86,0,0,1-.3-.3.82.82,0,0,1-.13-.45,1,1,0,0,1,.33-.79,1.33,1.33,0,0,1,.9-.29,1.62,1.62,0,0,1,.79.18l-.18.54a1.11,1.11,0,0,0-.6-.15.7.7,0,0,0-.45.15.64.64,0,0,0,.19,1l.59-.09a5.14,5.14,0,0,1,.61-.07v.6a9.87,9.87,0,0,0-1.14.11c-.58.07-1,.13-1.18.17Zm.59-11.73h1.07v9.11h-1.07Z"/><line x1="48.67" y1="461.78" x2="291.84" y2="462.07" style="fill:none;stroke:#000;stroke-miterlimit:10"/><line x1="48.67" y1="461.78" x2="48.67" y2="450.25" style="fill:none;stroke:#000;stroke-miterlimit:10"/><line x1="48.67" y1="461.78" x2="48.67" y2="0.5" style="fill:none;stroke:#000;stroke-miterlimit:10"/><line x1="48.67" y1="461.78" x2="54.64" y2="461.78" style="fill:none;stroke:#000;stroke-miterlimit:10"/><line x1="48.67" y1="446.9" x2="54.64" y2="446.9" style="fill:none;stroke:#000;stroke-miterlimit:10"/><line x1="48.67" y1="432.02" x2="54.64" y2="432.02" style="fill:none;stroke:#000;stroke-miterlimit:10"/><line x1="48.67" y1="417.14" x2="54.64" y2="417.14" style="fill:none;stroke:#000;stroke-miterlimit:10"/><line x1="48.67" y1="402.26" x2="54.64" y2="402.26" style="fill:none;stroke:#000;stroke-miterlimit:10"/><line x1="48.67" y1="387.38" x2="54.64" y2="387.38" style="fill:none;stroke:#000;stroke-miterlimit:10"/><line x1="48.67" y1="372.5" x2="54.64" y2="372.5" style="fill:none;stroke:#000;stroke-miterlimit:10"/><line x1="48.67" y1="357.62" x2="54.64" y2="357.62" style="fill:none;stroke:#000;stroke-miterlimit:10"/><line x1="48.67" y1="342.74" x2="54.64" y2="342.74" style="fill:none;stroke:#000;stroke-miterlimit:10"/><line x1="48.67" y1="327.86" x2="54.64" y2="327.86" style="fill:none;stroke:#000;stroke-miterlimit:10"/><line x1="48.67" y1="312.98" x2="54.64" y2="312.98" style="fill:none;stroke:#000;stroke-miterlimit:10"/><line x1="48.67" y1="298.1" x2="54.64" y2="298.1" style="fill:none;stroke:#000;stroke-miterlimit:10"/><line x1="48.67" y1="283.22" x2="54.64" y2="283.22" style="fill:none;stroke:#000;stroke-miterlimit:10"/><line x1="48.67" y1="268.34" x2="54.64" y2="268.34" style="fill:none;stroke:#000;stroke-miterlimit:10"/><line x1="48.67" y1="253.46" x2="54.64" y2="253.46" style="fill:none;stroke:#000;stroke-miterlimit:10"/><line x1="48.67" y1="238.58" x2="54.64" y2="238.58" style="fill:none;stroke:#000;stroke-miterlimit:10"/><line x1="48.67" y1="223.7" x2="54.64" y2="223.7" style="fill:none;stroke:#000;stroke-miterlimit:10"/><line x1="48.67" y1="208.82" x2="54.64" y2="208.82" style="fill:none;stroke:#000;stroke-miterlimit:10"/><line x1="48.67" y1="193.94" x2="54.64" y2="193.94" style="fill:none;stroke:#000;stroke-miterlimit:10"/><line x1="48.67" y1="179.06" x2="54.64" y2="179.06" style="fill:none;stroke:#000;stroke-miterlimit:10"/><line x1="48.67" y1="164.18" x2="54.64" y2="164.18" style="fill:none;stroke:#000;stroke-miterlimit:10"/><line x1="48.67" y1="149.3" x2="54.64" y2="149.3" style="fill:none;stroke:#000;stroke-miterlimit:10"/><line x1="48.67" y1="134.42" x2="54.64" y2="134.42" style="fill:none;stroke:#000;stroke-miterlimit:10"/><line x1="48.67" y1="119.54" x2="54.64" y2="119.54" style="fill:none;stroke:#000;stroke-miterlimit:10"/><line x1="48.67" y1="104.66" x2="54.64" y2="104.66" style="fill:none;stroke:#000;stroke-miterlimit:10"/><line x1="48.67" y1="89.78" x2="54.64" y2="89.78" style="fill:none;stroke:#000;stroke-miterlimit:10"/><line x1="48.67" y1="74.9" x2="54.64" y2="74.9" style="fill:none;stroke:#000;stroke-miterlimit:10"/><line x1="48.67" y1="60.02" x2="54.64" y2="60.02" style="fill:none;stroke:#000;stroke-miterlimit:10"/><line x1="48.67" y1="45.14" x2="54.64" y2="45.14" style="fill:none;stroke:#000;stroke-miterlimit:10"/><line x1="48.67" y1="30.26" x2="54.64" y2="30.26" style="fill:none;stroke:#000;stroke-miterlimit:10"/><line x1="48.67" y1="15.38" x2="54.64" y2="15.38" style="fill:none;stroke:#000;stroke-miterlimit:10"/><line x1="48.67" y1="0.5" x2="54.64" y2="0.5" style="fill:none;stroke:#000;stroke-miterlimit:10"/><ellipse cx="50.52" cy="312.98" rx="3" ry="2.85" style="fill:#5a8bba"/><ellipse cx="50.52" cy="312.98" rx="3" ry="2.85" style="fill:none;stroke:#5a8bba;stroke-miterlimit:10;stroke-width:0.5px"/><ellipse cx="52.37" cy="381.43" rx="3" ry="2.85" style="fill:#5a8bba"/><ellipse cx="52.37" cy="381.43" rx="3" ry="2.85" style="fill:none;stroke:#5a8bba;stroke-miterlimit:10;stroke-width:0.5px"/><ellipse cx="54.22" cy="348.7" rx="3" ry="2.85" style="fill:#5a8bba"/><ellipse cx="54.22" cy="348.7" rx="3" ry="2.85" style="fill:none;stroke:#5a8bba;stroke-miterlimit:10;stroke-width:0.5px"/><ellipse cx="56.08" cy="402.26" rx="3" ry="2.85" style="fill:#5a8bba"/><ellipse cx="56.08" cy="402.26" rx="3" ry="2.85" style="fill:none;stroke:#5a8bba;stroke-miterlimit:10;stroke-width:0.5px"/><ellipse cx="57.93" cy="387.38" rx="3" ry="2.85" style="fill:#5a8bba"/><ellipse cx="57.93" cy="387.38" rx="3" ry="2.85" style="fill:none;stroke:#5a8bba;stroke-miterlimit:10;stroke-width:0.5px"/><ellipse cx="59.78" cy="339.77" rx="3" ry="2.85" style="fill:#5a8bba"/><ellipse cx="59.78" cy="339.77" rx="3" ry="2.85" style="fill:none;stroke:#5a8bba;stroke-miterlimit:10;stroke-width:0.5px"/><ellipse cx="61.63" cy="304.05" rx="3" ry="2.85" style="fill:#5a8bba"/><ellipse cx="61.63" cy="304.05" rx="3" ry="2.85" style="fill:none;stroke:#5a8bba;stroke-miterlimit:10;stroke-width:0.5px"/><ellipse cx="63.49" cy="339.77" rx="3" ry="2.85" style="fill:#5a8bba"/><ellipse cx="63.49" cy="339.77" rx="3" ry="2.85" style="fill:none;stroke:#5a8bba;stroke-miterlimit:10;stroke-width:0.5px"/><ellipse cx="65.34" cy="411.19" rx="3" ry="2.85" style="fill:#5a8bba"/><ellipse cx="65.34" cy="411.19" rx="3" ry="2.85" style="fill:none;stroke:#5a8bba;stroke-miterlimit:10;stroke-width:0.5px"/><ellipse cx="67.19" cy="375.48" rx="3" ry="2.85" style="fill:#5a8bba"/><ellipse cx="67.19" cy="375.48" rx="3" ry="2.85" style="fill:none;stroke:#5a8bba;stroke-miterlimit:10;stroke-width:0.5px"/><ellipse cx="69.04" cy="432.02" rx="3" ry="2.85" style="fill:#5a8bba"/><ellipse cx="69.04" cy="432.02" rx="3" ry="2.85" style="fill:none;stroke:#5a8bba;stroke-miterlimit:10;stroke-width:0.5px"/><ellipse cx="70.9" cy="381.43" rx="3" ry="2.85" style="fill:#5a8bba"/><ellipse cx="70.9" cy="381.43" rx="3" ry="2.85" style="fill:none;stroke:#5a8bba;stroke-miterlimit:10;stroke-width:0.5px"/><ellipse cx="72.75" cy="440.95" rx="3" ry="2.85" style="fill:#5a8bba"/><ellipse cx="72.75" cy="440.95" rx="3" ry="2.85" style="fill:none;stroke:#5a8bba;stroke-miterlimit:10;stroke-width:0.5px"/><ellipse cx="74.6" cy="396.31" rx="3" ry="2.85" style="fill:#5a8bba"/><ellipse cx="74.6" cy="396.31" rx="3" ry="2.85" style="fill:none;stroke:#5a8bba;stroke-miterlimit:10;stroke-width:0.5px"/><ellipse cx="76.45" cy="426.07" rx="3" ry="2.85" style="fill:#5a8bba"/><ellipse cx="76.45" cy="426.07" rx="3" ry="2.85" style="fill:none;stroke:#5a8bba;stroke-miterlimit:10;stroke-width:0.5px"/><ellipse cx="78.3" cy="446.9" rx="3" ry="2.85" style="fill:#5a8bba"/><ellipse cx="78.3" cy="446.9" rx="3" ry="2.85" style="fill:none;stroke:#5a8bba;stroke-miterlimit:10;stroke-width:0.5px"/><ellipse cx="80.16" cy="351.67" rx="3" ry="2.85" style="fill:#5a8bba"/><ellipse cx="80.16" cy="351.67" rx="3" ry="2.85" style="fill:none;stroke:#5a8bba;stroke-miterlimit:10;stroke-width:0.5px"/><ellipse cx="82.01" cy="351.67" rx="3" ry="2.85" style="fill:#5a8bba"/><ellipse cx="82.01" cy="351.67" rx="3" ry="2.85" style="fill:none;stroke:#5a8bba;stroke-miterlimit:10;stroke-width:0.5px"/><ellipse cx="83.86" cy="420.12" rx="3" ry="2.85" style="fill:#5a8bba"/><ellipse cx="83.86" cy="420.12" rx="3" ry="2.85" style="fill:none;stroke:#5a8bba;stroke-miterlimit:10;stroke-width:0.5px"/><ellipse cx="85.71" cy="375.48" rx="3" ry="2.85" style="fill:#5a8bba"/><ellipse cx="85.71" cy="375.48" rx="3" ry="2.85" style="fill:none;stroke:#5a8bba;stroke-miterlimit:10;stroke-width:0.5px"/><ellipse cx="87.57" cy="295.13" rx="3" ry="2.85" style="fill:#5a8bba"/><ellipse cx="87.57" cy="295.13" rx="3" ry="2.85" style="fill:none;stroke:#5a8bba;stroke-miterlimit:10;stroke-width:0.5px"/><ellipse cx="89.42" cy="354.65" rx="3" ry="2.85" style="fill:#5a8bba"/><ellipse cx="89.42" cy="354.65" rx="3" ry="2.85" style="fill:none;stroke:#5a8bba;stroke-miterlimit:10;stroke-width:0.5px"/><ellipse cx="91.27" cy="381.43" rx="3" ry="2.85" style="fill:#5a8bba"/><ellipse cx="91.27" cy="381.43" rx="3" ry="2.85" style="fill:none;stroke:#5a8bba;stroke-miterlimit:10;stroke-width:0.5px"/><ellipse cx="93.12" cy="399.29" rx="3" ry="2.85" style="fill:#5a8bba"/><ellipse cx="93.12" cy="399.29" rx="3" ry="2.85" style="fill:none;stroke:#5a8bba;stroke-miterlimit:10;stroke-width:0.5px"/><ellipse cx="94.98" cy="366.55" rx="3" ry="2.85" style="fill:#5a8bba"/><ellipse cx="94.98" cy="366.55" rx="3" ry="2.85" style="fill:none;stroke:#5a8bba;stroke-miterlimit:10;stroke-width:0.5px"/><ellipse cx="96.83" cy="360.6" rx="3" ry="2.85" style="fill:#5a8bba"/><ellipse cx="96.83" cy="360.6" rx="3" ry="2.85" style="fill:none;stroke:#5a8bba;stroke-miterlimit:10;stroke-width:0.5px"/><ellipse cx="98.68" cy="414.17" rx="3" ry="2.85" style="fill:#5a8bba"/><ellipse cx="98.68" cy="414.17" rx="3" ry="2.85" style="fill:none;stroke:#5a8bba;stroke-miterlimit:10;stroke-width:0.5px"/><ellipse cx="100.53" cy="399.29" rx="3" ry="2.85" style="fill:#5a8bba"/><ellipse cx="100.53" cy="399.29" rx="3" ry="2.85" style="fill:none;stroke:#5a8bba;stroke-miterlimit:10;stroke-width:0.5px"/><ellipse cx="102.38" cy="357.62" rx="3" ry="2.85" style="fill:#5a8bba"/><ellipse cx="102.38" cy="357.62" rx="3" ry="2.85" style="fill:none;stroke:#5a8bba;stroke-miterlimit:10;stroke-width:0.5px"/><ellipse cx="104.24" cy="378.46" rx="3" ry="2.85" style="fill:#5a8bba"/><ellipse cx="104.24" cy="378.46" rx="3" ry="2.85" style="fill:none;stroke:#5a8bba;stroke-miterlimit:10;stroke-width:0.5px"/><ellipse cx="106.09" cy="384.41" rx="3" ry="2.85" style="fill:#5a8bba"/><ellipse cx="106.09" cy="384.41" rx="3" ry="2.85" style="fill:none;stroke:#5a8bba;stroke-miterlimit:10;stroke-width:0.5px"/><ellipse cx="107.94" cy="437.98" rx="3" ry="2.85" style="fill:#5a8bba"/><ellipse cx="107.94" cy="437.98" rx="3" ry="2.85" style="fill:none;stroke:#5a8bba;stroke-miterlimit:10;stroke-width:0.5px"/><ellipse cx="109.79" cy="393.34" rx="3" ry="2.85" style="fill:#5a8bba"/><ellipse cx="109.79" cy="393.34" rx="3" ry="2.85" style="fill:none;stroke:#5a8bba;stroke-miterlimit:10;stroke-width:0.5px"/><ellipse cx="111.65" cy="432.02" rx="3" ry="2.85" style="fill:#5a8bba"/><ellipse cx="111.65" cy="432.02" rx="3" ry="2.85" style="fill:none;stroke:#5a8bba;stroke-miterlimit:10;stroke-width:0.5px"/><ellipse cx="113.5" cy="423.1" rx="3" ry="2.85" style="fill:#5a8bba"/><ellipse cx="113.5" cy="423.1" rx="3" ry="2.85" style="fill:none;stroke:#5a8bba;stroke-miterlimit:10;stroke-width:0.5px"/><ellipse cx="115.35" cy="414.17" rx="3" ry="2.85" style="fill:#5a8bba"/><ellipse cx="115.35" cy="414.17" rx="3" ry="2.85" style="fill:none;stroke:#5a8bba;stroke-miterlimit:10;stroke-width:0.5px"/><ellipse cx="117.2" cy="458.81" rx="3" ry="2.85" style="fill:#5a8bba"/><ellipse cx="117.2" cy="458.81" rx="3" ry="2.85" style="fill:none;stroke:#5a8bba;stroke-miterlimit:10;stroke-width:0.5px"/><ellipse cx="119.05" cy="366.55" rx="3" ry="2.85" style="fill:#5a8bba"/><ellipse cx="119.05" cy="366.55" rx="3" ry="2.85" style="fill:none;stroke:#5a8bba;stroke-miterlimit:10;stroke-width:0.5px"/><ellipse cx="120.91" cy="378.46" rx="3" ry="2.85" style="fill:#5a8bba"/><ellipse cx="120.91" cy="378.46" rx="3" ry="2.85" style="fill:none;stroke:#5a8bba;stroke-miterlimit:10;stroke-width:0.5px"/><ellipse cx="122.76" cy="354.65" rx="3" ry="2.85" style="fill:#5a8bba"/><ellipse cx="122.76" cy="354.65" rx="3" ry="2.85" style="fill:none;stroke:#5a8bba;stroke-miterlimit:10;stroke-width:0.5px"/><ellipse cx="124.61" cy="348.7" rx="3" ry="2.85" style="fill:#5a8bba"/><ellipse cx="124.61" cy="348.7" rx="3" ry="2.85" style="fill:none;stroke:#5a8bba;stroke-miterlimit:10;stroke-width:0.5px"/><ellipse cx="126.46" cy="354.65" rx="3" ry="2.85" style="fill:#5a8bba"/><ellipse cx="126.46" cy="354.65" rx="3" ry="2.85" style="fill:none;stroke:#5a8bba;stroke-miterlimit:10;stroke-width:0.5px"/><ellipse cx="128.32" cy="417.14" rx="3" ry="2.85" style="fill:#5a8bba"/><ellipse cx="128.32" cy="417.14" rx="3" ry="2.85" style="fill:none;stroke:#5a8bba;stroke-miterlimit:10;stroke-width:0.5px"/><ellipse cx="130.17" cy="372.5" rx="3" ry="2.85" style="fill:#5a8bba"/><ellipse cx="130.17" cy="372.5" rx="3" ry="2.85" style="fill:none;stroke:#5a8bba;stroke-miterlimit:10;stroke-width:0.5px"/><ellipse cx="132.02" cy="339.77" rx="3" ry="2.85" style="fill:#5a8bba"/><ellipse cx="132.02" cy="339.77" rx="3" ry="2.85" style="fill:none;stroke:#5a8bba;stroke-miterlimit:10;stroke-width:0.5px"/><ellipse cx="133.87" cy="375.48" rx="3" ry="2.85" style="fill:#5a8bba"/><ellipse cx="133.87" cy="375.48" rx="3" ry="2.85" style="fill:none;stroke:#5a8bba;stroke-miterlimit:10;stroke-width:0.5px"/><ellipse cx="135.73" cy="393.34" rx="3" ry="2.85" style="fill:#5a8bba"/><ellipse cx="135.73" cy="393.34" rx="3" ry="2.85" style="fill:none;stroke:#5a8bba;stroke-miterlimit:10;stroke-width:0.5px"/><ellipse cx="137.58" cy="345.72" rx="3" ry="2.85" style="fill:#5a8bba"/><ellipse cx="137.58" cy="345.72" rx="3" ry="2.85" style="fill:none;stroke:#5a8bba;stroke-miterlimit:10;stroke-width:0.5px"/><ellipse cx="139.43" cy="363.58" rx="3" ry="2.85" style="fill:#5a8bba"/><ellipse cx="139.43" cy="363.58" rx="3" ry="2.85" style="fill:none;stroke:#5a8bba;stroke-miterlimit:10;stroke-width:0.5px"/><ellipse cx="141.28" cy="375.48" rx="3" ry="2.85" style="fill:#5a8bba"/><ellipse cx="141.28" cy="375.48" rx="3" ry="2.85" style="fill:none;stroke:#5a8bba;stroke-miterlimit:10;stroke-width:0.5px"/><ellipse cx="143.13" cy="164.18" rx="3" ry="2.85" style="fill:#5a8bba"/><ellipse cx="143.13" cy="164.18" rx="3" ry="2.85" style="fill:none;stroke:#5a8bba;stroke-miterlimit:10;stroke-width:0.5px"/><ellipse cx="144.99" cy="321.91" rx="3" ry="2.85" style="fill:#5a8bba"/><ellipse cx="144.99" cy="321.91" rx="3" ry="2.85" style="fill:none;stroke:#5a8bba;stroke-miterlimit:10;stroke-width:0.5px"/><ellipse cx="146.84" cy="375.48" rx="3" ry="2.85" style="fill:#5a8bba"/><ellipse cx="146.84" cy="375.48" rx="3" ry="2.85" style="fill:none;stroke:#5a8bba;stroke-miterlimit:10;stroke-width:0.5px"/><ellipse cx="148.69" cy="387.38" rx="3" ry="2.85" style="fill:#5a8bba"/><ellipse cx="148.69" cy="387.38" rx="3" ry="2.85" style="fill:none;stroke:#5a8bba;stroke-miterlimit:10;stroke-width:0.5px"/><ellipse cx="150.54" cy="369.53" rx="3" ry="2.85" style="fill:#5a8bba"/><ellipse cx="150.54" cy="369.53" rx="3" ry="2.85" style="fill:none;stroke:#5a8bba;stroke-miterlimit:10;stroke-width:0.5px"/><ellipse cx="152.4" cy="286.2" rx="3" ry="2.85" style="fill:#5a8bba"/><ellipse cx="152.4" cy="286.2" rx="3" ry="2.85" style="fill:none;stroke:#5a8bba;stroke-miterlimit:10;stroke-width:0.5px"/><ellipse cx="154.25" cy="357.62" rx="3" ry="2.85" style="fill:#5a8bba"/><ellipse cx="154.25" cy="357.62" rx="3" ry="2.85" style="fill:none;stroke:#5a8bba;stroke-miterlimit:10;stroke-width:0.5px"/><ellipse cx="156.1" cy="360.6" rx="3" ry="2.85" style="fill:#5a8bba"/><ellipse cx="156.1" cy="360.6" rx="3" ry="2.85" style="fill:none;stroke:#5a8bba;stroke-miterlimit:10;stroke-width:0.5px"/><ellipse cx="157.95" cy="423.1" rx="3" ry="2.85" style="fill:#5a8bba"/><ellipse cx="157.95" cy="423.1" rx="3" ry="2.85" style="fill:none;stroke:#5a8bba;stroke-miterlimit:10;stroke-width:0.5px"/><ellipse cx="159.81" cy="375.48" rx="3" ry="2.85" style="fill:#5a8bba"/><ellipse cx="159.81" cy="375.48" rx="3" ry="2.85" style="fill:none;stroke:#5a8bba;stroke-miterlimit:10;stroke-width:0.5px"/><ellipse cx="161.66" cy="417.14" rx="3" ry="2.85" style="fill:#5a8bba"/><ellipse cx="161.66" cy="417.14" rx="3" ry="2.85" style="fill:none;stroke:#5a8bba;stroke-miterlimit:10;stroke-width:0.5px"/><ellipse cx="163.51" cy="408.22" rx="3" ry="2.85" style="fill:#5a8bba"/><ellipse cx="163.51" cy="408.22" rx="3" ry="2.85" style="fill:none;stroke:#5a8bba;stroke-miterlimit:10;stroke-width:0.5px"/><ellipse cx="165.36" cy="417.14" rx="3" ry="2.85" style="fill:#5a8bba"/><ellipse cx="165.36" cy="417.14" rx="3" ry="2.85" style="fill:none;stroke:#5a8bba;stroke-miterlimit:10;stroke-width:0.5px"/><ellipse cx="167.21" cy="408.22" rx="3" ry="2.85" style="fill:#5a8bba"/><ellipse cx="167.21" cy="408.22" rx="3" ry="2.85" style="fill:none;stroke:#5a8bba;stroke-miterlimit:10;stroke-width:0.5px"/><ellipse cx="169.07" cy="455.83" rx="3" ry="2.85" style="fill:#5a8bba"/><ellipse cx="169.07" cy="455.83" rx="3" ry="2.85" style="fill:none;stroke:#5a8bba;stroke-miterlimit:10;stroke-width:0.5px"/><ellipse cx="170.92" cy="458.81" rx="3" ry="2.85" style="fill:#5a8bba"/><ellipse cx="170.92" cy="458.81" rx="3" ry="2.85" style="fill:none;stroke:#5a8bba;stroke-miterlimit:10;stroke-width:0.5px"/><ellipse cx="172.77" cy="381.43" rx="3" ry="2.85" style="fill:#5a8bba"/><ellipse cx="172.77" cy="381.43" rx="3" ry="2.85" style="fill:none;stroke:#5a8bba;stroke-miterlimit:10;stroke-width:0.5px"/><ellipse cx="174.62" cy="170.13" rx="3" ry="2.85" style="fill:#5a8bba"/><ellipse cx="174.62" cy="170.13" rx="3" ry="2.85" style="fill:none;stroke:#5a8bba;stroke-miterlimit:10;stroke-width:0.5px"/><ellipse cx="176.48" cy="426.07" rx="3" ry="2.85" style="fill:#5a8bba"/><ellipse cx="176.48" cy="426.07" rx="3" ry="2.85" style="fill:none;stroke:#5a8bba;stroke-miterlimit:10;stroke-width:0.5px"/><ellipse cx="178.33" cy="366.55" rx="3" ry="2.85" style="fill:#5a8bba"/><ellipse cx="178.33" cy="366.55" rx="3" ry="2.85" style="fill:none;stroke:#5a8bba;stroke-miterlimit:10;stroke-width:0.5px"/><ellipse cx="180.18" cy="351.67" rx="3" ry="2.85" style="fill:#5a8bba"/><ellipse cx="180.18" cy="351.67" rx="3" ry="2.85" style="fill:none;stroke:#5a8bba;stroke-miterlimit:10;stroke-width:0.5px"/><ellipse cx="182.03" cy="336.79" rx="3" ry="2.85" style="fill:#5a8bba"/><ellipse cx="182.03" cy="336.79" rx="3" ry="2.85" style="fill:none;stroke:#5a8bba;stroke-miterlimit:10;stroke-width:0.5px"/><ellipse cx="183.88" cy="443.93" rx="3" ry="2.85" style="fill:#5a8bba"/><ellipse cx="183.88" cy="443.93" rx="3" ry="2.85" style="fill:none;stroke:#5a8bba;stroke-miterlimit:10;stroke-width:0.5px"/><ellipse cx="185.74" cy="432.02" rx="3" ry="2.85" style="fill:#5a8bba"/><ellipse cx="185.74" cy="432.02" rx="3" ry="2.85" style="fill:none;stroke:#5a8bba;stroke-miterlimit:10;stroke-width:0.5px"/><ellipse cx="187.59" cy="437.98" rx="3" ry="2.85" style="fill:#5a8bba"/><ellipse cx="187.59" cy="437.98" rx="3" ry="2.85" style="fill:none;stroke:#5a8bba;stroke-miterlimit:10;stroke-width:0.5px"/><ellipse cx="189.44" cy="420.12" rx="3" ry="2.85" style="fill:#5a8bba"/><ellipse cx="189.44" cy="420.12" rx="3" ry="2.85" style="fill:none;stroke:#5a8bba;stroke-miterlimit:10;stroke-width:0.5px"/><ellipse cx="191.29" cy="414.17" rx="3" ry="2.85" style="fill:#5a8bba"/><ellipse cx="191.29" cy="414.17" rx="3" ry="2.85" style="fill:none;stroke:#5a8bba;stroke-miterlimit:10;stroke-width:0.5px"/><ellipse cx="193.15" cy="440.95" rx="3" ry="2.85" style="fill:#5a8bba"/><ellipse cx="193.15" cy="440.95" rx="3" ry="2.85" style="fill:none;stroke:#5a8bba;stroke-miterlimit:10;stroke-width:0.5px"/><ellipse cx="195" cy="402.26" rx="3" ry="2.85" style="fill:#5a8bba"/><ellipse cx="195" cy="402.26" rx="3" ry="2.85" style="fill:none;stroke:#5a8bba;stroke-miterlimit:10;stroke-width:0.5px"/><ellipse cx="196.85" cy="437.98" rx="3" ry="2.85" style="fill:#5a8bba"/><ellipse cx="196.85" cy="437.98" rx="3" ry="2.85" style="fill:none;stroke:#5a8bba;stroke-miterlimit:10;stroke-width:0.5px"/><ellipse cx="198.7" cy="372.5" rx="3" ry="2.85" style="fill:#5a8bba"/><ellipse cx="198.7" cy="372.5" rx="3" ry="2.85" style="fill:none;stroke:#5a8bba;stroke-miterlimit:10;stroke-width:0.5px"/><ellipse cx="200.56" cy="6.45" rx="3" ry="2.85" style="fill:#5a8bba"/><ellipse cx="200.56" cy="6.45" rx="3" ry="2.85" style="fill:none;stroke:#5a8bba;stroke-miterlimit:10;stroke-width:0.5px"/><ellipse cx="202.41" cy="426.07" rx="3" ry="2.85" style="fill:#5a8bba"/><ellipse cx="202.41" cy="426.07" rx="3" ry="2.85" style="fill:none;stroke:#5a8bba;stroke-miterlimit:10;stroke-width:0.5px"/><ellipse cx="204.26" cy="378.46" rx="3" ry="2.85" style="fill:#5a8bba"/><ellipse cx="204.26" cy="378.46" rx="3" ry="2.85" style="fill:none;stroke:#5a8bba;stroke-miterlimit:10;stroke-width:0.5px"/><ellipse cx="206.11" cy="280.25" rx="3" ry="2.85" style="fill:#5a8bba"/><ellipse cx="206.11" cy="280.25" rx="3" ry="2.85" style="fill:none;stroke:#5a8bba;stroke-miterlimit:10;stroke-width:0.5px"/><ellipse cx="207.96" cy="330.84" rx="3" ry="2.85" style="fill:#5a8bba"/><ellipse cx="207.96" cy="330.84" rx="3" ry="2.85" style="fill:none;stroke:#5a8bba;stroke-miterlimit:10;stroke-width:0.5px"/><ellipse cx="209.82" cy="440.95" rx="3" ry="2.85" style="fill:#5a8bba"/><ellipse cx="209.82" cy="440.95" rx="3" ry="2.85" style="fill:none;stroke:#5a8bba;stroke-miterlimit:10;stroke-width:0.5px"/><ellipse cx="211.67" cy="369.53" rx="3" ry="2.85" style="fill:#5a8bba"/><ellipse cx="211.67" cy="369.53" rx="3" ry="2.85" style="fill:none;stroke:#5a8bba;stroke-miterlimit:10;stroke-width:0.5px"/><ellipse cx="213.52" cy="366.55" rx="3" ry="2.85" style="fill:#5a8bba"/><ellipse cx="213.52" cy="366.55" rx="3" ry="2.85" style="fill:none;stroke:#5a8bba;stroke-miterlimit:10;stroke-width:0.5px"/><ellipse cx="215.37" cy="452.86" rx="3" ry="2.85" style="fill:#5a8bba"/><ellipse cx="215.37" cy="452.86" rx="3" ry="2.85" style="fill:none;stroke:#5a8bba;stroke-miterlimit:10;stroke-width:0.5px"/><ellipse cx="217.23" cy="417.14" rx="3" ry="2.85" style="fill:#5a8bba"/><ellipse cx="217.23" cy="417.14" rx="3" ry="2.85" style="fill:none;stroke:#5a8bba;stroke-miterlimit:10;stroke-width:0.5px"/><ellipse cx="219.08" cy="229.65" rx="3" ry="2.85" style="fill:#5a8bba"/><ellipse cx="219.08" cy="229.65" rx="3" ry="2.85" style="fill:none;stroke:#5a8bba;stroke-miterlimit:10;stroke-width:0.5px"/><ellipse cx="220.93" cy="369.53" rx="3" ry="2.85" style="fill:#5a8bba"/><ellipse cx="220.93" cy="369.53" rx="3" ry="2.85" style="fill:none;stroke:#5a8bba;stroke-miterlimit:10;stroke-width:0.5px"/><ellipse cx="222.78" cy="217.75" rx="3" ry="2.85" style="fill:#5a8bba"/><ellipse cx="222.78" cy="217.75" rx="3" ry="2.85" style="fill:none;stroke:#5a8bba;stroke-miterlimit:10;stroke-width:0.5px"/><ellipse cx="224.64" cy="342.74" rx="3" ry="2.85" style="fill:#5a8bba"/><ellipse cx="224.64" cy="342.74" rx="3" ry="2.85" style="fill:none;stroke:#5a8bba;stroke-miterlimit:10;stroke-width:0.5px"/><ellipse cx="226.49" cy="402.26" rx="3" ry="2.85" style="fill:#5a8bba"/><ellipse cx="226.49" cy="402.26" rx="3" ry="2.85" style="fill:none;stroke:#5a8bba;stroke-miterlimit:10;stroke-width:0.5px"/><ellipse cx="228.34" cy="345.72" rx="3" ry="2.85" style="fill:#5a8bba"/><ellipse cx="228.34" cy="345.72" rx="3" ry="2.85" style="fill:none;stroke:#5a8bba;stroke-miterlimit:10;stroke-width:0.5px"/><ellipse cx="230.19" cy="324.89" rx="3" ry="2.85" style="fill:#5a8bba"/><ellipse cx="230.19" cy="324.89" rx="3" ry="2.85" style="fill:none;stroke:#5a8bba;stroke-miterlimit:10;stroke-width:0.5px"/><ellipse cx="232.04" cy="381.43" rx="3" ry="2.85" style="fill:#5a8bba"/><ellipse cx="232.04" cy="381.43" rx="3" ry="2.85" style="fill:none;stroke:#5a8bba;stroke-miterlimit:10;stroke-width:0.5px"/><ellipse cx="233.9" cy="399.29" rx="3" ry="2.85" style="fill:#5a8bba"/><ellipse cx="233.9" cy="399.29" rx="3" ry="2.85" style="fill:none;stroke:#5a8bba;stroke-miterlimit:10;stroke-width:0.5px"/><ellipse cx="235.75" cy="405.24" rx="3" ry="2.85" style="fill:#5a8bba"/><ellipse cx="235.75" cy="405.24" rx="3" ry="2.85" style="fill:none;stroke:#5a8bba;stroke-miterlimit:10;stroke-width:0.5px"/><ellipse cx="237.6" cy="336.79" rx="3" ry="2.85" style="fill:#5a8bba"/><ellipse cx="237.6" cy="336.79" rx="3" ry="2.85" style="fill:none;stroke:#5a8bba;stroke-miterlimit:10;stroke-width:0.5px"/><ellipse cx="239.45" cy="375.48" rx="3" ry="2.85" style="fill:#5a8bba"/><ellipse cx="239.45" cy="375.48" rx="3" ry="2.85" style="fill:none;stroke:#5a8bba;stroke-miterlimit:10;stroke-width:0.5px"/><ellipse cx="241.31" cy="399.29" rx="3" ry="2.85" style="fill:#5a8bba"/><ellipse cx="241.31" cy="399.29" rx="3" ry="2.85" style="fill:none;stroke:#5a8bba;stroke-miterlimit:10;stroke-width:0.5px"/><ellipse cx="243.16" cy="366.55" rx="3" ry="2.85" style="fill:#5a8bba"/><ellipse cx="243.16" cy="366.55" rx="3" ry="2.85" style="fill:none;stroke:#5a8bba;stroke-miterlimit:10;stroke-width:0.5px"/><ellipse cx="245.01" cy="420.12" rx="3" ry="2.85" style="fill:#5a8bba"/><ellipse cx="245.01" cy="420.12" rx="3" ry="2.85" style="fill:none;stroke:#5a8bba;stroke-miterlimit:10;stroke-width:0.5px"/><ellipse cx="246.86" cy="381.43" rx="3" ry="2.85" style="fill:#5a8bba"/><ellipse cx="246.86" cy="381.43" rx="3" ry="2.85" style="fill:none;stroke:#5a8bba;stroke-miterlimit:10;stroke-width:0.5px"/><ellipse cx="248.72" cy="393.34" rx="3" ry="2.85" style="fill:#5a8bba"/><ellipse cx="248.72" cy="393.34" rx="3" ry="2.85" style="fill:none;stroke:#5a8bba;stroke-miterlimit:10;stroke-width:0.5px"/><ellipse cx="250.57" cy="399.29" rx="3" ry="2.85" style="fill:#5a8bba"/><ellipse cx="250.57" cy="399.29" rx="3" ry="2.85" style="fill:none;stroke:#5a8bba;stroke-miterlimit:10;stroke-width:0.5px"/><ellipse cx="252.42" cy="408.22" rx="3" ry="2.85" style="fill:#5a8bba"/><ellipse cx="252.42" cy="408.22" rx="3" ry="2.85" style="fill:none;stroke:#5a8bba;stroke-miterlimit:10;stroke-width:0.5px"/><ellipse cx="254.27" cy="408.22" rx="3" ry="2.85" style="fill:#5a8bba"/><ellipse cx="254.27" cy="408.22" rx="3" ry="2.85" style="fill:none;stroke:#5a8bba;stroke-miterlimit:10;stroke-width:0.5px"/><ellipse cx="256.12" cy="393.34" rx="3" ry="2.85" style="fill:#5a8bba"/><ellipse cx="256.12" cy="393.34" rx="3" ry="2.85" style="fill:none;stroke:#5a8bba;stroke-miterlimit:10;stroke-width:0.5px"/><ellipse cx="257.98" cy="351.67" rx="3" ry="2.85" style="fill:#5a8bba"/><ellipse cx="257.98" cy="351.67" rx="3" ry="2.85" style="fill:none;stroke:#5a8bba;stroke-miterlimit:10;stroke-width:0.5px"/><ellipse cx="259.83" cy="327.86" rx="3" ry="2.85" style="fill:#5a8bba"/><ellipse cx="259.83" cy="327.86" rx="3" ry="2.85" style="fill:none;stroke:#5a8bba;stroke-miterlimit:10;stroke-width:0.5px"/><ellipse cx="261.68" cy="265.37" rx="3" ry="2.85" style="fill:#5a8bba"/><ellipse cx="261.68" cy="265.37" rx="3" ry="2.85" style="fill:none;stroke:#5a8bba;stroke-miterlimit:10;stroke-width:0.5px"/><ellipse cx="263.53" cy="417.14" rx="3" ry="2.85" style="fill:#5a8bba"/><ellipse cx="263.53" cy="417.14" rx="3" ry="2.85" style="fill:none;stroke:#5a8bba;stroke-miterlimit:10;stroke-width:0.5px"/><ellipse cx="265.39" cy="351.67" rx="3" ry="2.85" style="fill:#5a8bba"/><ellipse cx="265.39" cy="351.67" rx="3" ry="2.85" style="fill:none;stroke:#5a8bba;stroke-miterlimit:10;stroke-width:0.5px"/><ellipse cx="267.24" cy="405.24" rx="3" ry="2.85" style="fill:#5a8bba"/><ellipse cx="267.24" cy="405.24" rx="3" ry="2.85" style="fill:none;stroke:#5a8bba;stroke-miterlimit:10;stroke-width:0.5px"/><ellipse cx="269.09" cy="292.15" rx="3" ry="2.85" style="fill:#5a8bba"/><ellipse cx="269.09" cy="292.15" rx="3" ry="2.85" style="fill:none;stroke:#5a8bba;stroke-miterlimit:10;stroke-width:0.5px"/><ellipse cx="270.94" cy="315.96" rx="3" ry="2.85" style="fill:#5a8bba"/><ellipse cx="270.94" cy="315.96" rx="3" ry="2.85" style="fill:none;stroke:#5a8bba;stroke-miterlimit:10;stroke-width:0.5px"/><ellipse cx="272.79" cy="330.84" rx="3" ry="2.85" style="fill:#5a8bba"/><ellipse cx="272.79" cy="330.84" rx="3" ry="2.85" style="fill:none;stroke:#5a8bba;stroke-miterlimit:10;stroke-width:0.5px"/><ellipse cx="274.65" cy="351.67" rx="3" ry="2.85" style="fill:#5a8bba"/><ellipse cx="274.65" cy="351.67" rx="3" ry="2.85" style="fill:none;stroke:#5a8bba;stroke-miterlimit:10;stroke-width:0.5px"/><ellipse cx="276.5" cy="357.62" rx="3" ry="2.85" style="fill:#5a8bba"/><ellipse cx="276.5" cy="357.62" rx="3" ry="2.85" style="fill:none;stroke:#5a8bba;stroke-miterlimit:10;stroke-width:0.5px"/><ellipse cx="278.35" cy="360.6" rx="3" ry="2.85" style="fill:#5a8bba"/><ellipse cx="278.35" cy="360.6" rx="3" ry="2.85" style="fill:none;stroke:#5a8bba;stroke-miterlimit:10;stroke-width:0.5px"/><ellipse cx="280.2" cy="369.53" rx="3" ry="2.85" style="fill:#5a8bba"/><ellipse cx="280.2" cy="369.53" rx="3" ry="2.85" style="fill:none;stroke:#5a8bba;stroke-miterlimit:10;stroke-width:0.5px"/><ellipse cx="282.06" cy="280.25" rx="3" ry="2.85" style="fill:#5a8bba"/><ellipse cx="282.06" cy="280.25" rx="3" ry="2.85" style="fill:none;stroke:#5a8bba;stroke-miterlimit:10;stroke-width:0.5px"/><ellipse cx="283.91" cy="378.46" rx="3" ry="2.85" style="fill:#5a8bba"/><ellipse cx="283.91" cy="378.46" rx="3" ry="2.85" style="fill:none;stroke:#5a8bba;stroke-miterlimit:10;stroke-width:0.5px"/><ellipse cx="285.76" cy="363.58" rx="3" ry="2.85" style="fill:#5a8bba"/><ellipse cx="285.76" cy="363.58" rx="3" ry="2.85" style="fill:none;stroke:#5a8bba;stroke-miterlimit:10;stroke-width:0.5px"/><ellipse cx="287.61" cy="414.17" rx="3" ry="2.85" style="fill:#5a8bba"/><ellipse cx="287.61" cy="414.17" rx="3" ry="2.85" style="fill:none;stroke:#5a8bba;stroke-miterlimit:10;stroke-width:0.5px"/><line x1="535.52" y1="462.07" x2="783.47" y2="462.07" style="fill:none;stroke:#000;stroke-miterlimit:10"/><line x1="535.52" y1="462.07" x2="535.52" y2="0.79" style="fill:none;stroke:#000;stroke-miterlimit:10"/><line x1="783.47" y1="462.07" x2="783.47" y2="0.79" style="fill:none;stroke:#000;stroke-miterlimit:10"/><line x1="535.52" y1="462.07" x2="535.52" y2="0.79" style="fill:none;stroke:#000;stroke-miterlimit:10"/><g style="opacity:0.699999988079071"><ellipse cx="546.38" cy="384.7" rx="3" ry="2.85" style="fill:#5a8bba"/><ellipse cx="546.38" cy="384.7" rx="3" ry="2.85" style="fill:none;stroke:#5a8bba;stroke-miterlimit:10;stroke-width:0.5px"/></g><g style="opacity:0.699999988079071"><ellipse cx="557.24" cy="354.94" rx="3" ry="2.85" style="fill:#5a8bba"/><ellipse cx="557.24" cy="354.94" rx="3" ry="2.85" style="fill:none;stroke:#5a8bba;stroke-miterlimit:10;stroke-width:0.5px"/></g><g style="opacity:0.699999988079071"><ellipse cx="568.11" cy="441.24" rx="3" ry="2.85" style="fill:#5a8bba"/><ellipse cx="568.11" cy="441.24" rx="3" ry="2.85" style="fill:none;stroke:#5a8bba;stroke-miterlimit:10;stroke-width:0.5px"/></g><g style="opacity:0.699999988079071"><ellipse cx="578.97" cy="316.25" rx="3" ry="2.85" style="fill:#5a8bba"/><ellipse cx="578.97" cy="316.25" rx="3" ry="2.85" style="fill:none;stroke:#5a8bba;stroke-miterlimit:10;stroke-width:0.5px"/></g><g style="opacity:0.699999988079071"><ellipse cx="589.83" cy="363.86" rx="3" ry="2.85" style="fill:#5a8bba"/><ellipse cx="589.83" cy="363.86" rx="3" ry="2.85" style="fill:none;stroke:#5a8bba;stroke-miterlimit:10;stroke-width:0.5px"/></g><g style="opacity:0.699999988079071"><ellipse cx="600.69" cy="283.51" rx="3" ry="2.85" style="fill:#5a8bba"/><ellipse cx="600.69" cy="283.51" rx="3" ry="2.85" style="fill:none;stroke:#5a8bba;stroke-miterlimit:10;stroke-width:0.5px"/></g><g style="opacity:0.699999988079071"><ellipse cx="611.55" cy="351.96" rx="3" ry="2.85" style="fill:#5a8bba"/><ellipse cx="611.55" cy="351.96" rx="3" ry="2.85" style="fill:none;stroke:#5a8bba;stroke-miterlimit:10;stroke-width:0.5px"/></g><g style="opacity:0.699999988079071"><ellipse cx="622.41" cy="393.62" rx="3" ry="2.85" style="fill:#5a8bba"/><ellipse cx="622.41" cy="393.62" rx="3" ry="2.85" style="fill:none;stroke:#5a8bba;stroke-miterlimit:10;stroke-width:0.5px"/></g><g style="opacity:0.699999988079071"><ellipse cx="633.27" cy="357.91" rx="3" ry="2.85" style="fill:#5a8bba"/><ellipse cx="633.27" cy="357.91" rx="3" ry="2.85" style="fill:none;stroke:#5a8bba;stroke-miterlimit:10;stroke-width:0.5px"/></g><g style="opacity:0.699999988079071"><ellipse cx="644.13" cy="378.74" rx="3" ry="2.85" style="fill:#5a8bba"/><ellipse cx="644.13" cy="378.74" rx="3" ry="2.85" style="fill:none;stroke:#5a8bba;stroke-miterlimit:10;stroke-width:0.5px"/></g><g style="opacity:0.699999988079071"><ellipse cx="654.99" cy="369.82" rx="3" ry="2.85" style="fill:#5a8bba"/><ellipse cx="654.99" cy="369.82" rx="3" ry="2.85" style="fill:none;stroke:#5a8bba;stroke-miterlimit:10;stroke-width:0.5px"/></g><g style="opacity:0.699999988079071"><ellipse cx="665.86" cy="375.77" rx="3" ry="2.85" style="fill:#5a8bba"/><ellipse cx="665.86" cy="375.77" rx="3" ry="2.85" style="fill:none;stroke:#5a8bba;stroke-miterlimit:10;stroke-width:0.5px"/></g><g style="opacity:0.699999988079071"><ellipse cx="676.72" cy="390.65" rx="3" ry="2.85" style="fill:#5a8bba"/><ellipse cx="676.72" cy="390.65" rx="3" ry="2.85" style="fill:none;stroke:#5a8bba;stroke-miterlimit:10;stroke-width:0.5px"/></g><g style="opacity:0.699999988079071"><ellipse cx="687.58" cy="298.39" rx="3" ry="2.85" style="fill:#5a8bba"/><ellipse cx="687.58" cy="298.39" rx="3" ry="2.85" style="fill:none;stroke:#5a8bba;stroke-miterlimit:10;stroke-width:0.5px"/></g><g style="opacity:0.699999988079071"><ellipse cx="698.44" cy="322.2" rx="3" ry="2.85" style="fill:#5a8bba"/><ellipse cx="698.44" cy="322.2" rx="3" ry="2.85" style="fill:none;stroke:#5a8bba;stroke-miterlimit:10;stroke-width:0.5px"/></g><g style="opacity:0.699999988079071"><ellipse cx="709.3" cy="387.67" rx="3" ry="2.85" style="fill:#5a8bba"/><ellipse cx="709.3" cy="387.67" rx="3" ry="2.85" style="fill:none;stroke:#5a8bba;stroke-miterlimit:10;stroke-width:0.5px"/></g><g style="opacity:0.699999988079071"><ellipse cx="720.16" cy="378.74" rx="3" ry="2.85" style="fill:#5a8bba"/><ellipse cx="720.16" cy="378.74" rx="3" ry="2.85" style="fill:none;stroke:#5a8bba;stroke-miterlimit:10;stroke-width:0.5px"/></g><g style="opacity:0.699999988079071"><ellipse cx="731.02" cy="265.66" rx="3" ry="2.85" style="fill:#5a8bba"/><ellipse cx="731.02" cy="265.66" rx="3" ry="2.85" style="fill:none;stroke:#5a8bba;stroke-miterlimit:10;stroke-width:0.5px"/></g><g style="opacity:0.699999988079071"><ellipse cx="741.88" cy="438.26" rx="3" ry="2.85" style="fill:#5a8bba"/><ellipse cx="741.88" cy="438.26" rx="3" ry="2.85" style="fill:none;stroke:#5a8bba;stroke-miterlimit:10;stroke-width:0.5px"/></g><g style="opacity:0.699999988079071"><ellipse cx="752.75" cy="435.29" rx="3" ry="2.85" style="fill:#5a8bba"/><ellipse cx="752.75" cy="435.29" rx="3" ry="2.85" style="fill:none;stroke:#5a8bba;stroke-miterlimit:10;stroke-width:0.5px"/></g><g style="opacity:0.699999988079071"><ellipse cx="763.61" cy="417.43" rx="3" ry="2.85" style="fill:#5a8bba"/><ellipse cx="763.61" cy="417.43" rx="3" ry="2.85" style="fill:none;stroke:#5a8bba;stroke-miterlimit:10;stroke-width:0.5px"/></g><g style="opacity:0.699999988079071"><ellipse cx="774.47" cy="405.53" rx="3" ry="2.85" style="fill:#5a8bba"/><ellipse cx="774.47" cy="405.53" rx="3" ry="2.85" style="fill:none;stroke:#5a8bba;stroke-miterlimit:10;stroke-width:0.5px"/></g><line x1="291.84" y1="462.07" x2="535.52" y2="462.07" style="fill:none;stroke:#000;stroke-miterlimit:10"/><line x1="291.84" y1="462.07" x2="291.84" y2="450.54" style="fill:none;stroke:#000;stroke-miterlimit:10"/><line x1="291.84" y1="462.07" x2="291.84" y2="0.79" style="fill:none;stroke:#000;stroke-miterlimit:10"/><ellipse cx="298.67" cy="417.43" rx="3" ry="2.85" style="fill:#e84e0f"/><ellipse cx="298.67" cy="417.43" rx="3" ry="2.85" style="fill:none;stroke:#e84e0f;stroke-miterlimit:10;stroke-width:0.5px"/><ellipse cx="305.49" cy="390.65" rx="3" ry="2.85" style="fill:#e84e0f"/><ellipse cx="305.49" cy="390.65" rx="3" ry="2.85" style="fill:none;stroke:#e84e0f;stroke-miterlimit:10;stroke-width:0.5px"/><ellipse cx="312.32" cy="387.67" rx="3" ry="2.85" style="fill:#e84e0f"/><ellipse cx="312.32" cy="387.67" rx="3" ry="2.85" style="fill:none;stroke:#e84e0f;stroke-miterlimit:10;stroke-width:0.5px"/><ellipse cx="319.15" cy="432.31" rx="3" ry="2.85" style="fill:#e84e0f"/><ellipse cx="319.15" cy="432.31" rx="3" ry="2.85" style="fill:none;stroke:#e84e0f;stroke-miterlimit:10;stroke-width:0.5px"/><ellipse cx="325.97" cy="423.38" rx="3" ry="2.85" style="fill:#e84e0f"/><ellipse cx="325.97" cy="423.38" rx="3" ry="2.85" style="fill:none;stroke:#e84e0f;stroke-miterlimit:10;stroke-width:0.5px"/><ellipse cx="332.8" cy="405.53" rx="3" ry="2.85" style="fill:#e84e0f"/><ellipse cx="332.8" cy="405.53" rx="3" ry="2.85" style="fill:none;stroke:#e84e0f;stroke-miterlimit:10;stroke-width:0.5px"/><ellipse cx="339.63" cy="435.29" rx="3" ry="2.85" style="fill:#e84e0f"/><ellipse cx="339.63" cy="435.29" rx="3" ry="2.85" style="fill:none;stroke:#e84e0f;stroke-miterlimit:10;stroke-width:0.5px"/><ellipse cx="346.45" cy="316.25" rx="3" ry="2.85" style="fill:#e84e0f"/><ellipse cx="346.45" cy="316.25" rx="3" ry="2.85" style="fill:none;stroke:#e84e0f;stroke-miterlimit:10;stroke-width:0.5px"/><ellipse cx="353.28" cy="372.79" rx="3" ry="2.85" style="fill:#e84e0f"/><ellipse cx="353.28" cy="372.79" rx="3" ry="2.85" style="fill:none;stroke:#e84e0f;stroke-miterlimit:10;stroke-width:0.5px"/><ellipse cx="360.11" cy="432.31" rx="3" ry="2.85" style="fill:#e84e0f"/><ellipse cx="360.11" cy="432.31" rx="3" ry="2.85" style="fill:none;stroke:#e84e0f;stroke-miterlimit:10;stroke-width:0.5px"/><ellipse cx="366.94" cy="435.29" rx="3" ry="2.85" style="fill:#e84e0f"/><ellipse cx="366.94" cy="435.29" rx="3" ry="2.85" style="fill:none;stroke:#e84e0f;stroke-miterlimit:10;stroke-width:0.5px"/><ellipse cx="373.76" cy="331.13" rx="3" ry="2.85" style="fill:#e84e0f"/><ellipse cx="373.76" cy="331.13" rx="3" ry="2.85" style="fill:none;stroke:#e84e0f;stroke-miterlimit:10;stroke-width:0.5px"/><ellipse cx="380.59" cy="420.41" rx="3" ry="2.85" style="fill:#e84e0f"/><ellipse cx="380.59" cy="420.41" rx="3" ry="2.85" style="fill:none;stroke:#e84e0f;stroke-miterlimit:10;stroke-width:0.5px"/><ellipse cx="387.42" cy="417.43" rx="3" ry="2.85" style="fill:#e84e0f"/><ellipse cx="387.42" cy="417.43" rx="3" ry="2.85" style="fill:none;stroke:#e84e0f;stroke-miterlimit:10;stroke-width:0.5px"/><ellipse cx="394.24" cy="384.7" rx="3" ry="2.85" style="fill:#e84e0f"/><ellipse cx="394.24" cy="384.7" rx="3" ry="2.85" style="fill:none;stroke:#e84e0f;stroke-miterlimit:10;stroke-width:0.5px"/><ellipse cx="401.07" cy="396.6" rx="3" ry="2.85" style="fill:#e84e0f"/><ellipse cx="401.07" cy="396.6" rx="3" ry="2.85" style="fill:none;stroke:#e84e0f;stroke-miterlimit:10;stroke-width:0.5px"/><ellipse cx="407.9" cy="429.34" rx="3" ry="2.85" style="fill:#e84e0f"/><ellipse cx="407.9" cy="429.34" rx="3" ry="2.85" style="fill:none;stroke:#e84e0f;stroke-miterlimit:10;stroke-width:0.5px"/><ellipse cx="414.72" cy="387.67" rx="3" ry="2.85" style="fill:#e84e0f"/><ellipse cx="414.72" cy="387.67" rx="3" ry="2.85" style="fill:none;stroke:#e84e0f;stroke-miterlimit:10;stroke-width:0.5px"/><ellipse cx="421.55" cy="369.82" rx="3" ry="2.85" style="fill:#e84e0f"/><ellipse cx="421.55" cy="369.82" rx="3" ry="2.85" style="fill:none;stroke:#e84e0f;stroke-miterlimit:10;stroke-width:0.5px"/><ellipse cx="428.38" cy="414.46" rx="3" ry="2.85" style="fill:#e84e0f"/><ellipse cx="428.38" cy="414.46" rx="3" ry="2.85" style="fill:none;stroke:#e84e0f;stroke-miterlimit:10;stroke-width:0.5px"/><ellipse cx="435.21" cy="337.08" rx="3" ry="2.85" style="fill:#e84e0f"/><ellipse cx="435.21" cy="337.08" rx="3" ry="2.85" style="fill:none;stroke:#e84e0f;stroke-miterlimit:10;stroke-width:0.5px"/><ellipse cx="442.03" cy="343.03" rx="3" ry="2.85" style="fill:#e84e0f"/><ellipse cx="442.03" cy="343.03" rx="3" ry="2.85" style="fill:none;stroke:#e84e0f;stroke-miterlimit:10;stroke-width:0.5px"/><ellipse cx="448.86" cy="438.26" rx="3" ry="2.85" style="fill:#e84e0f"/><ellipse cx="448.86" cy="438.26" rx="3" ry="2.85" style="fill:none;stroke:#e84e0f;stroke-miterlimit:10;stroke-width:0.5px"/><ellipse cx="455.69" cy="390.65" rx="3" ry="2.85" style="fill:#e84e0f"/><ellipse cx="455.69" cy="390.65" rx="3" ry="2.85" style="fill:none;stroke:#e84e0f;stroke-miterlimit:10;stroke-width:0.5px"/><ellipse cx="462.51" cy="351.96" rx="3" ry="2.85" style="fill:#e84e0f"/><ellipse cx="462.51" cy="351.96" rx="3" ry="2.85" style="fill:none;stroke:#e84e0f;stroke-miterlimit:10;stroke-width:0.5px"/><ellipse cx="469.34" cy="441.24" rx="3" ry="2.85" style="fill:#e84e0f"/><ellipse cx="469.34" cy="441.24" rx="3" ry="2.85" style="fill:none;stroke:#e84e0f;stroke-miterlimit:10;stroke-width:0.5px"/><ellipse cx="476.17" cy="426.36" rx="3" ry="2.85" style="fill:#e84e0f"/><ellipse cx="476.17" cy="426.36" rx="3" ry="2.85" style="fill:none;stroke:#e84e0f;stroke-miterlimit:10;stroke-width:0.5px"/><ellipse cx="482.99" cy="450.17" rx="3" ry="2.85" style="fill:#e84e0f"/><ellipse cx="482.99" cy="450.17" rx="3" ry="2.85" style="fill:none;stroke:#e84e0f;stroke-miterlimit:10;stroke-width:0.5px"/><ellipse cx="489.82" cy="453.14" rx="3" ry="2.85" style="fill:#e84e0f"/><ellipse cx="489.82" cy="453.14" rx="3" ry="2.85" style="fill:none;stroke:#e84e0f;stroke-miterlimit:10;stroke-width:0.5px"/><ellipse cx="496.65" cy="420.41" rx="3" ry="2.85" style="fill:#e84e0f"/><ellipse cx="496.65" cy="420.41" rx="3" ry="2.85" style="fill:none;stroke:#e84e0f;stroke-miterlimit:10;stroke-width:0.5px"/><ellipse cx="503.48" cy="337.08" rx="3" ry="2.85" style="fill:#e84e0f"/><ellipse cx="503.48" cy="337.08" rx="3" ry="2.85" style="fill:none;stroke:#e84e0f;stroke-miterlimit:10;stroke-width:0.5px"/><ellipse cx="510.3" cy="357.91" rx="3" ry="2.85" style="fill:#e84e0f"/><ellipse cx="510.3" cy="357.91" rx="3" ry="2.85" style="fill:none;stroke:#e84e0f;stroke-miterlimit:10;stroke-width:0.5px"/><ellipse cx="517.13" cy="408.5" rx="3" ry="2.85" style="fill:#e84e0f"/><ellipse cx="517.13" cy="408.5" rx="3" ry="2.85" style="fill:none;stroke:#e84e0f;stroke-miterlimit:10;stroke-width:0.5px"/><ellipse cx="523.96" cy="453.14" rx="3" ry="2.85" style="fill:#e84e0f"/><ellipse cx="523.96" cy="453.14" rx="3" ry="2.85" style="fill:none;stroke:#e84e0f;stroke-miterlimit:10;stroke-width:0.5px"/><ellipse cx="530.78" cy="378.74" rx="3" ry="2.85" style="fill:#e84e0f"/><ellipse cx="530.78" cy="378.74" rx="3" ry="2.85" style="fill:none;stroke:#e84e0f;stroke-miterlimit:10;stroke-width:0.5px"/></svg>