<svg id="Layer_1" data-name="Layer 1" xmlns="http://www.w3.org/2000/svg" viewBox="0 0 790.78 476.93"><title>minimum-reported-civilian-deaths-by-likely-israeli-action-in-gaza-may-2021-by-time-of-day-he</title><path d="M5.64,277.86c-1.2-.16-1.66.32-1.84,1.07l-1.12-.22a1.84,1.84,0,0,1,1.69-1.64,2.46,2.46,0,0,1-1.68-2.33c0-1.87,1.72-2.32,4-2.32H8.26c.11,0,.9.13,1.06.17V275c0,.48,0,1.1,0,1.35l-1.07-.2a13.71,13.71,0,0,1,0-1.48v-1.25c-.51,0-1,0-1.48,0-1.51,0-3,.2-3,1.6s1.32,1.8,2.14,2,2.25.44,3.4.66v.93C8.09,278.28,6.53,278,5.64,277.86Z"/><path d="M5.57,269.93c-1,0-1.4.12-1.63,1.06a7.54,7.54,0,0,1-.23.81l-1-.2a4.53,4.53,0,0,0,.19-.83c.29-1.34.73-1.77,2.55-1.77H9.32v.93Z"/><path d="M5.57,266.25c-1,0-1.4.12-1.63,1.05a7.93,7.93,0,0,1-.23.82l-1-.21a4.16,4.16,0,0,0,.19-.82c.29-1.35.73-1.78,2.55-1.78H9.32v.94Z"/><path d="M8.29,264a5,5,0,0,1-.06-1v-.18c-1.16,0-3.57.11-4.34.19v0a3.9,3.9,0,0,1-.08.91l-1.06-.22a14.53,14.53,0,0,0,0-1.88v-2c0-1.76.42-2.1,2.47-2.1H9.32v.94H5.61c-1.19,0-1.72.13-1.72,1.25v2.11c.77-.06,3.52-.19,4.36-.18l1.07.17V263c0,.48,0,.91,0,1.19Z"/><path d="M2.85,254l-.11-1.14c.29-.08,1.19-.24,3.42-.61-.28-1.2-.76-1.41-1.62-1.41a5.94,5.94,0,0,0-1.69.33l-.11-1.13a6.74,6.74,0,0,1,1.64-.25c1.13,0,2.16.33,2.55,2.36.12,0,1-.15,1.36-.23a8.88,8.88,0,0,0-.19-1.3c-.32-1.49-1-2.39-3-2.39a6.84,6.84,0,0,0-2.25.41l-.1-1.15a7.43,7.43,0,0,1,2.11-.29,3.91,3.91,0,0,1,4.29,3.58c.13.76.22,1.5.26,1.91C7.83,253,3.83,253.67,2.85,254Z"/><path d="M8.21,245.4a3.67,3.67,0,0,0-3.42-2.84c-.75,0-.9.3-.9.94v2.85H2.16a7.07,7.07,0,0,0-1.9.17l-.17-1A8.38,8.38,0,0,1,2,245.43H2.8v-2.32c0-1.22.61-1.51,1.68-1.51a5.18,5.18,0,0,1,4.95,4Z"/><path d="M7.73,237.76a4.39,4.39,0,0,1-3.17-1.13,21.58,21.58,0,0,0-1.66,1.62l-.06,0-.1-1.28c.62-.61,1.63-1.5,3.19-2.76a1.73,1.73,0,0,0-1.57-.78,4,4,0,0,0-1.51.36l-.11-1.17a4.11,4.11,0,0,1,1.42-.23,2.7,2.7,0,0,1,2.36,1.37c.79-.65,2.23-1.67,2.8-2V233a38.29,38.29,0,0,0-4.12,3.16,3.44,3.44,0,0,0,2.27.61,6.93,6.93,0,0,0,1.85-.34v1.15A6.17,6.17,0,0,1,7.73,237.76Z"/><path d="M5.49,230.44A2.08,2.08,0,0,1,4.05,230a10.06,10.06,0,0,1-.33,1.5l-1.06-.21a18.53,18.53,0,0,0,.55-3.37l1.08.18c0,.25-.09.7-.1.87,0,.33.17.49,1,.52.62,0,2.78-.07,4.11-.15v.94C7.3,230.39,6.05,230.45,5.49,230.44Z"/><path d="M5.61,223.8c-1.19,0-1.72.14-1.72,1.26v1.19a6.88,6.88,0,0,1-.07,1.33l-1.07-.2a12.9,12.9,0,0,0,0-1.67V225c0-1.75.42-2.09,2.47-2.09H9.32v.92Z"/><path d="M5.55,220.83a9.31,9.31,0,0,1-1.67-.1c0,.22,0,.79-.06.88l-1.08-.21a10.76,10.76,0,0,0,.06-1.66v-2.17c0-1.76.54-2.09,2.53-2.09h4v.93H5.68c-1.32,0-1.79.12-1.79,1.26v2.23H9.32v.93Z"/><path d="M6.47,213.84a3.75,3.75,0,0,0-1.83-.75c-.4,0-.53.23-.69.78a5.69,5.69,0,0,1-.24.73l-1-.21a6,6,0,0,0,.2-.7c.25-1.14.61-1.54,1.5-1.54a4.66,4.66,0,0,1,2.47.95Z"/><path d="M5.36,204.92H8.25c.07,0,.74.13,1.07.2v5.4H5a6.84,6.84,0,0,1-1.15-.08,3.72,3.72,0,0,1-.07.86l-1.07-.2a12.45,12.45,0,0,0,.06-1.66V207C2.8,205.25,3.3,204.92,5.36,204.92Zm-1.47,2.15v2.55H8.23v-3.79H5.64C4.46,205.83,3.89,206,3.89,207.07Z"/><rect x="711.63" y="267.49" width="77.75" height="17.91" style="fill:#5a8bba"/><rect x="711.63" y="208.05" width="78.99" height="19.82" style="fill:#7aa6c4"/><rect x="711.75" y="24.68" width="78.9" height="30.92" style="fill:#a0c8ea"/><line x1="49.15" y1="451.74" x2="49.15" y2="5.01" style="fill:none;stroke:#000;stroke-linecap:round;stroke-miterlimit:10"/><line x1="49.15" y1="451.74" x2="65.95" y2="451.74" style="fill:none;stroke:#000;stroke-linecap:round;stroke-miterlimit:10"/><line x1="49.15" y1="302.75" x2="65.95" y2="302.75" style="fill:none;stroke:#000;stroke-linecap:round;stroke-miterlimit:10"/><line x1="49.15" y1="153.76" x2="65.95" y2="153.76" style="fill:none;stroke:#000;stroke-linecap:round;stroke-miterlimit:10"/><line x1="49.15" y1="4.77" x2="65.95" y2="4.77" style="fill:none;stroke:#000;stroke-linecap:round;stroke-miterlimit:10"/><line x1="49.15" y1="302.86" x2="49.15" y2="5.27" style="fill:none;stroke:#000;stroke-linecap:round;stroke-miterlimit:10"/><rect x="240.68" y="321.85" width="120.96" height="129.05" style="fill:#a0c8ea"/><rect x="240.69" y="327.36" width="120.96" height="59.83" style="fill:#7ab7e5"/><rect x="72.66" y="426.7" width="120.96" height="14.84" style="fill:#7ab7e5"/><rect x="577.01" y="32.12" width="120.96" height="419.61" style="fill:#a0c8ea"/><path d="M122.25,464.42a17,17,0,0,1,1.9-.06H126c0-.81,0-1.95,0-2.56,0-1.29-.17-1.78-1.31-1.78h-1a7,7,0,0,1-1.33-.07l.21-1.07a11,11,0,0,0,1.54.05H125c1.72,0,1.91.79,1.91,2.43v2c0,.25,0,.82,0,1h.88l-.2,1.09H123.6c-.52,0-1.28,0-1.55,0Z"/><path d="M130.12,461.7c0-1-.12-1.4-1.05-1.63a7.93,7.93,0,0,1-.82-.23l.21-1a4.16,4.16,0,0,0,.82.19c1.35.29,1.78.73,1.78,2.55v3.92h-.94Z"/><path d="M134.56,464.25a3.24,3.24,0,0,0,2.64-3.19c0-.76-.27-1-1.19-1h-1.64a9.06,9.06,0,0,1-1.77-.08l.2-1.06a13.78,13.78,0,0,0,1.76.05h1.68c1.54,0,1.9.53,1.9,1.87a4.79,4.79,0,0,1-3.76,4.75Zm-1.72-2.42h.93v5.93h-.93Z"/><path d="M142.55,461.74c0-1.19-.13-1.72-1.26-1.72h-1.18a6.81,6.81,0,0,1-1.33-.07l.2-1.07a12.9,12.9,0,0,0,1.67.05h.74c1.75,0,2.09.42,2.09,2.47v4.05h-.93Z"/><path d="M269,463.86a4.39,4.39,0,0,1,1.13-3.17,21.58,21.58,0,0,0-1.62-1.66l0-.06,1.28-.1c.61.62,1.5,1.63,2.76,3.19a1.73,1.73,0,0,0,.78-1.57A4,4,0,0,0,273,459l1.17-.11a4.11,4.11,0,0,1,.23,1.42,2.7,2.7,0,0,1-1.37,2.36c.65.79,1.67,2.23,2,2.8h-1.27a39.13,39.13,0,0,0-3.15-4.12,3.38,3.38,0,0,0-.62,2.26,6.94,6.94,0,0,0,.34,1.86h-1.15A6.17,6.17,0,0,1,269,463.86Z"/><path d="M276.18,461.68a9.31,9.31,0,0,1,.1-1.67l-.88-.06.21-1.08a10.84,10.84,0,0,0,1.67.06h2.17c1.75,0,2.08.54,2.08,2.53v4h-.93v-3.64c0-1.32-.12-1.79-1.26-1.79h-2.23v5.43h-.93Z"/><path d="M286.44,461.74c0-1.19-.13-1.72-1.26-1.72H284a7,7,0,0,1-1.34-.07l.21-1.07a12.9,12.9,0,0,0,1.67.05h.74c1.75,0,2.09.42,2.09,2.47v4.05h-.93Z"/><path d="M289.06,462.6a3.82,3.82,0,0,0,.76-1.84c0-.39-.23-.52-.78-.68-.29-.08-.53-.16-.74-.24l.21-1a7,7,0,0,0,.71.2c1.14.25,1.53.61,1.53,1.5a4.69,4.69,0,0,1-.95,2.47Z"/><path d="M299.17,461.88c0-1.33-.12-1.86-1.24-1.86h-2a7.55,7.55,0,0,1-1.38-.07l.2-1.07a12.72,12.72,0,0,0,1.66.05H298c1.7,0,2.09.49,2.09,2.46v4.06h-.93Zm-4.42.14h.93v3.43h-.93Z"/><path d="M301.58,464.42a13.35,13.35,0,0,1,1.64-.06h1.86a38,38,0,0,1-2.39-3c-.61-.81-1.33-1.76-1.82-2.38l1.34-.12c.5.72,1.34,1.94,2,2.85a1.45,1.45,0,0,0,1-1.56A3.38,3.38,0,0,0,305,459l1.17-.11a3.23,3.23,0,0,1,.16,1,2.38,2.38,0,0,1-1.69,2.44,16.06,16.06,0,0,0,1.87,2.23l-.21.88H303.1c-.8,0-1.51,0-1.78,0Z"/><path d="M312.33,461.88c0-1.33-.12-1.86-1.25-1.86h-2a7.55,7.55,0,0,1-1.38-.07l.2-1.07a12.72,12.72,0,0,0,1.66.05h1.64c1.7,0,2.09.49,2.09,2.46v4.06h-.92Zm-4.43.14h.94v3.43h-.94Z"/><path d="M318.17,461.74c0-1.19-.13-1.72-1.26-1.72h-1.19a7,7,0,0,1-1.33-.07l.21-1.07a12.81,12.81,0,0,0,1.66.05H317c1.75,0,2.08.42,2.08,2.47v4.05h-.92Z"/><path d="M321,462.6a3.78,3.78,0,0,0,.75-1.84c0-.39-.22-.52-.77-.68-.29-.08-.53-.16-.74-.24l.21-1c.17.06.41.13.7.2,1.14.25,1.54.61,1.54,1.5a4.69,4.69,0,0,1-.95,2.47Z"/><path d="M324,462.6a3.82,3.82,0,0,0,.76-1.84c0-.39-.23-.52-.78-.68a7,7,0,0,1-.73-.24l.2-1a7,7,0,0,0,.71.2c1.14.25,1.53.61,1.53,1.5a4.75,4.75,0,0,1-.94,2.47Z"/><path d="M332.93,461.48v2.89c0,.08-.14.75-.21,1.08h-5.39v-4.29a5.9,5.9,0,0,1,.08-1.15,3.72,3.72,0,0,1-.86-.07l.2-1.07a12.37,12.37,0,0,0,1.66.06h2.42C332.59,458.93,332.93,459.43,332.93,461.48ZM330.78,460h-2.55v4.34H332v-2.59C332,460.58,331.88,460,330.78,460Z"/><path d="M462.56,464.36a27.34,27.34,0,0,0-2.51-5.37l1.27-.11a26.68,26.68,0,0,1,2.1,5.21c.89-.38,1.36-1.15,1.36-2.63a7,7,0,0,0-.51-2.47l1.19-.12a7.86,7.86,0,0,1,.31,2.28c0,1.75-.44,3.14-2.41,4a14.09,14.09,0,0,1-3.44.84l.2-1.18A12,12,0,0,0,462.56,464.36Z"/><path d="M470,461.74c0-1.19-.13-1.72-1.26-1.72h-1.19a6.88,6.88,0,0,1-1.33-.07l.2-1.07a13,13,0,0,0,1.67.05h.74c1.76,0,2.09.42,2.09,2.47v4.05H470Z"/><path d="M472.27,464.42a16.83,16.83,0,0,1,1.89-.06H476c0-.81,0-1.95,0-2.56,0-1.29-.17-1.78-1.31-1.78h-1a7.09,7.09,0,0,1-1.33-.07l.22-1.07a10.85,10.85,0,0,0,1.53.05H475c1.71,0,1.91.79,1.91,2.43v2c0,.25,0,.82,0,1h.87l-.2,1.09h-3.91c-.52,0-1.27,0-1.55,0Z"/><path d="M627.79,464.34a3.67,3.67,0,0,0,2.84-3.42c0-.75-.3-.9-.94-.9h-2.85v-1.73a7.07,7.07,0,0,0-.17-1.9l1-.17a8.38,8.38,0,0,1,.12,1.86v.85h2.32c1.22,0,1.51.61,1.51,1.68a5.18,5.18,0,0,1-4,4.95Z"/><path d="M633.21,462.6a3.82,3.82,0,0,0,.76-1.84c0-.39-.23-.52-.78-.68a7,7,0,0,1-.73-.24l.2-1a7,7,0,0,0,.71.2c1.14.25,1.53.61,1.53,1.5A4.75,4.75,0,0,1,634,463Z"/><path d="M636.61,464.34a3.67,3.67,0,0,0,2.84-3.42c0-.75-.3-.9-.94-.9h-2.85v-1.73a7.07,7.07,0,0,0-.17-1.9l1-.17a8.38,8.38,0,0,1,.12,1.86v.85h2.32c1.22,0,1.51.61,1.51,1.68a5.18,5.18,0,0,1-4,4.95Z"/><path d="M646.35,461.88c0-1.33-.12-1.86-1.25-1.86h-2a7.63,7.63,0,0,1-1.38-.07l.21-1.07a12.62,12.62,0,0,0,1.65.05h1.65c1.7,0,2.08.49,2.08,2.46v4.06h-.92Zm-4.43.14h.94v3.43h-.94Z"/><path d="M738,30.69a3.64,3.64,0,0,1-.61-.08l.22-1.06a15.31,15.31,0,0,0,1.7.06H742c1.47,0,1.73.76,1.73,2,0,2.82-1.64,4.12-3.24,4.41a12.24,12.24,0,0,1-1.55.19C738.65,34.59,738.14,31.58,738,30.69Zm2.69,4.25c1.49-.3,2.12-1.53,2.12-3.07,0-.79-.23-1.17-1-1.17h-2.8c.15.87.55,3.25.75,4.39C739.89,35.06,740.26,35,740.66,34.94Z"/><path d="M748.09,31.4c0-.67-.1-.7-.46-.7h-1.88a6.55,6.55,0,0,1-1.33-.08l.2-1.07a10.77,10.77,0,0,0,1.67.06h2c.67,0,.76.15.76,1.17v7.65h-.92Z"/><path d="M757.75,32.56c0-1.34-.12-1.86-1.25-1.86h-2a7.2,7.2,0,0,1-1.38-.08l.2-1.06a12.72,12.72,0,0,0,1.66.05h1.64c1.71,0,2.09.49,2.09,2.45v4.07h-.92Zm-4.43.14h.94v3.43h-.94Z"/><path d="M759.88,35.09c.24,0,.93,0,1.64,0h2.29a12.86,12.86,0,0,0,.22-2.23c0-1.61-.36-2.12-1.66-2.12h-1.11a7.35,7.35,0,0,1-1.38-.08l.22-1.06a11.16,11.16,0,0,0,1.5.05h1c2,0,2.37.87,2.37,3.11a16.37,16.37,0,0,1-.4,3.41h-3.3a14.84,14.84,0,0,0-1.58,0Z"/><path d="M766.86,35a3.66,3.66,0,0,0,2.84-3.41c0-.76-.3-.9-.94-.9h-2.85V29a7.15,7.15,0,0,0-.17-1.91l1-.16a9,9,0,0,1,.12,1.85v.86h2.32c1.22,0,1.51.61,1.51,1.67a5.2,5.2,0,0,1-4,5Z"/><path d="M737.73,47.53a4.38,4.38,0,0,1,1.13-3.16c-.53-.61-1.14-1.22-1.62-1.67l0-.06,1.28-.09c.61.62,1.5,1.63,2.76,3.19a1.76,1.76,0,0,0,.78-1.58,4.09,4.09,0,0,0-.36-1.51l1.18-.1a4.25,4.25,0,0,1,.22,1.41,2.68,2.68,0,0,1-1.37,2.36c.65.8,1.67,2.23,2,2.81h-1.27A38.86,38.86,0,0,0,739.38,45a3.39,3.39,0,0,0-.62,2.27,7,7,0,0,0,.34,1.86H738A6.31,6.31,0,0,1,737.73,47.53Z"/><path d="M745.05,45.29a2,2,0,0,1,.44-1.44,9.63,9.63,0,0,1-1.5-.32l.2-1.07a16.94,16.94,0,0,0,3.37.55l-.18,1.08c-.25,0-.7-.08-.86-.09-.34,0-.5.16-.53,1,0,.62.07,2.78.15,4.11h-.94C745.1,47.1,745,45.86,745.05,45.29Z"/><path d="M751.69,45.41c0-1.19-.13-1.71-1.26-1.71h-1.19a6.55,6.55,0,0,1-1.33-.08l.2-1.06a13,13,0,0,0,1.67,0h.74c1.76,0,2.09.42,2.09,2.47v4.05h-.92Z"/><path d="M754.67,45.35a9.51,9.51,0,0,1,.09-1.66c-.22,0-.79,0-.88-.07l.21-1.07a10.84,10.84,0,0,0,1.67.06h2.17c1.75,0,2.08.54,2.08,2.53v4h-.93V45.48c0-1.32-.12-1.78-1.26-1.78h-2.23v5.43h-.92Z"/><path d="M761.65,46.28a3.78,3.78,0,0,0,.75-1.84c0-.4-.22-.53-.78-.68-.28-.09-.52-.16-.73-.24l.21-1.06c.16.06.4.13.7.21,1.14.25,1.54.61,1.54,1.49a4.69,4.69,0,0,1-1,2.48Z"/><path d="M770.57,45.16v2.89c0,.07-.13.74-.2,1.08H765V44.84a5.55,5.55,0,0,1,.09-1.15,3.65,3.65,0,0,1-.87-.08l.21-1.06a12.21,12.21,0,0,0,1.65.06h2.42C770.24,42.61,770.57,43.11,770.57,45.16Zm-2.14-1.46h-2.56V48h3.79V45.45C769.66,44.26,769.53,43.7,768.43,43.7Z"/><rect x="72.66" y="441.23" width="120.96" height="5.04" style="fill:#7aa6c4"/><rect x="240.68" y="387.15" width="120.96" height="24.58" style="fill:#7aa6c4"/><rect x="408.38" y="381.74" width="120.96" height="29.8" style="fill:#7aa6c4"/><rect x="576.84" y="218.26" width="120.96" height="59.41" style="fill:#7aa6c4"/><rect x="577.08" y="158.95" width="120.96" height="59.41" style="fill:#7ab7e5"/><rect x="72.66" y="446.19" width="120.96" height="5.01" style="fill:#5a8bba"/><rect x="240.56" y="411.8" width="120.96" height="39.38" style="fill:#5a8bba"/><rect x="408.43" y="411.44" width="120.96" height="39.73" style="fill:#5a8bba"/><rect x="576.86" y="276.55" width="120.96" height="173.82" style="fill:#5a8bba"/><g style="isolation:isolate"><g style="isolation:isolate"><path d="M31,8.59a1.62,1.62,0,0,0,1.63,1.32c1.41,0,2.08-1.13,2.08-3.73h0a2.45,2.45,0,0,1-2.21,1.14,2.66,2.66,0,0,1-2.71-2.78,2.89,2.89,0,0,1,3-3c1.92,0,3.1,1.16,3.1,4.14,0,3.72-1.13,5.06-3.22,5.06a2.44,2.44,0,0,1-2.67-2.18Zm-.1-4.14a1.78,1.78,0,0,0,1.83,2,1.82,1.82,0,0,0,1.89-1.95,1.85,1.85,0,0,0-1.89-2A1.8,1.8,0,0,0,30.85,4.45Z"/></g><g style="isolation:isolate"><path d="M40.68,1.57c2,0,3.2,1.51,3.2,4.61s-1.24,4.6-3.2,4.6S37.5,9.26,37.5,6.18,38.76,1.57,40.68,1.57Zm2,4.63c0-2.47-.77-3.73-2-3.73s-2,1.2-2,3.73.74,3.69,2,3.69S42.72,8.61,42.72,6.2Z"/></g></g><g style="isolation:isolate"><path d="M32.79,51.58A2.55,2.55,0,0,1,35.61,54a2.15,2.15,0,0,1-1.45,2.07v0a2.13,2.13,0,0,1,1.7,2.16c0,1.43-1.2,2.54-3.07,2.54s-3.06-1.09-3.06-2.54a2.16,2.16,0,0,1,1.69-2.16v0A2.16,2.16,0,0,1,30,54,2.55,2.55,0,0,1,32.79,51.58Zm2,6.66c0-1.18-.91-1.71-2-1.71a1.71,1.71,0,1,0,0,3.4C33.86,59.93,34.76,59.41,34.76,58.24ZM31.1,54.06a1.69,1.69,0,1,0,1.69-1.62A1.55,1.55,0,0,0,31.1,54.06Z"/><path d="M40.57,51.58c1.94,0,3.2,1.51,3.2,4.61s-1.25,4.6-3.2,4.6-3.18-1.52-3.18-4.6S38.65,51.58,40.57,51.58Zm2,4.63c0-2.47-.77-3.73-2-3.73s-2,1.2-2,3.73.75,3.69,2,3.69S42.61,58.62,42.61,56.21Z"/></g><g style="isolation:isolate"><g style="isolation:isolate"><path d="M34.42,101.85H30v-1h5.66v.71L32,109.77H30.82Z"/></g><g style="isolation:isolate"><path d="M40,100.75c2,0,3.2,1.51,3.2,4.61S42,110,40,110s-3.18-1.52-3.18-4.6S38.09,100.75,40,100.75Zm2,4.63c0-2.47-.77-3.73-2-3.73s-2,1.2-2,3.73.74,3.69,2,3.69S42.05,107.79,42.05,105.38Z"/></g></g><g style="isolation:isolate"><path d="M34.61,151.83a1.42,1.42,0,0,0-1.55-1.21c-1.58,0-2.12,1.66-2.18,3.71h0a2.51,2.51,0,0,1,2.25-1.24,2.62,2.62,0,0,1,2.72,2.84,2.88,2.88,0,0,1-3,3c-1.61,0-3.1-.78-3.1-4.11s1.07-5.09,3.28-5.09c1.59,0,2.45.76,2.58,2.05Zm.15,4.2a1.82,1.82,0,0,0-1.87-2A1.78,1.78,0,0,0,31,156a1.83,1.83,0,0,0,1.87,2A1.85,1.85,0,0,0,34.76,156Z"/><path d="M40.65,149.78c2,0,3.21,1.51,3.21,4.61s-1.25,4.6-3.21,4.6-3.17-1.52-3.17-4.6S38.73,149.78,40.65,149.78Zm2,4.63c0-2.47-.76-3.73-2-3.73s-2,1.2-2,3.73.74,3.69,2,3.69S42.69,156.82,42.69,154.41Z"/></g><g style="isolation:isolate"><path d="M32.71,203.38a1.84,1.84,0,0,0-1.64.78h-.94l.39-4.74h4.72v.94H31.43l-.23,2.83h0a2.24,2.24,0,0,1,1.72-.73,2.68,2.68,0,0,1,2.76,3,2.85,2.85,0,0,1-3.06,3.05A2.57,2.57,0,0,1,29.82,206h1.09a1.59,1.59,0,0,0,1.8,1.58,1.89,1.89,0,0,0,1.87-2.11A1.86,1.86,0,0,0,32.71,203.38Z"/><path d="M40.54,199.29c1.94,0,3.2,1.51,3.2,4.61s-1.25,4.6-3.2,4.6-3.18-1.52-3.18-4.6S38.62,199.29,40.54,199.29Zm2,4.63c0-2.47-.77-3.73-2-3.73s-2,1.2-2,3.73.74,3.69,2,3.69S42.58,206.33,42.58,203.92Z"/></g><g style="isolation:isolate"><path d="M34.76,255.76v2.16h-1v-2.16H29.55v-.86l4-5.87h1.18v5.8h1.16v.93Zm-1-.92v-4.52h0a7.32,7.32,0,0,1-.54.92l-2.47,3.6Z"/><path d="M40.56,248.9c1.95,0,3.21,1.51,3.21,4.61s-1.25,4.6-3.21,4.6-3.17-1.52-3.17-4.6S38.65,248.9,40.56,248.9Zm2,4.63c0-2.47-.76-3.73-2-3.73s-2,1.2-2,3.73.74,3.69,2,3.69S42.6,255.94,42.6,253.53Z"/></g><g style="isolation:isolate"><g style="isolation:isolate"><path d="M32.42,302.45v-1h.47a1.56,1.56,0,0,0,1.6-1.56,1.5,1.5,0,0,0-1.63-1.54,1.62,1.62,0,0,0-1.8,1.76H30a2.63,2.63,0,0,1,2.88-2.67,2.42,2.42,0,0,1,2.71,2.39,2.25,2.25,0,0,1-1.48,2v0a2.17,2.17,0,0,1,1.73,2.23c0,1.36-1.11,2.54-3,2.54a2.69,2.69,0,0,1-3-2.67h1.09a1.89,1.89,0,0,0,2,1.76,1.69,1.69,0,0,0,1.85-1.63c0-1.06-.68-1.66-1.85-1.66Z"/></g><g style="isolation:isolate"><path d="M40.53,297.45c1.95,0,3.2,1.51,3.2,4.61s-1.24,4.6-3.2,4.6-3.18-1.52-3.18-4.6S38.61,297.45,40.53,297.45Zm2,4.63c0-2.47-.77-3.73-2-3.73s-2,1.2-2,3.73.74,3.69,2,3.69S42.57,304.49,42.57,302.08Z"/></g></g><g style="isolation:isolate"><path d="M30,348.79a2.72,2.72,0,0,1,2.87-2.86,2.42,2.42,0,0,1,2.74,2.42c0,1.23-.5,1.92-2,3.32L31.21,354h4.44v1h-5.9v-.83l3-3c1-1,1.65-1.68,1.65-2.69a1.5,1.5,0,0,0-1.6-1.58c-.94,0-1.74.55-1.74,2Z"/><path d="M40.49,345.93c1.94,0,3.2,1.51,3.2,4.61s-1.24,4.6-3.2,4.6-3.18-1.52-3.18-4.6S38.57,345.93,40.49,345.93Zm2,4.63c0-2.47-.77-3.73-2-3.73s-2,1.2-2,3.73.74,3.69,2,3.69S42.53,353,42.53,350.56Z"/></g><g style="isolation:isolate"><path d="M32.71,399.67H30.94v-.77h.26a1.76,1.76,0,0,0,1.31-.43,1.58,1.58,0,0,0,.4-1.17h.9v8.92h-1.1Z"/><path d="M39.34,397.2c1.94,0,3.2,1.51,3.2,4.61s-1.25,4.6-3.2,4.6-3.18-1.52-3.18-4.6S37.42,397.2,39.34,397.2Zm2,4.63c0-2.47-.77-3.73-2-3.73s-2,1.2-2,3.73.75,3.69,2,3.69S41.38,404.24,41.38,401.83Z"/></g><line x1="697.61" y1="32.54" x2="711.89" y2="32.54" style="fill:none;stroke:#000;stroke-miterlimit:10;stroke-width:0.5px"/><line x1="697.61" y1="276.85" x2="711.72" y2="276.85" style="fill:none;stroke:#000;stroke-miterlimit:10;stroke-width:0.5px"/><rect x="711.79" y="148.22" width="78.99" height="19.82" style="fill:#7aa6c4"/><line x1="697.77" y1="158.74" x2="711.88" y2="158.74" style="fill:none;stroke:#000;stroke-miterlimit:10;stroke-width:0.5px"/><line x1="697.61" y1="219.05" x2="711.86" y2="219.05" style="fill:none;stroke:#000;stroke-miterlimit:10;stroke-width:0.5px"/><line x1="49.15" y1="451.74" x2="721.13" y2="451.74" style="fill:none;stroke:#000;stroke-miterlimit:10"/><line x1="49.15" y1="451.74" x2="49.15" y2="440.14" style="fill:none;stroke:#000;stroke-miterlimit:10"/><line x1="217.14" y1="451.74" x2="217.14" y2="440.14" style="fill:none;stroke:#000;stroke-miterlimit:10"/><line x1="385.14" y1="451.74" x2="385.14" y2="440.14" style="fill:none;stroke:#000;stroke-miterlimit:10"/><line x1="553.13" y1="451.74" x2="553.13" y2="440.14" style="fill:none;stroke:#000;stroke-miterlimit:10"/><line x1="721.13" y1="451.74" x2="721.13" y2="440.14" style="fill:none;stroke:#000;stroke-miterlimit:10"/><line x1="49.2" y1="154.04" x2="66" y2="154.04" style="fill:none;stroke:#000;stroke-linecap:round;stroke-miterlimit:10"/><line x1="49.2" y1="203.65" x2="66" y2="203.65" style="fill:none;stroke:#000;stroke-linecap:round;stroke-miterlimit:10"/><line x1="49.2" y1="253.26" x2="66" y2="253.26" style="fill:none;stroke:#000;stroke-linecap:round;stroke-miterlimit:10"/><line x1="49.2" y1="302.87" x2="66" y2="302.87" style="fill:none;stroke:#000;stroke-linecap:round;stroke-miterlimit:10"/><line x1="49.2" y1="302.84" x2="66" y2="302.84" style="fill:none;stroke:#000;stroke-linecap:round;stroke-miterlimit:10"/><line x1="49.2" y1="5.08" x2="66" y2="5.08" style="fill:none;stroke:#000;stroke-linecap:round;stroke-miterlimit:10"/><line x1="49.2" y1="54.69" x2="66" y2="54.69" style="fill:none;stroke:#000;stroke-linecap:round;stroke-miterlimit:10"/><line x1="49.2" y1="104.3" x2="66" y2="104.3" style="fill:none;stroke:#000;stroke-linecap:round;stroke-miterlimit:10"/><line x1="49.2" y1="153.91" x2="66" y2="153.91" style="fill:none;stroke:#000;stroke-linecap:round;stroke-miterlimit:10"/><line x1="49.2" y1="352.45" x2="66" y2="352.45" style="fill:none;stroke:#000;stroke-linecap:round;stroke-miterlimit:10"/><line x1="49.2" y1="402.06" x2="66" y2="402.06" style="fill:none;stroke:#000;stroke-linecap:round;stroke-miterlimit:10"/><rect x="408.33" y="337.08" width="120.96" height="44.96" style="fill:#7ab7e5"/><path d="M738.24,160a2.22,2.22,0,0,0,2.24-2.28v-.47c0-1-.24-1.27-1.14-1.5-.25-.07-.81-.18-1-.26l.22-1.06a8.23,8.23,0,0,0,1,.24c1.6.35,1.84,1,1.88,2.51l.05,1.75a11.81,11.81,0,0,0,.22,2.17h-.94a6.25,6.25,0,0,1-.19-1.76,2.61,2.61,0,0,1-2.51,1.86Z"/><path d="M742.75,160a16.83,16.83,0,0,1,1.89-.06h1.82c0-.82,0-2,0-2.57,0-1.28-.16-1.77-1.3-1.77h-1a6.77,6.77,0,0,1-1.33-.08l.22-1.06a10.85,10.85,0,0,0,1.53.05h1c1.71,0,1.91.79,1.91,2.43v2c0,.25,0,.81,0,1h.87l-.2,1.09h-3.91c-.51,0-1.27,0-1.55,0Z"/><path d="M752.48,157.35c0-1.19-.14-1.71-1.26-1.71H750a6.55,6.55,0,0,1-1.33-.08l.2-1.06a12.9,12.9,0,0,0,1.67.05h.74c1.76,0,2.09.42,2.09,2.47v4h-.92Z"/><path d="M755.05,158.22a3.78,3.78,0,0,0,.75-1.84c0-.4-.23-.53-.78-.68-.28-.09-.52-.16-.73-.24l.21-1.06c.16.06.4.13.7.21,1.14.25,1.54.61,1.54,1.49a4.69,4.69,0,0,1-1,2.48Z"/><path d="M764,157.1V160c0,.07-.13.74-.2,1.08h-5.4v-4.29a6.89,6.89,0,0,1,.08-1.16,3.72,3.72,0,0,1-.86-.07l.2-1.06a12.45,12.45,0,0,0,1.66.06h2.42C763.64,154.55,764,155.05,764,157.1Zm-2.14-1.46h-2.56V160h3.79v-2.59C763.06,156.2,762.93,155.64,761.83,155.64Z"/><path d="M740.1,219.38a12,12,0,0,1,1.47,0h.84v-2.68c0-1-.12-1.33-1.19-1.58-.43-.1-.85-.19-1-.26l.2-1.06a8.48,8.48,0,0,0,1,.24c1.39.29,1.93.7,1.93,2.46v2.91l-.21,1.06h-1.66c-.52,0-1.35,0-1.59,0Z"/><path d="M744.6,213.94l1.14-.11c.08.29.24,1.19.61,3.42,1.2-.27,1.4-.75,1.4-1.62a5.91,5.91,0,0,0-.32-1.69l1.12-.11a7.23,7.23,0,0,1,.26,1.65c0,1.12-.34,2.16-2.37,2.54,0,.12.16,1,.23,1.37a10.64,10.64,0,0,0,1.31-.19c1.49-.33,2.39-1,2.39-3a7.23,7.23,0,0,0-.41-2.26l1.15-.09a7.75,7.75,0,0,1,.29,2.11,3.91,3.91,0,0,1-3.59,4.28c-.75.13-1.5.23-1.91.26C745.65,218.92,744.94,214.93,744.6,213.94Z"/><path d="M752.84,217.56a3.75,3.75,0,0,0,.76-1.83c0-.4-.23-.53-.78-.68-.29-.09-.53-.16-.73-.24l.2-1.06a7,7,0,0,0,.71.2c1.14.26,1.53.62,1.53,1.5a4.69,4.69,0,0,1-.94,2.47Z"/><path d="M761.77,216.45v2.89c0,.07-.14.74-.21,1.08h-5.4v-4.3a5.69,5.69,0,0,1,.09-1.15,3.82,3.82,0,0,1-.87-.07l.21-1.07a12.21,12.21,0,0,0,1.65.06h2.43C761.43,213.89,761.77,214.4,761.77,216.45ZM759.62,215h-2.56v4.34h3.79v-2.59C760.85,215.55,760.72,215,759.62,215Z"/><path d="M739.32,277.09a3.79,3.79,0,0,0,.76-1.83c0-.4-.23-.53-.78-.69a5.21,5.21,0,0,1-.73-.24l.2-1.05a7,7,0,0,0,.71.2c1.14.25,1.53.61,1.53,1.5a4.72,4.72,0,0,1-.94,2.47Z"/><path d="M743.2,278.83a3.67,3.67,0,0,0,2.84-3.42c0-.75-.3-.9-.93-.9h-2.86v-1.72a7.1,7.1,0,0,0-.17-1.91l1-.17a8.38,8.38,0,0,1,.12,1.86v.85h2.32c1.22,0,1.51.61,1.51,1.68a5.18,5.18,0,0,1-4,4.95Z"/><path d="M747.87,274.44l.2-1.07a12.9,12.9,0,0,0,1.67.05h3.52l-.21,1.09h-.46c-.36,0-.49.25-.49,1.12,0,1.44.06,3.14.1,4.32h-.94c0-.78-.08-2.8-.08-4.11a2.14,2.14,0,0,1,.25-1.33H749.2A6.88,6.88,0,0,1,747.87,274.44Z"/><path d="M754.43,277.09a3.79,3.79,0,0,0,.76-1.83c0-.4-.23-.53-.78-.69a5.88,5.88,0,0,1-.74-.24l.21-1.05a7,7,0,0,0,.71.2c1.14.25,1.53.61,1.53,1.5a4.66,4.66,0,0,1-1,2.47Z"/><path d="M763.35,276v2.9c0,.07-.13.74-.2,1.08h-5.4v-4.3a5.69,5.69,0,0,1,.09-1.15,3.82,3.82,0,0,1-.87-.07l.21-1.07a12.21,12.21,0,0,0,1.65.06h2.43C763,273.42,763.35,273.92,763.35,276Zm-2.14-1.46h-2.56v4.34h3.79v-2.59C762.44,275.08,762.31,274.51,761.21,274.51Z"/></svg>