<svg id="Layer_1" data-name="Layer 1" xmlns="http://www.w3.org/2000/svg" viewBox="0 0 790.78 476.93"><title>minimum-reported-civilian-deaths-by-likely-israeli-action-in-gaza-may-2021-by-time-of-day</title><rect x="711.63" y="267.49" width="77.75" height="17.91" style="fill:#5a8bba"/><rect x="711.63" y="208.05" width="78.99" height="19.82" style="fill:#7aa6c4"/><rect x="711.75" y="24.68" width="78.9" height="30.92" style="fill:#a0c8ea"/><line x1="49.15" y1="451.74" x2="49.15" y2="5.01" style="fill:none;stroke:#000;stroke-linecap:round;stroke-miterlimit:10"/><line x1="49.15" y1="451.74" x2="65.95" y2="451.74" style="fill:none;stroke:#000;stroke-linecap:round;stroke-miterlimit:10"/><line x1="49.15" y1="302.75" x2="65.95" y2="302.75" style="fill:none;stroke:#000;stroke-linecap:round;stroke-miterlimit:10"/><line x1="49.15" y1="153.76" x2="65.95" y2="153.76" style="fill:none;stroke:#000;stroke-linecap:round;stroke-miterlimit:10"/><line x1="49.15" y1="4.77" x2="65.95" y2="4.77" style="fill:none;stroke:#000;stroke-linecap:round;stroke-miterlimit:10"/><line x1="49.15" y1="302.86" x2="49.15" y2="5.27" style="fill:none;stroke:#000;stroke-linecap:round;stroke-miterlimit:10"/><rect x="240.68" y="321.85" width="120.96" height="129.05" style="fill:#a0c8ea"/><rect x="240.69" y="327.36" width="120.96" height="59.83" style="fill:#7ab7e5"/><rect x="72.66" y="426.7" width="120.96" height="14.84" style="fill:#7ab7e5"/><rect x="577.01" y="32.12" width="120.96" height="419.61" style="fill:#a0c8ea"/><g style="isolation:isolate"><path d="M622.45,465.21h1.43L628,472a6.45,6.45,0,0,1,.47.9h0v-7.73h1.06v9.18h-1.43L624,467.58c-.35-.6-.48-.89-.48-.89h0v7.7h-1.07Z"/><path d="M631.85,465.47H633v1.16h-1.14Zm0,2.6H633v6.32h-1.09Z"/><path d="M634.81,475h1.05c.12.54.52.88,1.56.88,1.2,0,1.79-.44,1.79-1.83v-.94h0a2.24,2.24,0,0,1-2,1.17c-1.32,0-2.53-.83-2.53-3.17,0-2.09,1.1-3.23,2.66-3.23a2,2,0,0,1,1.89,1.15h0v-1h1v6.16c0,1.78-1.16,2.55-2.88,2.55C636.19,476.78,635,476.33,634.81,475Zm4.43-4.14c0-1.26-.71-2.13-1.8-2.13s-1.68.95-1.68,2.38.4,2.35,1.73,2.35a1.84,1.84,0,0,0,1.75-2Z"/><path d="M646.55,470.48a2.15,2.15,0,0,0-.23-1.25,1.17,1.17,0,0,0-1-.42,1.6,1.6,0,0,0-1.71,1.79v3.79h-1.08v-9.45h1.08v4.17h0a2.12,2.12,0,0,1,2-1.2,1.82,1.82,0,0,1,2,2.08v4.4h-1.08Z"/><path d="M651.16,466.23v1.84h1.55v.83h-1.55v3.73c0,.67.27.93,1,.93a5.09,5.09,0,0,0,.69-.06v.91a6.16,6.16,0,0,1-1,.08c-1.24,0-1.73-.6-1.73-1.68V468.9h-1.15v-.79h.19c.85,0,1-.21,1-1.42v-.46Z"/></g><g style="isolation:isolate"><g style="isolation:isolate"><path d="M447.45,465.21h5.87v1h-4.75v3.06h4.36v1h-4.36v3.15h4.81v1h-5.93Z"/></g><g style="isolation:isolate"><path d="M454.48,468.07h1.11l1.36,4.06c.18.52.31,1,.31,1h0s.13-.48.31-1l1.4-4.06h1l-2.2,6.32H456.7Z"/><path d="M463.68,474.55c-1.93,0-2.85-1.41-2.85-3.29s1-3.35,2.82-3.35,2.64,1.47,2.64,3.06v.55h-4.36c.08,1.31.6,2.2,1.79,2.2a1.3,1.3,0,0,0,1.44-1h1A2.35,2.35,0,0,1,463.68,474.55Zm1.5-3.95c0-1.06-.44-1.87-1.54-1.87s-1.56.79-1.69,1.94h3.23Z"/></g><g style="isolation:isolate"><path d="M472,470.49a2.2,2.2,0,0,0-.23-1.26,1.14,1.14,0,0,0-1-.42A1.61,1.61,0,0,0,469,470.6v3.79h-1.08v-6.32h1v1.07h0a2.21,2.21,0,0,1,2-1.23,1.81,1.81,0,0,1,2,2.08v4.4H472Z"/><path d="M475.21,465.47h1.14v1.16h-1.14Zm0,2.6h1.09v6.32h-1.09Z"/><path d="M482.6,470.49a2.2,2.2,0,0,0-.23-1.26,1.17,1.17,0,0,0-1-.42,1.6,1.6,0,0,0-1.71,1.79v3.79h-1.08v-6.32h1v1.07h0a2.21,2.21,0,0,1,2-1.23,1.81,1.81,0,0,1,2,2.08v4.4H482.6Z"/><path d="M485.47,475h1c.12.54.53.88,1.56.88,1.2,0,1.8-.44,1.8-1.83v-.94h0a2.27,2.27,0,0,1-2,1.17c-1.32,0-2.53-.83-2.53-3.17,0-2.09,1.1-3.23,2.66-3.23a2,2,0,0,1,1.9,1.15h0v-1h1v6.16c0,1.78-1.16,2.55-2.88,2.55C486.84,476.78,485.61,476.33,485.47,475Zm4.42-4.14c0-1.26-.71-2.13-1.8-2.13s-1.68.95-1.68,2.38.4,2.35,1.73,2.35a1.84,1.84,0,0,0,1.75-2Z"/></g></g><g style="isolation:isolate"><g style="isolation:isolate"><path d="M278.93,471.66h-3.67l-.95,2.73H273.2l3.26-9.18h1.32l3.3,9.18h-1.19Zm-2.22-4.19-1.14,3.29h3.05l-1.15-3.29c-.2-.55-.36-1.14-.36-1.14h0C277.06,466.39,276.89,467,276.71,467.47Z"/></g><g style="isolation:isolate"><path d="M283.82,474.39h-1.07V468.9h-1.16v-.83h1.16v-1.42c0-1.29.74-1.75,1.91-1.75a4.65,4.65,0,0,1,.68.06v.89a3.47,3.47,0,0,0-.59-.05c-.63,0-.93.23-.93,1v1.28h1.52v.83h-1.52Z"/></g><g style="isolation:isolate"><path d="M288.13,466.23v1.84h1.55v.83h-1.55v3.73c0,.67.27.93.95.93a5.13,5.13,0,0,0,.7-.06v.91a6.22,6.22,0,0,1-1,.08c-1.23,0-1.72-.6-1.72-1.68V468.9h-1.15v-.79h.19c.85,0,1-.21,1-1.42v-.46Z"/></g><g style="isolation:isolate"><path d="M293.55,474.55c-1.93,0-2.85-1.41-2.85-3.29s1-3.35,2.82-3.35,2.64,1.47,2.64,3.06v.55H291.8c.08,1.31.6,2.2,1.79,2.2a1.3,1.3,0,0,0,1.44-1h1A2.35,2.35,0,0,1,293.55,474.55Zm1.5-3.95c0-1.06-.44-1.87-1.54-1.87s-1.56.79-1.69,1.94h3.23Z"/></g><g style="isolation:isolate"><path d="M297.8,468.07h1v1.19h0a2.27,2.27,0,0,1,2-1.31H301v1.13h-.21a1.71,1.71,0,0,0-1.87,1.87v3.44H297.8Z"/></g><g style="isolation:isolate"><path d="M306.4,470.49a2.2,2.2,0,0,0-.23-1.26,1.14,1.14,0,0,0-1-.42,1.61,1.61,0,0,0-1.72,1.79v3.79h-1.08v-6.32h1v1.07h0a2.21,2.21,0,0,1,2-1.23,1.81,1.81,0,0,1,2,2.08v4.4H306.4Z"/></g><g style="isolation:isolate"><path d="M309.11,471.22c0-2,1.08-3.31,2.84-3.31s2.82,1.36,2.82,3.31-1.07,3.33-2.84,3.33S309.11,473.2,309.11,471.22Zm1.12,0c0,1.55.51,2.49,1.73,2.49s1.7-.94,1.7-2.49-.51-2.48-1.72-2.48S310.23,469.69,310.23,471.22Z"/></g><g style="isolation:isolate"><path d="M316,471.22c0-2,1.08-3.31,2.84-3.31s2.82,1.36,2.82,3.31-1.07,3.33-2.84,3.33S316,473.2,316,471.22Zm1.12,0c0,1.55.51,2.49,1.73,2.49s1.7-.94,1.7-2.49-.51-2.48-1.72-2.48S317.15,469.69,317.15,471.22Z"/><path d="M327.42,470.49a2.2,2.2,0,0,0-.23-1.26,1.17,1.17,0,0,0-1-.42,1.6,1.6,0,0,0-1.71,1.79v3.79H323.4v-6.32h1v1.07h0a2.21,2.21,0,0,1,2-1.23,1.81,1.81,0,0,1,2,2.08v4.4h-1.07Z"/></g></g><g style="isolation:isolate"><g style="isolation:isolate"><path d="M110.4,465.21h1.69l2.33,6.58c.29.8.41,1.2.41,1.2h0s.12-.4.41-1.2l2.36-6.58h1.68v9.18h-1.14v-7.88h0s-.15.47-.49,1.44l-2.32,6.44h-1L112,468c-.32-1-.49-1.44-.49-1.44h0v7.88H110.4Z"/></g><g style="isolation:isolate"><path d="M121.07,471.22c0-2,1.08-3.31,2.84-3.31s2.82,1.36,2.82,3.31-1.07,3.33-2.84,3.33S121.07,473.2,121.07,471.22Zm1.12,0c0,1.55.51,2.49,1.73,2.49s1.7-.94,1.7-2.49-.51-2.48-1.72-2.48S122.19,469.69,122.19,471.22Z"/></g><g style="isolation:isolate"><path d="M128.44,468.07h1v1.19h0a2.27,2.27,0,0,1,2-1.31h.11v1.13h-.21a1.71,1.71,0,0,0-1.87,1.87v3.44h-1.08Z"/></g><g style="isolation:isolate"><path d="M137,470.49a2.2,2.2,0,0,0-.23-1.26,1.14,1.14,0,0,0-1-.42,1.61,1.61,0,0,0-1.72,1.79v3.79H133v-6.32h1v1.07h0a2.21,2.21,0,0,1,2-1.23,1.81,1.81,0,0,1,2,2.08v4.4H137Z"/><path d="M140.29,465.47h1.14v1.16h-1.14Zm0,2.6h1.09v6.32h-1.09Z"/><path d="M147.68,470.49a2.2,2.2,0,0,0-.23-1.26,1.17,1.17,0,0,0-1-.42,1.6,1.6,0,0,0-1.71,1.79v3.79h-1.08v-6.32h1v1.07h0a2.21,2.21,0,0,1,2-1.23,1.81,1.81,0,0,1,2,2.08v4.4h-1.07Z"/><path d="M150.55,475h1c.12.54.53.88,1.56.88,1.2,0,1.8-.44,1.8-1.83v-.94h0a2.27,2.27,0,0,1-2,1.17c-1.32,0-2.53-.83-2.53-3.17,0-2.09,1.1-3.23,2.66-3.23a2,2,0,0,1,1.9,1.15h0v-1h1v6.16c0,1.78-1.16,2.55-2.88,2.55C151.92,476.78,150.69,476.33,150.55,475Zm4.42-4.14c0-1.26-.71-2.13-1.8-2.13s-1.68.95-1.68,2.38.4,2.35,1.73,2.35a1.84,1.84,0,0,0,1.75-2Z"/></g></g><rect x="72.66" y="441.23" width="120.96" height="5.04" style="fill:#7aa6c4"/><rect x="240.68" y="387.15" width="120.96" height="24.58" style="fill:#7aa6c4"/><rect x="408.38" y="381.74" width="120.96" height="29.8" style="fill:#7aa6c4"/><rect x="576.84" y="218.26" width="120.96" height="59.41" style="fill:#7aa6c4"/><rect x="577.08" y="158.95" width="120.96" height="59.41" style="fill:#7ab7e5"/><rect x="72.66" y="446.19" width="120.96" height="5.01" style="fill:#5a8bba"/><rect x="240.56" y="411.8" width="120.96" height="39.38" style="fill:#5a8bba"/><rect x="408.43" y="411.44" width="120.96" height="39.73" style="fill:#5a8bba"/><rect x="576.86" y="276.55" width="120.96" height="173.82" style="fill:#5a8bba"/><g style="isolation:isolate"><g style="isolation:isolate"><path d="M31,8.59a1.62,1.62,0,0,0,1.63,1.32c1.41,0,2.08-1.13,2.08-3.73h0a2.45,2.45,0,0,1-2.21,1.14,2.66,2.66,0,0,1-2.71-2.78,2.89,2.89,0,0,1,3-3c1.92,0,3.1,1.16,3.1,4.14,0,3.72-1.13,5.06-3.22,5.06a2.44,2.44,0,0,1-2.67-2.18Zm-.1-4.14a1.78,1.78,0,0,0,1.83,2,1.82,1.82,0,0,0,1.89-1.95,1.85,1.85,0,0,0-1.89-2A1.8,1.8,0,0,0,30.85,4.45Z"/></g><g style="isolation:isolate"><path d="M40.68,1.57c2,0,3.2,1.51,3.2,4.61s-1.24,4.6-3.2,4.6S37.5,9.26,37.5,6.18,38.76,1.57,40.68,1.57Zm2,4.63c0-2.47-.77-3.73-2-3.73s-2,1.2-2,3.73.74,3.69,2,3.69S42.72,8.61,42.72,6.2Z"/></g></g><g style="isolation:isolate"><path d="M32.79,51.58A2.55,2.55,0,0,1,35.61,54a2.15,2.15,0,0,1-1.45,2.07v0a2.13,2.13,0,0,1,1.7,2.16c0,1.43-1.2,2.54-3.07,2.54s-3.06-1.09-3.06-2.54a2.16,2.16,0,0,1,1.69-2.16v0A2.16,2.16,0,0,1,30,54,2.55,2.55,0,0,1,32.79,51.58Zm2,6.66c0-1.18-.91-1.71-2-1.71a1.71,1.71,0,1,0,0,3.4C33.86,59.93,34.76,59.41,34.76,58.24ZM31.1,54.06a1.69,1.69,0,1,0,1.69-1.62A1.55,1.55,0,0,0,31.1,54.06Z"/><path d="M40.57,51.58c1.94,0,3.2,1.51,3.2,4.61s-1.25,4.6-3.2,4.6-3.18-1.52-3.18-4.6S38.65,51.58,40.57,51.58Zm2,4.63c0-2.47-.77-3.73-2-3.73s-2,1.2-2,3.73.75,3.69,2,3.69S42.61,58.62,42.61,56.21Z"/></g><g style="isolation:isolate"><g style="isolation:isolate"><path d="M34.42,101.85H30v-1h5.66v.71L32,109.77H30.82Z"/></g><g style="isolation:isolate"><path d="M40,100.75c2,0,3.2,1.51,3.2,4.61S42,110,40,110s-3.18-1.52-3.18-4.6S38.09,100.75,40,100.75Zm2,4.63c0-2.47-.77-3.73-2-3.73s-2,1.2-2,3.73.74,3.69,2,3.69S42.05,107.79,42.05,105.38Z"/></g></g><g style="isolation:isolate"><path d="M34.61,151.83a1.42,1.42,0,0,0-1.55-1.21c-1.58,0-2.12,1.66-2.18,3.71h0a2.51,2.51,0,0,1,2.25-1.24,2.62,2.62,0,0,1,2.72,2.84,2.88,2.88,0,0,1-3,3c-1.61,0-3.1-.78-3.1-4.11s1.07-5.09,3.28-5.09c1.59,0,2.45.76,2.58,2.05Zm.15,4.2a1.82,1.82,0,0,0-1.87-2A1.78,1.78,0,0,0,31,156a1.83,1.83,0,0,0,1.87,2A1.85,1.85,0,0,0,34.76,156Z"/><path d="M40.65,149.78c2,0,3.21,1.51,3.21,4.61s-1.25,4.6-3.21,4.6-3.17-1.52-3.17-4.6S38.73,149.78,40.65,149.78Zm2,4.63c0-2.47-.76-3.73-2-3.73s-2,1.2-2,3.73.74,3.69,2,3.69S42.69,156.82,42.69,154.41Z"/></g><g style="isolation:isolate"><path d="M32.71,203.38a1.84,1.84,0,0,0-1.64.78h-.94l.39-4.74h4.72v.94H31.43l-.23,2.83h0a2.24,2.24,0,0,1,1.72-.73,2.68,2.68,0,0,1,2.76,3,2.85,2.85,0,0,1-3.06,3.05A2.57,2.57,0,0,1,29.82,206h1.09a1.59,1.59,0,0,0,1.8,1.58,1.89,1.89,0,0,0,1.87-2.11A1.86,1.86,0,0,0,32.71,203.38Z"/><path d="M40.54,199.29c1.94,0,3.2,1.51,3.2,4.61s-1.25,4.6-3.2,4.6-3.18-1.52-3.18-4.6S38.62,199.29,40.54,199.29Zm2,4.63c0-2.47-.77-3.73-2-3.73s-2,1.2-2,3.73.74,3.69,2,3.69S42.58,206.33,42.58,203.92Z"/></g><g style="isolation:isolate"><path d="M34.76,255.76v2.16h-1v-2.16H29.55v-.86l4-5.87h1.18v5.8h1.16v.93Zm-1-.92v-4.52h0a7.32,7.32,0,0,1-.54.92l-2.47,3.6Z"/><path d="M40.56,248.9c1.95,0,3.21,1.51,3.21,4.61s-1.25,4.6-3.21,4.6-3.17-1.52-3.17-4.6S38.65,248.9,40.56,248.9Zm2,4.63c0-2.47-.76-3.73-2-3.73s-2,1.2-2,3.73.74,3.69,2,3.69S42.6,255.94,42.6,253.53Z"/></g><g style="isolation:isolate"><g style="isolation:isolate"><path d="M32.42,302.45v-1h.47a1.56,1.56,0,0,0,1.6-1.56,1.5,1.5,0,0,0-1.63-1.54,1.62,1.62,0,0,0-1.8,1.76H30a2.63,2.63,0,0,1,2.88-2.67,2.42,2.42,0,0,1,2.71,2.39,2.25,2.25,0,0,1-1.48,2v0a2.17,2.17,0,0,1,1.73,2.23c0,1.36-1.11,2.54-3,2.54a2.69,2.69,0,0,1-3-2.67h1.09a1.89,1.89,0,0,0,2,1.76,1.69,1.69,0,0,0,1.85-1.63c0-1.06-.68-1.66-1.85-1.66Z"/></g><g style="isolation:isolate"><path d="M40.53,297.45c1.95,0,3.2,1.51,3.2,4.61s-1.24,4.6-3.2,4.6-3.18-1.52-3.18-4.6S38.61,297.45,40.53,297.45Zm2,4.63c0-2.47-.77-3.73-2-3.73s-2,1.2-2,3.73.74,3.69,2,3.69S42.57,304.49,42.57,302.08Z"/></g></g><g style="isolation:isolate"><path d="M30,348.79a2.72,2.72,0,0,1,2.87-2.86,2.42,2.42,0,0,1,2.74,2.42c0,1.23-.5,1.92-2,3.32L31.21,354h4.44v1h-5.9v-.83l3-3c1-1,1.65-1.68,1.65-2.69a1.5,1.5,0,0,0-1.6-1.58c-.94,0-1.74.55-1.74,2Z"/><path d="M40.49,345.93c1.94,0,3.2,1.51,3.2,4.61s-1.24,4.6-3.2,4.6-3.18-1.52-3.18-4.6S38.57,345.93,40.49,345.93Zm2,4.63c0-2.47-.77-3.73-2-3.73s-2,1.2-2,3.73.74,3.69,2,3.69S42.53,353,42.53,350.56Z"/></g><g style="isolation:isolate"><path d="M32.71,399.67H30.94v-.77h.26a1.76,1.76,0,0,0,1.31-.43,1.58,1.58,0,0,0,.4-1.17h.9v8.92h-1.1Z"/><path d="M39.34,397.2c1.94,0,3.2,1.51,3.2,4.61s-1.25,4.6-3.2,4.6-3.18-1.52-3.18-4.6S37.42,397.2,39.34,397.2Zm2,4.63c0-2.47-.77-3.73-2-3.73s-2,1.2-2,3.73.75,3.69,2,3.69S41.38,404.24,41.38,401.83Z"/></g><line x1="697.61" y1="32.54" x2="711.89" y2="32.54" style="fill:none;stroke:#000;stroke-miterlimit:10;stroke-width:0.5px"/><g style="isolation:isolate"><g style="isolation:isolate"><path d="M744.39,28.06h-3.18v8.2h-1.12v-8.2h-3.17v-1h7.47Z"/></g><g style="isolation:isolate"><path d="M744.12,33.09c0-2,1.08-3.31,2.84-3.31s2.82,1.36,2.82,3.31-1.07,3.33-2.84,3.33S744.12,35.07,744.12,33.09Zm1.12,0c0,1.55.51,2.49,1.73,2.49s1.7-.94,1.7-2.49-.51-2.48-1.72-2.48S745.24,31.56,745.24,33.09Z"/></g><g style="isolation:isolate"><path d="M752.82,28.1v1.84h1.55v.83h-1.55V34.5c0,.67.27.93.95.93a5.13,5.13,0,0,0,.7-.06v.91a6.22,6.22,0,0,1-1,.08c-1.23,0-1.72-.6-1.72-1.68V30.77H750.6V30h.19c.85,0,1-.21,1-1.42V28.1Z"/></g><g style="isolation:isolate"><path d="M756.08,31.67c0-1.12.88-1.89,2.39-1.89s2.34.66,2.34,2.35v2.58c0,.51.11.71.57.72v.88h-.13c-1,0-1.34-.36-1.45-1.12h0a2.11,2.11,0,0,1-2,1.18,1.76,1.76,0,0,1-2-1.81,1.68,1.68,0,0,1,1-1.6,7.3,7.3,0,0,1,3-.51v-.28c0-1.14-.43-1.58-1.32-1.58a1.14,1.14,0,0,0-1.31,1.08Zm3.67,1.72v-.14a5.21,5.21,0,0,0-2.55.47.91.91,0,0,0-.35.78c0,.64.42,1,1.11,1A1.84,1.84,0,0,0,759.75,33.39Z"/><path d="M763,26.81H764v9.45H763Z"/></g><g style="isolation:isolate"><path d="M732.87,46.25A1.35,1.35,0,0,0,731.43,45c-1.14,0-1.74,1-1.74,2.47s.45,2.48,1.72,2.48A1.43,1.43,0,0,0,733,48.6h1a2.36,2.36,0,0,1-2.56,2.2c-1.83,0-2.81-1.27-2.81-3.27s1.06-3.35,2.83-3.35a2.23,2.23,0,0,1,2.51,2.07Z"/></g><g style="isolation:isolate"><path d="M735.57,41.74h1.14V42.9h-1.14Zm0,2.6h1.1v6.32h-1.1Z"/></g><g style="isolation:isolate"><path d="M738,44.34h1.11l1.36,4.06c.18.52.31,1,.31,1h0s.13-.48.31-1l1.4-4.06h1l-2.2,6.32h-1.14Z"/><path d="M745,41.74h1.14V42.9H745Zm0,2.6h1.1v6.32H745Z"/><path d="M748.34,41.21h1.08v9.45h-1.08Z"/><path d="M751.64,41.74h1.14V42.9h-1.14Zm0,2.6h1.09v6.32h-1.09Z"/><path d="M754.77,46.07c0-1.12.88-1.89,2.39-1.89s2.34.66,2.34,2.35v2.58c0,.51.11.71.57.72v.88h-.13c-1,0-1.34-.36-1.45-1.12h0a2.11,2.11,0,0,1-2,1.18,1.76,1.76,0,0,1-2-1.81,1.69,1.69,0,0,1,.94-1.6,7.35,7.35,0,0,1,3.06-.51v-.28c0-1.14-.43-1.58-1.32-1.58a1.16,1.16,0,0,0-1.32,1.08Zm3.67,1.72v-.14a5.21,5.21,0,0,0-2.55.47.91.91,0,0,0-.35.78c0,.64.42,1,1.1,1A1.84,1.84,0,0,0,758.44,47.79Z"/><path d="M765.67,46.76a2.2,2.2,0,0,0-.23-1.26,1.17,1.17,0,0,0-1-.42,1.6,1.6,0,0,0-1.71,1.79v3.79h-1.08V44.34h1v1.07h0a2.21,2.21,0,0,1,2-1.23,1.82,1.82,0,0,1,2,2.08v4.4h-1.08Z"/><path d="M772.06,45.92c-.06-.56-.51-.92-1.26-.92s-1.23.43-1.23,1,.31.75.95.86l1,.15c1.32.2,1.8.74,1.8,1.83,0,1.27-1,2-2.47,2s-2.39-.59-2.48-2h1.06c.05.49.32,1.12,1.44,1.12.86,0,1.4-.41,1.4-1.07,0-.5-.13-.78-1-.92l-1-.15c-1.13-.18-1.73-.64-1.73-1.75s.85-1.92,2.29-1.92,2.15.64,2.25,1.74Z"/></g></g><line x1="697.61" y1="276.85" x2="711.72" y2="276.85" style="fill:none;stroke:#000;stroke-miterlimit:10;stroke-width:0.5px"/><g style="isolation:isolate"><g style="isolation:isolate"><path d="M728.67,275.81c0,2.38,1.05,3.84,2.89,3.84a2.26,2.26,0,0,0,2.41-2.14h1.14a3.32,3.32,0,0,1-3.55,3.05c-2.39,0-4.08-1.55-4.08-4.75,0-3,1.72-4.75,4.1-4.75a3.28,3.28,0,0,1,3.53,2.88h-1.18a2.27,2.27,0,0,0-2.35-2C729.7,272,728.67,273.52,728.67,275.81Z"/></g><g style="isolation:isolate"><path d="M740.92,276.47a2.15,2.15,0,0,0-.23-1.25,1.14,1.14,0,0,0-1-.42,1.61,1.61,0,0,0-1.72,1.79v3.79H736.9v-9.45H738v4.17h0a2.1,2.1,0,0,1,2-1.2,1.81,1.81,0,0,1,2,2.08v4.4h-1.08Z"/><path d="M744.18,271.46h1.14v1.16h-1.14Zm0,2.6h1.09v6.32H744.2Z"/><path d="M747.55,270.93h1.08v9.45h-1.08Z"/><path d="M755.94,280.38h-1v-1h0a2.25,2.25,0,0,1-2,1.2c-1.35,0-2.58-.84-2.58-3.28,0-2.17,1.13-3.36,2.72-3.36a1.88,1.88,0,0,1,1.81,1.12h0v-4.09h1.07ZM754.89,277c0-1.34-.71-2.2-1.72-2.2-1.21,0-1.76,1-1.76,2.44s.42,2.47,1.68,2.47a1.83,1.83,0,0,0,1.8-2Z"/></g><g style="isolation:isolate"><path d="M758.2,274.06h1v1.19h0a2.29,2.29,0,0,1,2-1.31h.11v1.13h-.21a1.71,1.71,0,0,0-1.87,1.87v3.44H758.2Z"/></g><g style="isolation:isolate"><path d="M765.06,280.54c-1.93,0-2.85-1.41-2.85-3.29s1-3.35,2.82-3.35,2.64,1.47,2.64,3.06v.55h-4.36c.08,1.31.6,2.2,1.79,2.2a1.3,1.3,0,0,0,1.44-1h1A2.35,2.35,0,0,1,765.06,280.54Zm1.5-4c0-1.06-.44-1.87-1.54-1.87s-1.56.79-1.69,1.94h3.23Z"/></g><g style="isolation:isolate"><path d="M773.33,276.48a2.2,2.2,0,0,0-.23-1.26,1.14,1.14,0,0,0-1-.42,1.61,1.61,0,0,0-1.72,1.79v3.79h-1.08v-6.32h1v1.07h0a2.21,2.21,0,0,1,2-1.23,1.81,1.81,0,0,1,2,2.08v4.4h-1.08Z"/></g></g><rect x="711.79" y="148.22" width="78.99" height="19.82" style="fill:#7aa6c4"/><line x1="697.77" y1="158.74" x2="711.88" y2="158.74" style="fill:none;stroke:#000;stroke-miterlimit:10;stroke-width:0.5px"/><g style="isolation:isolate"><g style="isolation:isolate"><path d="M739.88,153.09h1.7l2.32,6.58c.29.8.41,1.2.41,1.2h0s.12-.4.41-1.2l2.36-6.58h1.68v9.18h-1.14v-7.88h0s-.15.47-.49,1.44l-2.32,6.44h-1l-2.26-6.44c-.32-1-.49-1.44-.49-1.44h0v7.88h-1.08Z"/><path d="M753.41,162.43c-1.93,0-2.86-1.41-2.86-3.29s1-3.35,2.82-3.35,2.64,1.47,2.64,3.06v.55h-4.35c.07,1.31.59,2.2,1.78,2.2a1.3,1.3,0,0,0,1.44-1h1A2.35,2.35,0,0,1,753.41,162.43Zm1.5-4c0-1.06-.45-1.87-1.55-1.87s-1.56.79-1.69,1.94h3.24Z"/></g><g style="isolation:isolate"><path d="M761.67,158.37a2.2,2.2,0,0,0-.23-1.26,1.14,1.14,0,0,0-1-.42,1.61,1.61,0,0,0-1.72,1.79v3.79h-1.08V156h1V157h0a2.21,2.21,0,0,1,2-1.23,1.81,1.81,0,0,1,2,2.08v4.4h-1.08Z"/></g></g><g style="isolation:isolate"><g style="isolation:isolate"><path d="M732,221.93l-2.63-9.18h1.14l1.8,6.5a12.52,12.52,0,0,1,.32,1.47h0a12.77,12.77,0,0,1,.31-1.45l1.76-6.52H736l1.77,6.5a10.93,10.93,0,0,1,.34,1.47h0a10.46,10.46,0,0,1,.31-1.45l1.79-6.52h1.09l-2.62,9.18h-1.25l-1.8-6.39a10.26,10.26,0,0,1-.32-1.48h0a12,12,0,0,1-.32,1.47l-1.78,6.4Z"/></g><g style="isolation:isolate"><path d="M741.91,218.76c0-1.95,1.08-3.31,2.84-3.31s2.82,1.36,2.82,3.31-1.07,3.33-2.84,3.33S741.91,220.74,741.91,218.76Zm1.12,0c0,1.55.51,2.49,1.73,2.49s1.7-.94,1.7-2.49-.51-2.48-1.72-2.48S743,217.23,743,218.76Z"/><path d="M749.28,215.61h1v1.07h0a2.18,2.18,0,0,1,2-1.23,1.76,1.76,0,0,1,1.9,1.31h0a2.18,2.18,0,0,1,2.06-1.31,1.81,1.81,0,0,1,2,2.08v4.4h-1.07V218a2.2,2.2,0,0,0-.23-1.26,1.15,1.15,0,0,0-1-.41,1.6,1.6,0,0,0-1.7,1.79v3.79h-1.08V218a2.16,2.16,0,0,0-.23-1.25,1.12,1.12,0,0,0-1-.42,1.58,1.58,0,0,0-1.7,1.77v3.81h-1.08Z"/></g><g style="isolation:isolate"><path d="M762.84,222.09c-1.94,0-2.86-1.41-2.86-3.29s1-3.35,2.82-3.35,2.64,1.47,2.64,3.06v.55h-4.36c.08,1.31.6,2.2,1.79,2.2a1.3,1.3,0,0,0,1.44-1h1A2.35,2.35,0,0,1,762.84,222.09Zm1.49-4c0-1.06-.44-1.87-1.54-1.87s-1.56.79-1.69,1.94h3.23Z"/></g><g style="isolation:isolate"><path d="M771.1,218a2.2,2.2,0,0,0-.23-1.26,1.14,1.14,0,0,0-1-.42,1.61,1.61,0,0,0-1.72,1.79v3.79h-1.08v-6.32h1v1.07h0a2.21,2.21,0,0,1,2-1.23,1.81,1.81,0,0,1,2,2.08v4.4H771.1Z"/></g></g><line x1="697.61" y1="219.05" x2="711.86" y2="219.05" style="fill:none;stroke:#000;stroke-miterlimit:10;stroke-width:0.5px"/><line x1="49.15" y1="451.74" x2="721.13" y2="451.74" style="fill:none;stroke:#000;stroke-miterlimit:10"/><line x1="49.15" y1="451.74" x2="49.15" y2="440.14" style="fill:none;stroke:#000;stroke-miterlimit:10"/><line x1="217.14" y1="451.74" x2="217.14" y2="440.14" style="fill:none;stroke:#000;stroke-miterlimit:10"/><line x1="385.14" y1="451.74" x2="385.14" y2="440.14" style="fill:none;stroke:#000;stroke-miterlimit:10"/><line x1="553.13" y1="451.74" x2="553.13" y2="440.14" style="fill:none;stroke:#000;stroke-miterlimit:10"/><line x1="721.13" y1="451.74" x2="721.13" y2="440.14" style="fill:none;stroke:#000;stroke-miterlimit:10"/><line x1="49.2" y1="154.04" x2="66" y2="154.04" style="fill:none;stroke:#000;stroke-linecap:round;stroke-miterlimit:10"/><line x1="49.2" y1="203.65" x2="66" y2="203.65" style="fill:none;stroke:#000;stroke-linecap:round;stroke-miterlimit:10"/><line x1="49.2" y1="253.26" x2="66" y2="253.26" style="fill:none;stroke:#000;stroke-linecap:round;stroke-miterlimit:10"/><line x1="49.2" y1="302.87" x2="66" y2="302.87" style="fill:none;stroke:#000;stroke-linecap:round;stroke-miterlimit:10"/><line x1="49.2" y1="302.84" x2="66" y2="302.84" style="fill:none;stroke:#000;stroke-linecap:round;stroke-miterlimit:10"/><line x1="49.2" y1="5.08" x2="66" y2="5.08" style="fill:none;stroke:#000;stroke-linecap:round;stroke-miterlimit:10"/><line x1="49.2" y1="54.69" x2="66" y2="54.69" style="fill:none;stroke:#000;stroke-linecap:round;stroke-miterlimit:10"/><line x1="49.2" y1="104.3" x2="66" y2="104.3" style="fill:none;stroke:#000;stroke-linecap:round;stroke-miterlimit:10"/><line x1="49.2" y1="153.91" x2="66" y2="153.91" style="fill:none;stroke:#000;stroke-linecap:round;stroke-miterlimit:10"/><line x1="49.2" y1="352.45" x2="66" y2="352.45" style="fill:none;stroke:#000;stroke-linecap:round;stroke-miterlimit:10"/><line x1="49.2" y1="402.06" x2="66" y2="402.06" style="fill:none;stroke:#000;stroke-linecap:round;stroke-miterlimit:10"/><rect x="408.33" y="337.08" width="120.96" height="44.96" style="fill:#7ab7e5"/><path d="M4.88,279.66c2.38,0,3.84-1.05,3.84-2.89a2.26,2.26,0,0,0-2.14-2.41v-1.14a3.32,3.32,0,0,1,3.05,3.55c0,2.39-1.55,4.08-4.75,4.08-3,0-4.75-1.72-4.75-4.1A3.29,3.29,0,0,1,3,273.22v1.18a2.27,2.27,0,0,0-2,2.35C1,278.63,2.59,279.66,4.88,279.66Z"/><path d="M.53,271.27v-1.14H1.69v1.14Zm2.6,0v-1.09H9.45v1.09Z"/><path d="M3.13,268.81v-1.1l4.07-1.37c.51-.18,1-.31,1-.31v0s-.48-.14-1-.32l-4.07-1.4v-1l6.32,2.19v1.14Z"/><path d="M.53,261.86v-1.13H1.69v1.13Zm2.6,0v-1.09H9.45v1.09Z"/><path d="M0,258.49v-1.08H9.45v1.08Z"/><path d="M.53,255.19v-1.14H1.69v1.14Zm2.6,0v-1.09H9.45v1.09Z"/><path d="M4.86,252.06C3.74,252,3,251.19,3,249.67s.66-2.33,2.36-2.33H7.9c.51,0,.71-.11.72-.58H9.5v.13c0,1-.36,1.35-1.12,1.45v0a2.09,2.09,0,0,1,1.18,2,1.76,1.76,0,0,1-1.81,2,1.68,1.68,0,0,1-1.6-1,7.32,7.32,0,0,1-.51-3.06H5.36c-1.14,0-1.58.43-1.58,1.32A1.15,1.15,0,0,0,4.86,251Zm1.72-3.67H6.44A5.23,5.23,0,0,0,6.91,251a.9.9,0,0,0,.78.34c.65,0,1-.42,1-1.1A1.84,1.84,0,0,0,6.58,248.39Z"/><path d="M5.55,241.17a2.2,2.2,0,0,0-1.26.23,1.14,1.14,0,0,0-.42,1,1.61,1.61,0,0,0,1.79,1.72H9.45v1.08H3.13v-1H4.2v0a2.21,2.21,0,0,1-1.23-2,1.81,1.81,0,0,1,2.08-2h4.4v1.08Z"/><path d="M.28,234.51v-2.82c0-2.51,1.22-4.44,4.47-4.44s4.7,1.8,4.7,4.31v2.95Zm8.21-2.82c0-1.95-1-3.28-3.7-3.28s-3.55,1.36-3.55,3.21v1.77H8.49Z"/><path d="M9.61,223c0,1.93-1.41,2.86-3.29,2.86S3,224.87,3,223.06s1.47-2.64,3.06-2.64h.55v4.35c1.31-.07,2.2-.59,2.2-1.78a1.3,1.3,0,0,0-1-1.44v-1A2.35,2.35,0,0,1,9.61,223Zm-3.95-1.5c-1,0-1.87.45-1.87,1.55s.79,1.56,1.94,1.69v-3.24Z"/><path d="M4.86,219c-1.12,0-1.89-.87-1.89-2.38s.66-2.34,2.36-2.34H7.9c.51,0,.71-.11.72-.58H9.5v.13c0,1-.36,1.35-1.12,1.46v0a2.11,2.11,0,0,1,1.18,2,1.75,1.75,0,0,1-1.81,2,1.68,1.68,0,0,1-1.6-.95,7.32,7.32,0,0,1-.51-3.06H5.36c-1.14,0-1.58.44-1.58,1.32s.54,1.29,1.08,1.32Zm1.72-3.67H6.44a5.23,5.23,0,0,0,.47,2.56.91.91,0,0,0,.78.35c.65,0,1-.42,1-1.11A1.84,1.84,0,0,0,6.58,215.28Z"/><path d="M1.29,210.75H3.13v-1.56H4v1.56H7.69c.67,0,.93-.28.93-1a5.13,5.13,0,0,0-.06-.7h.91a6.38,6.38,0,0,1,.08,1c0,1.23-.6,1.72-1.68,1.72H4V213H3.17v-.2c0-.85-.21-1-1.42-1H1.29Z"/><path d="M5.54,203.7a2.15,2.15,0,0,0-1.25.23,1.17,1.17,0,0,0-.42,1,1.6,1.6,0,0,0,1.79,1.71H9.45v1.08H0v-1.08H4.17v0a2.12,2.12,0,0,1-1.2-2,1.81,1.81,0,0,1,2.08-2h4.4v1.07Z"/><path d="M4.71,197.31c-.56.06-.92.51-.92,1.26s.43,1.23,1,1.23.75-.31.86-.94l.15-1c.2-1.32.74-1.8,1.83-1.8,1.27,0,2,1,2,2.48S9,200.94,7.66,201V200c.5-.05,1.12-.32,1.12-1.44,0-.86-.41-1.4-1.07-1.4-.5,0-.78.13-.92,1l-.15,1c-.18,1.12-.64,1.72-1.75,1.72S3,200,3,198.53s.64-2.14,1.74-2.25Z"/></svg>