<svg id="Layer_1" data-name="Layer 1" xmlns="http://www.w3.org/2000/svg" viewBox="0 0 790.78 476.93"><title>minimum-reported-civilian-deaths-by-likely-israeli-action-in-gaza-may-2021-by-time-of-day-ar</title><path d="M121.39,460h1v7.5h1.45s.06,0,.06.05v.76s0,.05-.06.05h-2.43Z"/><path d="M123.71,468.38s0,0,0-.05v-.76s0-.05,0-.05h4.72a4.35,4.35,0,0,1-.7-2,3,3,0,0,0-.46-1.33,1.1,1.1,0,0,0-.92-.39,3.39,3.39,0,0,0-1.6.45l-.38-.76a3.08,3.08,0,0,1,.95-.43,4.88,4.88,0,0,1,1-.11,2.35,2.35,0,0,1,1.12.24,1.82,1.82,0,0,1,.72.71,4.16,4.16,0,0,1,.4,1.37,7.88,7.88,0,0,0,.37,1.51,1.78,1.78,0,0,0,.46.77v.84Z"/><path d="M131.25,460h1v7.5h1.45s.06,0,.06.05v.76s0,.05-.06.05h-2.42Z"/><path d="M133.57,468.38s-.06,0-.06-.05v-.76s0-.05.06-.05H135v-4.47h1v4.47h1.44a0,0,0,0,1,0,.05v.76a0,0,0,0,1,0,.05Zm1.88,2.2a.61.61,0,0,1-.46-.17.67.67,0,0,1-.16-.49.69.69,0,0,1,.16-.49.62.62,0,0,1,.46-.17.58.58,0,0,1,.45.18.8.8,0,0,1,0,1A.58.58,0,0,1,135.45,470.58Z"/><path d="M137.31,468.38a0,0,0,0,1-.05-.05v-.76a0,0,0,0,1,.05-.05h1.35v-4.14h.93v2a4.59,4.59,0,0,1,1.3-1.85,2.7,2.7,0,0,1,1.75-.62,2.45,2.45,0,0,1,1.88.67,3,3,0,0,1,.64,2.12v2.65Zm6.91-.86v-1.74a2.18,2.18,0,0,0-.44-1.5,1.74,1.74,0,0,0-1.34-.47c-1.13,0-2.08.93-2.85,2.81v.9Z"/><path d="M279.51,468.38v.27a2.69,2.69,0,0,1-.51,1.74,1.74,1.74,0,0,1-1.45.63,2.44,2.44,0,0,1-1.13-.31l.29-.73a1.9,1.9,0,0,0,.44.15,2.11,2.11,0,0,0,.38,0,.89.89,0,0,0,.77-.41,1.87,1.87,0,0,0,.28-1.06v-5.65h.93v4.47h1.36s.06,0,.06.05v.76s0,.05-.06.05Z"/><path d="M280.76,468.38s-.05,0-.05-.05v-.76s0-.05.05-.05h1.7a1.53,1.53,0,0,1-.56-.64,2.05,2.05,0,0,1-.21-.93,2.28,2.28,0,0,1,.3-1.18,2,2,0,0,1,.8-.78,2.23,2.23,0,0,1,1.11-.28c1.43,0,2.14.79,2.14,2.36v1.45h1.44v-2.15a3.11,3.11,0,0,0-.68-2.21,2.83,2.83,0,0,0-2.13-.71,6.49,6.49,0,0,0-2,.32l-.25-.84a7.13,7.13,0,0,1,2.28-.35,3.78,3.78,0,0,1,2.77,1,3.69,3.69,0,0,1,1,2.73v2.24h1.43s.06,0,.06.05v.76s0,.05-.06.05Zm4.34-.86v-1.28a1.84,1.84,0,0,0-.31-1.19,1.14,1.14,0,0,0-.93-.37,1.1,1.1,0,0,0-.87.34,1.37,1.37,0,0,0-.32,1,1.48,1.48,0,0,0,.43,1.12,1.53,1.53,0,0,0,1.1.41Z"/><path d="M289.73,468.38a0,0,0,0,1-.05-.05v-.76a0,0,0,0,1,.05-.05h1.35V460H292v5.39a4.59,4.59,0,0,1,1.3-1.85,2.68,2.68,0,0,1,1.75-.62,2.45,2.45,0,0,1,1.88.67,3,3,0,0,1,.64,2.12v1.79H299s.06,0,.06.05v.76s0,.05-.06.05Zm6.91-.86v-1.74a2.18,2.18,0,0,0-.44-1.5,1.74,1.74,0,0,0-1.34-.47c-1.13,0-2.08.93-2.85,2.81v.9ZM294.83,462a.65.65,0,0,1-.46-.17.83.83,0,0,1,0-1,.62.62,0,0,1,.46-.17.58.58,0,0,1,.45.18.8.8,0,0,1,0,1A.58.58,0,0,1,294.83,462Z"/><path d="M298.92,468.38s-.06,0-.06-.05v-.76s0-.05.06-.05h1.45V460h1v8.36Z"/><path d="M303.55,460h1v8.36h-1Z"/><path d="M309.86,467.52h3.66a6.75,6.75,0,0,0-.82-2.51,5.38,5.38,0,0,0-1.73-1.8l.36-.83a5.33,5.33,0,0,1,2.06,2,8.24,8.24,0,0,1,1.07,3.17h1.22s.06,0,.06.05v.76s0,.05-.06.05h-5.82Z"/><path d="M320.92,468.38a4,4,0,0,1-1-.13,4.82,4.82,0,0,1-1-.42,4.07,4.07,0,0,1-2.05.55h-1.27s-.05,0-.05-.05v-.76s0-.05.05-.05h1.26a3.32,3.32,0,0,0,1.31-.22,4.53,4.53,0,0,1-.87-.88,7.14,7.14,0,0,1-.75-1.25,4.88,4.88,0,0,1-.4-1.27,4.62,4.62,0,0,1,1.35-.88,3.85,3.85,0,0,1,1.54-.33,4.92,4.92,0,0,1,1.4.22,4.68,4.68,0,0,1,1.23.59,4.62,4.62,0,0,1-.53,2.15,4.41,4.41,0,0,1-1.45,1.64,3.33,3.33,0,0,0,1.22.23h1.33s.06,0,.06.05v.76s0,.05-.06.05Zm-2-1.57a4.3,4.3,0,0,0,1.26-1.26,3.44,3.44,0,0,0,.47-1.59,3.15,3.15,0,0,0-3.46.23,4.37,4.37,0,0,0,.63,1.44A4.76,4.76,0,0,0,318.9,466.81Z"/><path d="M322.11,468.38s-.06,0-.06-.05v-.76s0-.05.06-.05h1.45v-4.47h1v5.33Zm1.89,2.2a.61.61,0,0,1-.46-.17.67.67,0,0,1-.16-.49.69.69,0,0,1,.16-.49.62.62,0,0,1,.46-.17.57.57,0,0,1,.45.18.8.8,0,0,1,0,1A.57.57,0,0,1,324,470.58Z"/><path d="M457.59,461.22l2.58-1v.59l-2.58,1Zm0,1.24,2.58-.95v.59l-2.58,1Z"/><path d="M456.86,467.68a1.77,1.77,0,0,0,.35-.07l.63-.11a1.42,1.42,0,0,1-.51-.61,2,2,0,0,1-.2-.89,2.14,2.14,0,0,1,.29-1.14,1.8,1.8,0,0,1,.79-.73,2.71,2.71,0,0,1,1.2-.25,2.59,2.59,0,0,1,1.33.32l-.24.83a2.18,2.18,0,0,0-1.07-.29,1.27,1.27,0,0,0-1,.34,1.33,1.33,0,0,0-.33,1,1.44,1.44,0,0,0,.19.75,1.08,1.08,0,0,0,.5.49l.24,0c1.11-.15,1.79-.22,2-.22V468a19.94,19.94,0,0,0-2.12.21c-1.05.13-1.76.24-2.12.32Z"/><path d="M462.64,460h1v7.5h1.45s.06,0,.06.05v.76s0,.05-.06.05h-2.43Z"/><path d="M472.13,468.38a2.45,2.45,0,0,1-.91-.16,2.49,2.49,0,0,1-.86-.61,1.88,1.88,0,0,1-.65.56,2.06,2.06,0,0,1-1,.21H465s-.06,0-.06-.05v-.76s0-.05.06-.05h1.57V463.9h.94v3.62h1.18a1,1,0,0,0,.83-.35,1.36,1.36,0,0,0,.3-.92V463.9h.93v2.77a1.7,1.7,0,0,0,.6.66,1.59,1.59,0,0,0,.83.19h.67v-4.47h.93v4.47h1.48s.06,0,.06.05v.76s0,.05-.06.05Z"/><path d="M475.1,468.38s-.06,0-.06-.05v-.76s0-.05.06-.05h1.36a5.38,5.38,0,0,1-.41-1.88,3.82,3.82,0,0,1,.4-1.75,3.54,3.54,0,0,1,.93-.54,3,3,0,0,1,1.08-.19,2.39,2.39,0,0,1,1.21.3,2,2,0,0,1,.8.86,2.76,2.76,0,0,1,.28,1.27,3.28,3.28,0,0,1-.32,1.49,2.24,2.24,0,0,1-.88,1,2.58,2.58,0,0,1-1.31.33Zm1.94-2.92a5.63,5.63,0,0,0,.09,1,6,6,0,0,0,.33,1.06h.78a1.33,1.33,0,0,0,1.13-.5,2.29,2.29,0,0,0,.39-1.44,1.68,1.68,0,0,0-.38-1.13,1.16,1.16,0,0,0-.92-.45,2,2,0,0,0-.68.13,1.93,1.93,0,0,0-.6.33,1.91,1.91,0,0,0-.12.47C477.05,465.08,477,465.26,477,465.46Z"/><path d="M634.17,457.46l2.58-.95v.59l-2.58,1Zm0,1.24,2.58-.95v.59l-2.58,1Z"/><path d="M630.26,467.52h2.47l-1.42-6h1l1.42,6h1.46V460h1v7.5h1.43s.06,0,.06.05v.76s0,.05-.06.05h-7.36Z"/><path d="M637.51,468.38a0,0,0,0,1,0-.05v-.76a0,0,0,0,1,0-.05h1.79v-4.47h1v4.47h1.65s.06,0,.06.05v.76s0,.05-.06.05Zm1.36,2.2a.65.65,0,0,1-.44-.15.65.65,0,0,1-.18-.51.62.62,0,0,1,.18-.5.61.61,0,0,1,.44-.16.6.6,0,0,1,.44.17.68.68,0,0,1,.17.49.72.72,0,0,1-.16.49A.57.57,0,0,1,638.87,470.58Zm1.9,0a.57.57,0,0,1-.45-.17.68.68,0,0,1-.17-.49.74.74,0,0,1,.16-.49.64.64,0,0,1,.46-.17.57.57,0,0,1,.45.18.76.76,0,0,1,0,1A.57.57,0,0,1,640.77,470.58Z"/><path d="M641.82,468.38s-.06,0-.06-.05v-.76s0-.05.06-.05h1.45V460h1v8.36Z"/><path d="M9.07,271.47a2.73,2.73,0,0,1,2,.68,2.76,2.76,0,0,1,.67,2.06V275a2,2,0,0,1-.71,1.62,3,3,0,0,1-1.94.59,6.41,6.41,0,0,1-2.43-.45v-.91a6.46,6.46,0,0,0,2.36.37,2.2,2.2,0,0,0,1.38-.37,1.26,1.26,0,0,0,.48-1.06v-.54a1.94,1.94,0,0,0-.43-1.4,1.77,1.77,0,0,0-1.33-.45H3.74v-.93H8.21v-1.21s0-.06,0-.06H9s.05,0,.05.06Zm-5.34,2.85a.61.61,0,0,1-.17.45.69.69,0,0,1-.49.16.69.69,0,0,1-.49-.16.61.61,0,0,1-.17-.45.59.59,0,0,1,.18-.46.68.68,0,0,1,.48-.16.68.68,0,0,1,.48.16A.59.59,0,0,1,3.73,274.32Z"/><path d="M9.07,270.37a0,0,0,0,1-.05.05H8.25s0,0,0-.05v-1.79H3.74v-1H8.21V266s0-.06,0-.06H9s.05,0,.05.06Zm2.2-1.36a.65.65,0,0,1-.15.44.66.66,0,0,1-.51.18.62.62,0,0,1-.5-.18A.61.61,0,0,1,10,269a.6.6,0,0,1,.17-.44.79.79,0,0,1,1,0A.59.59,0,0,1,11.27,269Zm0-1.9a.61.61,0,0,1-.17.45.64.64,0,0,1-.49.17.69.69,0,0,1-.49-.16.62.62,0,0,1-.17-.46.57.57,0,0,1,.18-.45.8.8,0,0,1,1,0A.57.57,0,0,1,11.27,267.11Z"/><path d="M9.07,266.07a0,0,0,0,1-.05.05H8.25s0,0,0-.05v-1.79H3.74v-1H8.21v-1.65s0-.06,0-.06H9s.05,0,.05.06Zm2.2-1.36a.67.67,0,0,1-.15.44.66.66,0,0,1-.51.18.62.62,0,0,1-.5-.18.63.63,0,0,1-.16-.44.6.6,0,0,1,.17-.44.81.81,0,0,1,1,0A.61.61,0,0,1,11.27,264.71Zm0-1.9a.61.61,0,0,1-.17.45.68.68,0,0,1-.49.17.74.74,0,0,1-.49-.16.64.64,0,0,1-.17-.46.59.59,0,0,1,.18-.46.8.8,0,0,1,1,0A.59.59,0,0,1,11.27,262.81Z"/><path d="M9.07,261.76s0,.06-.05.06H8.25s0,0,0-.06v-1.45H3.74v-1H9.07Zm-6.38-1.93a.61.61,0,0,1-.17.45.69.69,0,0,1-.49.17.68.68,0,0,1-.49-.17.57.57,0,0,1-.17-.45.59.59,0,0,1,.18-.46.73.73,0,0,1,.48-.16.73.73,0,0,1,.48.16A.59.59,0,0,1,2.69,259.83Z"/><path d="M8.21,257.91v-3.67a7.06,7.06,0,0,0-2.52.83A5.45,5.45,0,0,0,3.9,256.8l-.84-.36a5.35,5.35,0,0,1,2-2.06,8.07,8.07,0,0,1,3.17-1.07v-1.23s0-.05,0-.05H9a0,0,0,0,1,.05.05v5.83Z"/><path d="M9.07,252.2a0,0,0,0,1-.05.05H8.25s0,0,0-.05v-1.37a5.16,5.16,0,0,1-1.88.41,3.7,3.7,0,0,1-1.75-.4,2.9,2.9,0,0,1-.54-.92,3.08,3.08,0,0,1-.2-1.08,2.27,2.27,0,0,1,.31-1.21,2,2,0,0,1,.86-.8,2.73,2.73,0,0,1,1.27-.28,3.37,3.37,0,0,1,1.29.23,1.38,1.38,0,0,0,.5-.53,1.86,1.86,0,0,0,.14-.77v-.06s0,0,0,0H9a0,0,0,0,1,.05,0v.06a2.72,2.72,0,0,1-.16,1,2.31,2.31,0,0,1-.55.79,2.34,2.34,0,0,1,.54.82,2.87,2.87,0,0,1,.17,1Zm-2.93-1.95a5.47,5.47,0,0,0,1-.09,5.17,5.17,0,0,0,1.07-.33v-.77a1.35,1.35,0,0,0-.5-1.13,2.29,2.29,0,0,0-1.44-.39,1.7,1.7,0,0,0-1.14.37,1.2,1.2,0,0,0-.44.93,1.79,1.79,0,0,0,.13.68,2.46,2.46,0,0,0,.32.6,1.6,1.6,0,0,0,.47.11A4.44,4.44,0,0,0,6.14,250.25Z"/><path d="M9.07,245.53s0,.06-.05.06H8.25s0,0,0-.06v-1.45H.71v-1H9.07Z"/><path d="M.71,240.9v-1H9.07v1Z"/><path d="M.71,234v-1h7.5v-1.45s0-.06,0-.06H9s.05,0,.05.06V234Z"/><path d="M9.07,231.66s0,.06-.05.06H8.25s0,0,0-.06v-2.11H3.74v-1H9.07Zm2.2-.71a.67.67,0,0,1-.15.44.66.66,0,0,1-.51.18.62.62,0,0,1-.5-.18A.63.63,0,0,1,10,231a.61.61,0,0,1,.17-.45.83.83,0,0,1,1,0A.61.61,0,0,1,11.27,231Zm0-1.9a.61.61,0,0,1-.17.45.68.68,0,0,1-.49.17.69.69,0,0,1-.49-.17.61.61,0,0,1-.17-.45.59.59,0,0,1,.18-.46.8.8,0,0,1,1,0A.59.59,0,0,1,11.27,229.05Z"/><path d="M.71,226.4v-1h7.5V224s0-.06,0-.06H9s.05,0,.05.06v2.43Z"/><path d="M9.07,224.07s0,.06-.05.06H8.25s0,0,0-.06v-4.71a4.13,4.13,0,0,1-2,.69,3,3,0,0,0-1.33.47,1.1,1.1,0,0,0-.39.92A3.42,3.42,0,0,0,4.92,223l-.75.38a3,3,0,0,1-.43-.95,4.22,4.22,0,0,1-.12-1,2.28,2.28,0,0,1,.25-1.13,1.73,1.73,0,0,1,.71-.71,4.07,4.07,0,0,1,1.36-.41,4.28,4.28,0,0,0,2.27-.79v-.74s0-.05,0-.05H9a0,0,0,0,1,.05.05Z"/><path d="M9.07,217.76a0,0,0,0,1-.05.05H8.25s0,0,0-.05v-1.34H4.06v-.94h2a4.48,4.48,0,0,1-1.85-1.29,2.73,2.73,0,0,1-.63-1.75,2.48,2.48,0,0,1,.68-1.89,3,3,0,0,1,2.12-.63H8.21v-1.45s0-.06,0-.06H9s.05,0,.05.06Zm-.86-6.91H6.46a2.17,2.17,0,0,0-1.49.44,1.76,1.76,0,0,0-.48,1.34q0,1.69,2.82,2.85h.9Zm-5.52,1.88a.61.61,0,0,1-.17.45.69.69,0,0,1-.49.17.72.72,0,0,1-.49-.16.6.6,0,0,1-.17-.46.59.59,0,0,1,.18-.46.73.73,0,0,1,.48-.16.73.73,0,0,1,.48.16A.59.59,0,0,1,2.69,212.73Z"/><path d="M9.07,208.57s0,.06-.05.06H8.25s0,0,0-.06v-1.45H.71v-1H9.07Z"/><path d="M.71,203.94v-1H9.07v1Z"/><rect x="711.63" y="267.49" width="77.75" height="17.91" style="fill:#5a8bba"/><rect x="711.63" y="208.05" width="78.99" height="19.82" style="fill:#7aa6c4"/><rect x="711.75" y="24.68" width="78.9" height="30.92" style="fill:#a0c8ea"/><line x1="49.15" y1="451.74" x2="49.15" y2="5.01" style="fill:none;stroke:#000;stroke-linecap:round;stroke-miterlimit:10"/><line x1="49.15" y1="451.74" x2="65.95" y2="451.74" style="fill:none;stroke:#000;stroke-linecap:round;stroke-miterlimit:10"/><line x1="49.15" y1="302.75" x2="65.95" y2="302.75" style="fill:none;stroke:#000;stroke-linecap:round;stroke-miterlimit:10"/><line x1="49.15" y1="153.76" x2="65.95" y2="153.76" style="fill:none;stroke:#000;stroke-linecap:round;stroke-miterlimit:10"/><line x1="49.15" y1="4.77" x2="65.95" y2="4.77" style="fill:none;stroke:#000;stroke-linecap:round;stroke-miterlimit:10"/><line x1="49.15" y1="302.86" x2="49.15" y2="5.27" style="fill:none;stroke:#000;stroke-linecap:round;stroke-miterlimit:10"/><rect x="240.68" y="321.85" width="120.96" height="129.05" style="fill:#a0c8ea"/><rect x="240.69" y="327.36" width="120.96" height="59.83" style="fill:#7ab7e5"/><rect x="72.66" y="426.7" width="120.96" height="14.84" style="fill:#7ab7e5"/><rect x="577.01" y="32.12" width="120.96" height="419.61" style="fill:#a0c8ea"/><rect x="72.66" y="441.23" width="120.96" height="5.04" style="fill:#7aa6c4"/><rect x="240.68" y="387.15" width="120.96" height="24.58" style="fill:#7aa6c4"/><rect x="408.38" y="381.74" width="120.96" height="29.8" style="fill:#7aa6c4"/><rect x="576.84" y="218.26" width="120.96" height="59.41" style="fill:#7aa6c4"/><rect x="577.08" y="158.95" width="120.96" height="59.41" style="fill:#7ab7e5"/><rect x="72.66" y="446.19" width="120.96" height="5.01" style="fill:#5a8bba"/><rect x="240.56" y="411.8" width="120.96" height="39.38" style="fill:#5a8bba"/><rect x="408.43" y="411.44" width="120.96" height="39.73" style="fill:#5a8bba"/><rect x="576.86" y="276.55" width="120.96" height="173.82" style="fill:#5a8bba"/><g style="isolation:isolate"><g style="isolation:isolate"><path d="M33.84,10.77a7.73,7.73,0,0,1-1-3.18,3,3,0,0,1,0-.52,5.47,5.47,0,0,1-.69,0c-1,0-1.69-.43-1.69-1.44a2,2,0,0,1,1.65-1.87c.59,0,1.23.58,1.23,2.52a6.85,6.85,0,0,0,1.11,3.6l-.61.86Zm-2-6a.83.83,0,0,0-.83.6c0,.51.86.79,1.56.79h.29C32.75,5,32.15,4.78,31.87,4.78Z"/></g><g style="isolation:isolate"><path d="M40.08,6.54c1,.57,1.35,1,1.35,1.08a3.83,3.83,0,0,1-.64,1.13,10.58,10.58,0,0,0-1.44-1C39.6,7.33,39.84,6.91,40.08,6.54Z"/></g></g><g style="isolation:isolate"><path d="M32.47,55.45c-.34,1.27-1.16,3.82-1.75,5.29h-.07c-.2-.38-.31-.59-.44-.9a27,27,0,0,0,1.91-5.41c.19-.22.44-.44.62-.61h.07A22.45,22.45,0,0,0,35.16,60c-.2.25-.38.49-.58.78h-.09a20.91,20.91,0,0,1-2-5.29Z"/><path d="M37.73,56.55c1,.57,1.35,1,1.35,1.08a3.83,3.83,0,0,1-.64,1.13,10.58,10.58,0,0,0-1.44-1C37.25,57.34,37.49,56.92,37.73,56.55Z"/></g><g style="isolation:isolate"><g style="isolation:isolate"><path d="M33.48,108.31c.34-1.29,1.12-3.84,1.71-5.32h.07c.2.39.31.59.45.91a30.09,30.09,0,0,0-1.93,5.47l-.52.54h-.07a24.4,24.4,0,0,0-2.44-6.14c.2-.25.39-.49.58-.78h.09a20.83,20.83,0,0,1,2,5.32Z"/></g><g style="isolation:isolate"><path d="M39.41,105.72c1,.57,1.35,1,1.35,1.08a3.83,3.83,0,0,1-.64,1.13,10.58,10.58,0,0,0-1.44-1C38.93,106.51,39.17,106.09,39.41,105.72Z"/></g></g><g style="isolation:isolate"><path d="M33.78,152.49a11.84,11.84,0,0,0-.1,1.51,9.3,9.3,0,0,0,1,4.21c-.21.28-.49.55-.74.84a10.2,10.2,0,0,1-.89-3.89,12.37,12.37,0,0,1,.17-1.68l-1.54.05c-1.3,0-1.28-.47-1.29-1.51h.25c.22.43.61.54,1.4.54.46,0,1,0,1.73-.1Z"/><path d="M37.65,154.75c1,.57,1.35.95,1.35,1.08a3.83,3.83,0,0,1-.64,1.13,10.58,10.58,0,0,0-1.44-1C37.17,155.54,37.41,155.12,37.65,154.75Z"/></g><g style="isolation:isolate"><path d="M32.85,202.07c1.16,0,1.94,1.87,1.94,3.09a4.49,4.49,0,0,1-.24,1.62,2.53,2.53,0,0,1-2,1.16c-.83,0-1.9-.55-1.91-2.33C30.63,203.66,31.69,202.07,32.85,202.07Zm1.52,3.63c0-.42-.55-2.54-1.67-2.54-.81,0-1.6,1.31-1.6,2.2a1.66,1.66,0,0,0,1.59,1.51A1.86,1.86,0,0,0,34.37,205.7Z"/><path d="M37.76,204.26c1,.57,1.35,1,1.35,1.08a3.83,3.83,0,0,1-.64,1.13,10.58,10.58,0,0,0-1.44-1C37.28,205.05,37.52,204.63,37.76,204.26Z"/></g><g style="isolation:isolate"><path d="M33.53,251.12a9.08,9.08,0,0,0-.39,1,4.79,4.79,0,0,0-1.72,1.1c0,.31.74.79,2,.79l.54,0a5,5,0,0,1-.32.79c-.94.45-1.8,1.08-1.8,1.45s.53.77,1.47.77a3.66,3.66,0,0,0,1.51-.32l.06.05a5.9,5.9,0,0,1-.67,1,3.25,3.25,0,0,1-1.25.21,1.48,1.48,0,0,1-1.68-1.46,2.21,2.21,0,0,1,.95-1.69c-.85-.08-1.41-.49-1.41-1.11a2,2,0,0,1,.49-1.27A7.69,7.69,0,0,1,33.45,251Z"/><path d="M37.74,253.87c1,.57,1.35.95,1.35,1.08a3.83,3.83,0,0,1-.64,1.13,10.58,10.58,0,0,0-1.44-1C37.26,254.66,37.5,254.24,37.74,253.87Z"/></g><g style="isolation:isolate"><g style="isolation:isolate"><path d="M31.83,302a9.4,9.4,0,0,1,.65,3.2c0,.43,0,.61-.66,1.48l-.12-.07a2.3,2.3,0,0,0,.12-.86,15.89,15.89,0,0,0-1.48-5.29,8.16,8.16,0,0,1,.47-.77h.13a4,4,0,0,0,.5,1,1.49,1.49,0,0,0,1,.44c.41,0,.67-.2.67-.89a3.91,3.91,0,0,0,0-.45l.31-.11c.18.82.42,1.1.76,1.1s.58-.23.58-.78c0-.09,0-.19,0-.3a1.51,1.51,0,0,1,.35.06,3.28,3.28,0,0,1,.06.59c0,.89-.43,1.41-1,1.41a1.14,1.14,0,0,1-.72-.28h0a1,1,0,0,1-1,.64,1.27,1.27,0,0,1-.56-.13Z"/></g><g style="isolation:isolate"><path d="M39.93,302.42c1,.57,1.35.95,1.35,1.08a3.83,3.83,0,0,1-.64,1.13,10.58,10.58,0,0,0-1.44-1C39.45,303.21,39.69,302.79,39.93,302.42Z"/></g></g><g style="isolation:isolate"><path d="M32.25,350.54a9,9,0,0,1,.63,3.14c0,.38,0,.62-.62,1.53l-.12-.08a4.29,4.29,0,0,0,.09-.9,15.44,15.44,0,0,0-1.51-5.29,8.09,8.09,0,0,1,.48-.77h.13a4,4,0,0,0,.49,1,1.9,1.9,0,0,0,1.4.52c.5,0,1.18-.27,1.31-1.51a1.5,1.5,0,0,1,.3.1c0,.11,0,.22,0,.32,0,1.25-.57,2.06-1.72,2.06a3.21,3.21,0,0,1-.86-.13Z"/><path d="M37.81,350.9c1,.57,1.35,1,1.35,1.08a3.83,3.83,0,0,1-.64,1.13,10.58,10.58,0,0,0-1.44-1C37.33,351.69,37.57,351.27,37.81,350.9Z"/></g><g style="isolation:isolate"><path d="M33.09,399.42l.11,0a12.49,12.49,0,0,0,1.06,1.32l-.36.38a12.05,12.05,0,0,1,1,4,2.79,2.79,0,0,1-.58,1.3l-.12-.07a2.52,2.52,0,0,0,.05-.57,15.06,15.06,0,0,0-1.75-5.56C32.71,400,32.9,399.68,33.09,399.42Z"/><path d="M39,402.17c1,.57,1.35.95,1.35,1.08a3.83,3.83,0,0,1-.64,1.13,10.58,10.58,0,0,0-1.44-1C38.47,403,38.71,402.54,39,402.17Z"/></g><line x1="697.61" y1="32.54" x2="711.89" y2="32.54" style="fill:none;stroke:#000;stroke-miterlimit:10;stroke-width:0.5px"/><line x1="697.61" y1="276.85" x2="711.72" y2="276.85" style="fill:none;stroke:#000;stroke-miterlimit:10;stroke-width:0.5px"/><rect x="711.79" y="148.22" width="78.99" height="19.82" style="fill:#7aa6c4"/><line x1="697.77" y1="158.74" x2="711.88" y2="158.74" style="fill:none;stroke:#000;stroke-miterlimit:10;stroke-width:0.5px"/><line x1="697.61" y1="219.05" x2="711.86" y2="219.05" style="fill:none;stroke:#000;stroke-miterlimit:10;stroke-width:0.5px"/><line x1="49.15" y1="451.74" x2="721.13" y2="451.74" style="fill:none;stroke:#000;stroke-miterlimit:10"/><line x1="49.15" y1="451.74" x2="49.15" y2="440.14" style="fill:none;stroke:#000;stroke-miterlimit:10"/><line x1="217.14" y1="451.74" x2="217.14" y2="440.14" style="fill:none;stroke:#000;stroke-miterlimit:10"/><line x1="385.14" y1="451.74" x2="385.14" y2="440.14" style="fill:none;stroke:#000;stroke-miterlimit:10"/><line x1="553.13" y1="451.74" x2="553.13" y2="440.14" style="fill:none;stroke:#000;stroke-miterlimit:10"/><line x1="721.13" y1="451.74" x2="721.13" y2="440.14" style="fill:none;stroke:#000;stroke-miterlimit:10"/><line x1="49.2" y1="154.04" x2="66" y2="154.04" style="fill:none;stroke:#000;stroke-linecap:round;stroke-miterlimit:10"/><line x1="49.2" y1="203.65" x2="66" y2="203.65" style="fill:none;stroke:#000;stroke-linecap:round;stroke-miterlimit:10"/><line x1="49.2" y1="253.26" x2="66" y2="253.26" style="fill:none;stroke:#000;stroke-linecap:round;stroke-miterlimit:10"/><line x1="49.2" y1="302.87" x2="66" y2="302.87" style="fill:none;stroke:#000;stroke-linecap:round;stroke-miterlimit:10"/><line x1="49.2" y1="302.84" x2="66" y2="302.84" style="fill:none;stroke:#000;stroke-linecap:round;stroke-miterlimit:10"/><line x1="49.2" y1="5.08" x2="66" y2="5.08" style="fill:none;stroke:#000;stroke-linecap:round;stroke-miterlimit:10"/><line x1="49.2" y1="54.69" x2="66" y2="54.69" style="fill:none;stroke:#000;stroke-linecap:round;stroke-miterlimit:10"/><line x1="49.2" y1="104.3" x2="66" y2="104.3" style="fill:none;stroke:#000;stroke-linecap:round;stroke-miterlimit:10"/><line x1="49.2" y1="153.91" x2="66" y2="153.91" style="fill:none;stroke:#000;stroke-linecap:round;stroke-miterlimit:10"/><line x1="49.2" y1="352.45" x2="66" y2="352.45" style="fill:none;stroke:#000;stroke-linecap:round;stroke-miterlimit:10"/><line x1="49.2" y1="402.06" x2="66" y2="402.06" style="fill:none;stroke:#000;stroke-linecap:round;stroke-miterlimit:10"/><rect x="408.33" y="337.08" width="120.96" height="44.96" style="fill:#7ab7e5"/><path d="M728.14,39.44a1.78,1.78,0,0,1-1.47-.65,2.66,2.66,0,0,1-.54-1.76,5.32,5.32,0,0,1,.08-.94,5,5,0,0,1,.27-.86h.83a4,4,0,0,0-.17.53,4.8,4.8,0,0,0-.09.5c0,.16,0,.4,0,.71a2,2,0,0,0,.33,1.25,1.17,1.17,0,0,0,1,.44h1.86a2.32,2.32,0,0,0,1.18-.27.74.74,0,0,0,.47-.63.42.42,0,0,0-.18-.35,1.69,1.69,0,0,0-.57-.26,5.41,5.41,0,0,1-1-.37,1.19,1.19,0,0,1-.43-.4,1.05,1.05,0,0,1-.15-.57,2,2,0,0,1,.34-1.11,2.87,2.87,0,0,1,.89-.88,2.12,2.12,0,0,1,1.1-.33,1.46,1.46,0,0,1,.6.12,1.76,1.76,0,0,1,.49.36,5.24,5.24,0,0,1,.57.76,8.45,8.45,0,0,0,.63.94,2.81,2.81,0,0,0,.36.35,1.09,1.09,0,0,0,.31.18,1,1,0,0,0,.35.06h0s.05,0,.05,0V37a0,0,0,0,1-.05,0h0a1.78,1.78,0,0,1-.81-.19,2.8,2.8,0,0,1-.8-.62,6.64,6.64,0,0,1-.51-.69,5,5,0,0,0-.77-.92.87.87,0,0,0-.53-.23,1.09,1.09,0,0,0-.59.21,2,2,0,0,0-.52.52,1.06,1.06,0,0,0-.21.57.38.38,0,0,0,.18.3,1.94,1.94,0,0,0,.57.25,6.78,6.78,0,0,1,1,.36,1.46,1.46,0,0,1,.46.37.86.86,0,0,1,.15.49c0,1.32-.86,2-2.57,2Zm.31,2a.61.61,0,0,1-.4-.14.59.59,0,0,1-.16-.46.57.57,0,0,1,.16-.46.61.61,0,0,1,.4-.14.54.54,0,0,1,.4.15.61.61,0,0,1,.15.45.6.6,0,0,1-.14.44A.53.53,0,0,1,728.45,41.44Zm1.73,0a.51.51,0,0,1-.41-.16.6.6,0,0,1-.15-.44.69.69,0,0,1,.14-.45.57.57,0,0,1,.42-.15.51.51,0,0,1,.41.16.72.72,0,0,1,0,.88A.55.55,0,0,1,730.18,41.44Z"/><path d="M735.07,37a0,0,0,0,1-.05,0V36.3s0,0,.05,0h1.32V29.44h.89v6.82h1.3s0,0,0,0V37a0,0,0,0,1,0,0Z"/><path d="M738.48,37s-.05,0-.05,0V36.3s0,0,.05,0h4.21V34.42a1.3,1.3,0,0,0-.45-1.1,2.23,2.23,0,0,0-1.39-.35h-1.7v-.82a5.57,5.57,0,0,1,.89-1.32,7.35,7.35,0,0,1,1.26-1.17,5.9,5.9,0,0,1,1.37-.76l.31.76a6.47,6.47,0,0,0-1.79,1.1A4.45,4.45,0,0,0,740,32.19h.87a3.17,3.17,0,0,1,2,.54,1.82,1.82,0,0,1,.7,1.54v2h1.3s0,0,0,0V37a0,0,0,0,1,0,0Z"/><path d="M744.74,37s0,0,0,0V36.3s0,0,0,0h1.32V29.44h.88V37Z"/><path d="M749,29.44h.89V37H749Z"/><path d="M754.68,36.26H758a6.43,6.43,0,0,0-.74-2.29,5.1,5.1,0,0,0-1.58-1.63l.33-.76a4.83,4.83,0,0,1,1.87,1.78,7.56,7.56,0,0,1,1,2.92V37h-4.19Z"/><path d="M759.77,36.26h3.33a6.24,6.24,0,0,0-.75-2.29,5,5,0,0,0-1.57-1.63l.32-.76A4.82,4.82,0,0,1,763,33.37a7.36,7.36,0,0,1,1,2.89h1.11s.05,0,.05,0V37s0,0-.05,0h-5.29Z"/><path d="M769.83,37a3.72,3.72,0,0,1-.9-.12,4.29,4.29,0,0,1-.95-.38,3.76,3.76,0,0,1-1.86.5H765a0,0,0,0,1-.05,0V36.3s0,0,.05,0h1.15a3.11,3.11,0,0,0,1.19-.2,4.07,4.07,0,0,1-.79-.81,5.85,5.85,0,0,1-.68-1.13,4.37,4.37,0,0,1-.37-1.15,4.52,4.52,0,0,1,1.23-.81,3.66,3.66,0,0,1,1.4-.29,4.37,4.37,0,0,1,1.27.2,4,4,0,0,1,1.12.53,4.14,4.14,0,0,1-.48,1.95,4.07,4.07,0,0,1-1.32,1.5,3.12,3.12,0,0,0,1.11.21H771s0,0,0,0V37a0,0,0,0,1,0,0ZM768,35.61a3.81,3.81,0,0,0,1.15-1.15,3.11,3.11,0,0,0,.42-1.44,2.87,2.87,0,0,0-3.14.21,3.79,3.79,0,0,0,.57,1.31A4.25,4.25,0,0,0,768,35.61Z"/><path d="M770.9,37s0,0,0,0V36.3s0,0,0,0h1.32V29.44h.89V37Z"/><path d="M775.11,29.44H776V37h-.89Z"/><path d="M739.08,49a2.17,2.17,0,0,1-2.49,2.4h-.72a1.78,1.78,0,0,1-1.47-.65,2.66,2.66,0,0,1-.54-1.76,5.91,5.91,0,0,1,.41-2.21h.83a5.81,5.81,0,0,0-.34,2.15,2,2,0,0,0,.33,1.25,1.17,1.17,0,0,0,1,.44h.49a1.77,1.77,0,0,0,1.27-.39,1.64,1.64,0,0,0,.41-1.21V44.19h.85v4.07h1.1s.05,0,.05,0V49a0,0,0,0,1-.05,0Zm-2.59-4.85a.57.57,0,0,1-.41-.16.6.6,0,0,1-.15-.44.63.63,0,0,1,.15-.45.55.55,0,0,1,.41-.16.54.54,0,0,1,.42.17.66.66,0,0,1,.14.44.65.65,0,0,1-.14.43A.54.54,0,0,1,736.49,44.19Z"/><path d="M740.08,49a0,0,0,0,1-.05,0V48.3s0,0,.05,0h1.62V44.19h.89v4.07h1.5s0,0,0,0V49a0,0,0,0,1,0,0Zm1.23,2a.61.61,0,0,1-.4-.14.57.57,0,0,1-.16-.46.59.59,0,0,1,.16-.46.61.61,0,0,1,.4-.14.54.54,0,0,1,.4.15.61.61,0,0,1,.16.45.64.64,0,0,1-.15.45A.56.56,0,0,1,741.31,51ZM743,51a.56.56,0,0,1-.41-.15.64.64,0,0,1-.15-.45.6.6,0,0,1,.15-.44.5.5,0,0,1,.41-.16.53.53,0,0,1,.41.16.72.72,0,0,1,0,.88A.5.5,0,0,1,743,51Z"/><path d="M744,49a0,0,0,0,1,0,0V48.3s0,0,0,0h1.62V44.19h.89v4.07H748s0,0,0,0V49a0,0,0,0,1,0,0Zm1.23,2a.61.61,0,0,1-.4-.14.57.57,0,0,1-.16-.46.59.59,0,0,1,.16-.46.61.61,0,0,1,.4-.14.58.58,0,0,1,.41.15.75.75,0,0,1,0,.9A.56.56,0,0,1,745.22,51ZM747,51a.56.56,0,0,1-.41-.15.64.64,0,0,1-.15-.45.6.6,0,0,1,.15-.44.51.51,0,0,1,.41-.16.53.53,0,0,1,.41.16.72.72,0,0,1,0,.88A.5.5,0,0,1,747,51Z"/><path d="M747.9,49a0,0,0,0,1,0,0V48.3s0,0,0,0h1.32V44.19h.89V49Zm1.76-5.8a.53.53,0,0,1-.41-.16.6.6,0,0,1-.15-.44.64.64,0,0,1,.15-.45.54.54,0,0,1,.41-.15.5.5,0,0,1,.41.16.72.72,0,0,1,0,.88A.53.53,0,0,1,749.66,43.24Z"/><path d="M751.41,48.26h3.33A6.24,6.24,0,0,0,754,46a5.06,5.06,0,0,0-1.57-1.63l.32-.76a4.88,4.88,0,0,1,1.88,1.79,7.7,7.7,0,0,1,1,2.89h1.11s0,0,0,0V49a0,0,0,0,1,0,0h-5.29Z"/><path d="M756.6,49a0,0,0,0,1-.05,0V48.3s0,0,.05,0h1.24a4.85,4.85,0,0,1-.37-1.71,3.39,3.39,0,0,1,.36-1.59,2.86,2.86,0,0,1,1.82-.67,2.16,2.16,0,0,1,1.1.27,1.86,1.86,0,0,1,.73.79,2.52,2.52,0,0,1,.25,1.15,3,3,0,0,1-.21,1.18,1.26,1.26,0,0,0,.48.45,1.61,1.61,0,0,0,.71.13h0s.06,0,.06,0V49s0,0-.06,0h0a2.44,2.44,0,0,1-.91-.15,1.92,1.92,0,0,1-.72-.5,2.13,2.13,0,0,1-.74.49,2.46,2.46,0,0,1-.89.16Zm1.77-2.66a4.6,4.6,0,0,0,.08.91,4.26,4.26,0,0,0,.3,1h.7a1.22,1.22,0,0,0,1-.46,2.06,2.06,0,0,0,.36-1.31,1.53,1.53,0,0,0-.35-1,1.06,1.06,0,0,0-.84-.4,1.93,1.93,0,0,0-.62.11,2.35,2.35,0,0,0-.54.3,1.6,1.6,0,0,0-.11.43C758.37,46,758.37,46.2,758.37,46.38Z"/><path d="M762.66,49s0,0,0,0V48.3s0,0,0,0H764V41.44h.88v6.82h1.31s.05,0,.05,0V49a0,0,0,0,1-.05,0Z"/><path d="M766.07,49s-.05,0-.05,0V48.3s0,0,.05,0h1.31V41.44h.89V49Z"/><path d="M744.4,162.81a1.76,1.76,0,0,1-1.47-.68,2.94,2.94,0,0,1-.54-1.88,6.67,6.67,0,0,1,.11-1.25,5.25,5.25,0,0,1,.3-1.11h.83a6.55,6.55,0,0,0-.34,2.36,2.18,2.18,0,0,0,.34,1.32,1.12,1.12,0,0,0,1,.46h.49a1.77,1.77,0,0,0,1.27-.39,1.61,1.61,0,0,0,.41-1.2v-7.63h.85v7.56a2.16,2.16,0,0,1-2.49,2.44Z"/><path d="M749.61,152.81h.89v6.82h1.32s0,0,0,0v.69s0,0,0,0h-2.21Z"/><path d="M751.72,160.41s-.05,0-.05,0v-.69s0,0,.05,0H756a3.74,3.74,0,0,1-.63-1.83,2.68,2.68,0,0,0-.43-1.21,1,1,0,0,0-.83-.35,3.18,3.18,0,0,0-1.45.4l-.35-.69a3,3,0,0,1,.87-.38,4,4,0,0,1,.94-.11,2.11,2.11,0,0,1,1,.22,1.63,1.63,0,0,1,.65.65,4,4,0,0,1,.37,1.24,7.79,7.79,0,0,0,.33,1.38,1.75,1.75,0,0,0,.42.7v.76Zm2.38,2a.56.56,0,0,1-.41-.15.63.63,0,0,1-.15-.45.6.6,0,0,1,.15-.44.55.55,0,0,1,.41-.16.51.51,0,0,1,.41.17.61.61,0,0,1,.15.43.62.62,0,0,1-.15.44A.5.5,0,0,1,754.1,162.41Z"/><path d="M758.19,162.81a2.18,2.18,0,0,1-1-.28l.26-.67a1.93,1.93,0,0,0,.4.14,1.79,1.79,0,0,0,.34,0,.81.81,0,0,0,.7-.36,1.68,1.68,0,0,0,.26-1v-5.14H760v5.09a2.47,2.47,0,0,1-.46,1.59A1.58,1.58,0,0,1,758.19,162.81Z"/><path d="M741.79,220.23a2,2,0,0,0,.32,0l.56-.11a1.39,1.39,0,0,1-.45-.55,1.85,1.85,0,0,1-.18-.81,2,2,0,0,1,.25-1A1.67,1.67,0,0,1,743,217a2.5,2.5,0,0,1,1.09-.23,2.41,2.41,0,0,1,1.21.29l-.22.75a2.14,2.14,0,0,0-1-.26,1.22,1.22,0,0,0-.89.31,1.23,1.23,0,0,0-.3.89,1.47,1.47,0,0,0,.17.69,1.08,1.08,0,0,0,.46.44l.22,0c1-.13,1.62-.2,1.85-.2v.81a17.41,17.41,0,0,0-1.93.19c-1,.12-1.59.22-1.92.29Z"/><path d="M747,213.28h.89v6.81h1.32a0,0,0,0,1,0,0v.69s0,.05,0,.05H747Z"/><path d="M755.67,220.87a2.23,2.23,0,0,1-.83-.15,2.34,2.34,0,0,1-.78-.54,1.72,1.72,0,0,1-1.46.69h-3.45s0,0,0-.05v-.69a0,0,0,0,1,0,0h1.43V216.8h.85v3.29h1.08a.91.91,0,0,0,.75-.32,1.24,1.24,0,0,0,.27-.83V216.8h.85v2.52a1.79,1.79,0,0,0,.54.6,1.55,1.55,0,0,0,.76.17h.61V216h.85v4.07h1.34a0,0,0,0,1,0,0v.69s0,.05,0,.05Z"/><path d="M758.37,220.87s0,0,0-.05v-.69a0,0,0,0,1,0,0h1.32V216h.89v4.85Zm1.76-5.8a.54.54,0,0,1-.41-.15.65.65,0,0,1-.16-.45.6.6,0,0,1,.15-.44.54.54,0,0,1,.42-.16.52.52,0,0,1,.41.17.59.59,0,0,1,.15.43.63.63,0,0,1-.15.44A.51.51,0,0,1,760.13,215.07Z"/><path d="M740.61,282.25a1.79,1.79,0,0,1-1.47-.68,3,3,0,0,1-.54-1.88,7.64,7.64,0,0,1,.11-1.25,5.25,5.25,0,0,1,.3-1.11h.83a6.55,6.55,0,0,0-.34,2.36,2.18,2.18,0,0,0,.34,1.32,1.12,1.12,0,0,0,1,.46h.49a1.82,1.82,0,0,0,1.28-.39,1.63,1.63,0,0,0,.4-1.2v-7.63h.85v7.56a2.16,2.16,0,0,1-2.49,2.44Z"/><path d="M745.82,272.25h.89v6.82H748s.05,0,.05,0v.69a0,0,0,0,1-.05.05h-2.21Z"/><path d="M747.93,279.85a0,0,0,0,1,0-.05v-.69s0,0,0,0h1.52a2,2,0,0,1-.39-.7,2.85,2.85,0,0,1-.13-.81,2.46,2.46,0,0,1,.74-1.88,2.87,2.87,0,0,1,2-.68H753v4.07H754l0,0v.72s0,0-.05,0Zm4.2-.78v-3.29h-.43a1.92,1.92,0,0,0-1.39.47,1.75,1.75,0,0,0-.49,1.31c0,1,.46,1.51,1.37,1.51Zm-1-5a.53.53,0,0,1-.41-.16.6.6,0,0,1-.15-.44.64.64,0,0,1,.15-.45.54.54,0,0,1,.41-.15.5.5,0,0,1,.41.16.72.72,0,0,1,0,.88A.53.53,0,0,1,751.17,274.05Z"/><path d="M753.94,279.85a0,0,0,0,1-.05-.05v-.69s0,0,.05,0h1.22v-6.82H756v4.9a4.27,4.27,0,0,1,1.18-1.69,2.51,2.51,0,0,1,1.59-.56,2.22,2.22,0,0,1,1.71.61,2.73,2.73,0,0,1,.58,1.93v2.41Zm6.28-.78v-1.59a2,2,0,0,0-.4-1.36,1.59,1.59,0,0,0-1.22-.43c-1,0-1.89.85-2.59,2.56v.82Z"/><path d="M762.16,271.9l.47-.07a.72.72,0,0,1-.35-.63.85.85,0,0,1,.28-.67,1.17,1.17,0,0,1,.74-.23,1.34,1.34,0,0,1,.66.15l-.15.45a1,1,0,0,0-.5-.12.59.59,0,0,0-.37.12.48.48,0,0,0-.15.39.48.48,0,0,0,.09.29.6.6,0,0,0,.21.18l.48-.08.52-.05v.49l-.35,0-1,.12-.56.09Zm.56,1h.89v7h-.89Z"/></svg>