<svg id="Layer_1" data-name="Layer 1" xmlns="http://www.w3.org/2000/svg" viewBox="0 0 784 503.1"><title>number-of-unique-sources-airwars-identified-per-assessment-in-gaza-and-israel-may-2021-and-syria-2013-2021-he</title><line x1="48.7" y1="461.8" x2="291.8" y2="462.1" style="fill:none;stroke:#000;stroke-miterlimit:10"/><line x1="48.7" y1="461.8" x2="48.7" y2="450.2" style="fill:none;stroke:#000;stroke-miterlimit:10"/><g style="isolation:isolate"><path d="M41.2,457.8c1.8,0,3,1.3,3,4.1s-1.2,4.1-3,4.1-3-1.4-3-4.1S39.4,457.8,41.2,457.8Zm1.9,4.1c0-2.2-.7-3.3-1.9-3.3s-1.9,1.1-1.9,3.3.7,3.3,1.9,3.3S43.1,464,43.1,461.9Z"/></g><g style="isolation:isolate"><path d="M35,430.2H33.3v-.7h.2c.6,0,1-.1,1.2-.4a1.53,1.53,0,0,0,.4-1H36V436H35Z"/><path d="M41.1,428c1.8,0,3,1.3,3,4.1s-1.2,4.1-3,4.1-3-1.4-3-4.1S39.4,428,41.1,428Zm1.9,4.1c0-2.2-.7-3.3-1.9-3.3s-1.9,1.1-1.9,3.3.7,3.3,1.9,3.3S43,434.3,43,432.1Z"/></g><g style="isolation:isolate"><path d="M31.4,400.8a2.47,2.47,0,0,1,2.7-2.5c1.8,0,2.6,1.1,2.6,2.1s-.5,1.7-1.8,2.9l-2.2,2h4.1v.9H31.3v-.7l2.8-2.7c.9-.9,1.5-1.5,1.5-2.4a1.39,1.39,0,0,0-1.5-1.4,1.5,1.5,0,0,0-1.6,1.7H31.4Z"/><path d="M41.1,398.3c1.8,0,3,1.3,3,4.1s-1.2,4.1-3,4.1-3-1.4-3-4.1S39.3,398.3,41.1,398.3Zm1.9,4.1c0-2.2-.7-3.3-1.9-3.3s-1.9,1.1-1.9,3.3.7,3.3,1.9,3.3S43,404.5,43,402.4Z"/></g><g style="isolation:isolate"><path d="M33.6,372.9V372H34a1.45,1.45,0,0,0,1.5-1.4,1.39,1.39,0,0,0-1.5-1.4,1.55,1.55,0,0,0-1.7,1.6h-1a2.4,2.4,0,0,1,2.7-2.4c1.6,0,2.5.9,2.5,2.1a2,2,0,0,1-1.4,1.8h0a2,2,0,0,1,1.6,2c0,1.2-1,2.3-2.8,2.3a2.49,2.49,0,0,1-2.8-2.4h1a1.68,1.68,0,0,0,1.8,1.6,1.58,1.58,0,0,0,1.7-1.4c0-.9-.6-1.5-1.7-1.5Z"/></g><g style="isolation:isolate"><path d="M41.1,368.5c1.8,0,3,1.3,3,4.1s-1.2,4.1-3,4.1-3-1.4-3-4.1S39.4,368.5,41.1,368.5Zm1.9,4.1c0-2.2-.7-3.3-1.9-3.3s-1.9,1.1-1.9,3.3.7,3.3,1.9,3.3S43,374.7,43,372.6Z"/></g><g style="isolation:isolate"><path d="M35.7,344.8v1.9h-1v-1.9H30.8V344l3.8-5.2h1.1v5.1h1.1v.8H35.7Zm-.9-.8v-4h0s-.2.3-.5.8L32,344Z"/><path d="M41.1,338.7c1.8,0,3,1.3,3,4.1s-1.2,4.1-3,4.1-3-1.4-3-4.1S39.4,338.7,41.1,338.7Zm1.9,4.1c0-2.2-.7-3.3-1.9-3.3s-1.9,1.1-1.9,3.3.7,3.3,1.9,3.3S43,345,43,342.8Z"/></g><g style="isolation:isolate"><path d="M33.9,312.6a1.58,1.58,0,0,0-1.5.7h-.9l.4-4.2h4.4v.8H32.7l-.2,2.5h0a2.17,2.17,0,0,1,1.6-.6,2.46,2.46,0,0,1,2.6,2.6,2.6,2.6,0,0,1-2.8,2.7c-1.9,0-2.6-1.1-2.6-2.2h1c.1,1,.7,1.4,1.7,1.4a1.74,1.74,0,0,0,1.7-1.9A1.79,1.79,0,0,0,33.9,312.6Z"/><path d="M41.1,309c1.8,0,3,1.3,3,4.1s-1.2,4.1-3,4.1-3-1.4-3-4.1S39.3,309,41.1,309Zm1.9,4.1c0-2.2-.7-3.3-1.9-3.3s-1.9,1.1-1.9,3.3.7,3.3,1.9,3.3S43,315.2,43,313.1Z"/></g><g style="isolation:isolate"><path d="M35.5,281a1.33,1.33,0,0,0-1.4-1.1c-1.5,0-2,1.5-2,3.3h0a2.52,2.52,0,0,1,4.6,1.4,2.6,2.6,0,0,1-2.8,2.7c-1.5,0-2.9-.7-2.9-3.6s1-4.5,3-4.5c1.5,0,2.3.7,2.4,1.8Zm.2,3.8A1.65,1.65,0,0,0,34,283a1.61,1.61,0,0,0-1.7,1.8,1.65,1.65,0,0,0,1.7,1.8A1.71,1.71,0,0,0,35.7,284.8Z"/><path d="M41.1,279.2c1.8,0,3,1.3,3,4.1s-1.2,4.1-3,4.1-3-1.4-3-4.1S39.4,279.2,41.1,279.2Zm1.9,4.1c0-2.2-.7-3.3-1.9-3.3s-1.9,1.1-1.9,3.3.7,3.3,1.9,3.3S43,285.5,43,283.3Z"/></g><g style="isolation:isolate"><path d="M35.9,250.4H31.8v-.9h5.3v.6l-3.5,7.3H32.5Z"/></g><g style="isolation:isolate"><path d="M41.1,249.5c1.8,0,3,1.3,3,4.1s-1.2,4.1-3,4.1-3-1.4-3-4.1S39.4,249.5,41.1,249.5Zm1.9,4.1c0-2.2-.7-3.3-1.9-3.3s-1.9,1.1-1.9,3.3.7,3.3,1.9,3.3S43,255.7,43,253.6Z"/></g><g style="isolation:isolate"><path d="M33.9,219.7a2.33,2.33,0,0,1,2.6,2.1,1.85,1.85,0,0,1-1.4,1.8h0a2,2,0,0,1,1.6,1.9c0,1.3-1.1,2.3-2.9,2.3s-2.8-1-2.8-2.3a1.87,1.87,0,0,1,1.6-1.9h0a1.86,1.86,0,0,1-1.3-1.8A2.33,2.33,0,0,1,33.9,219.7Zm1.8,5.9c0-1-.8-1.5-1.8-1.5a1.52,1.52,0,1,0,0,3C34.9,227.1,35.7,226.6,35.7,225.6Zm-3.4-3.7c0,1,.7,1.4,1.6,1.4a1.48,1.48,0,0,0,1.6-1.4c0-1-.7-1.4-1.6-1.4A1.42,1.42,0,0,0,32.3,221.9Z"/><path d="M41.1,219.7c1.8,0,3,1.3,3,4.1s-1.2,4.1-3,4.1-3-1.4-3-4.1S39.4,219.7,41.1,219.7Zm1.9,4.1c0-2.2-.7-3.3-1.9-3.3s-1.9,1.1-1.9,3.3.7,3.3,1.9,3.3S43,225.9,43,223.8Z"/></g><g style="isolation:isolate"><path d="M32.1,196.2a1.51,1.51,0,0,0,1.5,1.2c1.3,0,1.9-1,1.9-3.3h0a2.57,2.57,0,0,1-4.6-1.5,2.63,2.63,0,0,1,2.8-2.6c1.8,0,2.9,1,2.9,3.7,0,3.3-1,4.5-3,4.5a2.25,2.25,0,0,1-2.5-1.9h1Zm-.1-3.7a1.63,1.63,0,0,0,1.7,1.7,1.7,1.7,0,1,0,0-3.4A1.57,1.57,0,0,0,32,192.5Z"/></g><g style="isolation:isolate"><path d="M41.1,189.9c1.8,0,3,1.3,3,4.1s-1.2,4.1-3,4.1-3-1.4-3-4.1S39.4,189.9,41.1,189.9ZM43,194c0-2.2-.7-3.3-1.9-3.3s-1.9,1.1-1.9,3.3.7,3.3,1.9,3.3S43,196.2,43,194Z"/></g><g style="isolation:isolate"><path d="M27.4,162.4H25.7v-.7H26c.6,0,1-.1,1.2-.4a1.53,1.53,0,0,0,.4-1h.8v7.9h-1Z"/></g><g style="isolation:isolate"><path d="M33.6,160.2c1.8,0,3,1.3,3,4.1s-1.2,4.1-3,4.1-3-1.4-3-4.1S31.8,160.2,33.6,160.2Zm1.9,4.1c0-2.2-.7-3.3-1.9-3.3s-1.9,1.1-1.9,3.3.7,3.3,1.9,3.3S35.5,166.4,35.5,164.3Z"/></g><g style="isolation:isolate"><path d="M41.1,160.2c1.8,0,3,1.3,3,4.1s-1.2,4.1-3,4.1-3-1.4-3-4.1S39.3,160.2,41.1,160.2Zm1.9,4.1c0-2.2-.7-3.3-1.9-3.3s-1.9,1.1-1.9,3.3.7,3.3,1.9,3.3S43,166.4,43,164.3Z"/></g><g style="isolation:isolate"><path d="M30.2,132.6H28.5v-.7h.2c.6,0,1-.1,1.2-.4a1.53,1.53,0,0,0,.4-1h.8v7.9h-1v-5.8Z"/><path d="M35,132.6H33.3v-.7h.2c.6,0,1-.1,1.2-.4a1.53,1.53,0,0,0,.4-1H36v7.9H35Z"/><path d="M41.1,130.4c1.8,0,3,1.3,3,4.1s-1.2,4.1-3,4.1-3-1.4-3-4.1S39.4,130.4,41.1,130.4Zm1.9,4.1c0-2.2-.7-3.3-1.9-3.3s-1.9,1.1-1.9,3.3.7,3.3,1.9,3.3S43,136.7,43,134.5Z"/></g><g style="isolation:isolate"><path d="M28.1,102.8H26.4v-.7h.2c.6,0,1-.1,1.2-.4a1.53,1.53,0,0,0,.4-1H29v7.9H28v-5.8Z"/><path d="M31.3,103.2a2.47,2.47,0,0,1,2.7-2.5c1.8,0,2.6,1.1,2.6,2.1s-.5,1.7-1.8,2.9l-2.2,2h4.1v.9H31.2v-.7l2.8-2.7c.9-.9,1.5-1.5,1.5-2.4a1.39,1.39,0,0,0-1.5-1.4,1.5,1.5,0,0,0-1.6,1.7H31.3Z"/><path d="M41.1,100.7c1.8,0,3,1.3,3,4.1s-1.2,4.1-3,4.1-3-1.4-3-4.1S39.3,100.7,41.1,100.7Zm1.9,4.1c0-2.2-.7-3.3-1.9-3.3s-1.9,1.1-1.9,3.3.7,3.3,1.9,3.3S43,106.9,43,104.8Z"/></g><g style="isolation:isolate"><path d="M28.1,73.1H26.4v-.7h.2c.6,0,1-.1,1.2-.4a1.53,1.53,0,0,0,.4-1H29v7.9H28V73.1Z"/><path d="M33.6,75.3v-.9H34A1.45,1.45,0,0,0,35.5,73,1.39,1.39,0,0,0,34,71.6a1.55,1.55,0,0,0-1.7,1.6h-1A2.4,2.4,0,0,1,34,70.8c1.6,0,2.5.9,2.5,2.1a2,2,0,0,1-1.4,1.8h0a2,2,0,0,1,1.6,2c0,1.2-1,2.3-2.8,2.3a2.49,2.49,0,0,1-2.8-2.4h1a1.68,1.68,0,0,0,1.8,1.6,1.58,1.58,0,0,0,1.7-1.4c0-.9-.6-1.5-1.7-1.5Z"/></g><g style="isolation:isolate"><path d="M41.1,70.9c1.8,0,3,1.3,3,4.1s-1.2,4.1-3,4.1-3-1.4-3-4.1S39.3,70.9,41.1,70.9ZM43,75c0-2.2-.7-3.3-1.9-3.3s-1.9,1.1-1.9,3.3.7,3.3,1.9,3.3S43,77.1,43,75Z"/></g><g style="isolation:isolate"><path d="M28,43.3H26.3v-.7h.2c.6,0,1-.1,1.2-.4a1.53,1.53,0,0,0,.4-1H29v7.9H28Z"/></g><g style="isolation:isolate"><path d="M35.7,47.2v1.9h-1V47.2H30.8v-.8l3.8-5.2h1.1v5.1h1.1v.8H35.7Zm-.9-.8v-4h0s-.2.3-.5.8L32,46.4Z"/><path d="M41.1,41.1c1.8,0,3,1.3,3,4.1s-1.2,4.1-3,4.1-3-1.4-3-4.1S39.3,41.1,41.1,41.1ZM43,45.2c0-2.2-.7-3.3-1.9-3.3s-1.9,1.1-1.9,3.3.7,3.3,1.9,3.3S43,47.4,43,45.2Z"/></g><g style="isolation:isolate"><path d="M28,13.6H26.3v-.7h.2c.6,0,1-.1,1.2-.4a1.53,1.53,0,0,0,.4-1H29v7.9H28Z"/><path d="M33.8,15a1.58,1.58,0,0,0-1.5.7h-.9l.4-4.2h4.4v.8H32.6l-.2,2.5h0a2.17,2.17,0,0,1,1.6-.6,2.46,2.46,0,0,1,2.6,2.6,2.6,2.6,0,0,1-2.8,2.7c-1.9,0-2.6-1.1-2.6-2.2h1c.1,1,.7,1.4,1.7,1.4a1.74,1.74,0,0,0,1.7-1.9A1.68,1.68,0,0,0,33.8,15Z"/><path d="M41.1,11.4c1.8,0,3,1.3,3,4.1s-1.2,4.1-3,4.1-3-1.4-3-4.1S39.3,11.4,41.1,11.4ZM43,15.5c0-2.2-.7-3.3-1.9-3.3s-1.9,1.1-1.9,3.3.7,3.3,1.9,3.3S43,17.6,43,15.5Z"/></g><line x1="48.7" y1="461.8" x2="48.7" y2="0.5" style="fill:none;stroke:#000;stroke-miterlimit:10"/><line x1="48.7" y1="461.8" x2="54.6" y2="461.8" style="fill:none;stroke:#000;stroke-miterlimit:10"/><line x1="48.7" y1="446.9" x2="54.6" y2="446.9" style="fill:none;stroke:#000;stroke-miterlimit:10"/><line x1="48.7" y1="432" x2="54.6" y2="432" style="fill:none;stroke:#000;stroke-miterlimit:10"/><line x1="48.7" y1="417.1" x2="54.6" y2="417.1" style="fill:none;stroke:#000;stroke-miterlimit:10"/><line x1="48.7" y1="402.3" x2="54.6" y2="402.3" style="fill:none;stroke:#000;stroke-miterlimit:10"/><line x1="48.7" y1="387.4" x2="54.6" y2="387.4" style="fill:none;stroke:#000;stroke-miterlimit:10"/><line x1="48.7" y1="372.5" x2="54.6" y2="372.5" style="fill:none;stroke:#000;stroke-miterlimit:10"/><line x1="48.7" y1="357.6" x2="54.6" y2="357.6" style="fill:none;stroke:#000;stroke-miterlimit:10"/><line x1="48.7" y1="342.7" x2="54.6" y2="342.7" style="fill:none;stroke:#000;stroke-miterlimit:10"/><line x1="48.7" y1="327.9" x2="54.6" y2="327.9" style="fill:none;stroke:#000;stroke-miterlimit:10"/><line x1="48.7" y1="313" x2="54.6" y2="313" style="fill:none;stroke:#000;stroke-miterlimit:10"/><line x1="48.7" y1="298.1" x2="54.6" y2="298.1" style="fill:none;stroke:#000;stroke-miterlimit:10"/><line x1="48.7" y1="283.2" x2="54.6" y2="283.2" style="fill:none;stroke:#000;stroke-miterlimit:10"/><line x1="48.7" y1="268.3" x2="54.6" y2="268.3" style="fill:none;stroke:#000;stroke-miterlimit:10"/><line x1="48.7" y1="253.5" x2="54.6" y2="253.5" style="fill:none;stroke:#000;stroke-miterlimit:10"/><line x1="48.7" y1="238.6" x2="54.6" y2="238.6" style="fill:none;stroke:#000;stroke-miterlimit:10"/><line x1="48.7" y1="223.7" x2="54.6" y2="223.7" style="fill:none;stroke:#000;stroke-miterlimit:10"/><line x1="48.7" y1="208.8" x2="54.6" y2="208.8" style="fill:none;stroke:#000;stroke-miterlimit:10"/><line x1="48.7" y1="193.9" x2="54.6" y2="193.9" style="fill:none;stroke:#000;stroke-miterlimit:10"/><line x1="48.7" y1="179.1" x2="54.6" y2="179.1" style="fill:none;stroke:#000;stroke-miterlimit:10"/><line x1="48.7" y1="164.2" x2="54.6" y2="164.2" style="fill:none;stroke:#000;stroke-miterlimit:10"/><line x1="48.7" y1="149.3" x2="54.6" y2="149.3" style="fill:none;stroke:#000;stroke-miterlimit:10"/><line x1="48.7" y1="134.4" x2="54.6" y2="134.4" style="fill:none;stroke:#000;stroke-miterlimit:10"/><line x1="48.7" y1="119.5" x2="54.6" y2="119.5" style="fill:none;stroke:#000;stroke-miterlimit:10"/><line x1="48.7" y1="104.7" x2="54.6" y2="104.7" style="fill:none;stroke:#000;stroke-miterlimit:10"/><line x1="48.7" y1="89.8" x2="54.6" y2="89.8" style="fill:none;stroke:#000;stroke-miterlimit:10"/><line x1="48.7" y1="74.9" x2="54.6" y2="74.9" style="fill:none;stroke:#000;stroke-miterlimit:10"/><line x1="48.7" y1="60" x2="54.6" y2="60" style="fill:none;stroke:#000;stroke-miterlimit:10"/><line x1="48.7" y1="45.1" x2="54.6" y2="45.1" style="fill:none;stroke:#000;stroke-miterlimit:10"/><line x1="48.7" y1="30.3" x2="54.6" y2="30.3" style="fill:none;stroke:#000;stroke-miterlimit:10"/><line x1="48.7" y1="15.4" x2="54.6" y2="15.4" style="fill:none;stroke:#000;stroke-miterlimit:10"/><line x1="48.7" y1="0.5" x2="54.6" y2="0.5" style="fill:none;stroke:#000;stroke-miterlimit:10"/><ellipse cx="50.5" cy="313" rx="3" ry="2.9" style="fill:#5a8bba"/><ellipse cx="50.5" cy="313" rx="3" ry="2.9" style="fill:none;stroke:#5a8bba;stroke-miterlimit:10;stroke-width:0.5px"/><ellipse cx="52.4" cy="381.4" rx="3" ry="2.9" style="fill:#5a8bba"/><ellipse cx="52.4" cy="381.4" rx="3" ry="2.9" style="fill:none;stroke:#5a8bba;stroke-miterlimit:10;stroke-width:0.5px"/><ellipse cx="54.2" cy="348.7" rx="3" ry="2.9" style="fill:#5a8bba"/><ellipse cx="54.2" cy="348.7" rx="3" ry="2.9" style="fill:none;stroke:#5a8bba;stroke-miterlimit:10;stroke-width:0.5px"/><ellipse cx="56.1" cy="402.3" rx="3" ry="2.9" style="fill:#5a8bba"/><ellipse cx="56.1" cy="402.3" rx="3" ry="2.9" style="fill:none;stroke:#5a8bba;stroke-miterlimit:10;stroke-width:0.5px"/><ellipse cx="57.9" cy="387.4" rx="3" ry="2.9" style="fill:#5a8bba"/><ellipse cx="57.9" cy="387.4" rx="3" ry="2.9" style="fill:none;stroke:#5a8bba;stroke-miterlimit:10;stroke-width:0.5px"/><ellipse cx="59.8" cy="339.8" rx="3" ry="2.9" style="fill:#5a8bba"/><ellipse cx="59.8" cy="339.8" rx="3" ry="2.9" style="fill:none;stroke:#5a8bba;stroke-miterlimit:10;stroke-width:0.5px"/><ellipse cx="61.6" cy="304" rx="3" ry="2.9" style="fill:#5a8bba"/><ellipse cx="61.6" cy="304" rx="3" ry="2.9" style="fill:none;stroke:#5a8bba;stroke-miterlimit:10;stroke-width:0.5px"/><ellipse cx="63.5" cy="339.8" rx="3" ry="2.9" style="fill:#5a8bba"/><ellipse cx="63.5" cy="339.8" rx="3" ry="2.9" style="fill:none;stroke:#5a8bba;stroke-miterlimit:10;stroke-width:0.5px"/><ellipse cx="65.3" cy="411.2" rx="3" ry="2.9" style="fill:#5a8bba"/><ellipse cx="65.3" cy="411.2" rx="3" ry="2.9" style="fill:none;stroke:#5a8bba;stroke-miterlimit:10;stroke-width:0.5px"/><ellipse cx="67.2" cy="375.5" rx="3" ry="2.9" style="fill:#5a8bba"/><ellipse cx="67.2" cy="375.5" rx="3" ry="2.9" style="fill:none;stroke:#5a8bba;stroke-miterlimit:10;stroke-width:0.5px"/><ellipse cx="69" cy="432" rx="3" ry="2.9" style="fill:#5a8bba"/><ellipse cx="69" cy="432" rx="3" ry="2.9" style="fill:none;stroke:#5a8bba;stroke-miterlimit:10;stroke-width:0.5px"/><ellipse cx="70.9" cy="381.4" rx="3" ry="2.9" style="fill:#5a8bba"/><ellipse cx="70.9" cy="381.4" rx="3" ry="2.9" style="fill:none;stroke:#5a8bba;stroke-miterlimit:10;stroke-width:0.5px"/><ellipse cx="72.7" cy="441" rx="3" ry="2.8" style="fill:#5a8bba"/><ellipse cx="72.7" cy="441" rx="3" ry="2.8" style="fill:none;stroke:#5a8bba;stroke-miterlimit:10;stroke-width:0.5px"/><ellipse cx="74.6" cy="396.3" rx="3" ry="2.9" style="fill:#5a8bba"/><ellipse cx="74.6" cy="396.3" rx="3" ry="2.9" style="fill:none;stroke:#5a8bba;stroke-miterlimit:10;stroke-width:0.5px"/><ellipse cx="76.4" cy="426.1" rx="3" ry="2.9" style="fill:#5a8bba"/><ellipse cx="76.4" cy="426.1" rx="3" ry="2.9" style="fill:none;stroke:#5a8bba;stroke-miterlimit:10;stroke-width:0.5px"/><ellipse cx="78.3" cy="446.9" rx="3" ry="2.8" style="fill:#5a8bba"/><ellipse cx="78.3" cy="446.9" rx="3" ry="2.8" style="fill:none;stroke:#5a8bba;stroke-miterlimit:10;stroke-width:0.5px"/><ellipse cx="80.2" cy="351.7" rx="3" ry="2.9" style="fill:#5a8bba"/><ellipse cx="80.2" cy="351.7" rx="3" ry="2.9" style="fill:none;stroke:#5a8bba;stroke-miterlimit:10;stroke-width:0.5px"/><ellipse cx="82" cy="351.7" rx="3" ry="2.9" style="fill:#5a8bba"/><ellipse cx="82" cy="351.7" rx="3" ry="2.9" style="fill:none;stroke:#5a8bba;stroke-miterlimit:10;stroke-width:0.5px"/><ellipse cx="83.9" cy="420.1" rx="3" ry="2.9" style="fill:#5a8bba"/><ellipse cx="83.9" cy="420.1" rx="3" ry="2.9" style="fill:none;stroke:#5a8bba;stroke-miterlimit:10;stroke-width:0.5px"/><ellipse cx="85.7" cy="375.5" rx="3" ry="2.9" style="fill:#5a8bba"/><ellipse cx="85.7" cy="375.5" rx="3" ry="2.9" style="fill:none;stroke:#5a8bba;stroke-miterlimit:10;stroke-width:0.5px"/><ellipse cx="87.6" cy="295.1" rx="3" ry="2.9" style="fill:#5a8bba"/><ellipse cx="87.6" cy="295.1" rx="3" ry="2.9" style="fill:none;stroke:#5a8bba;stroke-miterlimit:10;stroke-width:0.5px"/><ellipse cx="89.4" cy="354.7" rx="3" ry="2.9" style="fill:#5a8bba"/><ellipse cx="89.4" cy="354.7" rx="3" ry="2.9" style="fill:none;stroke:#5a8bba;stroke-miterlimit:10;stroke-width:0.5px"/><ellipse cx="91.3" cy="381.4" rx="3" ry="2.9" style="fill:#5a8bba"/><ellipse cx="91.3" cy="381.4" rx="3" ry="2.9" style="fill:none;stroke:#5a8bba;stroke-miterlimit:10;stroke-width:0.5px"/><ellipse cx="93.1" cy="399.3" rx="3" ry="2.9" style="fill:#5a8bba"/><ellipse cx="93.1" cy="399.3" rx="3" ry="2.9" style="fill:none;stroke:#5a8bba;stroke-miterlimit:10;stroke-width:0.5px"/><ellipse cx="95" cy="366.5" rx="3" ry="2.9" style="fill:#5a8bba"/><ellipse cx="95" cy="366.5" rx="3" ry="2.9" style="fill:none;stroke:#5a8bba;stroke-miterlimit:10;stroke-width:0.5px"/><ellipse cx="96.8" cy="360.6" rx="3" ry="2.9" style="fill:#5a8bba"/><ellipse cx="96.8" cy="360.6" rx="3" ry="2.9" style="fill:none;stroke:#5a8bba;stroke-miterlimit:10;stroke-width:0.5px"/><ellipse cx="98.7" cy="414.2" rx="3" ry="2.9" style="fill:#5a8bba"/><ellipse cx="98.7" cy="414.2" rx="3" ry="2.9" style="fill:none;stroke:#5a8bba;stroke-miterlimit:10;stroke-width:0.5px"/><ellipse cx="100.5" cy="399.3" rx="3" ry="2.9" style="fill:#5a8bba"/><ellipse cx="100.5" cy="399.3" rx="3" ry="2.9" style="fill:none;stroke:#5a8bba;stroke-miterlimit:10;stroke-width:0.5px"/><ellipse cx="102.4" cy="357.6" rx="3" ry="2.9" style="fill:#5a8bba"/><ellipse cx="102.4" cy="357.6" rx="3" ry="2.9" style="fill:none;stroke:#5a8bba;stroke-miterlimit:10;stroke-width:0.5px"/><ellipse cx="104.2" cy="378.5" rx="3" ry="2.9" style="fill:#5a8bba"/><ellipse cx="104.2" cy="378.5" rx="3" ry="2.9" style="fill:none;stroke:#5a8bba;stroke-miterlimit:10;stroke-width:0.5px"/><ellipse cx="106.1" cy="384.4" rx="3" ry="2.9" style="fill:#5a8bba"/><ellipse cx="106.1" cy="384.4" rx="3" ry="2.9" style="fill:none;stroke:#5a8bba;stroke-miterlimit:10;stroke-width:0.5px"/><ellipse cx="107.9" cy="438" rx="3" ry="2.8" style="fill:#5a8bba"/><ellipse cx="107.9" cy="438" rx="3" ry="2.8" style="fill:none;stroke:#5a8bba;stroke-miterlimit:10;stroke-width:0.5px"/><ellipse cx="109.8" cy="393.3" rx="3" ry="2.9" style="fill:#5a8bba"/><ellipse cx="109.8" cy="393.3" rx="3" ry="2.9" style="fill:none;stroke:#5a8bba;stroke-miterlimit:10;stroke-width:0.5px"/><ellipse cx="111.6" cy="432" rx="3" ry="2.9" style="fill:#5a8bba"/><ellipse cx="111.6" cy="432" rx="3" ry="2.9" style="fill:none;stroke:#5a8bba;stroke-miterlimit:10;stroke-width:0.5px"/><ellipse cx="113.5" cy="423.1" rx="3" ry="2.9" style="fill:#5a8bba"/><ellipse cx="113.5" cy="423.1" rx="3" ry="2.9" style="fill:none;stroke:#5a8bba;stroke-miterlimit:10;stroke-width:0.5px"/><ellipse cx="115.3" cy="414.2" rx="3" ry="2.9" style="fill:#5a8bba"/><ellipse cx="115.3" cy="414.2" rx="3" ry="2.9" style="fill:none;stroke:#5a8bba;stroke-miterlimit:10;stroke-width:0.5px"/><ellipse cx="117.2" cy="458.8" rx="3" ry="2.8" style="fill:#5a8bba"/><ellipse cx="117.2" cy="458.8" rx="3" ry="2.8" style="fill:none;stroke:#5a8bba;stroke-miterlimit:10;stroke-width:0.5px"/><ellipse cx="119" cy="366.5" rx="3" ry="2.9" style="fill:#5a8bba"/><ellipse cx="119" cy="366.5" rx="3" ry="2.9" style="fill:none;stroke:#5a8bba;stroke-miterlimit:10;stroke-width:0.5px"/><ellipse cx="120.9" cy="378.5" rx="3" ry="2.9" style="fill:#5a8bba"/><ellipse cx="120.9" cy="378.5" rx="3" ry="2.9" style="fill:none;stroke:#5a8bba;stroke-miterlimit:10;stroke-width:0.5px"/><ellipse cx="122.8" cy="354.7" rx="3" ry="2.9" style="fill:#5a8bba"/><ellipse cx="122.8" cy="354.7" rx="3" ry="2.9" style="fill:none;stroke:#5a8bba;stroke-miterlimit:10;stroke-width:0.5px"/><ellipse cx="124.6" cy="348.7" rx="3" ry="2.9" style="fill:#5a8bba"/><ellipse cx="124.6" cy="348.7" rx="3" ry="2.9" style="fill:none;stroke:#5a8bba;stroke-miterlimit:10;stroke-width:0.5px"/><ellipse cx="126.5" cy="354.7" rx="3" ry="2.9" style="fill:#5a8bba"/><ellipse cx="126.5" cy="354.7" rx="3" ry="2.9" style="fill:none;stroke:#5a8bba;stroke-miterlimit:10;stroke-width:0.5px"/><ellipse cx="128.3" cy="417.1" rx="3" ry="2.9" style="fill:#5a8bba"/><ellipse cx="128.3" cy="417.1" rx="3" ry="2.9" style="fill:none;stroke:#5a8bba;stroke-miterlimit:10;stroke-width:0.5px"/><ellipse cx="130.2" cy="372.5" rx="3" ry="2.9" style="fill:#5a8bba"/><ellipse cx="130.2" cy="372.5" rx="3" ry="2.9" style="fill:none;stroke:#5a8bba;stroke-miterlimit:10;stroke-width:0.5px"/><ellipse cx="132" cy="339.8" rx="3" ry="2.9" style="fill:#5a8bba"/><ellipse cx="132" cy="339.8" rx="3" ry="2.9" style="fill:none;stroke:#5a8bba;stroke-miterlimit:10;stroke-width:0.5px"/><ellipse cx="133.9" cy="375.5" rx="3" ry="2.9" style="fill:#5a8bba"/><ellipse cx="133.9" cy="375.5" rx="3" ry="2.9" style="fill:none;stroke:#5a8bba;stroke-miterlimit:10;stroke-width:0.5px"/><ellipse cx="135.7" cy="393.3" rx="3" ry="2.9" style="fill:#5a8bba"/><ellipse cx="135.7" cy="393.3" rx="3" ry="2.9" style="fill:none;stroke:#5a8bba;stroke-miterlimit:10;stroke-width:0.5px"/><ellipse cx="137.6" cy="345.7" rx="3" ry="2.9" style="fill:#5a8bba"/><ellipse cx="137.6" cy="345.7" rx="3" ry="2.9" style="fill:none;stroke:#5a8bba;stroke-miterlimit:10;stroke-width:0.5px"/><ellipse cx="139.4" cy="363.6" rx="3" ry="2.9" style="fill:#5a8bba"/><ellipse cx="139.4" cy="363.6" rx="3" ry="2.9" style="fill:none;stroke:#5a8bba;stroke-miterlimit:10;stroke-width:0.5px"/><ellipse cx="141.3" cy="375.5" rx="3" ry="2.9" style="fill:#5a8bba"/><ellipse cx="141.3" cy="375.5" rx="3" ry="2.9" style="fill:none;stroke:#5a8bba;stroke-miterlimit:10;stroke-width:0.5px"/><ellipse cx="143.1" cy="164.2" rx="3" ry="2.9" style="fill:#5a8bba"/><ellipse cx="143.1" cy="164.2" rx="3" ry="2.9" style="fill:none;stroke:#5a8bba;stroke-miterlimit:10;stroke-width:0.5px"/><ellipse cx="145" cy="321.9" rx="3" ry="2.9" style="fill:#5a8bba"/><ellipse cx="145" cy="321.9" rx="3" ry="2.9" style="fill:none;stroke:#5a8bba;stroke-miterlimit:10;stroke-width:0.5px"/><ellipse cx="146.8" cy="375.5" rx="3" ry="2.9" style="fill:#5a8bba"/><ellipse cx="146.8" cy="375.5" rx="3" ry="2.9" style="fill:none;stroke:#5a8bba;stroke-miterlimit:10;stroke-width:0.5px"/><ellipse cx="148.7" cy="387.4" rx="3" ry="2.9" style="fill:#5a8bba"/><ellipse cx="148.7" cy="387.4" rx="3" ry="2.9" style="fill:none;stroke:#5a8bba;stroke-miterlimit:10;stroke-width:0.5px"/><ellipse cx="150.5" cy="369.5" rx="3" ry="2.9" style="fill:#5a8bba"/><ellipse cx="150.5" cy="369.5" rx="3" ry="2.9" style="fill:none;stroke:#5a8bba;stroke-miterlimit:10;stroke-width:0.5px"/><ellipse cx="152.4" cy="286.2" rx="3" ry="2.9" style="fill:#5a8bba"/><ellipse cx="152.4" cy="286.2" rx="3" ry="2.9" style="fill:none;stroke:#5a8bba;stroke-miterlimit:10;stroke-width:0.5px"/><ellipse cx="154.2" cy="357.6" rx="3" ry="2.9" style="fill:#5a8bba"/><ellipse cx="154.2" cy="357.6" rx="3" ry="2.9" style="fill:none;stroke:#5a8bba;stroke-miterlimit:10;stroke-width:0.5px"/><ellipse cx="156.1" cy="360.6" rx="3" ry="2.9" style="fill:#5a8bba"/><ellipse cx="156.1" cy="360.6" rx="3" ry="2.9" style="fill:none;stroke:#5a8bba;stroke-miterlimit:10;stroke-width:0.5px"/><ellipse cx="157.9" cy="423.1" rx="3" ry="2.9" style="fill:#5a8bba"/><ellipse cx="157.9" cy="423.1" rx="3" ry="2.9" style="fill:none;stroke:#5a8bba;stroke-miterlimit:10;stroke-width:0.5px"/><ellipse cx="159.8" cy="375.5" rx="3" ry="2.9" style="fill:#5a8bba"/><ellipse cx="159.8" cy="375.5" rx="3" ry="2.9" style="fill:none;stroke:#5a8bba;stroke-miterlimit:10;stroke-width:0.5px"/><ellipse cx="161.7" cy="417.1" rx="3" ry="2.9" style="fill:#5a8bba"/><ellipse cx="161.7" cy="417.1" rx="3" ry="2.9" style="fill:none;stroke:#5a8bba;stroke-miterlimit:10;stroke-width:0.5px"/><ellipse cx="163.5" cy="408.2" rx="3" ry="2.9" style="fill:#5a8bba"/><ellipse cx="163.5" cy="408.2" rx="3" ry="2.9" style="fill:none;stroke:#5a8bba;stroke-miterlimit:10;stroke-width:0.5px"/><ellipse cx="165.4" cy="417.1" rx="3" ry="2.9" style="fill:#5a8bba"/><ellipse cx="165.4" cy="417.1" rx="3" ry="2.9" style="fill:none;stroke:#5a8bba;stroke-miterlimit:10;stroke-width:0.5px"/><ellipse cx="167.2" cy="408.2" rx="3" ry="2.9" style="fill:#5a8bba"/><ellipse cx="167.2" cy="408.2" rx="3" ry="2.9" style="fill:none;stroke:#5a8bba;stroke-miterlimit:10;stroke-width:0.5px"/><ellipse cx="169.1" cy="455.8" rx="3" ry="2.8" style="fill:#5a8bba"/><ellipse cx="169.1" cy="455.8" rx="3" ry="2.8" style="fill:none;stroke:#5a8bba;stroke-miterlimit:10;stroke-width:0.5px"/><ellipse cx="170.9" cy="458.8" rx="3" ry="2.8" style="fill:#5a8bba"/><ellipse cx="170.9" cy="458.8" rx="3" ry="2.8" style="fill:none;stroke:#5a8bba;stroke-miterlimit:10;stroke-width:0.5px"/><ellipse cx="172.8" cy="381.4" rx="3" ry="2.9" style="fill:#5a8bba"/><ellipse cx="172.8" cy="381.4" rx="3" ry="2.9" style="fill:none;stroke:#5a8bba;stroke-miterlimit:10;stroke-width:0.5px"/><ellipse cx="174.6" cy="170.1" rx="3" ry="2.9" style="fill:#5a8bba"/><ellipse cx="174.6" cy="170.1" rx="3" ry="2.9" style="fill:none;stroke:#5a8bba;stroke-miterlimit:10;stroke-width:0.5px"/><ellipse cx="176.5" cy="426.1" rx="3" ry="2.9" style="fill:#5a8bba"/><ellipse cx="176.5" cy="426.1" rx="3" ry="2.9" style="fill:none;stroke:#5a8bba;stroke-miterlimit:10;stroke-width:0.5px"/><ellipse cx="178.3" cy="366.5" rx="3" ry="2.9" style="fill:#5a8bba"/><ellipse cx="178.3" cy="366.5" rx="3" ry="2.9" style="fill:none;stroke:#5a8bba;stroke-miterlimit:10;stroke-width:0.5px"/><ellipse cx="180.2" cy="351.7" rx="3" ry="2.9" style="fill:#5a8bba"/><ellipse cx="180.2" cy="351.7" rx="3" ry="2.9" style="fill:none;stroke:#5a8bba;stroke-miterlimit:10;stroke-width:0.5px"/><ellipse cx="182" cy="336.8" rx="3" ry="2.9" style="fill:#5a8bba"/><ellipse cx="182" cy="336.8" rx="3" ry="2.9" style="fill:none;stroke:#5a8bba;stroke-miterlimit:10;stroke-width:0.5px"/><ellipse cx="183.9" cy="443.9" rx="3" ry="2.8" style="fill:#5a8bba"/><ellipse cx="183.9" cy="443.9" rx="3" ry="2.8" style="fill:none;stroke:#5a8bba;stroke-miterlimit:10;stroke-width:0.5px"/><ellipse cx="185.7" cy="432" rx="3" ry="2.9" style="fill:#5a8bba"/><ellipse cx="185.7" cy="432" rx="3" ry="2.9" style="fill:none;stroke:#5a8bba;stroke-miterlimit:10;stroke-width:0.5px"/><ellipse cx="187.6" cy="438" rx="3" ry="2.8" style="fill:#5a8bba"/><ellipse cx="187.6" cy="438" rx="3" ry="2.8" style="fill:none;stroke:#5a8bba;stroke-miterlimit:10;stroke-width:0.5px"/><ellipse cx="189.4" cy="420.1" rx="3" ry="2.9" style="fill:#5a8bba"/><ellipse cx="189.4" cy="420.1" rx="3" ry="2.9" style="fill:none;stroke:#5a8bba;stroke-miterlimit:10;stroke-width:0.5px"/><ellipse cx="191.3" cy="414.2" rx="3" ry="2.9" style="fill:#5a8bba"/><ellipse cx="191.3" cy="414.2" rx="3" ry="2.9" style="fill:none;stroke:#5a8bba;stroke-miterlimit:10;stroke-width:0.5px"/><ellipse cx="193.1" cy="441" rx="3" ry="2.8" style="fill:#5a8bba"/><ellipse cx="193.1" cy="441" rx="3" ry="2.8" style="fill:none;stroke:#5a8bba;stroke-miterlimit:10;stroke-width:0.5px"/><ellipse cx="195" cy="402.3" rx="3" ry="2.9" style="fill:#5a8bba"/><ellipse cx="195" cy="402.3" rx="3" ry="2.9" style="fill:none;stroke:#5a8bba;stroke-miterlimit:10;stroke-width:0.5px"/><ellipse cx="196.8" cy="438" rx="3" ry="2.8" style="fill:#5a8bba"/><ellipse cx="196.8" cy="438" rx="3" ry="2.8" style="fill:none;stroke:#5a8bba;stroke-miterlimit:10;stroke-width:0.5px"/><ellipse cx="198.7" cy="372.5" rx="3" ry="2.9" style="fill:#5a8bba"/><ellipse cx="198.7" cy="372.5" rx="3" ry="2.9" style="fill:none;stroke:#5a8bba;stroke-miterlimit:10;stroke-width:0.5px"/><ellipse cx="200.6" cy="6.5" rx="3" ry="2.8" style="fill:#5a8bba"/><ellipse cx="200.6" cy="6.5" rx="3" ry="2.8" style="fill:none;stroke:#5a8bba;stroke-miterlimit:10;stroke-width:0.5px"/><ellipse cx="202.4" cy="426.1" rx="3" ry="2.9" style="fill:#5a8bba"/><ellipse cx="202.4" cy="426.1" rx="3" ry="2.9" style="fill:none;stroke:#5a8bba;stroke-miterlimit:10;stroke-width:0.5px"/><ellipse cx="204.3" cy="378.5" rx="3" ry="2.9" style="fill:#5a8bba"/><ellipse cx="204.3" cy="378.5" rx="3" ry="2.9" style="fill:none;stroke:#5a8bba;stroke-miterlimit:10;stroke-width:0.5px"/><ellipse cx="206.1" cy="280.2" rx="3" ry="2.9" style="fill:#5a8bba"/><ellipse cx="206.1" cy="280.2" rx="3" ry="2.9" style="fill:none;stroke:#5a8bba;stroke-miterlimit:10;stroke-width:0.5px"/><ellipse cx="208" cy="330.8" rx="3" ry="2.9" style="fill:#5a8bba"/><ellipse cx="208" cy="330.8" rx="3" ry="2.9" style="fill:none;stroke:#5a8bba;stroke-miterlimit:10;stroke-width:0.5px"/><ellipse cx="209.8" cy="441" rx="3" ry="2.8" style="fill:#5a8bba"/><ellipse cx="209.8" cy="441" rx="3" ry="2.8" style="fill:none;stroke:#5a8bba;stroke-miterlimit:10;stroke-width:0.5px"/><ellipse cx="211.7" cy="369.5" rx="3" ry="2.9" style="fill:#5a8bba"/><ellipse cx="211.7" cy="369.5" rx="3" ry="2.9" style="fill:none;stroke:#5a8bba;stroke-miterlimit:10;stroke-width:0.5px"/><ellipse cx="213.5" cy="366.5" rx="3" ry="2.9" style="fill:#5a8bba"/><ellipse cx="213.5" cy="366.5" rx="3" ry="2.9" style="fill:none;stroke:#5a8bba;stroke-miterlimit:10;stroke-width:0.5px"/><ellipse cx="215.4" cy="452.9" rx="3" ry="2.8" style="fill:#5a8bba"/><ellipse cx="215.4" cy="452.9" rx="3" ry="2.8" style="fill:none;stroke:#5a8bba;stroke-miterlimit:10;stroke-width:0.5px"/><ellipse cx="217.2" cy="417.1" rx="3" ry="2.9" style="fill:#5a8bba"/><ellipse cx="217.2" cy="417.1" rx="3" ry="2.9" style="fill:none;stroke:#5a8bba;stroke-miterlimit:10;stroke-width:0.5px"/><ellipse cx="219.1" cy="229.7" rx="3" ry="2.9" style="fill:#5a8bba"/><ellipse cx="219.1" cy="229.7" rx="3" ry="2.9" style="fill:none;stroke:#5a8bba;stroke-miterlimit:10;stroke-width:0.5px"/><ellipse cx="220.9" cy="369.5" rx="3" ry="2.9" style="fill:#5a8bba"/><ellipse cx="220.9" cy="369.5" rx="3" ry="2.9" style="fill:none;stroke:#5a8bba;stroke-miterlimit:10;stroke-width:0.5px"/><ellipse cx="222.8" cy="217.8" rx="3" ry="2.9" style="fill:#5a8bba"/><ellipse cx="222.8" cy="217.8" rx="3" ry="2.9" style="fill:none;stroke:#5a8bba;stroke-miterlimit:10;stroke-width:0.5px"/><ellipse cx="224.6" cy="342.7" rx="3" ry="2.9" style="fill:#5a8bba"/><ellipse cx="224.6" cy="342.7" rx="3" ry="2.9" style="fill:none;stroke:#5a8bba;stroke-miterlimit:10;stroke-width:0.5px"/><ellipse cx="226.5" cy="402.3" rx="3" ry="2.9" style="fill:#5a8bba"/><ellipse cx="226.5" cy="402.3" rx="3" ry="2.9" style="fill:none;stroke:#5a8bba;stroke-miterlimit:10;stroke-width:0.5px"/><ellipse cx="228.3" cy="345.7" rx="3" ry="2.9" style="fill:#5a8bba"/><ellipse cx="228.3" cy="345.7" rx="3" ry="2.9" style="fill:none;stroke:#5a8bba;stroke-miterlimit:10;stroke-width:0.5px"/><ellipse cx="230.2" cy="324.9" rx="3" ry="2.9" style="fill:#5a8bba"/><ellipse cx="230.2" cy="324.9" rx="3" ry="2.9" style="fill:none;stroke:#5a8bba;stroke-miterlimit:10;stroke-width:0.5px"/><ellipse cx="232" cy="381.4" rx="3" ry="2.9" style="fill:#5a8bba"/><ellipse cx="232" cy="381.4" rx="3" ry="2.9" style="fill:none;stroke:#5a8bba;stroke-miterlimit:10;stroke-width:0.5px"/><ellipse cx="233.9" cy="399.3" rx="3" ry="2.9" style="fill:#5a8bba"/><ellipse cx="233.9" cy="399.3" rx="3" ry="2.9" style="fill:none;stroke:#5a8bba;stroke-miterlimit:10;stroke-width:0.5px"/><ellipse cx="235.7" cy="405.2" rx="3" ry="2.9" style="fill:#5a8bba"/><ellipse cx="235.7" cy="405.2" rx="3" ry="2.9" style="fill:none;stroke:#5a8bba;stroke-miterlimit:10;stroke-width:0.5px"/><ellipse cx="237.6" cy="336.8" rx="3" ry="2.9" style="fill:#5a8bba"/><ellipse cx="237.6" cy="336.8" rx="3" ry="2.9" style="fill:none;stroke:#5a8bba;stroke-miterlimit:10;stroke-width:0.5px"/><ellipse cx="239.4" cy="375.5" rx="3" ry="2.9" style="fill:#5a8bba"/><ellipse cx="239.4" cy="375.5" rx="3" ry="2.9" style="fill:none;stroke:#5a8bba;stroke-miterlimit:10;stroke-width:0.5px"/><ellipse cx="241.3" cy="399.3" rx="3" ry="2.9" style="fill:#5a8bba"/><ellipse cx="241.3" cy="399.3" rx="3" ry="2.9" style="fill:none;stroke:#5a8bba;stroke-miterlimit:10;stroke-width:0.5px"/><ellipse cx="243.2" cy="366.5" rx="3" ry="2.9" style="fill:#5a8bba"/><ellipse cx="243.2" cy="366.5" rx="3" ry="2.9" style="fill:none;stroke:#5a8bba;stroke-miterlimit:10;stroke-width:0.5px"/><ellipse cx="245" cy="420.1" rx="3" ry="2.9" style="fill:#5a8bba"/><ellipse cx="245" cy="420.1" rx="3" ry="2.9" style="fill:none;stroke:#5a8bba;stroke-miterlimit:10;stroke-width:0.5px"/><ellipse cx="246.9" cy="381.4" rx="3" ry="2.9" style="fill:#5a8bba"/><ellipse cx="246.9" cy="381.4" rx="3" ry="2.9" style="fill:none;stroke:#5a8bba;stroke-miterlimit:10;stroke-width:0.5px"/><ellipse cx="248.7" cy="393.3" rx="3" ry="2.9" style="fill:#5a8bba"/><ellipse cx="248.7" cy="393.3" rx="3" ry="2.9" style="fill:none;stroke:#5a8bba;stroke-miterlimit:10;stroke-width:0.5px"/><ellipse cx="250.6" cy="399.3" rx="3" ry="2.9" style="fill:#5a8bba"/><ellipse cx="250.6" cy="399.3" rx="3" ry="2.9" style="fill:none;stroke:#5a8bba;stroke-miterlimit:10;stroke-width:0.5px"/><ellipse cx="252.4" cy="408.2" rx="3" ry="2.9" style="fill:#5a8bba"/><ellipse cx="252.4" cy="408.2" rx="3" ry="2.9" style="fill:none;stroke:#5a8bba;stroke-miterlimit:10;stroke-width:0.5px"/><ellipse cx="254.3" cy="408.2" rx="3" ry="2.9" style="fill:#5a8bba"/><ellipse cx="254.3" cy="408.2" rx="3" ry="2.9" style="fill:none;stroke:#5a8bba;stroke-miterlimit:10;stroke-width:0.5px"/><ellipse cx="256.1" cy="393.3" rx="3" ry="2.9" style="fill:#5a8bba"/><ellipse cx="256.1" cy="393.3" rx="3" ry="2.9" style="fill:none;stroke:#5a8bba;stroke-miterlimit:10;stroke-width:0.5px"/><ellipse cx="258" cy="351.7" rx="3" ry="2.9" style="fill:#5a8bba"/><ellipse cx="258" cy="351.7" rx="3" ry="2.9" style="fill:none;stroke:#5a8bba;stroke-miterlimit:10;stroke-width:0.5px"/><ellipse cx="259.8" cy="327.9" rx="3" ry="2.9" style="fill:#5a8bba"/><ellipse cx="259.8" cy="327.9" rx="3" ry="2.9" style="fill:none;stroke:#5a8bba;stroke-miterlimit:10;stroke-width:0.5px"/><ellipse cx="261.7" cy="265.4" rx="3" ry="2.9" style="fill:#5a8bba"/><ellipse cx="261.7" cy="265.4" rx="3" ry="2.9" style="fill:none;stroke:#5a8bba;stroke-miterlimit:10;stroke-width:0.5px"/><ellipse cx="263.5" cy="417.1" rx="3" ry="2.9" style="fill:#5a8bba"/><ellipse cx="263.5" cy="417.1" rx="3" ry="2.9" style="fill:none;stroke:#5a8bba;stroke-miterlimit:10;stroke-width:0.5px"/><ellipse cx="265.4" cy="351.7" rx="3" ry="2.9" style="fill:#5a8bba"/><ellipse cx="265.4" cy="351.7" rx="3" ry="2.9" style="fill:none;stroke:#5a8bba;stroke-miterlimit:10;stroke-width:0.5px"/><ellipse cx="267.2" cy="405.2" rx="3" ry="2.9" style="fill:#5a8bba"/><ellipse cx="267.2" cy="405.2" rx="3" ry="2.9" style="fill:none;stroke:#5a8bba;stroke-miterlimit:10;stroke-width:0.5px"/><ellipse cx="269.1" cy="292.2" rx="3" ry="2.9" style="fill:#5a8bba"/><ellipse cx="269.1" cy="292.2" rx="3" ry="2.9" style="fill:none;stroke:#5a8bba;stroke-miterlimit:10;stroke-width:0.5px"/><ellipse cx="270.9" cy="316" rx="3" ry="2.9" style="fill:#5a8bba"/><ellipse cx="270.9" cy="316" rx="3" ry="2.9" style="fill:none;stroke:#5a8bba;stroke-miterlimit:10;stroke-width:0.5px"/><ellipse cx="272.8" cy="330.8" rx="3" ry="2.9" style="fill:#5a8bba"/><ellipse cx="272.8" cy="330.8" rx="3" ry="2.9" style="fill:none;stroke:#5a8bba;stroke-miterlimit:10;stroke-width:0.5px"/><ellipse cx="274.6" cy="351.7" rx="3" ry="2.9" style="fill:#5a8bba"/><ellipse cx="274.6" cy="351.7" rx="3" ry="2.9" style="fill:none;stroke:#5a8bba;stroke-miterlimit:10;stroke-width:0.5px"/><ellipse cx="276.5" cy="357.6" rx="3" ry="2.9" style="fill:#5a8bba"/><ellipse cx="276.5" cy="357.6" rx="3" ry="2.9" style="fill:none;stroke:#5a8bba;stroke-miterlimit:10;stroke-width:0.5px"/><ellipse cx="278.3" cy="360.6" rx="3" ry="2.9" style="fill:#5a8bba"/><ellipse cx="278.3" cy="360.6" rx="3" ry="2.9" style="fill:none;stroke:#5a8bba;stroke-miterlimit:10;stroke-width:0.5px"/><ellipse cx="280.2" cy="369.5" rx="3" ry="2.9" style="fill:#5a8bba"/><ellipse cx="280.2" cy="369.5" rx="3" ry="2.9" style="fill:none;stroke:#5a8bba;stroke-miterlimit:10;stroke-width:0.5px"/><ellipse cx="282.1" cy="280.2" rx="3" ry="2.9" style="fill:#5a8bba"/><ellipse cx="282.1" cy="280.2" rx="3" ry="2.9" style="fill:none;stroke:#5a8bba;stroke-miterlimit:10;stroke-width:0.5px"/><ellipse cx="283.9" cy="378.5" rx="3" ry="2.9" style="fill:#5a8bba"/><ellipse cx="283.9" cy="378.5" rx="3" ry="2.9" style="fill:none;stroke:#5a8bba;stroke-miterlimit:10;stroke-width:0.5px"/><ellipse cx="285.8" cy="363.6" rx="3" ry="2.9" style="fill:#5a8bba"/><ellipse cx="285.8" cy="363.6" rx="3" ry="2.9" style="fill:none;stroke:#5a8bba;stroke-miterlimit:10;stroke-width:0.5px"/><ellipse cx="287.6" cy="414.2" rx="3" ry="2.9" style="fill:#5a8bba"/><ellipse cx="287.6" cy="414.2" rx="3" ry="2.9" style="fill:none;stroke:#5a8bba;stroke-miterlimit:10;stroke-width:0.5px"/><line x1="535.5" y1="462.1" x2="783.5" y2="462.1" style="fill:none;stroke:#000;stroke-miterlimit:10"/><line x1="535.5" y1="462.1" x2="535.5" y2="0.8" style="fill:none;stroke:#000;stroke-miterlimit:10"/><line x1="783.5" y1="462.1" x2="783.5" y2="0.8" style="fill:none;stroke:#000;stroke-miterlimit:10"/><line x1="535.5" y1="462.1" x2="535.5" y2="0.8" style="fill:none;stroke:#000;stroke-miterlimit:10"/><g style="opacity:0.699999988079071"><ellipse cx="546.4" cy="384.7" rx="3" ry="2.9" style="fill:#5a8bba"/><ellipse cx="546.4" cy="384.7" rx="3" ry="2.9" style="fill:none;stroke:#5a8bba;stroke-miterlimit:10;stroke-width:0.5px"/></g><g style="opacity:0.699999988079071"><ellipse cx="557.2" cy="354.9" rx="3" ry="2.9" style="fill:#5a8bba"/><ellipse cx="557.2" cy="354.9" rx="3" ry="2.9" style="fill:none;stroke:#5a8bba;stroke-miterlimit:10;stroke-width:0.5px"/></g><g style="opacity:0.699999988079071"><ellipse cx="568.1" cy="441.2" rx="3" ry="2.8" style="fill:#5a8bba"/><ellipse cx="568.1" cy="441.2" rx="3" ry="2.8" style="fill:none;stroke:#5a8bba;stroke-miterlimit:10;stroke-width:0.5px"/></g><g style="opacity:0.699999988079071"><ellipse cx="579" cy="316.2" rx="3" ry="2.9" style="fill:#5a8bba"/><ellipse cx="579" cy="316.2" rx="3" ry="2.9" style="fill:none;stroke:#5a8bba;stroke-miterlimit:10;stroke-width:0.5px"/></g><g style="opacity:0.699999988079071"><ellipse cx="589.8" cy="363.9" rx="3" ry="2.9" style="fill:#5a8bba"/><ellipse cx="589.8" cy="363.9" rx="3" ry="2.9" style="fill:none;stroke:#5a8bba;stroke-miterlimit:10;stroke-width:0.5px"/></g><g style="opacity:0.699999988079071"><ellipse cx="600.7" cy="283.5" rx="3" ry="2.9" style="fill:#5a8bba"/><ellipse cx="600.7" cy="283.5" rx="3" ry="2.9" style="fill:none;stroke:#5a8bba;stroke-miterlimit:10;stroke-width:0.5px"/></g><g style="opacity:0.699999988079071"><ellipse cx="611.5" cy="352" rx="3" ry="2.9" style="fill:#5a8bba"/><ellipse cx="611.5" cy="352" rx="3" ry="2.9" style="fill:none;stroke:#5a8bba;stroke-miterlimit:10;stroke-width:0.5px"/></g><g style="opacity:0.699999988079071"><ellipse cx="622.4" cy="393.6" rx="3" ry="2.9" style="fill:#5a8bba"/><ellipse cx="622.4" cy="393.6" rx="3" ry="2.9" style="fill:none;stroke:#5a8bba;stroke-miterlimit:10;stroke-width:0.5px"/></g><g style="opacity:0.699999988079071"><ellipse cx="633.3" cy="357.9" rx="3" ry="2.9" style="fill:#5a8bba"/><ellipse cx="633.3" cy="357.9" rx="3" ry="2.9" style="fill:none;stroke:#5a8bba;stroke-miterlimit:10;stroke-width:0.5px"/></g><g style="opacity:0.699999988079071"><ellipse cx="644.1" cy="378.7" rx="3" ry="2.9" style="fill:#5a8bba"/><ellipse cx="644.1" cy="378.7" rx="3" ry="2.9" style="fill:none;stroke:#5a8bba;stroke-miterlimit:10;stroke-width:0.5px"/></g><g style="opacity:0.699999988079071"><ellipse cx="655" cy="369.8" rx="3" ry="2.9" style="fill:#5a8bba"/><ellipse cx="655" cy="369.8" rx="3" ry="2.9" style="fill:none;stroke:#5a8bba;stroke-miterlimit:10;stroke-width:0.5px"/></g><g style="opacity:0.699999988079071"><ellipse cx="665.9" cy="375.8" rx="3" ry="2.9" style="fill:#5a8bba"/><ellipse cx="665.9" cy="375.8" rx="3" ry="2.9" style="fill:none;stroke:#5a8bba;stroke-miterlimit:10;stroke-width:0.5px"/></g><g style="opacity:0.699999988079071"><ellipse cx="676.7" cy="390.7" rx="3" ry="2.9" style="fill:#5a8bba"/><ellipse cx="676.7" cy="390.7" rx="3" ry="2.9" style="fill:none;stroke:#5a8bba;stroke-miterlimit:10;stroke-width:0.5px"/></g><g style="opacity:0.699999988079071"><ellipse cx="687.6" cy="298.4" rx="3" ry="2.9" style="fill:#5a8bba"/><ellipse cx="687.6" cy="298.4" rx="3" ry="2.9" style="fill:none;stroke:#5a8bba;stroke-miterlimit:10;stroke-width:0.5px"/></g><g style="opacity:0.699999988079071"><ellipse cx="698.4" cy="322.2" rx="3" ry="2.9" style="fill:#5a8bba"/><ellipse cx="698.4" cy="322.2" rx="3" ry="2.9" style="fill:none;stroke:#5a8bba;stroke-miterlimit:10;stroke-width:0.5px"/></g><g style="opacity:0.699999988079071"><ellipse cx="709.3" cy="387.7" rx="3" ry="2.9" style="fill:#5a8bba"/><ellipse cx="709.3" cy="387.7" rx="3" ry="2.9" style="fill:none;stroke:#5a8bba;stroke-miterlimit:10;stroke-width:0.5px"/></g><g style="opacity:0.699999988079071"><ellipse cx="720.2" cy="378.7" rx="3" ry="2.9" style="fill:#5a8bba"/><ellipse cx="720.2" cy="378.7" rx="3" ry="2.9" style="fill:none;stroke:#5a8bba;stroke-miterlimit:10;stroke-width:0.5px"/></g><g style="opacity:0.699999988079071"><ellipse cx="731" cy="265.7" rx="3" ry="2.9" style="fill:#5a8bba"/><ellipse cx="731" cy="265.7" rx="3" ry="2.9" style="fill:none;stroke:#5a8bba;stroke-miterlimit:10;stroke-width:0.5px"/></g><g style="opacity:0.699999988079071"><ellipse cx="741.9" cy="438.3" rx="3" ry="2.8" style="fill:#5a8bba"/><ellipse cx="741.9" cy="438.3" rx="3" ry="2.8" style="fill:none;stroke:#5a8bba;stroke-miterlimit:10;stroke-width:0.5px"/></g><g style="opacity:0.699999988079071"><ellipse cx="752.7" cy="435.3" rx="3" ry="2.8" style="fill:#5a8bba"/><ellipse cx="752.7" cy="435.3" rx="3" ry="2.8" style="fill:none;stroke:#5a8bba;stroke-miterlimit:10;stroke-width:0.5px"/></g><g style="opacity:0.699999988079071"><ellipse cx="763.6" cy="417.4" rx="3" ry="2.9" style="fill:#5a8bba"/><ellipse cx="763.6" cy="417.4" rx="3" ry="2.9" style="fill:none;stroke:#5a8bba;stroke-miterlimit:10;stroke-width:0.5px"/></g><g style="opacity:0.699999988079071"><ellipse cx="774.5" cy="405.5" rx="3" ry="2.9" style="fill:#5a8bba"/><ellipse cx="774.5" cy="405.5" rx="3" ry="2.9" style="fill:none;stroke:#5a8bba;stroke-miterlimit:10;stroke-width:0.5px"/></g><line x1="291.8" y1="462.1" x2="535.5" y2="462.1" style="fill:none;stroke:#000;stroke-miterlimit:10"/><line x1="291.8" y1="462.1" x2="291.8" y2="450.5" style="fill:none;stroke:#000;stroke-miterlimit:10"/><line x1="291.8" y1="462.1" x2="291.8" y2="0.8" style="fill:none;stroke:#000;stroke-miterlimit:10"/><ellipse cx="298.7" cy="417.4" rx="3" ry="2.9" style="fill:#e84e0f"/><ellipse cx="298.7" cy="417.4" rx="3" ry="2.9" style="fill:none;stroke:#e84e0f;stroke-miterlimit:10;stroke-width:0.5px"/><ellipse cx="305.5" cy="390.7" rx="3" ry="2.9" style="fill:#e84e0f"/><ellipse cx="305.5" cy="390.7" rx="3" ry="2.9" style="fill:none;stroke:#e84e0f;stroke-miterlimit:10;stroke-width:0.5px"/><ellipse cx="312.3" cy="387.7" rx="3" ry="2.9" style="fill:#e84e0f"/><ellipse cx="312.3" cy="387.7" rx="3" ry="2.9" style="fill:none;stroke:#e84e0f;stroke-miterlimit:10;stroke-width:0.5px"/><ellipse cx="319.1" cy="432.3" rx="3" ry="2.9" style="fill:#e84e0f"/><ellipse cx="319.1" cy="432.3" rx="3" ry="2.9" style="fill:none;stroke:#e84e0f;stroke-miterlimit:10;stroke-width:0.5px"/><ellipse cx="326" cy="423.4" rx="3" ry="2.9" style="fill:#e84e0f"/><ellipse cx="326" cy="423.4" rx="3" ry="2.9" style="fill:none;stroke:#e84e0f;stroke-miterlimit:10;stroke-width:0.5px"/><ellipse cx="332.8" cy="405.5" rx="3" ry="2.9" style="fill:#e84e0f"/><ellipse cx="332.8" cy="405.5" rx="3" ry="2.9" style="fill:none;stroke:#e84e0f;stroke-miterlimit:10;stroke-width:0.5px"/><ellipse cx="339.6" cy="435.3" rx="3" ry="2.8" style="fill:#e84e0f"/><ellipse cx="339.6" cy="435.3" rx="3" ry="2.8" style="fill:none;stroke:#e84e0f;stroke-miterlimit:10;stroke-width:0.5px"/><ellipse cx="346.4" cy="316.2" rx="3" ry="2.9" style="fill:#e84e0f"/><ellipse cx="346.4" cy="316.2" rx="3" ry="2.9" style="fill:none;stroke:#e84e0f;stroke-miterlimit:10;stroke-width:0.5px"/><ellipse cx="353.3" cy="372.8" rx="3" ry="2.9" style="fill:#e84e0f"/><ellipse cx="353.3" cy="372.8" rx="3" ry="2.9" style="fill:none;stroke:#e84e0f;stroke-miterlimit:10;stroke-width:0.5px"/><ellipse cx="360.1" cy="432.3" rx="3" ry="2.9" style="fill:#e84e0f"/><ellipse cx="360.1" cy="432.3" rx="3" ry="2.9" style="fill:none;stroke:#e84e0f;stroke-miterlimit:10;stroke-width:0.5px"/><ellipse cx="366.9" cy="435.3" rx="3" ry="2.8" style="fill:#e84e0f"/><ellipse cx="366.9" cy="435.3" rx="3" ry="2.8" style="fill:none;stroke:#e84e0f;stroke-miterlimit:10;stroke-width:0.5px"/><ellipse cx="373.8" cy="331.1" rx="3" ry="2.9" style="fill:#e84e0f"/><ellipse cx="373.8" cy="331.1" rx="3" ry="2.9" style="fill:none;stroke:#e84e0f;stroke-miterlimit:10;stroke-width:0.5px"/><ellipse cx="380.6" cy="420.4" rx="3" ry="2.9" style="fill:#e84e0f"/><ellipse cx="380.6" cy="420.4" rx="3" ry="2.9" style="fill:none;stroke:#e84e0f;stroke-miterlimit:10;stroke-width:0.5px"/><ellipse cx="387.4" cy="417.4" rx="3" ry="2.9" style="fill:#e84e0f"/><ellipse cx="387.4" cy="417.4" rx="3" ry="2.9" style="fill:none;stroke:#e84e0f;stroke-miterlimit:10;stroke-width:0.5px"/><ellipse cx="394.2" cy="384.7" rx="3" ry="2.9" style="fill:#e84e0f"/><ellipse cx="394.2" cy="384.7" rx="3" ry="2.9" style="fill:none;stroke:#e84e0f;stroke-miterlimit:10;stroke-width:0.5px"/><ellipse cx="401.1" cy="396.6" rx="3" ry="2.9" style="fill:#e84e0f"/><ellipse cx="401.1" cy="396.6" rx="3" ry="2.9" style="fill:none;stroke:#e84e0f;stroke-miterlimit:10;stroke-width:0.5px"/><ellipse cx="407.9" cy="429.3" rx="3" ry="2.9" style="fill:#e84e0f"/><ellipse cx="407.9" cy="429.3" rx="3" ry="2.9" style="fill:none;stroke:#e84e0f;stroke-miterlimit:10;stroke-width:0.5px"/><ellipse cx="414.7" cy="387.7" rx="3" ry="2.9" style="fill:#e84e0f"/><ellipse cx="414.7" cy="387.7" rx="3" ry="2.9" style="fill:none;stroke:#e84e0f;stroke-miterlimit:10;stroke-width:0.5px"/><ellipse cx="421.5" cy="369.8" rx="3" ry="2.9" style="fill:#e84e0f"/><ellipse cx="421.5" cy="369.8" rx="3" ry="2.9" style="fill:none;stroke:#e84e0f;stroke-miterlimit:10;stroke-width:0.5px"/><ellipse cx="428.4" cy="414.5" rx="3" ry="2.9" style="fill:#e84e0f"/><ellipse cx="428.4" cy="414.5" rx="3" ry="2.9" style="fill:none;stroke:#e84e0f;stroke-miterlimit:10;stroke-width:0.5px"/><ellipse cx="435.2" cy="337.1" rx="3" ry="2.9" style="fill:#e84e0f"/><ellipse cx="435.2" cy="337.1" rx="3" ry="2.9" style="fill:none;stroke:#e84e0f;stroke-miterlimit:10;stroke-width:0.5px"/><ellipse cx="442" cy="343" rx="3" ry="2.9" style="fill:#e84e0f"/><ellipse cx="442" cy="343" rx="3" ry="2.9" style="fill:none;stroke:#e84e0f;stroke-miterlimit:10;stroke-width:0.5px"/><ellipse cx="448.9" cy="438.3" rx="3" ry="2.8" style="fill:#e84e0f"/><ellipse cx="448.9" cy="438.3" rx="3" ry="2.8" style="fill:none;stroke:#e84e0f;stroke-miterlimit:10;stroke-width:0.5px"/><ellipse cx="455.7" cy="390.7" rx="3" ry="2.9" style="fill:#e84e0f"/><ellipse cx="455.7" cy="390.7" rx="3" ry="2.9" style="fill:none;stroke:#e84e0f;stroke-miterlimit:10;stroke-width:0.5px"/><ellipse cx="462.5" cy="352" rx="3" ry="2.9" style="fill:#e84e0f"/><ellipse cx="462.5" cy="352" rx="3" ry="2.9" style="fill:none;stroke:#e84e0f;stroke-miterlimit:10;stroke-width:0.5px"/><ellipse cx="469.3" cy="441.2" rx="3" ry="2.8" style="fill:#e84e0f"/><ellipse cx="469.3" cy="441.2" rx="3" ry="2.8" style="fill:none;stroke:#e84e0f;stroke-miterlimit:10;stroke-width:0.5px"/><ellipse cx="476.2" cy="426.4" rx="3" ry="2.9" style="fill:#e84e0f"/><ellipse cx="476.2" cy="426.4" rx="3" ry="2.9" style="fill:none;stroke:#e84e0f;stroke-miterlimit:10;stroke-width:0.5px"/><ellipse cx="483" cy="450.2" rx="3" ry="2.8" style="fill:#e84e0f"/><ellipse cx="483" cy="450.2" rx="3" ry="2.8" style="fill:none;stroke:#e84e0f;stroke-miterlimit:10;stroke-width:0.5px"/><ellipse cx="489.8" cy="453.1" rx="3" ry="2.8" style="fill:#e84e0f"/><ellipse cx="489.8" cy="453.1" rx="3" ry="2.8" style="fill:none;stroke:#e84e0f;stroke-miterlimit:10;stroke-width:0.5px"/><ellipse cx="496.6" cy="420.4" rx="3" ry="2.9" style="fill:#e84e0f"/><ellipse cx="496.6" cy="420.4" rx="3" ry="2.9" style="fill:none;stroke:#e84e0f;stroke-miterlimit:10;stroke-width:0.5px"/><ellipse cx="503.5" cy="337.1" rx="3" ry="2.9" style="fill:#e84e0f"/><ellipse cx="503.5" cy="337.1" rx="3" ry="2.9" style="fill:none;stroke:#e84e0f;stroke-miterlimit:10;stroke-width:0.5px"/><ellipse cx="510.3" cy="357.9" rx="3" ry="2.9" style="fill:#e84e0f"/><ellipse cx="510.3" cy="357.9" rx="3" ry="2.9" style="fill:none;stroke:#e84e0f;stroke-miterlimit:10;stroke-width:0.5px"/><ellipse cx="517.1" cy="408.5" rx="3" ry="2.9" style="fill:#e84e0f"/><ellipse cx="517.1" cy="408.5" rx="3" ry="2.9" style="fill:none;stroke:#e84e0f;stroke-miterlimit:10;stroke-width:0.5px"/><ellipse cx="524" cy="453.1" rx="3" ry="2.8" style="fill:#e84e0f"/><ellipse cx="524" cy="453.1" rx="3" ry="2.8" style="fill:none;stroke:#e84e0f;stroke-miterlimit:10;stroke-width:0.5px"/><ellipse cx="530.8" cy="378.7" rx="3" ry="2.9" style="fill:#e84e0f"/><ellipse cx="530.8" cy="378.7" rx="3" ry="2.9" style="fill:none;stroke:#e84e0f;stroke-miterlimit:10;stroke-width:0.5px"/><path d="M4.4,256.1l-2.8,1V256l1.5-.5a3.13,3.13,0,0,1-1.1-.9,2.39,2.39,0,0,1-.5-1.4,1.84,1.84,0,0,1,.4-1.3,2.55,2.55,0,0,1,1.2-.8,6.71,6.71,0,0,1,2.3-.3h3v3.5h-1V252h-2a6.66,6.66,0,0,0-1.6.1,1.23,1.23,0,0,0-.8.4,1.14,1.14,0,0,0-.3.8,1.31,1.31,0,0,0,.7,1.2,7.26,7.26,0,0,0,2.5.8l2.5.5V257l-2.6-.5C5.4,256.4,5,256.3,4.4,256.1Z"/><path d="M5,249.3a3.74,3.74,0,0,1-2.6-.9,2.76,2.76,0,0,1-1-2.3,2.41,2.41,0,0,1,.4-1.5A2.76,2.76,0,0,1,3,243.4a3.32,3.32,0,0,1,2-.5,3.42,3.42,0,0,1,1.8.4,4.49,4.49,0,0,1,1.3,1.1,3.37,3.37,0,0,1,.5,1.7,2.76,2.76,0,0,1-1,2.3A3.74,3.74,0,0,1,5,249.3Zm0-1.4a3.56,3.56,0,0,0,1.9-.5,1.75,1.75,0,0,0,.7-1.4,1.51,1.51,0,0,0-.7-1.4,3.45,3.45,0,0,0-1.8-.5,3.56,3.56,0,0,0-1.9.5,1.75,1.75,0,0,0,0,2.8A2.43,2.43,0,0,0,5,247.9Z"/><path d="M1.8,241.6a8.52,8.52,0,0,1-.3-2.3,3.66,3.66,0,0,1,.9-2.5,3,3,0,0,1,2.5-1,3.25,3.25,0,0,1,2.6,1,4.14,4.14,0,0,1,1,2.8,3.94,3.94,0,0,1-.5,2l-1-.3a2.54,2.54,0,0,0,.4-1.6,3.29,3.29,0,0,0-.6-1.9,2.27,2.27,0,0,0-1.9-.8,2.79,2.79,0,0,0-1.8.6,2.36,2.36,0,0,0-.7,1.6,4.1,4.1,0,0,0,.1,1.1H3.7a.74.74,0,0,0,.8-.8.75.75,0,0,0-.1-.5l.9-.1a2,2,0,0,1,.2.9,1.84,1.84,0,0,1-.4,1.3,1.73,1.73,0,0,1-1.3.5Z"/><path d="M1.7,235a11.48,11.48,0,0,1-.1-1.8,3.89,3.89,0,0,1,.8-2.8,3.29,3.29,0,0,1,2.4-.8H8.4v1.2H5a4.64,4.64,0,0,0-1.4.2,1.55,1.55,0,0,0-.8.8,3.51,3.51,0,0,0-.3,1.6,9.15,9.15,0,0,0,.1,1.6Z"/><path d="M1.7,224.1a18,18,0,0,1-.2-2.2,4.19,4.19,0,0,1,.8-2.9,3.29,3.29,0,0,1,2.4-.8H8.3v1.2H5a4.87,4.87,0,0,0-1.5.2,1.39,1.39,0,0,0-.7.8,3.92,3.92,0,0,0-.2,1.7,13.66,13.66,0,0,0,.2,1.9Zm2.8-1.3H8.3V224H4.5Z"/><path d="M4.4,215.7l-2.8,1v-1.2l1.5-.5a3.13,3.13,0,0,1-1.1-.9,2.39,2.39,0,0,1-.5-1.4,1.84,1.84,0,0,1,.4-1.3,2.55,2.55,0,0,1,1.2-.8,6.71,6.71,0,0,1,2.3-.3h3v3.5h-1v-2.2h-2a6.66,6.66,0,0,0-1.6.1,1.23,1.23,0,0,0-.8.4,1.14,1.14,0,0,0-.3.8,1.31,1.31,0,0,0,.7,1.2,7.26,7.26,0,0,0,2.5.8l2.5.5v1.2L5.7,216A8.57,8.57,0,0,0,4.4,215.7Z"/><path d="M1.6,208.4v-5.5H3.3a4.12,4.12,0,0,1,1.2.1,2,2,0,0,1,.9.5l.5.3a3,3,0,0,0,1.5.5H8.5v1.2H7.4a3.42,3.42,0,0,1-1.1-.1,4.05,4.05,0,0,1-.9-.5l-.5-.4a2.09,2.09,0,0,0-.6-.4,1.48,1.48,0,0,0-.7-.1h-1v4.3h-1Zm9.3-.1H4.5v-1.2h6.4Z"/><path d="M1.6,200H8.3v1.2H1.6Z"/><path d="M1.7,198.8a11.48,11.48,0,0,1-.1-1.8,3.89,3.89,0,0,1,.8-2.8,3.29,3.29,0,0,1,2.4-.8H8.4v1.2H5a4.64,4.64,0,0,0-1.4.2,1.55,1.55,0,0,0-.8.8,3.51,3.51,0,0,0-.3,1.6,9.15,9.15,0,0,0,.1,1.6Z"/><path d="M1.6,190.2H8.3v1.2H1.6Z"/><path d="M8.2,189l-.9-.2a1.7,1.7,0,0,0,.1-.7.85.85,0,0,0-.2-.6,1.17,1.17,0,0,0-.7-.2H2.6a6.15,6.15,0,0,0,.1,1.3l-1,.1a28.25,28.25,0,0,1-.2-2.9,6.71,6.71,0,0,1,.3-2.3,2.26,2.26,0,0,1,.9-1.2,3.74,3.74,0,0,1,2-.4H8.3v1.2H5a4.92,4.92,0,0,0-1.4.1,1,1,0,0,0-.7.7,5.79,5.79,0,0,0-.3,1.7v.6H6.7a3.08,3.08,0,0,1,1,.1,1,1,0,0,1,.6.5,2.68,2.68,0,0,1,.2,1.1C8.4,188.2,8.3,188.6,8.2,189Z"/><path d="M122.89,475.25a2.49,2.49,0,0,1,2.62-2.62,2.22,2.22,0,0,1,2.52,2.22c0,1.13-.46,1.76-1.8,3L124,480h4.07v.88h-5.41v-.75l2.79-2.78c.91-.94,1.52-1.54,1.52-2.46a1.38,1.38,0,0,0-1.48-1.45c-.85,0-1.59.5-1.59,1.79Z"/><path d="M132.52,472.63c1.78,0,2.94,1.39,2.94,4.23s-1.15,4.22-2.94,4.22-2.91-1.4-2.91-4.22S130.76,472.63,132.52,472.63Zm1.87,4.25c0-2.27-.7-3.42-1.87-3.42s-1.85,1.1-1.85,3.42.69,3.39,1.85,3.39S134.39,479.09,134.39,476.88Z"/><path d="M137,475.25a2.49,2.49,0,0,1,2.63-2.62,2.22,2.22,0,0,1,2.52,2.22c0,1.13-.46,1.76-1.8,3L138.09,480h4.07v.88h-5.41v-.75l2.79-2.78c.91-.94,1.52-1.54,1.52-2.46a1.38,1.38,0,0,0-1.48-1.45c-.85,0-1.59.5-1.59,1.79Z"/><path d="M145.17,474.9h-1.63v-.71h.25a1.62,1.62,0,0,0,1.19-.39,1.42,1.42,0,0,0,.37-1.08h.82v8.18h-1Z"/><path d="M156.54,476.73c0-1.56-.14-2.17-1.45-2.17h-2.38a8.29,8.29,0,0,1-1.61-.09l.23-1.24a17.33,17.33,0,0,0,1.94,0h1.92c2,0,2.43.58,2.43,2.88v4.74h-1.08Zm-5.16.17h1.09v4h-1.09Z"/><path d="M160,476.42a2.42,2.42,0,0,1,.51-1.68,10.88,10.88,0,0,1-1.75-.38l.23-1.24a21.63,21.63,0,0,0,3.94.64l-.21,1.26c-.29,0-.81-.1-1-.11-.39,0-.57.2-.61,1.19,0,.73.08,3.25.18,4.8h-1.11C160.07,478.54,160,477.08,160,476.42Z"/><path d="M166.75,479.63a31.15,31.15,0,0,0-2.93-6.28l1.49-.12a31.31,31.31,0,0,1,2.45,6.08c1-.44,1.58-1.35,1.58-3.07a8.33,8.33,0,0,0-.59-2.89l1.39-.14a9,9,0,0,1,.36,2.67c0,2-.52,3.67-2.81,4.69a16.21,16.21,0,0,1-4,1l.23-1.37A15,15,0,0,0,166.75,479.63Z"/><path d="M174.74,479.7a5.43,5.43,0,0,1,1.15-.07h.21c0-1.36-.13-4.17-.22-5.07h0a4.6,4.6,0,0,1-1.06-.1l.25-1.23a17.74,17.74,0,0,0,2.2,0h2.3c2.06,0,2.45.49,2.45,2.89v4.73h-1.09v-4.34c0-1.39-.16-2-1.46-2H177c.07.9.23,4.1.21,5.08L177,480.9h-1.11a12.75,12.75,0,0,0-1.39.06Z"/><path d="M186.15,479.63a31.15,31.15,0,0,0-2.93-6.28l1.49-.12a31.31,31.31,0,0,1,2.45,6.08c1-.44,1.58-1.35,1.58-3.07a8.54,8.54,0,0,0-.58-2.89l1.38-.14a9,9,0,0,1,.37,2.67c0,2-.52,3.67-2.82,4.69a16.1,16.1,0,0,1-4,1l.24-1.37A14.9,14.9,0,0,0,186.15,479.63Z"/><path d="M193.15,476.52c0-1.2-.14-1.64-1.23-1.9a9.09,9.09,0,0,1-.95-.27l.23-1.23a5.32,5.32,0,0,0,1,.22c1.57.34,2.07.85,2.07,3v4.58h-1.09Z"/><path d="M196,479.7a15.54,15.54,0,0,1,1.92-.07h2.18a44,44,0,0,1-2.79-3.5c-.72-1-1.56-2.06-2.13-2.79l1.57-.14c.59.84,1.57,2.27,2.35,3.33a1.69,1.69,0,0,0,1.23-1.82,3.86,3.86,0,0,0-.32-1.37l1.37-.13a3.7,3.7,0,0,1,.19,1.21,2.77,2.77,0,0,1-2,2.84,19.35,19.35,0,0,0,2.19,2.61l-.24,1h-3.76c-.93,0-1.76,0-2.07.05Z"/><path d="M207,476.56c0-1.39-.16-2-1.47-2H204.1a7.72,7.72,0,0,1-1.56-.09l.24-1.24a17.65,17.65,0,0,0,1.95,0h.87c2,0,2.43.49,2.43,2.89v4.73H207Z"/><path d="M383.34,475.25a2.49,2.49,0,0,1,2.63-2.62,2.23,2.23,0,0,1,2.52,2.22c0,1.13-.47,1.76-1.81,3L384.47,480h4.07v.88h-5.41v-.75l2.79-2.78c.92-.94,1.52-1.54,1.52-2.46a1.38,1.38,0,0,0-1.47-1.45c-.86,0-1.6.5-1.6,1.79Z"/><path d="M393,472.63c1.79,0,2.94,1.39,2.94,4.23s-1.14,4.22-2.94,4.22-2.91-1.4-2.91-4.22S391.21,472.63,393,472.63Zm1.87,4.25c0-2.27-.7-3.42-1.87-3.42s-1.84,1.1-1.84,3.42.68,3.39,1.84,3.39S394.84,479.09,394.84,476.88Z"/><path d="M397.41,475.25a2.49,2.49,0,0,1,2.63-2.62,2.23,2.23,0,0,1,2.52,2.22c0,1.13-.47,1.76-1.81,3L398.54,480h4.07v.88H397.2v-.75l2.79-2.78c.92-.94,1.52-1.54,1.52-2.46a1.38,1.38,0,0,0-1.47-1.45c-.86,0-1.6.5-1.6,1.79Z"/><path d="M405.62,474.9H404v-.71h.24a1.66,1.66,0,0,0,1.2-.39,1.46,1.46,0,0,0,.36-1.08h.82v8.18h-1Z"/><path d="M412.09,479.6a4.28,4.28,0,0,0,3.32-4c0-.88-.35-1.05-1.09-1.05H411v-2a8.06,8.06,0,0,0-.2-2.23l1.14-.19a10.68,10.68,0,0,1,.14,2.17v1h2.7c1.43,0,1.77.72,1.77,2a6.06,6.06,0,0,1-4.7,5.78Z"/><path d="M418,479a5.1,5.1,0,0,1,1.32-3.7,25.27,25.27,0,0,0-1.89-1.94l0-.07,1.5-.12c.71.73,1.75,1.91,3.22,3.73a2,2,0,0,0,.91-1.83,5.05,5.05,0,0,0-.42-1.77l1.37-.13a5,5,0,0,1,.27,1.66,3.15,3.15,0,0,1-1.6,2.76c.76.92,1.95,2.6,2.37,3.27h-1.49a43.47,43.47,0,0,0-3.68-4.81,3.94,3.94,0,0,0-.72,2.64,8.23,8.23,0,0,0,.4,2.17h-1.35A7.33,7.33,0,0,1,418,479Z"/><path d="M429.78,476.56c0-1.39-.16-2-1.47-2h-1.39a7.53,7.53,0,0,1-1.55-.09l.23-1.24a17.65,17.65,0,0,0,1.95,0h.87c2,0,2.44.49,2.44,2.89v4.73h-1.08Z"/><path d="M432.24,473.34l1.33-.13c.1.34.28,1.39.72,4,1.4-.33,1.63-.89,1.63-1.89a6.89,6.89,0,0,0-.37-2l1.31-.13a8.32,8.32,0,0,1,.3,1.92c0,1.32-.4,2.52-2.76,3,0,.14.18,1.14.26,1.6a11.88,11.88,0,0,0,1.53-.22c1.74-.38,2.79-1.13,2.79-3.51a8.22,8.22,0,0,0-.48-2.63l1.35-.11a9.2,9.2,0,0,1,.33,2.46c0,3.43-2,4.6-4.19,5-.88.16-1.75.27-2.22.31C433.47,479.15,432.65,474.49,432.24,473.34Z"/><path d="M442.11,477.57a4.43,4.43,0,0,0,.88-2.14c0-.47-.26-.62-.91-.8a8.48,8.48,0,0,1-.85-.28l.23-1.23a8,8,0,0,0,.83.23c1.33.3,1.79.72,1.79,1.76A5.48,5.48,0,0,1,443,478Z"/><path d="M365.33,500.17a5.82,5.82,0,0,1,1.31-.08h.24c0-1.55-.14-4.77-.25-5.79h-.05a4.91,4.91,0,0,1-1.22-.12l.29-1.4a20.38,20.38,0,0,0,2.51.06h2.63c2.35,0,2.8.56,2.8,3.3v5.41h-1.25v-5c0-1.58-.17-2.28-1.66-2.28h-2.82c.08,1,.26,4.69.24,5.81l-.22,1.44h-1.27a13.53,13.53,0,0,0-1.58.06Z"/><path d="M377.25,496.54c0-1.38-.16-1.88-1.41-2.18a10.31,10.31,0,0,1-1.09-.3l.28-1.41a5.36,5.36,0,0,0,1.1.25c1.79.39,2.37,1,2.37,3.41v5.24h-1.25Z"/><path d="M380.13,500.15c.32,0,1.23,0,2.18,0h3.05a17.25,17.25,0,0,0,.31-3c0-2.15-.48-2.83-2.23-2.83H382a10.66,10.66,0,0,1-1.84-.1l.29-1.42a16.46,16.46,0,0,0,2,.06h1.33c2.64,0,3.15,1.17,3.15,4.16a21.64,21.64,0,0,1-.53,4.55H382c-.69,0-1.73,0-2.11,0Z"/><path d="M392.88,496.58c0-1.58-.17-2.28-1.68-2.28h-1.58a9.63,9.63,0,0,1-1.78-.1l.27-1.42a19.2,19.2,0,0,0,2.23.06h1c2.34,0,2.79.56,2.79,3.3v5.41h-1.24Z"/><path d="M398.92,500.09a36.17,36.17,0,0,0-3.35-7.17l1.7-.14a35.59,35.59,0,0,1,2.8,6.94c1.18-.49,1.81-1.53,1.81-3.5a9.36,9.36,0,0,0-.68-3.3l1.59-.16a10.29,10.29,0,0,1,.42,3c0,2.34-.6,4.19-3.22,5.36a17.42,17.42,0,0,1-4.6,1.12l.28-1.57A16.6,16.6,0,0,0,398.92,500.09Z"/><path d="M411.14,496.78c0-1.78-.16-2.48-1.66-2.48h-2.73a10.57,10.57,0,0,1-1.84-.1l.28-1.42a18.79,18.79,0,0,0,2.21.06h2.19c2.27,0,2.78.66,2.78,3.28v5.43h-1.23Zm-5.91.19h1.25v4.58h-1.25Z"/><path d="M420.66,496.78c0-1.78-.16-2.48-1.66-2.48h-2.72a10.63,10.63,0,0,1-1.85-.1l.28-1.42a18.79,18.79,0,0,0,2.21.06h2.19c2.27,0,2.78.66,2.78,3.28v5.43h-1.23Zm-5.91.19H416v4.58h-1.25Z"/><path d="M431.59,496.58c0-1.58-.18-2.28-1.68-2.28h-1.59a9.49,9.49,0,0,1-1.77-.1l.27-1.42a19,19,0,0,0,2.22.06h1c2.33,0,2.78.56,2.78,3.3v5.41h-1.23Z"/><path d="M434.8,500.17c.39-.06,1.46-.06,2.43-.08h3.45v-2.86c0-1.77-.56-2.44-2.55-2.77-.72-.13-1.36-.23-1.78-.29a3.21,3.21,0,0,0-.44,1.31c0,.58.38,1,1.55,1.15l-.32,1.38c-1.78-.22-2.39-1.06-2.39-2.23a10.53,10.53,0,0,1,1.06-3.13c.26.06,1.14.21,2.48.4,2.4.32,3.63,1.09,3.62,3.87v3.27c0,.17-.16,1.13-.21,1.36h-5c-.8,0-1.81,0-2.18,0Z"/><path d="M444,494.28a4.3,4.3,0,0,1-.81-.1l.28-1.42a19,19,0,0,0,2.28.08h3.63c1.95,0,2.31,1,2.31,2.67,0,3.76-2.2,5.51-4.33,5.89a17.32,17.32,0,0,1-2.06.26C444.9,499.5,444.23,495.48,444,494.28Zm3.59,5.68c2-.4,2.83-2,2.83-4.1,0-1.05-.3-1.56-1.41-1.56h-3.73c.19,1.16.74,4.33,1,5.85A12.93,12.93,0,0,0,447.59,500Z"/><path d="M454.21,496.63c.22-1.6-.42-2.22-1.42-2.46l.28-1.49a2.46,2.46,0,0,1,2.2,2.26,3.28,3.28,0,0,1,3.1-2.24c2.5,0,3.11,2.28,3.11,5.37v2.05c0,.15-.18,1.2-.23,1.43H458.1c-.64,0-1.47,0-1.81,0l.27-1.42a16.25,16.25,0,0,1,2-.06h1.68c0-.68,0-1.33,0-2,0-2-.26-4-2.13-4s-2.4,1.76-2.64,2.85-.59,3-.88,4.55h-1.25C453.65,499.9,454,497.82,454.21,496.63Z"/><path d="M611.76,475.25a2.49,2.49,0,0,1,2.63-2.62,2.23,2.23,0,0,1,2.52,2.22c0,1.13-.47,1.76-1.81,3L612.89,480H617v.88h-5.41v-.75l2.79-2.78c.91-.94,1.52-1.54,1.52-2.46a1.38,1.38,0,0,0-1.47-1.45c-.86,0-1.6.5-1.6,1.79Z"/><path d="M621.39,472.63c1.78,0,2.94,1.39,2.94,4.23s-1.14,4.22-2.94,4.22-2.91-1.4-2.91-4.22S619.63,472.63,621.39,472.63Zm1.87,4.25c0-2.27-.7-3.42-1.87-3.42s-1.85,1.1-1.85,3.42.69,3.39,1.85,3.39S623.26,479.09,623.26,476.88Z"/><path d="M627.34,474.9h-1.62v-.71H626a1.66,1.66,0,0,0,1.2-.39,1.46,1.46,0,0,0,.36-1.08h.82v8.18h-1Z"/><path d="M632.77,477.22v-.91h.43a1.42,1.42,0,0,0,1.46-1.43,1.38,1.38,0,0,0-1.5-1.41,1.48,1.48,0,0,0-1.65,1.61h-1a2.41,2.41,0,0,1,2.64-2.45,2.23,2.23,0,0,1,2.49,2.19,2.06,2.06,0,0,1-1.35,1.85v0a2,2,0,0,1,1.58,2.05c0,1.25-1,2.33-2.77,2.33a2.47,2.47,0,0,1-2.73-2.45h1a1.72,1.72,0,0,0,1.82,1.61,1.55,1.55,0,0,0,1.69-1.49c0-1-.63-1.52-1.69-1.52Z"/><path d="M637.19,476.86h3.06v.89h-3.06Z"/><path d="M641.15,475.25a2.49,2.49,0,0,1,2.63-2.62,2.23,2.23,0,0,1,2.52,2.22c0,1.13-.46,1.76-1.81,3L642.28,480h4.07v.88h-5.41v-.75l2.79-2.78c.92-.94,1.52-1.54,1.52-2.46a1.38,1.38,0,0,0-1.47-1.45c-.86,0-1.6.5-1.6,1.79Z"/><path d="M650.79,472.63c1.78,0,2.93,1.39,2.93,4.23s-1.14,4.22-2.93,4.22-2.92-1.4-2.92-4.22S649,472.63,650.79,472.63Zm1.87,4.25c0-2.27-.71-3.42-1.87-3.42s-1.85,1.1-1.85,3.42.68,3.39,1.85,3.39S652.66,479.09,652.66,476.88Z"/><path d="M655.22,475.25a2.49,2.49,0,0,1,2.63-2.62,2.23,2.23,0,0,1,2.52,2.22c0,1.13-.46,1.76-1.81,3L656.35,480h4.07v.88H655v-.75l2.79-2.78c.92-.94,1.52-1.54,1.52-2.46a1.38,1.38,0,0,0-1.47-1.45c-.86,0-1.6.5-1.6,1.79Z"/><path d="M663.44,474.9h-1.63v-.71h.24a1.65,1.65,0,0,0,1.2-.39,1.46,1.46,0,0,0,.36-1.08h.83v8.18h-1Z"/><path d="M674.82,476.73c0-1.56-.14-2.17-1.46-2.17H671a8.44,8.44,0,0,1-1.61-.09l.24-1.24a17.22,17.22,0,0,0,1.93,0h1.92c2,0,2.44.58,2.44,2.88v4.74h-1.08Zm-5.17.17h1.1v4h-1.1Z"/><path d="M677.81,477.57a4.37,4.37,0,0,0,.89-2.14c0-.47-.27-.62-.91-.8a8.76,8.76,0,0,1-.86-.28l.24-1.23a8,8,0,0,0,.83.23c1.33.3,1.79.72,1.79,1.76a5.42,5.42,0,0,1-1.11,2.88Z"/><path d="M685.17,476.56c0-1.39-.16-2-1.48-2h-1.38a7.72,7.72,0,0,1-1.56-.09l.24-1.24a17.65,17.65,0,0,0,2,0h.87c2,0,2.43.49,2.43,2.89v4.73h-1.07Z"/><path d="M689.46,476.52c0-1.2-.14-1.64-1.23-1.9a9.09,9.09,0,0,1-1-.27l.23-1.23a5.32,5.32,0,0,0,1,.22c1.57.34,2.07.85,2.07,3v4.58h-1.09Z"/><path d="M692.37,474.54a3.67,3.67,0,0,1-.71-.08l.25-1.25a15.12,15.12,0,0,0,2,.07h3.18c1.71,0,2,.9,2,2.34,0,3.3-1.92,4.82-3.78,5.16a15.93,15.93,0,0,1-1.81.22C693.16,479.11,692.57,475.6,692.37,474.54Zm3.14,5c1.74-.35,2.48-1.8,2.48-3.59,0-.92-.27-1.37-1.23-1.37h-3.27c.17,1,.65,3.79.87,5.13A11.47,11.47,0,0,0,695.51,479.52Z"/></svg>