<svg id="Layer_1" data-name="Layer 1" xmlns="http://www.w3.org/2000/svg" viewBox="0 0 742.9 480.1"><title>average-age-of-civilian-casualties-per-harm-event-gaza-and-israel-may-2021-ar</title><path d="M194.76,449.63a2.54,2.54,0,0,1-2.78-2.79,3.68,3.68,0,0,1,.37-1.64,2.94,2.94,0,0,1,1-1.19,2.45,2.45,0,0,1,1.44-.44,2.4,2.4,0,0,1,1.39.45,3.07,3.07,0,0,1,1,1.22,3.62,3.62,0,0,1,.38,1.6,2.85,2.85,0,0,1-.71,2.08A2.9,2.9,0,0,1,194.76,449.63Zm-1.17-7.08a.72.72,0,0,1-.48-.17.69.69,0,0,1-.19-.55.69.69,0,0,1,1.16-.54.75.75,0,0,1,.18.54.72.72,0,0,1-.18.53A.63.63,0,0,1,193.59,442.55Zm1.2,6.16c1.14,0,1.71-.62,1.71-1.85a2.94,2.94,0,0,0-.45-1.73,1.5,1.5,0,0,0-1.28-.64,1.48,1.48,0,0,0-1.22.66,2.77,2.77,0,0,0-.49,1.71C193.06,448.09,193.63,448.71,194.79,448.71Zm.88-6.16a.65.65,0,0,1-.5-.19.72.72,0,0,1-.18-.53.77.77,0,0,1,.18-.54.67.67,0,0,1,.5-.18.61.61,0,0,1,.49.19.77.77,0,0,1,.18.53.73.73,0,0,1-.18.52A.62.62,0,0,1,195.67,442.55Z"/><path d="M201.25,449.51v.29a2.94,2.94,0,0,1-.55,1.9,1.92,1.92,0,0,1-1.59.69,2.6,2.6,0,0,1-1.22-.34l.31-.8a2.34,2.34,0,0,0,.48.17,2.48,2.48,0,0,0,.41,0,1,1,0,0,0,.84-.44,2,2,0,0,0,.31-1.16v-6.17h1v4.88h1.48s.07,0,.07.05v.83s0,.06-.07.06Zm-.33-7a.63.63,0,0,1-.49-.19.72.72,0,0,1-.18-.53.77.77,0,0,1,.18-.54.64.64,0,0,1,.49-.18.63.63,0,0,1,.5.19.77.77,0,0,1,.17.53.73.73,0,0,1-.17.52A.64.64,0,0,1,200.92,442.55Z"/><path d="M202.61,449.51s-.05,0-.05-.06v-.83a0,0,0,0,1,.05-.05h1.85a2.35,2.35,0,0,1-.62-.88,3.35,3.35,0,0,1-.23-1.25,2.66,2.66,0,0,1,2.85-2.87,4.16,4.16,0,0,1,1,.1,2.9,2.9,0,0,1,.71.25l-.32.9a3.56,3.56,0,0,0-1.4-.31q-1.71,0-1.71,2a2.59,2.59,0,0,0,.41,1.51,1.26,1.26,0,0,0,1.07.57h2.14v.94Zm3.53-7a.63.63,0,0,1-.49-.19.72.72,0,0,1-.18-.53.77.77,0,0,1,.18-.54.66.66,0,0,1,.49-.18.63.63,0,0,1,.5.19.77.77,0,0,1,.18.53.73.73,0,0,1-.18.52A.64.64,0,0,1,206.14,442.55Z"/><path d="M216.21,453.36a2.59,2.59,0,0,1-1.83-.61,2.17,2.17,0,0,1-.67-1.71,2.91,2.91,0,0,1,1.55-2.36,3,3,0,0,1-1.07-2.39,2.71,2.71,0,0,1,.38-1.44,2.57,2.57,0,0,1,1.06-1,3.43,3.43,0,0,1,1.52-.33,4.07,4.07,0,0,1,.95.1,3.16,3.16,0,0,1,.72.25l-.33.9a3.63,3.63,0,0,0-1.4-.31,1.83,1.83,0,0,0-1.34.46,1.75,1.75,0,0,0-.47,1.31,3.17,3.17,0,0,0,.2,1.14,2,2,0,0,0,.53.82,13.11,13.11,0,0,1,2.07-.82l.29.89a9.12,9.12,0,0,0-1.91.69,3.94,3.94,0,0,0-1.25.93,1.58,1.58,0,0,0-.41,1,1.35,1.35,0,0,0,.45,1.13,2.22,2.22,0,0,0,1.39.36,11.6,11.6,0,0,0,1.77-.19l.12.82c-.56.12-1,.2-1.34.24S216.53,453.36,216.21,453.36Z"/><path d="M220.56,440.39h1.06v8.18h1.58c.05,0,.07,0,.07.05v.83s0,.06-.07.06h-2.64Z"/><path d="M223.09,449.51a.05.05,0,0,1-.06-.06v-.83s0-.05.06-.05h1.46v-8.18h1v5.88a5.11,5.11,0,0,1,1.41-2,3,3,0,0,1,1.91-.68,2.68,2.68,0,0,1,2.06.74,3.29,3.29,0,0,1,.69,2.31v1.95h1.58c.05,0,.07,0,.07.05v.83s0,.06-.07.06Zm7.53-.94v-1.9a2.35,2.35,0,0,0-.48-1.63,1.89,1.89,0,0,0-1.46-.52q-1.85,0-3.11,3.07v1Z"/><path d="M233.11,449.51a.05.05,0,0,1-.06-.06v-.83s0-.05.06-.05h1.82a2.28,2.28,0,0,1-.46-.84,3,3,0,0,1-.16-1,2.93,2.93,0,0,1,.88-2.24,3.38,3.38,0,0,1,2.4-.83h1.58v5.82Zm5-.94v-3.95h-.52a2.35,2.35,0,0,0-1.66.56,2,2,0,0,0-.6,1.57c0,1.21.55,1.82,1.64,1.82Zm-2-6a.71.71,0,0,1-.47-.17.66.66,0,0,1-.2-.55.65.65,0,0,1,.2-.55.67.67,0,0,1,.47-.17.66.66,0,0,1,.49.18.75.75,0,0,1,.18.54.72.72,0,0,1-.18.53A.63.63,0,0,1,236.15,442.55Zm2.08,0a.63.63,0,0,1-.49-.19.69.69,0,0,1-.19-.53.77.77,0,0,1,.18-.54.68.68,0,0,1,.5-.18.65.65,0,0,1,.5.19.82.82,0,0,1,.17.53.77.77,0,0,1-.17.52A.65.65,0,0,1,238.23,442.55Z"/><path d="M16.5,253.41a2.63,2.63,0,0,1-.34,1.23l-.8-.31a2.65,2.65,0,0,0,.16-.48,1.84,1.84,0,0,0,0-.41,1,1,0,0,0-.44-.85,2,2,0,0,0-1.16-.3H7.8v-1h6.1a3,3,0,0,1,1.91.55A1.92,1.92,0,0,1,16.5,253.41Z"/><path d="M4.5,249.05V248h8.18v-1.58s0-.07.05-.07h.83s.06,0,.06.07v2.64Z"/><path d="M13.62,246.52a.05.05,0,0,1-.06.06h-.83s-.05,0-.05-.06V245a5.78,5.78,0,0,1-2,.45,4.2,4.2,0,0,1-1.91-.43,3.62,3.62,0,0,1-.59-1,3.43,3.43,0,0,1-.21-1.19,2.52,2.52,0,0,1,.33-1.31,2.22,2.22,0,0,1,.94-.88,3,3,0,0,1,1.38-.3,3.8,3.8,0,0,1,1.41.25,1.44,1.44,0,0,0,.55-.58,2,2,0,0,0,.15-.84v-.06s0-.06.05-.06h.83a.05.05,0,0,1,.06.06v.06a2.93,2.93,0,0,1-.18,1.09,2.62,2.62,0,0,1-.6.87,2.43,2.43,0,0,1,.59.89,3.1,3.1,0,0,1,.19,1.05Zm-3.2-2.12a5.77,5.77,0,0,0,1.1-.1,5.24,5.24,0,0,0,1.16-.36v-.85a1.47,1.47,0,0,0-.55-1.23,2.51,2.51,0,0,0-1.57-.42,1.8,1.8,0,0,0-1.24.41,1.27,1.27,0,0,0-.48,1,2.12,2.12,0,0,0,.14.75,2.52,2.52,0,0,0,.35.65,1.89,1.89,0,0,0,.52.13Z"/><path d="M13.62,239.25a.05.05,0,0,1-.06.06h-.83s-.05,0-.05-.06v-1.84a2.38,2.38,0,0,1-.89.61,3.11,3.11,0,0,1-1.24.23,2.82,2.82,0,0,1-2.12-.77,2.87,2.87,0,0,1-.75-2.08,4.07,4.07,0,0,1,.1-1,3.16,3.16,0,0,1,.25-.72l.89.32a3.83,3.83,0,0,0-.31,1.41c0,1.14.66,1.7,2,1.7a2.57,2.57,0,0,0,1.51-.4,1.24,1.24,0,0,0,.58-1.07v-2.14h.94Z"/><path d="M12.68,232.47v-2.69l-6.56,1.55v-1.11l6.56-1.55v-.33c0-.85-.46-1.27-1.39-1.27H4.5V226h6.93a2.09,2.09,0,0,1,1.59.61,2.18,2.18,0,0,1,.6,1.61v4.25Zm-8.13-.29-.08-.56a.86.86,0,0,1-.76.42,1,1,0,0,1-.8-.34,1.32,1.32,0,0,1-.28-.89,1.62,1.62,0,0,1,.18-.79l.54.18a1.11,1.11,0,0,0-.14.6.67.67,0,0,0,.14.45.58.58,0,0,0,.47.18.58.58,0,0,0,.35-.11.63.63,0,0,0,.21-.25c0-.08,0-.27-.09-.58a5.6,5.6,0,0,1-.06-.63h.59c0,.07,0,.21,0,.43s.07.63.15,1.22l.1.67Z"/><path d="M4.5,223.72v-1.06h9.12v1.06Z"/><path d="M12.68,217v-1.17H4.5v-1h5.88a4.85,4.85,0,0,1-2-1.41,2.92,2.92,0,0,1-.68-1.91,2.69,2.69,0,0,1,.73-2,3.32,3.32,0,0,1,2.31-.7h2v-1.58s0-.06.05-.06h.83a.05.05,0,0,1,.06.06V217Zm0-7.24h-1.9a2.33,2.33,0,0,0-1.63.48,1.89,1.89,0,0,0-.53,1.46,2.42,2.42,0,0,0,.77,1.7,6.84,6.84,0,0,0,2.31,1.41h1Z"/><path d="M13.62,199.47a2.64,2.64,0,0,1-.18,1,2.93,2.93,0,0,1-.66.95,1.87,1.87,0,0,1,.6.7,2.14,2.14,0,0,1,.24,1v4.13a.05.05,0,0,1-.06.06h-.83s-.05,0-.05-.06v-1.71H8.73v-1h3.95v-1.3a1.13,1.13,0,0,0-.38-.9,1.55,1.55,0,0,0-1-.32H8.73v-1h3a2,2,0,0,0,.72-.65,1.78,1.78,0,0,0,.21-.91v-.73H7.8v-1h5.82Z"/><path d="M13.9,191a2.5,2.5,0,0,1,1.91.72,2.86,2.86,0,0,1,.69,2,3.85,3.85,0,0,1-.62,2.16l-.8-.48a4.69,4.69,0,0,0,.34-.8,2.58,2.58,0,0,0,.14-.9,1.79,1.79,0,0,0-.43-1.28A1.54,1.54,0,0,0,14,192h-.34v1.18a2.68,2.68,0,0,1-.71,2,2.72,2.72,0,0,1-2,.7,2.93,2.93,0,0,1-2.25-.9,3.37,3.37,0,0,1-.83-2.39V191h4.88v-1s0-.06.05-.06h.83a.05.05,0,0,1,.06.06v1Zm-1.22,1H8.73v.51a2.33,2.33,0,0,0,.56,1.66,2.07,2.07,0,0,0,1.58.6,2,2,0,0,0,1.37-.41,1.6,1.6,0,0,0,.44-1.23Z"/><path d="M13.62,190.12a.05.05,0,0,1-.06.06h-.83s-.05,0-.05-.06v-2H7.8v-1.06h4.88v-1.8s0-.06.05-.06h.83a.05.05,0,0,1,.06.06Zm-7-1.43a.72.72,0,0,1-.17.48.71.71,0,0,1-.55.19.72.72,0,0,1-.56-.19.72.72,0,0,1-.17-.48.68.68,0,0,1,.19-.49.73.73,0,0,1,.54-.18.74.74,0,0,1,.53.18A.66.66,0,0,1,6.66,188.69Zm0-2.07a.68.68,0,0,1-.19.49.74.74,0,0,1-.53.18.77.77,0,0,1-.54-.18.66.66,0,0,1-.19-.49.64.64,0,0,1,.2-.5.76.76,0,0,1,.53-.18.75.75,0,0,1,.52.18A.64.64,0,0,1,6.66,186.62Z"/><path d="M13.62,185.43a.05.05,0,0,1-.06.06h-.83s-.05,0-.05-.06v-1.49a5.74,5.74,0,0,1-2,.44A4.07,4.07,0,0,1,8.72,184a3.49,3.49,0,0,1-.59-1,3.37,3.37,0,0,1-.21-1.18,2.59,2.59,0,0,1,.33-1.32,2.14,2.14,0,0,1,.94-.87,2.92,2.92,0,0,1,1.38-.31,3.59,3.59,0,0,1,1.63.35,2.39,2.39,0,0,1,1.05,1,2.72,2.72,0,0,1,.37,1.43Zm-3.2-2.12a6.72,6.72,0,0,0,1.1-.1,6.57,6.57,0,0,0,1.16-.36V182a1.44,1.44,0,0,0-.55-1.23,2.45,2.45,0,0,0-1.57-.43,1.85,1.85,0,0,0-1.24.41,1.29,1.29,0,0,0-.48,1,2.21,2.21,0,0,0,.14.75,2.69,2.69,0,0,0,.35.65,1.58,1.58,0,0,0,.52.12A4.91,4.91,0,0,0,10.42,183.31Z"/><path d="M360.73,471.43a2.57,2.57,0,0,1-1.92-.73,2.75,2.75,0,0,1-.7-2,6.35,6.35,0,0,1,.1-1.07,5.36,5.36,0,0,1,.25-1h1.12a9.78,9.78,0,0,0-.21,2,2,2,0,0,0,.36,1.25,1.16,1.16,0,0,0,1,.47h5v-5.69h1.19v6.79Zm.56-6.8a.79.79,0,0,1-.56-.2.8.8,0,0,1-.23-.64.82.82,0,0,1,.23-.64.83.83,0,0,1,.56-.2.75.75,0,0,1,.57.22,1,1,0,0,1,0,1.24A.74.74,0,0,1,361.29,464.63Zm2.42,0a.78.78,0,0,1-.58-.22.85.85,0,0,1-.21-.62.86.86,0,0,1,.21-.62.86.86,0,0,1,1.16,0,.86.86,0,0,1,.2.61.85.85,0,0,1-.2.61A.72.72,0,0,1,363.71,464.63Z"/><path d="M369.49,460.79h1.25v9.54h1.84c.05,0,.08,0,.08.06v1a.07.07,0,0,1-.08.07h-3.09Z"/><path d="M372.44,471.43s-.06,0-.06-.07v-1a.05.05,0,0,1,.06-.06h1.74a6.71,6.71,0,0,1-.52-2.39,4.76,4.76,0,0,1,.51-2.23,4.23,4.23,0,0,1,1.17-.68,3.87,3.87,0,0,1,1.38-.25,3.06,3.06,0,0,1,1.54.38,2.65,2.65,0,0,1,1,1.1,3.5,3.5,0,0,1,.36,1.61,4.4,4.4,0,0,1-.3,1.65,1.75,1.75,0,0,0,.67.64,2.48,2.48,0,0,0,1,.17h.06c.05,0,.08,0,.08.06v1a.07.07,0,0,1-.08.07H381a3.5,3.5,0,0,1-1.28-.21,2.89,2.89,0,0,1-1-.7,2.75,2.75,0,0,1-1,.69,3.72,3.72,0,0,1-1.24.22Zm2.48-3.73A6.85,6.85,0,0,0,375,469a6.38,6.38,0,0,0,.41,1.35h1a1.72,1.72,0,0,0,1.44-.63,3,3,0,0,0,.5-1.84,2.12,2.12,0,0,0-.48-1.44,1.49,1.49,0,0,0-1.18-.56,2.65,2.65,0,0,0-.87.15,3.1,3.1,0,0,0-.76.42,1.87,1.87,0,0,0-.14.6C374.93,467.23,374.92,467.46,374.92,467.7Z"/><path d="M380.93,471.43a.06.06,0,0,1-.07-.07v-1s0-.06.07-.06h2.27v-5.69h1.24v5.69h2.1s.07,0,.07.06v1a.06.06,0,0,1-.07.07Zm1.72,2.8a.85.85,0,0,1-.56-.2,1,1,0,0,1,0-1.28.85.85,0,0,1,.56-.2.77.77,0,0,1,.57.21.89.89,0,0,1,.21.63.85.85,0,0,1-.21.62A.74.74,0,0,1,382.65,474.23Zm2.42,0a.74.74,0,0,1-.57-.22.81.81,0,0,1-.22-.62.85.85,0,0,1,.21-.62.75.75,0,0,1,.58-.22.72.72,0,0,1,.58.23.85.85,0,0,1,.21.61.87.87,0,0,1-.21.61A.75.75,0,0,1,385.07,474.23Z"/><path d="M386.4,471.43a.07.07,0,0,1-.07-.07v-1s0-.06.07-.06h2.27v-5.69h1.25v5.69H392a.05.05,0,0,1,.06.06v1s0,.07-.06.07Zm1.73,2.8a.83.83,0,0,1-.56-.2,1,1,0,0,1,0-1.28.83.83,0,0,1,.56-.2.76.76,0,0,1,.56.21.89.89,0,0,1,.22.63.85.85,0,0,1-.21.62A.74.74,0,0,1,388.13,474.23Zm2.42,0A.75.75,0,0,1,390,474a1,1,0,0,1,0-1.24.75.75,0,0,1,.58-.22.72.72,0,0,1,.58.23.9.9,0,0,1,.2.61.91.91,0,0,1-.2.61A.75.75,0,0,1,390.55,474.23Z"/><path d="M391.88,471.43a.06.06,0,0,1-.07-.07v-1s0-.06.07-.06H394a2.94,2.94,0,0,1-.54-1,3.87,3.87,0,0,1-.18-1.14,3.35,3.35,0,0,1,1-2.62,4,4,0,0,1,2.8-1H399v5.69h1.48a.05.05,0,0,1,.06,0v1s0,.06-.07.06Zm5.88-1.1v-4.6h-.6a2.71,2.71,0,0,0-2,.66,2.41,2.41,0,0,0-.69,1.83c0,1.41.64,2.11,1.92,2.11Zm-2.33-7a.81.81,0,0,1-.55-.2.78.78,0,0,1-.23-.64.75.75,0,0,1,.78-.85.78.78,0,0,1,.57.22.86.86,0,0,1,.21.63.88.88,0,0,1-.21.62A.76.76,0,0,1,395.43,463.31Zm2.42,0a.78.78,0,0,1-.57-.22.88.88,0,0,1-.21-.62.89.89,0,0,1,.21-.63.78.78,0,0,1,.57-.22.74.74,0,0,1,.58.23,1,1,0,0,1,0,1.23A.74.74,0,0,1,397.85,463.31Z"/><path d="M400.29,471.43s-.06,0-.06-.07v-1a.05.05,0,0,1,.06-.06h2.27v-5.69h1.25v5.69h2.1a.05.05,0,0,1,.06.06v1s0,.07-.06.07Zm1.67-8.12a.81.81,0,0,1-.55-.2.78.78,0,0,1-.23-.64.75.75,0,0,1,.78-.85.78.78,0,0,1,.57.22.86.86,0,0,1,.21.63.88.88,0,0,1-.21.62A.78.78,0,0,1,402,463.31Zm2.42,0a.78.78,0,0,1-.57-.22.88.88,0,0,1-.21-.62.93.93,0,0,1,.2-.63.8.8,0,0,1,.58-.22.74.74,0,0,1,.58.23,1,1,0,0,1,0,1.23A.74.74,0,0,1,404.38,463.31Z"/><path d="M405.77,471.43a.06.06,0,0,1-.07-.07v-1s0-.06.07-.06h1.85v-9.54h1.24v10.64Z"/><path d="M411.66,460.79h1.25v10.64h-1.25Z"/><path d="M419.69,470.33h4.67a8.87,8.87,0,0,0-1.05-3.2,7.13,7.13,0,0,0-2.2-2.29l.45-1a6.68,6.68,0,0,1,2.63,2.49,10.67,10.67,0,0,1,1.37,4.08v1.07h-5.87Z"/><path d="M426.82,470.33h4.66a8.68,8.68,0,0,0-1.05-3.2,7.13,7.13,0,0,0-2.2-2.29l.45-1a6.64,6.64,0,0,1,2.63,2.5,10.53,10.53,0,0,1,1.36,4h1.56s.07,0,.07.06v1a.07.07,0,0,1-.07.07h-7.41Z"/><path d="M434.08,471.43s-.06,0-.06-.07v-1a.05.05,0,0,1,.06-.06h2.16a2.57,2.57,0,0,1-.72-1,3.78,3.78,0,0,1-.27-1.45,3.08,3.08,0,0,1,3.33-3.35,4.84,4.84,0,0,1,1.11.12,3.32,3.32,0,0,1,.83.29l-.37,1a4.31,4.31,0,0,0-1.64-.36c-1.33,0-2,.77-2,2.31a3,3,0,0,0,.47,1.76,1.47,1.47,0,0,0,1.25.67h2.5v1.1Z"/><path d="M574.51,449.51a3,3,0,0,1-.74,2.15,3,3,0,0,1-2.25.73h-.86a2.11,2.11,0,0,1-1.76-.82,3.48,3.48,0,0,1-.65-2.25,8.61,8.61,0,0,1,.13-1.5,5.69,5.69,0,0,1,.36-1.33h1a7.73,7.73,0,0,0-.41,2.83,2.58,2.58,0,0,0,.41,1.58,1.34,1.34,0,0,0,1.15.56h.59A2.13,2.13,0,0,0,573,451a1.91,1.91,0,0,0,.48-1.43v-9.16h1v8.18h1.32s.06,0,.06.05v.83a.05.05,0,0,1-.06.06Z"/><path d="M575.71,449.51a.05.05,0,0,1-.06-.06v-.83s0-.05.06-.05h1.95v-4.88h1.06v4.88h1.8s.06,0,.06.05v.83a.05.05,0,0,1-.06.06Zm1.48,2.4a.63.63,0,0,1-.67-.72.69.69,0,0,1,.19-.55.72.72,0,0,1,.48-.17.66.66,0,0,1,.49.19.72.72,0,0,1,.18.53.77.77,0,0,1-.18.54A.66.66,0,0,1,577.19,451.91Zm2.07,0a.67.67,0,0,1-.49-.18.77.77,0,0,1-.18-.54.72.72,0,0,1,.18-.53.63.63,0,0,1,.49-.19.64.64,0,0,1,.5.2.73.73,0,0,1,.18.52.76.76,0,0,1-.18.53A.63.63,0,0,1,579.26,451.91Z"/><path d="M580.41,449.51a.05.05,0,0,1-.06-.06v-.83s0-.05.06-.05h2.3v-4.88h1.07v5.82Zm1.47-7.47.57-.08a.86.86,0,0,1-.43-.76,1,1,0,0,1,.34-.8,1.32,1.32,0,0,1,.89-.28,1.62,1.62,0,0,1,.79.18l-.18.54a1.11,1.11,0,0,0-.6-.15.7.7,0,0,0-.45.15.58.58,0,0,0-.18.47.61.61,0,0,0,.11.35.67.67,0,0,0,.26.21l.57-.09a5.81,5.81,0,0,1,.63-.06v.58l-.43,0-1.22.15-.67.1Z"/><path d="M586.15,440.39h1.07v9.12h-1.07Z"/><path d="M591.3,449.51v.29a2.94,2.94,0,0,1-.55,1.9,1.89,1.89,0,0,1-1.58.69,2.63,2.63,0,0,1-1.23-.34l.31-.8a2.84,2.84,0,0,0,.48.17,2.59,2.59,0,0,0,.41,0A1,1,0,0,0,590,451a2,2,0,0,0,.3-1.16v-6.17h1v4.88h1.49s.06,0,.06.05v.83a.05.05,0,0,1-.06.06Z"/><path d="M600.49,449.51a2.64,2.64,0,0,1-1-.18,2.9,2.9,0,0,1-.94-.66,2.08,2.08,0,0,1-.7.61,2.32,2.32,0,0,1-1.05.23h-4.14a.05.05,0,0,1-.06-.06v-.83s0-.05.06-.05h1.72v-3.95h1v3.95h1.29a1.08,1.08,0,0,0,.9-.38,1.5,1.5,0,0,0,.33-1v-2.56h1v2.89l0,.13a1.91,1.91,0,0,0,.66.73,1.82,1.82,0,0,0,.9.2h.73v-4.88h1v5.82Z"/><path d="M603.87,452.12l.57-.08a.93.93,0,0,1-.29-.3.77.77,0,0,1-.13-.45,1,1,0,0,1,.32-.79,1.28,1.28,0,0,1,.9-.29,1.63,1.63,0,0,1,.8.18l-.19.54a1.1,1.1,0,0,0-.59-.15.68.68,0,0,0-.45.15.58.58,0,0,0-.18.47.59.59,0,0,0,.36.56l.6-.09a5.06,5.06,0,0,1,.6-.07v.59c-.18,0-.56,0-1.14.11l-1.18.18Zm.59-11.73h1.07v9.12h-1.07Z"/><g style="isolation:isolate"><path d="M38.44,431.28c1,.57,1.36,1,1.36,1.08a4,4,0,0,1-.65,1.13,9.92,9.92,0,0,0-1.43-1C38,432.07,38.21,431.65,38.44,431.28Z"/></g><g style="isolation:isolate"><path d="M29.66,381.34l.1,0a12.49,12.49,0,0,0,1.06,1.32l-.36.38a12.08,12.08,0,0,1,1,4,2.8,2.8,0,0,1-.59,1.31l-.12-.07a2.52,2.52,0,0,0,.05-.57,15.06,15.06,0,0,0-1.75-5.56C29.28,381.9,29.47,381.6,29.66,381.34Z"/><path d="M35.51,384.09c1,.57,1.35,1,1.35,1.08a3.83,3.83,0,0,1-.64,1.13,10.58,10.58,0,0,0-1.44-1C35,384.88,35.27,384.46,35.51,384.09Z"/></g><g style="isolation:isolate"><path d="M30,336.54a9.28,9.28,0,0,1,.63,3.14c0,.38,0,.63-.63,1.53l-.12-.08a3.71,3.71,0,0,0,.1-.9,15.44,15.44,0,0,0-1.51-5.29,6.5,6.5,0,0,1,.47-.77H29a4.35,4.35,0,0,0,.49,1,1.9,1.9,0,0,0,1.4.52c.5,0,1.18-.27,1.31-1.51a1.89,1.89,0,0,1,.31.1c0,.11,0,.22,0,.32,0,1.25-.57,2.06-1.71,2.06a3.22,3.22,0,0,1-.87-.13Z"/><path d="M35.51,336.9c1,.57,1.35,1,1.35,1.08a3.83,3.83,0,0,1-.64,1.13,10.58,10.58,0,0,0-1.44-1C35,337.69,35.27,337.27,35.51,336.9Z"/></g><g style="isolation:isolate"><path d="M29.58,289.28a9.4,9.4,0,0,1,.65,3.2c0,.43,0,.61-.65,1.48l-.13-.07a2.31,2.31,0,0,0,.13-.86,15.93,15.93,0,0,0-1.49-5.29,6.47,6.47,0,0,1,.48-.77h.12a4,4,0,0,0,.5,1,1.49,1.49,0,0,0,1,.44c.42,0,.67-.2.67-.89a2.48,2.48,0,0,0,0-.45l.31-.11c.18.82.42,1.1.76,1.1s.58-.23.58-.78c0-.09,0-.19,0-.3a1.43,1.43,0,0,1,.35.06,3.28,3.28,0,0,1,.06.59c0,.89-.43,1.41-1,1.41a1.14,1.14,0,0,1-.72-.28h0a1,1,0,0,1-1,.64,1.27,1.27,0,0,1-.56-.13Z"/><path d="M35.51,289.7c1,.57,1.35.95,1.35,1.08a3.83,3.83,0,0,1-.64,1.13,10.58,10.58,0,0,0-1.44-1C35,290.49,35.27,290.07,35.51,289.7Z"/></g><g style="isolation:isolate"><path d="M31.3,239.76a9.08,9.08,0,0,0-.39,1c-1,.47-1.71.93-1.71,1.1s.74.79,2,.79a5,5,0,0,0,.54,0,5,5,0,0,1-.32.79c-.94.44-1.8,1.08-1.8,1.45s.54.77,1.47.77a3.6,3.6,0,0,0,1.51-.32l.06.05a5.9,5.9,0,0,1-.67,1,3.25,3.25,0,0,1-1.25.21,1.47,1.47,0,0,1-1.67-1.46,2.2,2.2,0,0,1,.94-1.69c-.85-.08-1.41-.49-1.41-1.11a1.93,1.93,0,0,1,.49-1.27,7.69,7.69,0,0,1,2.11-1.36Z"/><path d="M35.51,242.51c1,.57,1.35,1,1.35,1.08a3.83,3.83,0,0,1-.64,1.13,10.58,10.58,0,0,0-1.44-1C35,243.3,35.27,242.88,35.51,242.51Z"/></g><g style="isolation:isolate"><path d="M30.6,193.13c1.17,0,1.94,1.87,1.94,3.09a4.49,4.49,0,0,1-.24,1.62,2.53,2.53,0,0,1-2,1.16c-.84,0-1.91-.55-1.92-2.33C28.38,194.72,29.44,193.13,30.6,193.13Zm1.52,3.63c0-.42-.54-2.54-1.67-2.54-.81,0-1.6,1.31-1.6,2.2a1.66,1.66,0,0,0,1.59,1.51A1.86,1.86,0,0,0,32.12,196.76Z"/><path d="M35.51,195.32c1,.57,1.35,1,1.35,1.08a3.83,3.83,0,0,1-.64,1.13,10.58,10.58,0,0,0-1.44-1C35,196.11,35.27,195.69,35.51,195.32Z"/></g><g style="isolation:isolate"><path d="M31.64,145.86a11.84,11.84,0,0,0-.1,1.51,9.44,9.44,0,0,0,1,4.21c-.21.28-.49.55-.74.84a10.2,10.2,0,0,1-.89-3.89,12.37,12.37,0,0,1,.17-1.68l-1.54.05c-1.3,0-1.28-.47-1.29-1.5h.25c.22.42.61.53,1.4.53.47,0,1,0,1.73-.1Z"/><path d="M35.51,148.12c1,.57,1.35.95,1.35,1.08a3.83,3.83,0,0,1-.64,1.13,10.58,10.58,0,0,0-1.44-1C35,148.91,35.27,148.49,35.51,148.12Z"/></g><g style="isolation:isolate"><path d="M30.71,103.52a54.1,54.1,0,0,1,1.72-5.31h.06a9.4,9.4,0,0,1,.45.9A30.09,30.09,0,0,0,31,104.58l-.52.54h-.06A25.18,25.18,0,0,0,28,99c.19-.25.38-.49.58-.77h.08a20.27,20.27,0,0,1,2,5.31Z"/><path d="M35.51,100.93c1,.57,1.35.95,1.35,1.08a3.83,3.83,0,0,1-.64,1.13,10.58,10.58,0,0,0-1.44-1C35,101.72,35.27,101.3,35.51,100.93Z"/></g><g style="isolation:isolate"><path d="M30.25,52.64c-.34,1.27-1.16,3.82-1.75,5.29h-.07c-.19-.38-.31-.59-.44-.9a27.58,27.58,0,0,0,1.92-5.41,8.47,8.47,0,0,1,.61-.6h.07a22.85,22.85,0,0,0,2.35,6.13c-.2.25-.38.49-.58.78h-.09a20.63,20.63,0,0,1-2-5.29Z"/><path d="M35.51,53.74c1,.57,1.35.95,1.35,1.08A3.83,3.83,0,0,1,36.22,56a10.58,10.58,0,0,0-1.44-1C35,54.53,35.27,54.11,35.51,53.74Z"/></g><g style="isolation:isolate"><path d="M31.73,10.77a7.73,7.73,0,0,1-1-3.18,3,3,0,0,1,0-.52,5.31,5.31,0,0,1-.68,0c-1,0-1.7-.43-1.7-1.44a2,2,0,0,1,1.65-1.87c.59,0,1.23.58,1.23,2.52a6.78,6.78,0,0,0,1.12,3.6l-.62.86Zm-2-6a.83.83,0,0,0-.83.6c0,.51.87.79,1.56.79h.29C30.65,5,30,4.78,29.76,4.78Z"/><path d="M35.51,6.54c1,.57,1.35,1,1.35,1.08a3.83,3.83,0,0,1-.64,1.13,10.58,10.58,0,0,0-1.44-1C35,7.33,35.27,6.91,35.51,6.54Z"/></g><line x1="49.6" y1="429.3" x2="49.6" y2="4.6" style="fill:none;stroke:#000;stroke-miterlimit:10"/><line x1="49.6" y1="429.3" x2="742.9" y2="429.3" style="fill:none;stroke:#000;stroke-miterlimit:10"/><line x1="49.6" y1="382.1" x2="58.1" y2="382.1" style="fill:none;stroke:#000;stroke-miterlimit:10"/><line x1="49.6" y1="334.9" x2="58.1" y2="334.9" style="fill:none;stroke:#000;stroke-miterlimit:10"/><line x1="49.6" y1="287.7" x2="58.1" y2="287.7" style="fill:none;stroke:#000;stroke-miterlimit:10"/><line x1="49.6" y1="240.5" x2="58.1" y2="240.5" style="fill:none;stroke:#000;stroke-miterlimit:10"/><line x1="49.6" y1="193.4" x2="58.1" y2="193.4" style="fill:none;stroke:#000;stroke-miterlimit:10"/><line x1="49.6" y1="146.2" x2="58.1" y2="146.2" style="fill:none;stroke:#000;stroke-miterlimit:10"/><line x1="49.6" y1="99" x2="58.1" y2="99" style="fill:none;stroke:#000;stroke-miterlimit:10"/><line x1="49.6" y1="51.8" x2="58.1" y2="51.8" style="fill:none;stroke:#000;stroke-miterlimit:10"/><line x1="49.6" y1="4.6" x2="58.1" y2="4.6" style="fill:none;stroke:#000;stroke-miterlimit:10"/><circle cx="54.5" cy="382.1" r="3.3" style="fill:#5a8bba"/><circle cx="54.5" cy="382.1" r="3.3" style="fill:none;stroke:#5a8bba;stroke-linecap:round;stroke-linejoin:round;stroke-width:3px"/><circle cx="64.2" cy="259.4" r="3.3" transform="translate(-197.19 314.93) rotate(-88.09)" style="fill:#5a8bba"/><circle cx="64.2" cy="259.4" r="3.3" transform="translate(-197.19 314.93) rotate(-88.09)" style="fill:none;stroke:#5a8bba;stroke-linecap:round;stroke-linejoin:round;stroke-width:3px"/><circle cx="74" cy="386.8" r="3.3" style="fill:#5a8bba"/><circle cx="74" cy="386.8" r="3.3" style="fill:none;stroke:#5a8bba;stroke-linecap:round;stroke-linejoin:round;stroke-width:3px"/><circle cx="83.8" cy="264.1" r="3.3" style="fill:#5a8bba"/><circle cx="83.8" cy="264.1" r="3.3" style="fill:none;stroke:#5a8bba;stroke-linecap:round;stroke-linejoin:round;stroke-width:3px"/><circle cx="93.5" cy="221.7" r="3.3" style="fill:#5a8bba"/><circle cx="93.5" cy="221.7" r="3.3" style="fill:none;stroke:#5a8bba;stroke-linecap:round;stroke-linejoin:round;stroke-width:3px"/><circle cx="103.3" cy="334.9" r="3.3" style="fill:#5a8bba"/><circle cx="103.3" cy="334.9" r="3.3" style="fill:none;stroke:#5a8bba;stroke-linecap:round;stroke-linejoin:round;stroke-width:3px"/><circle cx="113.1" cy="198.1" r="3.3" style="fill:#5a8bba"/><circle cx="113.1" cy="198.1" r="3.3" style="fill:none;stroke:#5a8bba;stroke-linecap:round;stroke-linejoin:round;stroke-width:3px"/><circle cx="122.8" cy="353.8" r="3.3" style="fill:#5a8bba"/><circle cx="122.8" cy="353.8" r="3.3" style="fill:none;stroke:#5a8bba;stroke-linecap:round;stroke-linejoin:round;stroke-width:3px"/><circle cx="132.6" cy="245.3" r="3.3" style="fill:#5a8bba"/><circle cx="132.6" cy="245.3" r="3.3" style="fill:none;stroke:#5a8bba;stroke-linecap:round;stroke-linejoin:round;stroke-width:3px"/><circle cx="142.4" cy="254.7" r="3.3" style="fill:#5a8bba"/><circle cx="142.4" cy="254.7" r="3.3" style="fill:none;stroke:#5a8bba;stroke-linecap:round;stroke-linejoin:round;stroke-width:3px"/><circle cx="152.1" cy="372.7" r="3.3" style="fill:#5a8bba"/><circle cx="152.1" cy="372.7" r="3.3" style="fill:none;stroke:#5a8bba;stroke-linecap:round;stroke-linejoin:round;stroke-width:3px"/><circle cx="161.9" cy="283" r="3.3" style="fill:#5a8bba"/><circle cx="161.9" cy="283" r="3.3" style="fill:none;stroke:#5a8bba;stroke-linecap:round;stroke-linejoin:round;stroke-width:3px"/><circle cx="171.6" cy="358.5" r="3.3" style="fill:#5a8bba"/><circle cx="171.6" cy="358.5" r="3.3" style="fill:none;stroke:#5a8bba;stroke-linecap:round;stroke-linejoin:round;stroke-width:3px"/><circle cx="181.4" cy="283" r="3.3" style="fill:#5a8bba"/><circle cx="181.4" cy="283" r="3.3" style="fill:none;stroke:#5a8bba;stroke-linecap:round;stroke-linejoin:round;stroke-width:3px"/><circle cx="191.2" cy="292.5" r="3.3" style="fill:#5a8bba"/><circle cx="191.2" cy="292.5" r="3.3" style="fill:none;stroke:#5a8bba;stroke-linecap:round;stroke-linejoin:round;stroke-width:3px"/><circle cx="200.9" cy="287.7" r="3.3" style="fill:#5a8bba"/><circle cx="200.9" cy="287.7" r="3.3" style="fill:none;stroke:#5a8bba;stroke-linecap:round;stroke-linejoin:round;stroke-width:3px"/><circle cx="210.7" cy="358.5" r="3.3" style="fill:#5a8bba"/><circle cx="210.7" cy="358.5" r="3.3" style="fill:none;stroke:#5a8bba;stroke-linecap:round;stroke-linejoin:round;stroke-width:3px"/><circle cx="220.5" cy="320.8" r="3.3" style="fill:#5a8bba"/><circle cx="220.5" cy="320.8" r="3.3" style="fill:none;stroke:#5a8bba;stroke-linecap:round;stroke-linejoin:round;stroke-width:3px"/><circle cx="230.2" cy="344.4" r="3.3" style="fill:#5a8bba"/><circle cx="230.2" cy="344.4" r="3.3" style="fill:none;stroke:#5a8bba;stroke-linecap:round;stroke-linejoin:round;stroke-width:3px"/><circle cx="240" cy="297.2" r="3.3" style="fill:#5a8bba"/><circle cx="240" cy="297.2" r="3.3" style="fill:none;stroke:#5a8bba;stroke-linecap:round;stroke-linejoin:round;stroke-width:3px"/><circle cx="249.8" cy="132" r="3.3" style="fill:#5a8bba"/><circle cx="249.8" cy="132" r="3.3" style="fill:none;stroke:#5a8bba;stroke-linecap:round;stroke-linejoin:round;stroke-width:3px"/><circle cx="259.5" cy="240.5" r="3.3" style="fill:#5a8bba"/><circle cx="259.5" cy="240.5" r="3.3" style="fill:none;stroke:#5a8bba;stroke-linecap:round;stroke-linejoin:round;stroke-width:3px"/><circle cx="269.3" cy="372.7" r="3.3" style="fill:#5a8bba"/><circle cx="269.3" cy="372.7" r="3.3" style="fill:none;stroke:#5a8bba;stroke-linecap:round;stroke-linejoin:round;stroke-width:3px"/><circle cx="279.1" cy="316.1" r="3.3" style="fill:#5a8bba"/><circle cx="279.1" cy="316.1" r="3.3" style="fill:none;stroke:#5a8bba;stroke-linecap:round;stroke-linejoin:round;stroke-width:3px"/><circle cx="288.8" cy="250" r="3.3" style="fill:#5a8bba"/><circle cx="288.8" cy="250" r="3.3" style="fill:none;stroke:#5a8bba;stroke-linecap:round;stroke-linejoin:round;stroke-width:3px"/><circle cx="298.6" cy="292.5" r="3.3" style="fill:#5a8bba"/><circle cx="298.6" cy="292.5" r="3.3" style="fill:none;stroke:#5a8bba;stroke-linecap:round;stroke-linejoin:round;stroke-width:3px"/><circle cx="308.4" cy="368" r="3.3" style="fill:#5a8bba"/><circle cx="308.4" cy="368" r="3.3" style="fill:none;stroke:#5a8bba;stroke-linecap:round;stroke-linejoin:round;stroke-width:3px"/><circle cx="318.1" cy="358.5" r="3.3" style="fill:#5a8bba"/><circle cx="318.1" cy="358.5" r="3.3" style="fill:none;stroke:#5a8bba;stroke-linecap:round;stroke-linejoin:round;stroke-width:3px"/><circle cx="327.9" cy="278.3" r="3.3" style="fill:#5a8bba"/><circle cx="327.9" cy="278.3" r="3.3" style="fill:none;stroke:#5a8bba;stroke-linecap:round;stroke-linejoin:round;stroke-width:3px"/><circle cx="337.6" cy="353.8" r="3.3" style="fill:#5a8bba"/><circle cx="337.6" cy="353.8" r="3.3" style="fill:none;stroke:#5a8bba;stroke-linecap:round;stroke-linejoin:round;stroke-width:3px"/><circle cx="347.4" cy="278.3" r="3.3" style="fill:#5a8bba"/><circle cx="347.4" cy="278.3" r="3.3" style="fill:none;stroke:#5a8bba;stroke-linecap:round;stroke-linejoin:round;stroke-width:3px"/><circle cx="357.2" cy="339.7" r="3.3" style="fill:#5a8bba"/><circle cx="357.2" cy="339.7" r="3.3" style="fill:none;stroke:#5a8bba;stroke-linecap:round;stroke-linejoin:round;stroke-width:3px"/><circle cx="366.9" cy="320.8" r="3.3" style="fill:#5a8bba"/><circle cx="366.9" cy="320.8" r="3.3" style="fill:none;stroke:#5a8bba;stroke-linecap:round;stroke-linejoin:round;stroke-width:3px"/><circle cx="376.7" cy="372.7" r="3.3" style="fill:#5a8bba"/><circle cx="376.7" cy="372.7" r="3.3" style="fill:none;stroke:#5a8bba;stroke-linecap:round;stroke-linejoin:round;stroke-width:3px"/><circle cx="386.5" cy="268.9" r="3.3" style="fill:#5a8bba"/><circle cx="386.5" cy="268.9" r="3.3" style="fill:none;stroke:#5a8bba;stroke-linecap:round;stroke-linejoin:round;stroke-width:3px"/><line x1="398.2" y1="429.3" x2="398.2" y2="4.6" style="fill:none;stroke:#000;stroke-miterlimit:10"/><circle cx="407.2" cy="278.3" r="3.3" style="fill:#e84e0f"/><circle cx="407.2" cy="278.3" r="3.3" style="fill:none;stroke:#e84e0f;stroke-miterlimit:10;stroke-width:3px"/><circle cx="425.2" cy="179.2" r="3.3" style="fill:#e84e0f"/><circle cx="425.2" cy="179.2" r="3.3" style="fill:none;stroke:#e84e0f;stroke-miterlimit:10;stroke-width:3px"/><circle cx="443.2" cy="278.3" r="3.3" style="fill:#e84e0f"/><circle cx="443.2" cy="278.3" r="3.3" style="fill:none;stroke:#e84e0f;stroke-miterlimit:10;stroke-width:3px"/><circle cx="461.2" cy="84.8" r="3.3" style="fill:#e84e0f"/><circle cx="461.2" cy="84.8" r="3.3" style="fill:none;stroke:#e84e0f;stroke-miterlimit:10;stroke-width:3px"/><circle cx="479.2" cy="169.8" r="3.3" style="fill:#e84e0f"/><circle cx="479.2" cy="169.8" r="3.3" style="fill:none;stroke:#e84e0f;stroke-miterlimit:10;stroke-width:3px"/><circle cx="497.2" cy="132" r="3.3" style="fill:#e84e0f"/><circle cx="497.2" cy="132" r="3.3" style="fill:none;stroke:#e84e0f;stroke-miterlimit:10;stroke-width:3px"/><circle cx="515.2" cy="32.9" r="3.3" style="fill:#e84e0f"/><circle cx="515.2" cy="32.9" r="3.3" style="fill:none;stroke:#e84e0f;stroke-miterlimit:10;stroke-width:3px"/><circle cx="533.1" cy="193.4" r="3.3" style="fill:#e84e0f"/><circle cx="533.1" cy="193.4" r="3.3" style="fill:none;stroke:#e84e0f;stroke-miterlimit:10;stroke-width:3px"/><circle cx="551.1" cy="401" r="3.3" style="fill:#e84e0f"/><circle cx="551.1" cy="401" r="3.3" style="fill:none;stroke:#e84e0f;stroke-miterlimit:10;stroke-width:3px"/><circle cx="569.1" cy="268.9" r="3.3" style="fill:#e84e0f"/><circle cx="569.1" cy="268.9" r="3.3" style="fill:none;stroke:#e84e0f;stroke-miterlimit:10;stroke-width:3px"/><circle cx="587.1" cy="240.5" r="3.3" style="fill:#e84e0f"/><circle cx="587.1" cy="240.5" r="3.3" style="fill:none;stroke:#e84e0f;stroke-miterlimit:10;stroke-width:3px"/><circle cx="605.1" cy="165" r="3.3" style="fill:#e84e0f"/><circle cx="605.1" cy="165" r="3.3" style="fill:none;stroke:#e84e0f;stroke-miterlimit:10;stroke-width:3px"/><circle cx="623.1" cy="183.9" r="3.3" style="fill:#e84e0f"/><circle cx="623.1" cy="183.9" r="3.3" style="fill:none;stroke:#e84e0f;stroke-miterlimit:10;stroke-width:3px"/><circle cx="641.1" cy="235.8" r="3.3" style="fill:#e84e0f"/><circle cx="641.1" cy="235.8" r="3.3" style="fill:none;stroke:#e84e0f;stroke-miterlimit:10;stroke-width:3px"/><circle cx="659.1" cy="183.9" r="3.3" style="fill:#e84e0f"/><circle cx="659.1" cy="183.9" r="3.3" style="fill:none;stroke:#e84e0f;stroke-miterlimit:10;stroke-width:3px"/><circle cx="677" cy="320.8" r="3.3" style="fill:#e84e0f"/><circle cx="677" cy="320.8" r="3.3" style="fill:none;stroke:#e84e0f;stroke-miterlimit:10;stroke-width:3px"/><circle cx="695" cy="99" r="3.3" style="fill:#e84e0f"/><circle cx="695" cy="99" r="3.3" style="fill:none;stroke:#e84e0f;stroke-miterlimit:10;stroke-width:3px"/><circle cx="713" cy="273.6" r="3.3" style="fill:#e84e0f"/><circle cx="713" cy="273.6" r="3.3" style="fill:none;stroke:#e84e0f;stroke-miterlimit:10;stroke-width:3px"/><circle cx="695.1" cy="198.1" r="3.3" style="fill:#e84e0f"/><circle cx="695.1" cy="198.1" r="3.3" style="fill:none;stroke:#e84e0f;stroke-miterlimit:10;stroke-width:3px"/></svg>