<svg id="Layer_1" data-name="Layer 1" xmlns="http://www.w3.org/2000/svg" viewBox="0 0 742.91 480.14"><title>average-age-of-civilian-casualties-per-harm-event-gaza-and-israel-may-2021-01</title><g style="isolation:isolate"><g style="isolation:isolate"><path d="M202.43,449.32c0,2.8,1.18,4.36,3.32,4.36a2.91,2.91,0,0,0,3.19-3.21v-.15h-3.05v-1.13h4.3v5.32h-1.11V453H209a3.53,3.53,0,0,1-3.29,1.74c-2.67,0-4.65-1.74-4.65-5.45,0-3.45,2.08-5.47,4.81-5.47,2.17,0,3.73,1.09,4,2.95h-1.34a2.45,2.45,0,0,0-2.65-1.93C203.6,444.83,202.43,446.62,202.43,449.32Z"/></g><g style="isolation:isolate"><path d="M212.52,449.23c0-1.29,1-2.17,2.74-2.17s2.69.76,2.69,2.71v3c0,.58.13.81.67.83v1h-.16c-1.15,0-1.54-.41-1.66-1.28h0a2.43,2.43,0,0,1-2.33,1.35,2,2,0,0,1-2.31-2.08,1.93,1.93,0,0,1,1.09-1.83,8.68,8.68,0,0,1,3.52-.6v-.31c0-1.31-.5-1.82-1.52-1.82a1.32,1.32,0,0,0-1.51,1.24Zm4.22,2v-.16a6,6,0,0,0-2.94.54,1.05,1.05,0,0,0-.4.89c0,.75.48,1.15,1.27,1.15A2.11,2.11,0,0,0,216.74,451.21Z"/><path d="M220,447.24h5.48v1.08l-4.27,5.17h4.36v1h-5.76v-1.09l4.23-5.17h-4Z"/><path d="M227.28,449.23c0-1.29,1-2.17,2.75-2.17s2.69.76,2.69,2.71v3c0,.58.12.81.66.83v1h-.15c-1.16,0-1.54-.41-1.67-1.28h0a2.41,2.41,0,0,1-2.33,1.35,2,2,0,0,1-2.3-2.08,1.91,1.91,0,0,1,1.09-1.83,8.68,8.68,0,0,1,3.52-.6v-.31c0-1.31-.5-1.82-1.52-1.82s-1.48.62-1.52,1.24Zm4.23,2v-.16a5.93,5.93,0,0,0-2.94.54,1,1,0,0,0-.4.89c0,.75.48,1.15,1.27,1.15A2.12,2.12,0,0,0,231.51,451.21Z"/></g></g><g style="isolation:isolate"><g style="isolation:isolate"><path d="M322.53,466.66h1.64l4.69,7.85a7.36,7.36,0,0,1,.54,1h0v-8.88h1.22v10.55H329l-4.68-7.83a9.12,9.12,0,0,1-.55-1h0v8.86h-1.23Z"/><path d="M334.57,474.41a2.68,2.68,0,0,0,.26,1.48,1.32,1.32,0,0,0,1.12.48c1.35,0,2-.9,2-2.5v-3.93h1.24v7.27H338V476h0a2.45,2.45,0,0,1-2.29,1.42,2.1,2.1,0,0,1-2.33-2.39v-5.06h1.23Z"/><path d="M341.76,469.94h1.17v1.23h0a2.49,2.49,0,0,1,2.33-1.41,2,2,0,0,1,2.19,1.5h0a2.51,2.51,0,0,1,2.37-1.5,2.08,2.08,0,0,1,2.3,2.39v5.06h-1.24v-4.5a2.59,2.59,0,0,0-.26-1.45,1.31,1.31,0,0,0-1.13-.46,1.83,1.83,0,0,0-2,2.05v4.36h-1.24v-4.5a2.52,2.52,0,0,0-.26-1.43,1.29,1.29,0,0,0-1.13-.48,1.81,1.81,0,0,0-2,2v4.39h-1.24Z"/></g><g style="isolation:isolate"><path d="M354.73,466.34H356v4.8h0a2.5,2.5,0,0,1,2.29-1.38c1.55,0,2.92.95,2.92,3.71s-1.35,3.92-3,3.92a2.53,2.53,0,0,1-2.28-1.34h0v1.16h-1.17Zm5.21,7.13c0-1.54-.46-2.72-1.95-2.72a2.13,2.13,0,0,0-2.07,2.32v.77c0,1.44.71,2.57,2.09,2.57S359.94,475.38,359.94,473.47Z"/></g><g style="isolation:isolate"><path d="M365.93,477.39c-2.22,0-3.28-1.61-3.28-3.78s1.16-3.85,3.24-3.85,3,1.68,3,3.52v.63h-5c.08,1.51.69,2.53,2.05,2.53a1.51,1.51,0,0,0,1.66-1.13h1.2A2.73,2.73,0,0,1,365.93,477.39Zm1.72-4.54c0-1.21-.51-2.15-1.78-2.15s-1.79.91-1.94,2.23h3.72Z"/></g><g style="isolation:isolate"><path d="M370.82,469.94H372v1.37h0a2.62,2.62,0,0,1,2.3-1.51h.12v1.3h-.23a2,2,0,0,0-2.15,2.15v4h-1.24Z"/><path d="M379.32,473.57c0-2.25,1.24-3.81,3.26-3.81,2.17,0,3.25,1.56,3.25,3.81s-1.23,3.82-3.27,3.82S379.32,475.84,379.32,473.57Zm1.28,0c0,1.78.59,2.85,2,2.85s1.94-1.07,1.94-2.85-.58-2.86-2-2.86S380.6,471.8,380.6,473.57Z"/><path d="M389.32,477.21h-1.24v-6.32h-1.33v-.95h1.33v-1.63c0-1.49.85-2,2.21-2a4.49,4.49,0,0,1,.77.07v1a3.28,3.28,0,0,0-.68-.06c-.71,0-1.06.27-1.06,1.14v1.47h1.74v.95h-1.74Z"/></g><g style="isolation:isolate"><path d="M396.22,471.93c0-1.29,1-2.17,2.74-2.17s2.69.76,2.69,2.71v3c0,.58.13.81.67.83v1h-.16c-1.15,0-1.54-.41-1.66-1.28h0a2.43,2.43,0,0,1-2.33,1.35,2,2,0,0,1-2.31-2.08,1.93,1.93,0,0,1,1.09-1.83,8.68,8.68,0,0,1,3.52-.6v-.31c0-1.31-.5-1.82-1.52-1.82a1.32,1.32,0,0,0-1.51,1.24Zm4.22,2v-.16a6,6,0,0,0-2.94.54,1.05,1.05,0,0,0-.4.89c0,.75.48,1.15,1.27,1.15A2.12,2.12,0,0,0,400.44,473.91Z"/></g><g style="isolation:isolate"><path d="M407.78,471.76c-.07-.65-.59-1.06-1.45-1.06a1.26,1.26,0,0,0-1.42,1.17c0,.6.36.87,1.09,1l1.12.16c1.52.23,2.07.86,2.07,2.11,0,1.46-1.19,2.25-2.84,2.25s-2.75-.68-2.84-2.24h1.21c0,.57.37,1.29,1.66,1.29,1,0,1.61-.47,1.61-1.23,0-.58-.15-.9-1.15-1.06l-1.11-.17c-1.3-.2-2-.74-2-2s1-2.21,2.64-2.21,2.46.73,2.59,2Z"/></g><g style="isolation:isolate"><path d="M414.73,471.76c-.07-.65-.59-1.06-1.45-1.06a1.26,1.26,0,0,0-1.42,1.17c0,.6.36.87,1.09,1l1.12.16c1.52.23,2.07.86,2.07,2.11,0,1.46-1.19,2.25-2.84,2.25s-2.75-.68-2.84-2.24h1.21c.05.57.37,1.29,1.65,1.29,1,0,1.62-.47,1.62-1.23,0-.58-.15-.9-1.15-1.06l-1.11-.17c-1.3-.2-2-.74-2-2s1-2.21,2.63-2.21,2.47.73,2.6,2Z"/></g><g style="isolation:isolate"><path d="M420.79,477.39c-2.22,0-3.28-1.61-3.28-3.78s1.16-3.85,3.24-3.85,3,1.68,3,3.52v.63h-5c.08,1.51.69,2.53,2.05,2.53a1.52,1.52,0,0,0,1.66-1.13h1.2A2.73,2.73,0,0,1,420.79,477.39Zm1.72-4.54c0-1.21-.51-2.15-1.78-2.15s-1.79.91-1.94,2.23h3.72Z"/><path d="M429.33,471.76c-.07-.65-.59-1.06-1.45-1.06a1.26,1.26,0,0,0-1.42,1.17c0,.6.36.87,1.09,1l1.12.16c1.52.23,2.07.86,2.07,2.11,0,1.46-1.19,2.25-2.84,2.25s-2.75-.68-2.84-2.24h1.21c.05.57.37,1.29,1.65,1.29,1,0,1.62-.47,1.62-1.23,0-.58-.15-.9-1.15-1.06l-1.11-.17c-1.3-.2-2-.74-2-2s1-2.21,2.63-2.21,2.47.73,2.6,2Z"/><path d="M436.27,471.76c-.07-.65-.59-1.06-1.45-1.06a1.26,1.26,0,0,0-1.42,1.17c0,.6.36.87,1.09,1l1.12.16c1.52.23,2.07.86,2.07,2.11,0,1.46-1.19,2.25-2.84,2.25s-2.75-.68-2.84-2.24h1.21c.06.57.37,1.29,1.66,1.29,1,0,1.61-.47,1.61-1.23,0-.58-.15-.9-1.15-1.06l-1.11-.17c-1.3-.2-2-.74-2-2s1-2.21,2.64-2.21,2.46.73,2.59,2Z"/><path d="M439.63,469.94h1.17v1.23h0a2.49,2.49,0,0,1,2.33-1.41,2,2,0,0,1,2.19,1.5h0a2.52,2.52,0,0,1,2.37-1.5,2.09,2.09,0,0,1,2.31,2.39v5.06h-1.25v-4.5a2.59,2.59,0,0,0-.26-1.45,1.31,1.31,0,0,0-1.13-.46,1.83,1.83,0,0,0-2,2.05v4.36h-1.24v-4.5a2.52,2.52,0,0,0-.26-1.43,1.29,1.29,0,0,0-1.13-.48,1.82,1.82,0,0,0-2,2v4.39h-1.24Z"/></g><g style="isolation:isolate"><path d="M455.23,477.39c-2.22,0-3.28-1.61-3.28-3.78s1.16-3.85,3.24-3.85,3,1.68,3,3.52v.63h-5c.08,1.51.69,2.53,2,2.53a1.51,1.51,0,0,0,1.66-1.13h1.2A2.72,2.72,0,0,1,455.23,477.39Zm1.72-4.54c0-1.21-.51-2.15-1.78-2.15s-1.79.91-1.94,2.23H457Z"/></g><g style="isolation:isolate"><path d="M464.74,472.73a2.46,2.46,0,0,0-.27-1.45,1.3,1.3,0,0,0-1.14-.48,1.84,1.84,0,0,0-2,2.05v4.36h-1.24v-7.27h1.17v1.23h0a2.52,2.52,0,0,1,2.34-1.41,2.09,2.09,0,0,1,2.32,2.39v5.06h-1.24Z"/></g><g style="isolation:isolate"><path d="M470,467.83v2.11h1.79v.95H470v4.29c0,.78.31,1.08,1.1,1.08a5.88,5.88,0,0,0,.8-.07v1.05a8.26,8.26,0,0,1-1.15.08c-1.42,0-2-.69-2-1.93v-4.5h-1.33V470h.23c1,0,1.2-.23,1.2-1.63v-.52Z"/></g><g style="isolation:isolate"><path d="M477.17,471.76c-.07-.65-.59-1.06-1.45-1.06a1.26,1.26,0,0,0-1.42,1.17c0,.6.36.87,1.09,1l1.12.16c1.52.23,2.07.86,2.07,2.11,0,1.46-1.19,2.25-2.84,2.25s-2.75-.68-2.84-2.24h1.21c.05.57.37,1.29,1.65,1.29,1,0,1.62-.47,1.62-1.23,0-.58-.15-.9-1.15-1.06l-1.11-.17c-1.3-.2-2-.74-2-2s1-2.21,2.63-2.21,2.47.73,2.6,2Z"/></g></g><g style="isolation:isolate"><g style="isolation:isolate"><path d="M9,247.39v4.23l3.15,1.09V254L1.63,250.24v-1.52l10.55-3.79v1.36ZM4.22,250,8,251.26v-3.51l-3.78,1.33c-.64.22-1.31.41-1.31.41v0C3,249.55,3.63,249.74,4.22,250Z"/></g><g style="isolation:isolate"><path d="M4.91,244.34v-1.27l4.67-1.57c.6-.2,1.15-.36,1.15-.36v0s-.55-.16-1.15-.36l-4.67-1.62V238l7.27,2.52v1.31Z"/><path d="M12.36,233.76c0,2.22-1.62,3.28-3.78,3.28s-3.85-1.15-3.85-3.24,1.68-3,3.52-3h.63v5c1.51-.08,2.53-.69,2.53-2.05a1.52,1.52,0,0,0-1.14-1.66v-1.2A2.72,2.72,0,0,1,12.36,233.76ZM7.82,232c-1.21,0-2.15.51-2.15,1.78s.91,1.79,2.23,1.94V232Z"/></g><g style="isolation:isolate"><path d="M4.91,228.86v-1.17H6.27v0a2.63,2.63,0,0,1-1.5-2.3v-.12h1.3v.23a2,2,0,0,0,2.15,2.15h4v1.24Z"/></g><g style="isolation:isolate"><path d="M6.9,223.88c-1.29,0-2.17-1-2.17-2.74s.76-2.69,2.7-2.69h3c.58,0,.81-.13.83-.67h1v.16c0,1.15-.41,1.54-1.28,1.66v0A2.43,2.43,0,0,1,12.3,222a2,2,0,0,1-2.08,2.31,1.93,1.93,0,0,1-1.83-1.09,8.51,8.51,0,0,1-.6-3.52H7.47c-1.31,0-1.82.5-1.82,1.52a1.32,1.32,0,0,0,1.25,1.51Zm2-4.22H8.72a6,6,0,0,0,.53,2.94,1.07,1.07,0,0,0,.9.4c.75,0,1.15-.49,1.15-1.27A2.12,2.12,0,0,0,8.88,219.66Z"/></g><g style="isolation:isolate"><path d="M12.91,216.37v-1.2c.62-.14,1-.61,1-1.79,0-1.38-.51-2.07-2.11-2.07H10.74a2.62,2.62,0,0,1,1.34,2.32c0,1.52-.95,2.91-3.64,2.91-2.4,0-3.71-1.27-3.71-3.06a2.28,2.28,0,0,1,1.32-2.18v0H4.91V210.1H12c2,0,2.92,1.33,2.92,3.31C14.92,214.79,14.41,216.21,12.91,216.37Zm-4.76-5.09a2.15,2.15,0,0,0-2.44,2.07c0,1.31,1.09,1.93,2.73,1.93s2.7-.45,2.7-2a2.11,2.11,0,0,0-2.26-2Z"/><path d="M12.36,204.86c0,2.22-1.62,3.29-3.78,3.29S4.73,207,4.73,204.91s1.68-3,3.52-3h.63v5c1.51-.08,2.53-.69,2.53-2.06a1.5,1.5,0,0,0-1.14-1.65V202A2.71,2.71,0,0,1,12.36,204.86Zm-4.54-1.72c-1.21,0-2.15.51-2.15,1.78s.91,1.79,2.23,1.94v-3.72Z"/></g><g style="isolation:isolate"><path d="M6.9,196.43c-1.29,0-2.17-1-2.17-2.75S5.49,191,7.43,191h3c.58,0,.81-.12.83-.66h1v.15c0,1.16-.41,1.55-1.28,1.67v0a2.43,2.43,0,0,1,1.35,2.33,2,2,0,0,1-2.08,2.3,1.92,1.92,0,0,1-1.83-1.08,8.51,8.51,0,0,1-.6-3.52H7.47c-1.31,0-1.82.49-1.82,1.52a1.32,1.32,0,0,0,1.25,1.51Zm2-4.22H8.72a6,6,0,0,0,.53,2.94,1.07,1.07,0,0,0,.9.4c.75,0,1.15-.49,1.15-1.27A2.12,2.12,0,0,0,8.88,192.21Z"/></g><g style="isolation:isolate"><path d="M12.91,188.91v-1.2c.62-.13,1-.6,1-1.79,0-1.38-.51-2.07-2.11-2.07H10.74a2.62,2.62,0,0,1,1.34,2.32c0,1.52-.95,2.91-3.64,2.91-2.4,0-3.71-1.27-3.71-3.06a2.28,2.28,0,0,1,1.32-2.18v0H4.91v-1.18H12c2,0,2.92,1.34,2.92,3.31C14.92,187.33,14.41,188.75,12.91,188.91Zm-4.76-5.09a2.15,2.15,0,0,0-2.44,2.07c0,1.31,1.09,1.93,2.73,1.93s2.7-.45,2.7-2a2.11,2.11,0,0,0-2.26-2Z"/><path d="M12.36,177.4c0,2.23-1.62,3.29-3.78,3.29s-3.85-1.16-3.85-3.24,1.68-3,3.52-3h.63v5c1.51-.08,2.53-.69,2.53-2.06a1.5,1.5,0,0,0-1.14-1.65v-1.2A2.71,2.71,0,0,1,12.36,177.4Zm-4.54-1.72c-1.21,0-2.15.51-2.15,1.78s.91,1.79,2.23,1.94v-3.72Z"/></g></g><g style="isolation:isolate"><g style="isolation:isolate"><path d="M562.85,444h1.29v10.55h-1.29Z"/><path d="M570.47,449.06c-.07-.65-.59-1.06-1.45-1.06a1.26,1.26,0,0,0-1.42,1.17c0,.6.36.87,1.09,1l1.12.16c1.51.23,2.07.86,2.07,2.11,0,1.46-1.19,2.25-2.84,2.25s-2.75-.68-2.85-2.24h1.22c.05.57.37,1.29,1.65,1.29,1,0,1.62-.47,1.62-1.23,0-.58-.16-.9-1.15-1.06l-1.12-.17c-1.29-.2-2-.74-2-2s1-2.21,2.63-2.21,2.47.73,2.59,2Z"/></g><g style="isolation:isolate"><path d="M573.83,447.24H575v1.37h0a2.62,2.62,0,0,1,2.3-1.51h.12v1.3h-.23a2,2,0,0,0-2.15,2.15v4h-1.24Z"/></g><g style="isolation:isolate"><path d="M578.81,449.23c0-1.29,1-2.17,2.74-2.17s2.69.76,2.69,2.71v3c0,.58.13.81.67.83v1h-.16c-1.15,0-1.54-.41-1.67-1.28h0a2.43,2.43,0,0,1-2.33,1.35,2,2,0,0,1-2.31-2.08,1.93,1.93,0,0,1,1.09-1.83,8.68,8.68,0,0,1,3.52-.6v-.31c0-1.31-.5-1.82-1.52-1.82a1.32,1.32,0,0,0-1.51,1.24Zm4.22,2v-.16a6,6,0,0,0-2.94.54,1.05,1.05,0,0,0-.4.89c0,.75.48,1.15,1.27,1.15A2.12,2.12,0,0,0,583,451.21Z"/></g><g style="isolation:isolate"><path d="M589.42,454.69c-2.22,0-3.28-1.61-3.28-3.78s1.16-3.85,3.24-3.85,3,1.68,3,3.52v.63h-5c.08,1.51.69,2.53,2.05,2.53a1.52,1.52,0,0,0,1.66-1.13h1.2A2.73,2.73,0,0,1,589.42,454.69Zm1.72-4.54c0-1.21-.51-2.15-1.78-2.15s-1.79.91-1.94,2.23h3.72Z"/><path d="M594.38,443.64h1.24v10.87h-1.24Z"/></g></g><g style="isolation:isolate"><path d="M40,426.31c2,0,3.21,1.51,3.21,4.61s-1.25,4.6-3.21,4.6-3.17-1.52-3.17-4.6S38.13,426.31,40,426.31Zm2,4.63c0-2.47-.76-3.73-2-3.73s-2,1.2-2,3.73.74,3.69,2,3.69S42.08,433.35,42.08,430.94Z"/></g><g style="isolation:isolate"><path d="M30.28,381.59H28.5v-.77h.27a1.74,1.74,0,0,0,1.3-.43,1.55,1.55,0,0,0,.4-1.17h.9v8.92H30.28Z"/><path d="M36.9,379.12c1.94,0,3.2,1.51,3.2,4.61s-1.24,4.6-3.2,4.6-3.18-1.52-3.18-4.6S35,379.12,36.9,379.12Zm2,4.63c0-2.47-.77-3.73-2-3.73s-2,1.2-2,3.73.74,3.69,2,3.69S38.94,386.16,38.94,383.75Z"/></g><g style="isolation:isolate"><path d="M28.68,334.79a2.72,2.72,0,0,1,2.87-2.86,2.42,2.42,0,0,1,2.74,2.42c0,1.23-.5,1.92-2,3.33L29.92,340h4.43v1h-5.9v-.83l3.05-3c1-1,1.66-1.68,1.66-2.69a1.5,1.5,0,0,0-1.61-1.58c-.94,0-1.74.55-1.74,2Z"/><path d="M39.19,331.93c1.94,0,3.2,1.51,3.2,4.61s-1.24,4.6-3.2,4.6S36,339.62,36,336.54,37.27,331.93,39.19,331.93Zm2,4.63c0-2.47-.77-3.73-2-3.73s-2,1.2-2,3.73.74,3.69,2,3.69S41.23,339,41.23,336.56Z"/></g><g style="isolation:isolate"><path d="M31.18,289.73v-1h.46a1.55,1.55,0,0,0,1.6-1.56,1.5,1.5,0,0,0-1.63-1.54,1.62,1.62,0,0,0-1.8,1.76H28.73a2.63,2.63,0,0,1,2.88-2.67,2.42,2.42,0,0,1,2.71,2.39,2.24,2.24,0,0,1-1.48,2v0a2.17,2.17,0,0,1,1.73,2.23c0,1.36-1.1,2.54-3,2.54a2.7,2.7,0,0,1-3-2.67h1.1a1.88,1.88,0,0,0,2,1.76,1.69,1.69,0,0,0,1.85-1.63c0-1.06-.68-1.66-1.85-1.66Z"/><path d="M39.29,284.73c1.94,0,3.2,1.51,3.2,4.61s-1.25,4.6-3.2,4.6-3.18-1.52-3.18-4.6S37.37,284.73,39.29,284.73Zm2,4.63c0-2.47-.77-3.73-2-3.73s-2,1.2-2,3.73.75,3.69,2,3.69S41.33,291.77,41.33,289.36Z"/></g><g style="isolation:isolate"><path d="M33.53,244.4v2.16H32.48V244.4H28.32v-.86l4-5.87h1.18v5.8h1.16v.93Zm-1.05-.92V239h0a7.32,7.32,0,0,1-.54.92l-2.47,3.6Z"/><path d="M39.34,237.54c1.94,0,3.2,1.51,3.2,4.61s-1.25,4.6-3.2,4.6-3.18-1.52-3.18-4.6S37.42,237.54,39.34,237.54Zm2,4.63c0-2.47-.77-3.73-2-3.73s-2,1.2-2,3.73.74,3.69,2,3.69S41.38,244.58,41.38,242.17Z"/></g><g style="isolation:isolate"><path d="M31.46,194.44a1.86,1.86,0,0,0-1.64.78h-.93l.38-4.74H34v.94H30.18L30,194.25h0a2.24,2.24,0,0,1,1.72-.73,2.68,2.68,0,0,1,2.76,3,2.85,2.85,0,0,1-3.06,3.05,2.57,2.57,0,0,1-2.83-2.49h1.1a1.57,1.57,0,0,0,1.79,1.58,1.89,1.89,0,0,0,1.87-2.11A1.86,1.86,0,0,0,31.46,194.44Z"/><path d="M39.29,190.35c1.94,0,3.2,1.51,3.2,4.61s-1.25,4.6-3.2,4.6S36.11,198,36.11,195,37.37,190.35,39.29,190.35Zm2,4.63c0-2.47-.77-3.73-2-3.73s-2,1.2-2,3.73.75,3.69,2,3.69S41.33,197.39,41.33,195Z"/></g><g style="isolation:isolate"><path d="M33.47,145.2A1.42,1.42,0,0,0,31.92,144c-1.58,0-2.12,1.66-2.18,3.71h.05A2.48,2.48,0,0,1,32,146.46a2.62,2.62,0,0,1,2.72,2.84,2.88,2.88,0,0,1-3,3c-1.61,0-3.09-.78-3.09-4.11s1.06-5.09,3.27-5.09c1.6,0,2.45.76,2.58,2Zm.15,4.2a1.82,1.82,0,0,0-1.87-2,1.78,1.78,0,0,0-1.87,2,1.83,1.83,0,0,0,1.87,2A1.85,1.85,0,0,0,33.62,149.4Z"/><path d="M39.52,143.15c1.94,0,3.2,1.51,3.2,4.61s-1.25,4.6-3.2,4.6-3.18-1.52-3.18-4.6S37.6,143.15,39.52,143.15Zm2,4.63c0-2.47-.76-3.73-2-3.73s-2,1.2-2,3.73.74,3.69,2,3.69S41.55,150.19,41.55,147.78Z"/></g><g style="isolation:isolate"><path d="M32.65,97.06H28.26v-1h5.66v.71L30.21,105H29.05Z"/><path d="M38.24,96c1.95,0,3.21,1.51,3.21,4.61s-1.25,4.6-3.21,4.6-3.17-1.52-3.17-4.6S36.33,96,38.24,96Zm2,4.63c0-2.47-.76-3.73-2-3.73s-2,1.2-2,3.73.74,3.69,2,3.69S40.28,103,40.28,100.59Z"/></g><g style="isolation:isolate"><path d="M31.57,48.77a2.55,2.55,0,0,1,2.82,2.42,2.14,2.14,0,0,1-1.45,2.07v0a2.13,2.13,0,0,1,1.7,2.16c0,1.43-1.2,2.54-3.07,2.54s-3.06-1.09-3.06-2.54a2.16,2.16,0,0,1,1.7-2.16v0a2.14,2.14,0,0,1-1.44-2.07A2.54,2.54,0,0,1,31.57,48.77Zm2,6.66c0-1.18-.91-1.71-2-1.71a1.71,1.71,0,1,0,0,3.4C32.64,57.12,33.54,56.6,33.54,55.43Zm-3.66-4.18a1.69,1.69,0,1,0,1.69-1.62A1.55,1.55,0,0,0,29.88,51.25Z"/><path d="M39.35,48.77c1.94,0,3.2,1.51,3.2,4.61S41.3,58,39.35,58s-3.18-1.52-3.18-4.6S37.43,48.77,39.35,48.77Zm2,4.63c0-2.47-.77-3.73-2-3.73s-2,1.2-2,3.73.75,3.69,2,3.69S41.39,55.81,41.39,53.4Z"/></g><g style="isolation:isolate"><path d="M29.85,8.59a1.6,1.6,0,0,0,1.63,1.32c1.4,0,2.07-1.13,2.07-3.73h0a2.44,2.44,0,0,1-2.21,1.14,2.66,2.66,0,0,1-2.71-2.78,2.89,2.89,0,0,1,3-3c1.92,0,3.09,1.16,3.09,4.14,0,3.72-1.13,5.06-3.21,5.06A2.45,2.45,0,0,1,28.8,8.59Zm-.11-4.14a1.78,1.78,0,0,0,1.83,2,1.82,1.82,0,0,0,1.9-1.95,1.86,1.86,0,0,0-1.9-2A1.8,1.8,0,0,0,29.74,4.45Z"/><path d="M39.58,1.57c1.94,0,3.2,1.51,3.2,4.61s-1.25,4.6-3.2,4.6S36.4,9.26,36.4,6.18,37.66,1.57,39.58,1.57Zm2,4.63c0-2.47-.77-3.73-2-3.73s-2,1.2-2,3.73.74,3.69,2,3.69S41.62,8.61,41.62,6.2Z"/></g><line x1="49.6" y1="429.33" x2="49.6" y2="4.59" style="fill:none;stroke:#000;stroke-miterlimit:10"/><line x1="49.6" y1="429.33" x2="742.91" y2="429.33" style="fill:none;stroke:#000;stroke-miterlimit:10"/><line x1="49.6" y1="382.13" x2="58.14" y2="382.13" style="fill:none;stroke:#000;stroke-miterlimit:10"/><line x1="49.6" y1="334.94" x2="58.14" y2="334.94" style="fill:none;stroke:#000;stroke-miterlimit:10"/><line x1="49.6" y1="287.75" x2="58.14" y2="287.75" style="fill:none;stroke:#000;stroke-miterlimit:10"/><line x1="49.6" y1="240.55" x2="58.14" y2="240.55" style="fill:none;stroke:#000;stroke-miterlimit:10"/><line x1="49.6" y1="193.36" x2="58.14" y2="193.36" style="fill:none;stroke:#000;stroke-miterlimit:10"/><line x1="49.6" y1="146.17" x2="58.14" y2="146.17" style="fill:none;stroke:#000;stroke-miterlimit:10"/><line x1="49.6" y1="98.97" x2="58.14" y2="98.97" style="fill:none;stroke:#000;stroke-miterlimit:10"/><line x1="49.6" y1="51.78" x2="58.14" y2="51.78" style="fill:none;stroke:#000;stroke-miterlimit:10"/><line x1="49.6" y1="4.59" x2="58.14" y2="4.59" style="fill:none;stroke:#000;stroke-miterlimit:10"/><circle cx="54.48" cy="382.13" r="3.34" style="fill:#5a8bba"/><circle cx="54.48" cy="382.13" r="3.34" style="fill:none;stroke:#5a8bba;stroke-linecap:round;stroke-linejoin:round;stroke-width:3px"/><circle cx="64.24" cy="259.43" r="3.34" style="fill:#5a8bba"/><circle cx="64.24" cy="259.43" r="3.34" style="fill:none;stroke:#5a8bba;stroke-linecap:round;stroke-linejoin:round;stroke-width:3px"/><circle cx="74.01" cy="386.85" r="3.34" style="fill:#5a8bba"/><circle cx="74.01" cy="386.85" r="3.34" style="fill:none;stroke:#5a8bba;stroke-linecap:round;stroke-linejoin:round;stroke-width:3px"/><circle cx="83.77" cy="264.15" r="3.34" style="fill:#5a8bba"/><circle cx="83.77" cy="264.15" r="3.34" style="fill:none;stroke:#5a8bba;stroke-linecap:round;stroke-linejoin:round;stroke-width:3px"/><circle cx="93.54" cy="221.67" r="3.34" style="fill:#5a8bba"/><circle cx="93.54" cy="221.67" r="3.34" style="fill:none;stroke:#5a8bba;stroke-linecap:round;stroke-linejoin:round;stroke-width:3px"/><circle cx="103.3" cy="334.94" r="3.34" style="fill:#5a8bba"/><circle cx="103.3" cy="334.94" r="3.34" style="fill:none;stroke:#5a8bba;stroke-linecap:round;stroke-linejoin:round;stroke-width:3px"/><circle cx="113.07" cy="198.08" r="3.34" style="fill:#5a8bba"/><circle cx="113.07" cy="198.08" r="3.34" style="fill:none;stroke:#5a8bba;stroke-linecap:round;stroke-linejoin:round;stroke-width:3px"/><circle cx="122.83" cy="353.82" r="3.34" style="fill:#5a8bba"/><circle cx="122.83" cy="353.82" r="3.34" style="fill:none;stroke:#5a8bba;stroke-linecap:round;stroke-linejoin:round;stroke-width:3px"/><circle cx="132.59" cy="245.27" r="3.34" style="fill:#5a8bba"/><circle cx="132.59" cy="245.27" r="3.34" style="fill:none;stroke:#5a8bba;stroke-linecap:round;stroke-linejoin:round;stroke-width:3px"/><circle cx="142.36" cy="254.71" r="3.34" style="fill:#5a8bba"/><circle cx="142.36" cy="254.71" r="3.34" style="fill:none;stroke:#5a8bba;stroke-linecap:round;stroke-linejoin:round;stroke-width:3px"/><circle cx="152.12" cy="372.69" r="3.34" style="fill:#5a8bba"/><circle cx="152.12" cy="372.69" r="3.34" style="fill:none;stroke:#5a8bba;stroke-linecap:round;stroke-linejoin:round;stroke-width:3px"/><circle cx="161.89" cy="283.03" r="3.34" style="fill:#5a8bba"/><circle cx="161.89" cy="283.03" r="3.34" style="fill:none;stroke:#5a8bba;stroke-linecap:round;stroke-linejoin:round;stroke-width:3px"/><circle cx="171.65" cy="358.54" r="3.34" style="fill:#5a8bba"/><circle cx="171.65" cy="358.54" r="3.34" style="fill:none;stroke:#5a8bba;stroke-linecap:round;stroke-linejoin:round;stroke-width:3px"/><circle cx="181.42" cy="283.03" r="3.34" style="fill:#5a8bba"/><circle cx="181.42" cy="283.03" r="3.34" style="fill:none;stroke:#5a8bba;stroke-linecap:round;stroke-linejoin:round;stroke-width:3px"/><circle cx="191.18" cy="292.46" r="3.34" style="fill:#5a8bba"/><circle cx="191.18" cy="292.46" r="3.34" style="fill:none;stroke:#5a8bba;stroke-linecap:round;stroke-linejoin:round;stroke-width:3px"/><circle cx="200.95" cy="287.75" r="3.34" style="fill:#5a8bba"/><circle cx="200.95" cy="287.75" r="3.34" style="fill:none;stroke:#5a8bba;stroke-linecap:round;stroke-linejoin:round;stroke-width:3px"/><circle cx="210.71" cy="358.54" r="3.34" style="fill:#5a8bba"/><circle cx="210.71" cy="358.54" r="3.34" style="fill:none;stroke:#5a8bba;stroke-linecap:round;stroke-linejoin:round;stroke-width:3px"/><circle cx="220.48" cy="320.78" r="3.34" style="fill:#5a8bba"/><circle cx="220.48" cy="320.78" r="3.34" style="fill:none;stroke:#5a8bba;stroke-linecap:round;stroke-linejoin:round;stroke-width:3px"/><circle cx="230.24" cy="344.38" r="3.34" style="fill:#5a8bba"/><circle cx="230.24" cy="344.38" r="3.34" style="fill:none;stroke:#5a8bba;stroke-linecap:round;stroke-linejoin:round;stroke-width:3px"/><circle cx="240.01" cy="297.18" r="3.34" style="fill:#5a8bba"/><circle cx="240.01" cy="297.18" r="3.34" style="fill:none;stroke:#5a8bba;stroke-linecap:round;stroke-linejoin:round;stroke-width:3px"/><circle cx="249.77" cy="132.01" r="3.34" style="fill:#5a8bba"/><circle cx="249.77" cy="132.01" r="3.34" style="fill:none;stroke:#5a8bba;stroke-linecap:round;stroke-linejoin:round;stroke-width:3px"/><circle cx="259.54" cy="240.55" r="3.34" style="fill:#5a8bba"/><circle cx="259.54" cy="240.55" r="3.34" style="fill:none;stroke:#5a8bba;stroke-linecap:round;stroke-linejoin:round;stroke-width:3px"/><circle cx="269.3" cy="372.69" r="3.34" style="fill:#5a8bba"/><circle cx="269.3" cy="372.69" r="3.34" style="fill:none;stroke:#5a8bba;stroke-linecap:round;stroke-linejoin:round;stroke-width:3px"/><circle cx="279.06" cy="316.06" r="3.34" style="fill:#5a8bba"/><circle cx="279.06" cy="316.06" r="3.34" style="fill:none;stroke:#5a8bba;stroke-linecap:round;stroke-linejoin:round;stroke-width:3px"/><circle cx="288.83" cy="249.99" r="3.34" style="fill:#5a8bba"/><circle cx="288.83" cy="249.99" r="3.34" style="fill:none;stroke:#5a8bba;stroke-linecap:round;stroke-linejoin:round;stroke-width:3px"/><circle cx="298.59" cy="292.46" r="3.34" style="fill:#5a8bba"/><circle cx="298.59" cy="292.46" r="3.34" style="fill:none;stroke:#5a8bba;stroke-linecap:round;stroke-linejoin:round;stroke-width:3px"/><circle cx="308.36" cy="367.97" r="3.34" style="fill:#5a8bba"/><circle cx="308.36" cy="367.97" r="3.34" style="fill:none;stroke:#5a8bba;stroke-linecap:round;stroke-linejoin:round;stroke-width:3px"/><circle cx="318.12" cy="358.54" r="3.34" style="fill:#5a8bba"/><circle cx="318.12" cy="358.54" r="3.34" style="fill:none;stroke:#5a8bba;stroke-linecap:round;stroke-linejoin:round;stroke-width:3px"/><circle cx="327.89" cy="278.31" r="3.34" style="fill:#5a8bba"/><circle cx="327.89" cy="278.31" r="3.34" style="fill:none;stroke:#5a8bba;stroke-linecap:round;stroke-linejoin:round;stroke-width:3px"/><circle cx="337.65" cy="353.82" r="3.34" style="fill:#5a8bba"/><circle cx="337.65" cy="353.82" r="3.34" style="fill:none;stroke:#5a8bba;stroke-linecap:round;stroke-linejoin:round;stroke-width:3px"/><circle cx="347.42" cy="278.31" r="3.34" style="fill:#5a8bba"/><circle cx="347.42" cy="278.31" r="3.34" style="fill:none;stroke:#5a8bba;stroke-linecap:round;stroke-linejoin:round;stroke-width:3px"/><circle cx="357.18" cy="339.66" r="3.34" style="fill:#5a8bba"/><circle cx="357.18" cy="339.66" r="3.34" style="fill:none;stroke:#5a8bba;stroke-linecap:round;stroke-linejoin:round;stroke-width:3px"/><circle cx="366.95" cy="320.78" r="3.34" style="fill:#5a8bba"/><circle cx="366.95" cy="320.78" r="3.34" style="fill:none;stroke:#5a8bba;stroke-linecap:round;stroke-linejoin:round;stroke-width:3px"/><circle cx="376.71" cy="372.69" r="3.34" style="fill:#5a8bba"/><circle cx="376.71" cy="372.69" r="3.34" style="fill:none;stroke:#5a8bba;stroke-linecap:round;stroke-linejoin:round;stroke-width:3px"/><circle cx="386.48" cy="268.87" r="3.34" style="fill:#5a8bba"/><circle cx="386.48" cy="268.87" r="3.34" style="fill:none;stroke:#5a8bba;stroke-linecap:round;stroke-linejoin:round;stroke-width:3px"/><line x1="398.25" y1="429.33" x2="398.25" y2="4.59" style="fill:none;stroke:#000;stroke-miterlimit:10"/><circle cx="407.24" cy="278.31" r="3.34" style="fill:#e84e0f"/><circle cx="407.24" cy="278.31" r="3.34" style="fill:none;stroke:#e84e0f;stroke-miterlimit:10;stroke-width:3px"/><circle cx="425.23" cy="179.2" r="3.34" style="fill:#e84e0f"/><circle cx="425.23" cy="179.2" r="3.34" style="fill:none;stroke:#e84e0f;stroke-miterlimit:10;stroke-width:3px"/><circle cx="443.21" cy="278.31" r="3.34" style="fill:#e84e0f"/><circle cx="443.21" cy="278.31" r="3.34" style="fill:none;stroke:#e84e0f;stroke-miterlimit:10;stroke-width:3px"/><circle cx="461.2" cy="84.81" r="3.34" style="fill:#e84e0f"/><circle cx="461.2" cy="84.81" r="3.34" style="fill:none;stroke:#e84e0f;stroke-miterlimit:10;stroke-width:3px"/><circle cx="479.19" cy="169.76" r="3.34" style="fill:#e84e0f"/><circle cx="479.19" cy="169.76" r="3.34" style="fill:none;stroke:#e84e0f;stroke-miterlimit:10;stroke-width:3px"/><circle cx="497.18" cy="132.01" r="3.34" style="fill:#e84e0f"/><circle cx="497.18" cy="132.01" r="3.34" style="fill:none;stroke:#e84e0f;stroke-miterlimit:10;stroke-width:3px"/><circle cx="515.16" cy="32.9" r="3.34" style="fill:#e84e0f"/><circle cx="515.16" cy="32.9" r="3.34" style="fill:none;stroke:#e84e0f;stroke-miterlimit:10;stroke-width:3px"/><circle cx="533.15" cy="193.36" r="3.34" style="fill:#e84e0f"/><circle cx="533.15" cy="193.36" r="3.34" style="fill:none;stroke:#e84e0f;stroke-miterlimit:10;stroke-width:3px"/><circle cx="551.14" cy="401.01" r="3.34" style="fill:#e84e0f"/><circle cx="551.14" cy="401.01" r="3.34" style="fill:none;stroke:#e84e0f;stroke-miterlimit:10;stroke-width:3px"/><circle cx="569.13" cy="268.87" r="3.34" style="fill:#e84e0f"/><circle cx="569.13" cy="268.87" r="3.34" style="fill:none;stroke:#e84e0f;stroke-miterlimit:10;stroke-width:3px"/><circle cx="587.11" cy="240.55" r="3.34" style="fill:#e84e0f"/><circle cx="587.11" cy="240.55" r="3.34" style="fill:none;stroke:#e84e0f;stroke-miterlimit:10;stroke-width:3px"/><circle cx="605.1" cy="165.04" r="3.34" style="fill:#e84e0f"/><circle cx="605.1" cy="165.04" r="3.34" style="fill:none;stroke:#e84e0f;stroke-miterlimit:10;stroke-width:3px"/><circle cx="623.09" cy="183.92" r="3.34" style="fill:#e84e0f"/><circle cx="623.09" cy="183.92" r="3.34" style="fill:none;stroke:#e84e0f;stroke-miterlimit:10;stroke-width:3px"/><circle cx="641.08" cy="235.83" r="3.34" style="fill:#e84e0f"/><circle cx="641.08" cy="235.83" r="3.34" style="fill:none;stroke:#e84e0f;stroke-miterlimit:10;stroke-width:3px"/><circle cx="659.06" cy="183.92" r="3.34" style="fill:#e84e0f"/><circle cx="659.06" cy="183.92" r="3.34" style="fill:none;stroke:#e84e0f;stroke-miterlimit:10;stroke-width:3px"/><circle cx="677.05" cy="320.78" r="3.34" style="fill:#e84e0f"/><circle cx="677.05" cy="320.78" r="3.34" style="fill:none;stroke:#e84e0f;stroke-miterlimit:10;stroke-width:3px"/><circle cx="695.04" cy="98.97" r="3.34" style="fill:#e84e0f"/><circle cx="695.04" cy="98.97" r="3.34" style="fill:none;stroke:#e84e0f;stroke-miterlimit:10;stroke-width:3px"/><circle cx="713.03" cy="273.59" r="3.34" style="fill:#e84e0f"/><circle cx="713.03" cy="273.59" r="3.34" style="fill:none;stroke:#e84e0f;stroke-miterlimit:10;stroke-width:3px"/><circle cx="695.12" cy="198.08" r="3.34" style="fill:#e84e0f"/><circle cx="695.12" cy="198.08" r="3.34" style="fill:none;stroke:#e84e0f;stroke-miterlimit:10;stroke-width:3px"/></svg>