<svg xmlns="http://www.w3.org/2000/svg" xmlns:serif="http://www.serif.com/" id="cpm-logo" data-name="cpm-logo" viewBox="0 0 595.3 140.8"><defs><style>.monitor-box{fill:#001629;}.civilian-protection{fill:#001629;}</style></defs><path class="civilian-protection" d="M25.5,11.9c-1-2-2.9-3-5.7-3s-2.8.4-3.8,1.2c-1,.8-1.8,2.1-2.3,3.9-.6,1.8-1,4.2-1.2,7.1-.2,2.9-.3,6.5-.3,10.8s.2,8.2.5,11c.3,2.8.8,5,1.4,6.5s1.5,2.6,2.5,3.1c1,.5,2.1.8,3.4.8s2.1-.2,3-.5c.9-.4,1.7-1.1,2.4-2.2.7-1.1,1.2-2.6,1.6-4.6s.6-4.6.6-7.9h12.2c0,3.3-.3,6.3-.8,9.2-.5,2.9-1.5,5.5-2.8,7.6s-3.3,3.9-5.8,5.1-5.8,1.9-9.7,1.9-8.2-.7-10.9-2.2c-2.7-1.5-4.8-3.5-6.2-6.3-1.4-2.8-2.4-6-2.8-9.8-.4-3.8-.6-8-.6-12.6s.2-8.7.6-12.6c.4-3.8,1.4-7.1,2.8-9.9,1.4-2.7,3.5-4.9,6.2-6.4C12.3.8,16,0,20.5,0s7.7.7,10.3,2.1c2.5,1.4,4.4,3.2,5.6,5.3,1.2,2.1,2,4.5,2.3,7,.3,2.5.5,4.8.5,7h-12.2c0-4.4-.5-7.5-1.6-9.5,0,0,0,0,0,0ZM58.4.5v9.9h-11.7V.5h11.7ZM58.4,16v45.2h-11.7V16h11.7ZM99.8,16l-11.4,45.2h-13.5l-11.8-45.2h12.2l6.5,32.3h.2l6.2-32.3h11.7ZM116.2.5v9.9h-11.7V.5h11.7ZM116.2,16v45.2h-11.7V16h11.7ZM136.4,1.2v60h-11.7V1.2h11.7ZM156.7.5v9.9h-11.7V.5s11.7,0,11.7,0ZM156.7,16v45.2h-11.7V16s11.7,0,11.7,0ZM164.8,28.7c0-2.6.4-4.8,1.3-6.6.8-1.8,2-3.2,3.4-4.3,1.4-1.1,3.1-1.9,5.1-2.4,1.9-.5,4-.7,6.2-.7,3.5,0,6.3.3,8.5,1,2.1.7,3.8,1.6,5,2.8,1.2,1.2,2,2.7,2.4,4.4.4,1.7.6,3.6.6,5.6v23.8c0,2.1,0,3.8.3,5,.2,1.2.6,2.4,1.1,3.8h-11.1c-.4-.7-.7-1.5-.9-2.3-.2-.8-.4-1.6-.5-2.4h-.2c-1.4,2.4-2.9,3.9-4.7,4.6-1.8.7-4.1,1.1-6.9,1.1s-3.7-.4-5.2-1.1c-1.4-.7-2.5-1.7-3.4-2.9-.8-1.2-1.5-2.6-1.9-4.2-.4-1.5-.6-3.1-.6-4.6s.2-4,.7-5.5c.5-1.5,1.1-2.8,2.1-3.9.9-1.1,2.1-2,3.6-2.7s3.2-1.4,5.2-1.9l6.6-1.8c1.7-.4,3-1.1,3.6-1.9.7-.8,1-1.9,1-3.5s-.4-3.1-1.2-4.1c-.8-1-2.2-1.5-4.2-1.5s-3.2.5-4.1,1.6c-.9,1.1-1.4,2.5-1.4,4.3v1.3h-10.5v-1.1h0ZM183.6,40c-.9.4-1.7.6-2.5.8-2.4.5-4.1,1.3-5.1,2.5-1,1.2-1.5,2.8-1.5,4.8s.3,3.2,1,4.4,1.8,1.9,3.4,1.9,1.6-.1,2.5-.4c.8-.3,1.6-.7,2.3-1.2.7-.5,1.3-1.3,1.7-2.2.5-.9.7-2,.7-3.2v-8.9c-.8.6-1.6,1.1-2.5,1.5h0s0,0,0,0ZM216.7,16v5.3h.2c1.2-2.2,2.8-3.9,4.8-4.9,2-1,4.2-1.6,6.8-1.6,3.7,0,6.6,1,8.6,3,2,2,3,5.3,3,9.8v33.5h-11.7v-31.2c0-2.4-.4-4-1.2-4.9-.8-.9-2.1-1.4-3.8-1.4-4.1,0-6.2,2.5-6.2,7.5v30h-11.7V16h11.1ZM280.8,1.2c3.1,0,5.7.5,7.8,1.6,2.1,1,3.8,2.4,5.1,4.1,1.3,1.7,2.2,3.6,2.8,5.8.6,2.2.8,4.3.8,6.6s-.5,5.8-1.4,8.1c-.9,2.3-2.2,4.2-3.9,5.6-1.7,1.5-3.7,2.6-6,3.3s-5,1.1-7.8,1.1h-6.5v23.9h-12.2V1.2s21.3,0,21.3,0ZM277.1,28.3c2.4,0,4.4-.7,5.9-2.2,1.5-1.5,2.2-3.7,2.2-6.8s-.6-5.3-1.9-6.9-3.5-2.4-6.5-2.4h-5.1v18.2h5.4ZM314.2,16v6h.2c1.2-2.2,2.6-3.9,4.3-5.2,1.7-1.3,3.7-2,6.2-2s.7,0,1.1,0c.4,0,.7,0,1.1.1v11.1c-.6,0-1.2,0-1.8-.1-.6,0-1.2,0-1.8,0-1,0-2,.1-3,.4-1,.3-1.9.7-2.8,1.4-.8.6-1.5,1.5-2,2.5-.5,1-.8,2.3-.8,3.8v27.1h-11.7V16s11.1,0,11.1,0ZM330.6,28.3c.6-3,1.6-5.4,3-7.4,1.4-2,3.3-3.5,5.5-4.5s5.1-1.6,8.4-1.6c3.5,0,6.4.4,8.7,1.4,2.3,1,4.1,2.5,5.5,4.5,1.4,2,2.3,4.5,2.9,7.5s.8,6.4.8,10.4-.3,7.3-.9,10.2c-.6,3-1.6,5.4-3,7.4-1.4,2-3.3,3.5-5.5,4.4-2.3,1-5.1,1.4-8.4,1.4-3.5,0-6.4-.4-8.7-1.3-2.3-.9-4.1-2.4-5.5-4.4-1.4-2-2.3-4.5-2.9-7.5-.6-3-.8-6.5-.8-10.4s.3-7.3.9-10.2h0s0,0,0,0ZM341.5,45c.1,2,.4,3.6.8,5,.4,1.4,1.1,2.5,1.9,3.3.8.8,2,1.2,3.4,1.2,2.4,0,4-1.2,4.9-3.7.9-2.5,1.4-6.5,1.4-12.2s-.5-9.7-1.4-12.2c-.9-2.5-2.5-3.7-4.9-3.7s-2.5.4-3.4,1.2c-.8.8-1.5,1.9-1.9,3.3-.4,1.4-.7,3.1-.8,5-.1,2-.2,4.1-.2,6.4s0,4.4.2,6.4ZM385.9,3v12.9h6.8v7.9h-6.8v24.4c0,1.8.3,3.1.8,3.8.5.8,1.6,1.1,3.3,1.1s.9,0,1.4,0c.5,0,.9,0,1.3-.1v8.1c-1.3,0-2.6,0-3.8.1-1.2,0-2.5.1-3.8.1-2.3,0-4.1-.2-5.5-.5-1.4-.3-2.5-.9-3.3-1.9-.8-.9-1.3-2.1-1.6-3.6-.3-1.5-.4-3.4-.4-5.7v-25.9h-5.9v-7.9h5.9V3s11.7,0,11.7,0ZM406.7,43.9c0,1.3,0,2.7.3,3.9.2,1.3.5,2.4,1,3.4.5,1,1,1.8,1.8,2.4.7.6,1.6.9,2.7.9,2,0,3.4-.7,4.3-2.1.9-1.4,1.5-3.5,1.9-6.4h10.5c-.2,5.3-1.6,9.3-4.2,12-2.6,2.7-6.7,4.1-12.2,4.1s-7.5-.7-9.9-2.1c-2.4-1.4-4.1-3.3-5.2-5.5-1.1-2.3-1.8-4.9-2.1-7.7-.3-2.8-.4-5.7-.4-8.6s.2-5.9.6-8.7c.4-2.8,1.3-5.3,2.5-7.5,1.3-2.2,3.1-3.9,5.5-5.2,2.4-1.3,5.5-1.9,9.5-1.9s6.2.5,8.3,1.6c2.2,1.1,3.9,2.6,5.1,4.6,1.2,2,2.1,4.4,2.5,7.2.5,2.8.7,6,.7,9.4v2.6h-23.1v3.6h0s0,0,0,0ZM418.3,28.9c-.2-1.3-.5-2.4-.9-3.4s-1-1.6-1.8-2.1c-.8-.5-1.7-.7-2.9-.7s-2.2.3-2.9.8c-.8.5-1.4,1.2-1.8,2.1s-.8,1.8-1,2.9c-.2,1.1-.3,2.1-.3,3.2v1.8h11.9c0-1.7-.2-3.3-.3-4.6h0ZM457.5,29c-.1-1.1-.4-2-.8-2.9-.4-.9-.9-1.6-1.6-2.1-.7-.5-1.6-.8-2.7-.8s-2.6.3-3.5,1c-.9.6-1.6,1.6-2,2.8-.5,1.2-.8,2.8-.9,4.8-.2,1.9-.3,4.2-.3,6.8s0,5.2.3,7.2c.2,2,.5,3.6.9,4.9.5,1.3,1.1,2.2,1.9,2.8.8.6,1.9.9,3.2.9,2,0,3.4-.8,4.3-2.5.9-1.7,1.4-4.4,1.4-8.1h11.1c0,5.9-1.3,10.5-4,13.6-2.7,3.1-7.1,4.7-13.3,4.7s-5.5-.4-7.7-1.1c-2.2-.7-4-1.9-5.4-3.8s-2.5-4.3-3.3-7.3c-.7-3-1.1-6.8-1.1-11.4s.5-8.5,1.4-11.5c.9-3,2.2-5.5,3.8-7.3,1.6-1.8,3.6-3.1,5.8-3.8,2.3-.7,4.7-1.1,7.4-1.1,5.4,0,9.5,1.6,12.2,4.7,2.7,3.1,4.1,7.4,4.1,12.8h-11.1c0-1.1,0-2.2-.2-3.3h0q0,0,0,0ZM489.2,3v12.9h6.8v7.9h-6.8v24.4c0,1.8.3,3.1.8,3.8.5.8,1.6,1.1,3.3,1.1s.9,0,1.4,0c.5,0,.9,0,1.3-.1v8.1c-1.3,0-2.6,0-3.8.1-1.2,0-2.5.1-3.8.1-2.3,0-4.1-.2-5.5-.5-1.4-.3-2.5-.9-3.3-1.9-.8-.9-1.3-2.1-1.6-3.6-.3-1.5-.4-3.4-.4-5.7v-25.9h-5.9v-7.9h5.9V3s11.7,0,11.7,0ZM512.1.5v9.9h-11.7V.5s11.7,0,11.7,0ZM512.1,16v45.2h-11.7V16h11.7ZM519.7,28.3c.6-3,1.6-5.4,3-7.4,1.4-2,3.3-3.5,5.5-4.5,2.3-1.1,5.1-1.6,8.4-1.6,3.5,0,6.4.4,8.7,1.4,2.3,1,4.1,2.5,5.5,4.5,1.4,2,2.3,4.5,2.9,7.5s.8,6.4.8,10.4-.3,7.3-.9,10.2c-.6,3-1.6,5.4-3,7.4-1.4,2-3.3,3.5-5.5,4.4-2.3,1-5.1,1.4-8.4,1.4-3.5,0-6.4-.4-8.7-1.3-2.3-.9-4.1-2.4-5.5-4.4-1.4-2-2.3-4.5-2.9-7.5-.6-3-.8-6.5-.8-10.4s.3-7.3.9-10.2h0s0,0,0,0ZM530.6,45c.1,2,.4,3.6.8,5,.4,1.4,1.1,2.5,1.9,3.3.8.8,2,1.2,3.4,1.2,2.4,0,4-1.2,4.9-3.7.9-2.5,1.4-6.5,1.4-12.2s-.5-9.7-1.4-12.2c-.9-2.5-2.5-3.7-4.9-3.7s-2.5.4-3.4,1.2c-.8.8-1.5,1.9-1.9,3.3-.4,1.4-.7,3.1-.8,5-.1,2-.2,4.1-.2,6.4s0,4.4.2,6.4ZM572,16v5.3h.2c1.2-2.2,2.8-3.9,4.8-4.9,2-1,4.2-1.6,6.8-1.6,3.7,0,6.6,1,8.6,3,2,2,3,5.3,3,9.8v33.5h-11.7v-31.2c0-2.4-.4-4-1.2-4.9-.8-.9-2.1-1.4-3.8-1.4-4.1,0-6.2,2.5-6.2,7.5v30h-11.7V16h11.1,0Z"></path><path class="monitor-box" d="M271.7,80.9v8.6h-12.2v-8.6h12.2ZM293.5,80.9v17.1h-12.2v-17.1h12.2ZM315.2,80.9v25.7h-12.2v-25.7h12.2ZM336.7,80.9v34.2h-12.2v-34.2s12.2,0,12.2,0ZM358.4,80.9v42.8h-12.2v-42.8s12.2,0,12.2,0ZM380.2,80.9v51.4h-12.2v-51.4s12.2,0,12.2,0ZM389.7,80.9h205.6v59.9h-205.6s0-59.9,0-59.9ZM469.3,123.7c.5-2.2.7-4.6.7-7.5s-.2-5.4-.6-7.6c-.4-2.1-1.1-4-2.1-5.4-1-1.5-2.3-2.5-4-3.3-1.7-.7-3.8-1.1-6.3-1-2.4,0-4.5.4-6.1,1.1-1.7.8-3,1.9-4,3.3-1,1.4-1.8,3.3-2.2,5.4-.5,2.2-.7,4.6-.7,7.5s.2,5.3.6,7.5c.4,2.2,1.1,4,2.1,5.4,1,1.4,2.3,2.5,4,3.2,1.7.7,3.8,1,6.3.9,2.4,0,4.5-.3,6.1-1,1.7-.7,3-1.8,4-3.2,1-1.4,1.8-3.2,2.2-5.4h0ZM456.9,104.7h0c1.7,0,2.9.9,3.6,2.7.6,1.8,1,4.7,1,8.8s-.3,7.1-1,8.9c-.6,1.8-1.8,2.7-3.6,2.7s-1.8-.3-2.5-.9c-.6-.6-1.1-1.4-1.4-2.4-.3-1-.5-2.2-.6-3.7s-.1-3-.1-4.6,0-3.2.1-4.6.3-2.7.6-3.7c.3-1,.8-1.8,1.4-2.4s1.4-.9,2.5-.9h0ZM439,132.6v-43.6h-13.1l-6.3,30.7h-.1l-6.3-30.7h-13.1v43.6h8.1v-34.8h.1l7.8,34.8h6.9l7.8-34.8h.1v34.8h8.1ZM530.2,105.5h4.9v-5.7h-4.9v-9.4h-8.5v9.4h-4.3v5.7h4.3v18.8c0,1.7.1,3.1.3,4.2.2,1.1.6,2,1.1,2.7.5.7,1.4,1.1,2.4,1.3s2.4.3,4,.3,1.9,0,2.8,0c.9,0,1.8,0,2.7,0v-5.9c-.3,0-.6,0-.9,0-.3,0-.6,0-1,0-1.2,0-2-.3-2.4-.8-.4-.5-.6-1.5-.6-2.8v-17.7h0ZM513.9,132.6v-32.8h-8.5v32.8h8.5ZM499.5,132.6h0v-24.4c0-3.3-.7-5.7-2.2-7.1-1.5-1.5-3.5-2.2-6.2-2.2s-3.5.4-4.9,1.1c-1.4.8-2.6,2-3.5,3.6h-.1v-3.8h-8.1v32.8h8.5v-21.8c0-3.6,1.5-5.4,4.5-5.4s2.2.4,2.8,1c.6.7.9,1.9.9,3.6v22.6h8.5,0ZM513.9,95.8v-7.2h-8.5v7.2h8.5ZM562.3,123.7c.5-2.2.7-4.6.7-7.5s-.2-5.4-.6-7.6c-.4-2.1-1.1-4-2.1-5.4-1-1.5-2.3-2.5-4-3.3-1.7-.7-3.8-1.1-6.3-1-2.4,0-4.5.4-6.1,1.1-1.7.8-3,1.9-4,3.3-1,1.4-1.8,3.3-2.2,5.4-.5,2.2-.7,4.6-.7,7.5s.2,5.3.6,7.5c.4,2.2,1.1,4,2.1,5.4,1,1.4,2.3,2.5,4,3.2,1.7.7,3.8,1,6.3.9,2.4,0,4.5-.3,6.1-1,1.7-.7,3-1.8,4-3.2,1-1.4,1.8-3.2,2.2-5.4ZM549.9,104.7h0c1.7,0,2.9.9,3.6,2.7.6,1.8,1,4.7,1,8.8s-.3,7.1-1,8.9c-.6,1.8-1.8,2.7-3.6,2.7s-1.8-.3-2.5-.9-1.1-1.4-1.4-2.4c-.3-1-.5-2.2-.6-3.7,0-1.4-.1-3-.1-4.6s0-3.2.1-4.6.3-2.7.6-3.7c.3-1,.8-1.8,1.4-2.4s1.4-.9,2.5-.9h0ZM584.8,107.1v-8c-.2,0-.5,0-.8,0-.3,0-.5,0-.8,0-1.7,0-3.2.5-4.5,1.4-1.2,1-2.3,2.2-3.1,3.8h-.1v-4.4h-8.1v32.8h8.5v-19.7c0-1.1.2-2,.5-2.8.4-.8.9-1.4,1.5-1.8.6-.5,1.3-.8,2-1,.7-.2,1.5-.3,2.2-.3s.9,0,1.3,0c.4,0,.9,0,1.3,0h0Z"></path></svg>