<?xml version="1.0" encoding="utf-8"?>
<!-- Generator: Adobe Illustrator 16.0.0, SVG Export Plug-In . SVG Version: 6.00 Build 0)  -->
<!DOCTYPE svg PUBLIC "-//W3C//DTD SVG 1.1//EN" "http://www.w3.org/Graphics/SVG/1.1/DTD/svg11.dtd">
<svg version="1.1" id="Layer_1" xmlns="http://www.w3.org/2000/svg" xmlns:xlink="http://www.w3.org/1999/xlink" x="0px" y="0px"
	 width="440px" height="95px" viewBox="0 0 440 95" enable-background="new 0 0 440 95" xml:space="preserve">
<path fill="#5B85A0" d="M438.522,43.506c-1.271-11.312-10.55-20.845-27.964-20.845c-18.938,0-27.709,11.312-27.709,21.607
	c0,12.966,8.136,18.938,21.354,21.1l10.932,1.78c5.592,0.89,7.625,3.178,7.625,6.861c0,4.957-4.83,7.372-12.328,7.372
	c-8.262,0-11.563-4.065-12.457-8.643h-17.03c1.271,13.091,11.565,21.604,29.487,21.604c16.523,0,28.855-7.115,28.855-23.006
	c0-10.549-6.482-17.158-19.32-19.318l-12.205-2.031c-6.1-1.02-8.389-3.306-8.389-6.991c0-4.067,3.811-6.991,11.059-6.991
	c6.99,0,10.677,3.434,11.439,7.499L438.522,43.506L438.522,43.506z M339.127,92.57h18.049V53.421
	c0-9.023,4.576-12.584,12.457-12.584h6.229V24.315h-2.287c-8.265,0-14.109,3.938-16.904,10.676h-0.256V24.315H339.13V92.57H339.127z
	 M293.37,80.875c-5.849,0-9.406-3.05-9.406-8.134c0-3.179,1.397-4.958,3.813-6.356c2.798-1.523,6.99-2.415,19.829-3.559v1.906
	C307.606,75.156,300.614,80.875,293.37,80.875 M285.999,46.429c0.508-7.116,4.703-10.041,11.058-10.041
	c6.864,0,10.424,3.94,10.424,11.566v2.161c-16.777,1.271-22.879,2.287-28.601,4.576c-7.625,3.05-12.838,9.275-12.838,18.176
	c0,12.71,9.66,20.972,22.752,20.972c9.533,0,17.033-3.938,20.211-8.896h0.254c1.652,5.719,5.592,7.625,11.06,7.625h9.912V78.46
	h-1.777c-2.16,0-3.18-0.762-3.18-3.433V48.336c0-15.125-8.896-25.548-27.709-25.548c-17.666,0-27.963,8.771-29.486,23.642
	L285.999,46.429L285.999,46.429z M165.503,24.315l19.193,68.255h17.414l12.837-41.185h0.127l12.201,41.185h17.795l19.066-68.255
	h-16.396l-11.187,44.484h-0.381l-13.348-44.484h-14.744l-13.474,44.484h-0.254l-10.931-44.484H165.503z M121.781,92.57h18.048
	V53.421c0-9.023,4.576-12.584,12.457-12.584h6.228V24.315h-2.288c-8.262,0-14.109,3.938-16.905,10.676h-0.254V24.315h-17.286
	L121.781,92.57L121.781,92.57z M91.53,92.57h18.049V24.315H91.53V92.57z M91.403,17.565h18.303V-0.218H91.403V17.565z
	 M37.894,31.177c2.415-8.262,3.558-13.346,3.558-13.346h0.255c0,0,1.144,5.084,3.559,13.473l8.77,26.692h-25.04L37.894,31.177z
	 M-0.238,92.57H17.43l6.736-20.211h34.7L65.73,92.57h19.192L52.511-0.218H31.793L-0.238,92.57z"/>
</svg>
