<?xml version="1.0" encoding="utf-8"?>
<!-- Generator: Adobe Illustrator 16.0.0, SVG Export Plug-In . SVG Version: 6.00 Build 0)  -->
<!DOCTYPE svg PUBLIC "-//W3C//DTD SVG 1.1//EN" "http://www.w3.org/Graphics/SVG/1.1/DTD/svg11.dtd">
<svg version="1.1" id="Layer_1" xmlns="http://www.w3.org/2000/svg" xmlns:xlink="http://www.w3.org/1999/xlink" x="0px" y="0px"
	 width="440px" height="95px" viewBox="0 0 440 95" enable-background="new 0 0 440 95" xml:space="preserve">
<path fill="#FFFFFF" d="M429.096,75.229h10.192V23.221h-10.192V75.229z M415.388,75.229V23.221h-10.192v43.787h-8.559
	c-0.222,0-0.334,0.089-0.334,0.266v7.621c0,0.224,0.112,0.335,0.334,0.335H415.388z M397.307,75.229
	c0.244,0,0.367-0.111,0.367-0.335v-7.621c0-0.177-0.123-0.266-0.367-0.266h-4.445c-2.008-1.962-3.601-6.34-4.779-13.138
	c-0.805-4.7-2.475-8.075-5.018-10.127c-2.536-2.05-6.092-3.075-10.659-3.075c-5.462,0-10.228,1.093-14.307,3.276l3.075,7.521
	c1.649-0.913,3.176-1.571,4.579-1.974c1.403-0.398,2.909-0.6,4.512-0.6c2.427,0,4.252,0.617,5.465,1.855
	c1.214,1.235,2.134,3.392,2.759,6.467c0.979,4.835,2.372,8.1,4.178,9.794h-27.643c-0.223,0-0.335,0.089-0.335,0.266v7.621
	c0,0.224,0.112,0.335,0.335,0.335H397.307z M346.8,67.008v-25.67h-10.194v34.494c0,2.118-0.557,3.87-1.672,5.266
	c-1.113,1.393-2.585,2.089-4.409,2.089c-1.294,0-2.404-0.146-3.328-0.435c-0.924-0.289-1.989-0.814-3.192-1.572l-4.11,6.652
	c2.161,1.448,4.216,2.451,6.167,3.01c1.95,0.555,4.094,0.835,6.434,0.835c4.345,0,7.815-1.382,10.413-4.146
	c2.596-2.762,3.893-6.495,3.893-11.197v-1.103h8.893c0.223,0,0.333-0.111,0.333-0.335v-7.621c0-0.177-0.11-0.266-0.333-0.266H346.8z
	 M301.909,67.008c-2.295,0-3.998-0.646-5.113-1.938c-1.113-1.293-1.67-3.311-1.67-6.051c0-3.008,0.819-5.335,2.457-6.984
	c1.635-1.651,3.914-2.476,6.835-2.476h2.206v17.449H301.909z M312.089,87.447c3.152-2.819,4.729-6.825,4.729-12.017V41.337h-10.395
	c-4.325,0-8.134,0.723-11.432,2.171c-3.299,1.448-5.85,3.539-7.656,6.27c-1.805,2.728-2.707,5.899-2.707,9.507
	c0,5.103,1.314,9.037,3.945,11.801c2.628,2.763,6.383,4.144,11.265,4.144h6.785v0.335c0,2.474-0.703,4.417-2.108,5.832
	c-1.4,1.416-3.396,2.122-5.979,2.122c-1.783,0-3.502-0.194-5.149-0.584c-1.648-0.39-3.397-1.065-5.248-2.022l-3.979,7.455
	c2.094,1.247,4.273,2.109,6.535,2.59c2.263,0.478,4.944,0.719,8.04,0.719C304.483,91.676,308.935,90.265,312.089,87.447
	 M254.096,91.022c0.836-0.879,1.255-2.077,1.255-3.592c0-1.561-0.409-2.774-1.222-3.644c-0.814-0.87-1.911-1.303-3.292-1.303
	c-1.448,0-2.58,0.438-3.395,1.319c-0.811,0.88-1.22,2.09-1.22,3.627c0,1.515,0.412,2.713,1.236,3.592
	c0.827,0.88,1.952,1.321,3.378,1.321C252.174,92.344,253.26,91.902,254.096,91.022 M273.9,75.229V41.337h-10.229v25.67h-22.229
	c-1.938,0-3.498-0.646-4.678-1.938c-1.183-1.293-1.773-2.997-1.773-5.114c0-3.01,0.346-5.993,1.036-8.959h-9.022
	c-0.67,1.359-1.206,3.014-1.606,4.965c-0.399,1.95-0.602,3.783-0.602,5.498c0,4.277,1.22,7.643,3.661,10.095
	c2.44,2.449,5.766,3.676,9.979,3.676H273.9z M187.083,75.229h10.195V23.221h-10.195V75.229z M173.377,75.229V23.221h-10.193v43.787
	h-8.558c-0.222,0-0.334,0.089-0.334,0.266v7.621c0,0.224,0.112,0.335,0.334,0.335H173.377z M132.916,91.022
	c0.835-0.879,1.254-2.077,1.254-3.592c0-1.561-0.407-2.774-1.219-3.644c-0.814-0.87-1.912-1.303-3.292-1.303
	c-1.45,0-2.581,0.438-3.393,1.319c-0.814,0.88-1.221,2.09-1.221,3.627c0,1.515,0.412,2.713,1.238,3.592
	c0.824,0.88,1.949,1.321,3.376,1.321C130.995,92.344,132.081,91.902,132.916,91.022 M155.296,75.229
	c0.244,0,0.367-0.111,0.367-0.335v-7.621c0-0.177-0.123-0.266-0.367-0.266h-4.446c-2.005-1.962-3.599-6.34-4.78-13.138
	c-0.802-4.7-2.474-8.075-5.015-10.127c-2.539-2.05-6.094-3.075-10.662-3.075c-5.459,0-10.229,1.093-14.306,3.276l3.074,7.521
	c1.649-0.913,3.176-1.571,4.58-1.974c1.403-0.398,2.908-0.6,4.513-0.6c2.427,0,4.25,0.617,5.464,1.855
	c1.215,1.235,2.134,3.392,2.759,6.467c0.978,4.835,2.373,8.1,4.177,9.794h-27.643c-0.222,0-0.335,0.089-0.335,0.266v7.621
	c0,0.224,0.113,0.335,0.335,0.335H155.296z M90.215,67.008c-2.296,0-3.999-0.646-5.114-1.938c-1.115-1.293-1.671-3.311-1.671-6.051
	c0-3.008,0.819-5.335,2.456-6.984c1.638-1.651,3.917-2.476,6.837-2.476h2.205v17.449H90.215z M105.123,67.008v-25.67H94.729
	c-4.324,0-8.134,0.723-11.434,2.171c-3.297,1.448-5.848,3.539-7.653,6.27c-1.805,2.728-2.708,5.899-2.708,9.507
	c0,5.103,1.314,9.037,3.945,11.801c2.628,2.763,6.384,4.144,11.265,4.144h6.784v0.335c0,2.474-0.702,4.417-2.105,5.832
	c-1.403,1.416-3.398,2.122-5.981,2.122c-1.783,0-3.5-0.194-5.148-0.584c-1.65-0.39-3.4-1.065-5.249-2.022l-3.978,7.455
	c2.094,1.247,4.272,2.109,6.535,2.59c2.261,0.478,4.942,0.719,8.039,0.719c5.749,0,10.2-1.438,13.354-4.312
	c3.151-2.874,4.729-6.92,4.729-12.134h8.558c0.222,0,0.333-0.111,0.333-0.335v-7.621c0-0.177-0.112-0.266-0.333-0.266H105.123z
	 M60.484,91.022c0.835-0.879,1.253-2.077,1.253-3.592c0-1.537-0.4-2.747-1.204-3.627c-0.802-0.882-1.916-1.319-3.342-1.319
	c-1.426,0-2.547,0.438-3.36,1.319c-0.813,0.88-1.219,2.09-1.219,3.627c0,1.515,0.412,2.713,1.236,3.592
	c0.824,0.88,1.939,1.321,3.343,1.321C58.55,92.344,59.648,91.902,60.484,91.022 M48.836,91.057c0.824-0.858,1.236-2.066,1.236-3.626
	c0-1.561-0.401-2.774-1.203-3.644c-0.803-0.87-1.905-1.303-3.31-1.303c-1.426,0-2.545,0.438-3.36,1.319
	c-0.813,0.88-1.219,2.09-1.219,3.627c0,1.515,0.412,2.713,1.236,3.592c0.824,0.88,1.939,1.321,3.343,1.321
	C46.918,92.344,48.011,91.914,48.836,91.057 M62.205,75.229V41.337H52.01v25.67H40.045c-0.223,0-0.335,0.089-0.335,0.266v7.621
	c0,0.224,0.112,0.335,0.335,0.335H62.205z M30.535,32.361c0.835-0.88,1.253-2.076,1.253-3.592c0-1.539-0.402-2.747-1.204-3.627
	c-0.801-0.88-1.917-1.319-3.342-1.319c-1.427,0-2.546,0.439-3.36,1.319c-0.813,0.88-1.22,2.089-1.22,3.627
	c0,1.516,0.412,2.711,1.238,3.592c0.824,0.882,1.938,1.321,3.342,1.321C28.602,33.683,29.699,33.243,30.535,32.361 M18.886,32.395
	c0.824-0.858,1.236-2.066,1.236-3.625c0-1.56-0.4-2.776-1.203-3.644c-0.802-0.869-1.904-1.303-3.309-1.303
	c-1.426,0-2.546,0.439-3.36,1.319c-0.813,0.88-1.22,2.089-1.22,3.627c0,1.516,0.412,2.711,1.238,3.592
	c0.824,0.882,1.938,1.321,3.342,1.321C16.969,33.683,18.061,33.253,18.886,32.395 M20.056,67.008c-3.098,0-5.47-0.735-7.12-2.208
	c-1.65-1.469-2.474-3.562-2.474-6.282c0-2.896,0.842-5.115,2.524-6.652c1.683-1.537,4.083-2.307,7.203-2.307h1.805v17.449H20.056z
	 M32.189,67.008V37.994H21.894v3.344h-1.905c-4.123,0-7.682,0.707-10.68,2.123c-2.996,1.415-5.297,3.426-6.901,6.031
	C0.803,52.099,0,55.087,0,58.45c0,5.281,1.75,9.399,5.249,12.351c3.499,2.953,8.412,4.429,14.74,4.429h20.758
	c0.223,0,0.334-0.111,0.334-0.335v-7.621c0-0.177-0.112-0.266-0.334-0.266H32.189z"/>
</svg>
