<?xml version="1.0" encoding="utf-8"?>
<!-- Generator: Adobe Illustrator 16.0.0, SVG Export Plug-In . SVG Version: 6.00 Build 0)  -->
<!DOCTYPE svg PUBLIC "-//W3C//DTD SVG 1.1//EN" "http://www.w3.org/Graphics/SVG/1.1/DTD/svg11.dtd">
<svg version="1.1" id="Layer_1" xmlns="http://www.w3.org/2000/svg" xmlns:xlink="http://www.w3.org/1999/xlink" x="0px" y="0px"
	 width="440px" height="95px" viewBox="0 0 440 95" enable-background="new 0 0 440 95" xml:space="preserve">
<path fill="#0D3856" d="M438.522,43.506c-1.271-11.312-10.55-20.845-27.964-20.845c-18.938,0-27.709,11.312-27.709,21.607
	c0,12.966,8.136,18.938,21.354,21.1l10.933,1.78c5.592,0.89,7.625,3.178,7.625,6.86c0,4.957-4.83,7.372-12.328,7.372
	c-8.262,0-11.563-4.064-12.457-8.643h-17.03c1.271,13.091,11.565,21.604,29.487,21.604c16.522,0,28.854-7.115,28.854-23.006
	c0-10.549-6.481-17.158-19.319-19.318l-12.205-2.031c-6.101-1.02-8.39-3.305-8.39-6.99c0-4.067,3.812-6.991,11.06-6.991
	c6.99,0,10.677,3.434,11.438,7.499L438.522,43.506L438.522,43.506z M339.127,92.57h18.049V53.421
	c0-9.023,4.576-12.584,12.457-12.584h6.229V24.315h-2.287c-8.265,0-14.108,3.938-16.903,10.676h-0.257V24.315H339.13V92.57H339.127z
	 M293.37,80.875c-5.85,0-9.406-3.05-9.406-8.134c0-3.179,1.396-4.958,3.812-6.356c2.799-1.523,6.99-2.415,19.829-3.559v1.906
	C307.606,75.156,300.614,80.875,293.37,80.875 M285.999,46.429c0.508-7.116,4.703-10.041,11.058-10.041
	c6.864,0,10.424,3.94,10.424,11.566v2.161c-16.776,1.271-22.879,2.287-28.601,4.576c-7.625,3.05-12.838,9.274-12.838,18.176
	c0,12.71,9.66,20.972,22.752,20.972c9.533,0,17.033-3.938,20.211-8.896h0.254c1.651,5.719,5.592,7.625,11.06,7.625h9.912V78.46
	h-1.777c-2.159,0-3.18-0.762-3.18-3.433V48.336c0-15.125-8.896-25.548-27.709-25.548c-17.666,0-27.963,8.771-29.485,23.642
	L285.999,46.429L285.999,46.429z M165.503,24.315l19.192,68.255h17.414l12.837-41.186h0.128l12.2,41.186h17.795l19.066-68.255
	H247.74l-11.188,44.484h-0.381l-13.348-44.484H208.08l-13.475,44.484h-0.254l-10.931-44.484H165.503z M121.781,92.57h18.049V53.421
	c0-9.023,4.575-12.584,12.457-12.584h6.228V24.315h-2.288c-8.262,0-14.108,3.938-16.905,10.676h-0.254V24.315h-17.286V92.57
	L121.781,92.57z M91.53,92.57h18.05V24.315H91.53V92.57z M91.403,17.565h18.304V-0.218H91.403V17.565z M37.894,31.177
	c2.415-8.262,3.559-13.346,3.559-13.346h0.255c0,0,1.144,5.084,3.559,13.473l8.771,26.692h-25.04L37.894,31.177z M-0.238,92.57
	H17.43l6.736-20.211h34.7L65.73,92.57h19.192L52.511-0.218H31.793L-0.238,92.57z"/>
</svg>
