<?xml version="1.0" encoding="utf-8"?>
<!-- Generator: Adobe Illustrator 24.0.2, SVG Export Plug-In . SVG Version: 6.00 Build 0)  -->
<svg version="1.1" id="Layer_1" xmlns="http://www.w3.org/2000/svg" xmlns:xlink="http://www.w3.org/1999/xlink" x="0px" y="0px"
	 viewBox="0 0 100 86.6" style="enable-background:new 0 0 100 86.6;" xml:space="preserve">
<style type="text/css">
	.st0{opacity:0.38;}
	.st1{fill:#FFFFFF;}
</style>
<g class="st0">
	<path class="st1" d="M72.7,4l22.7,39.3L72.7,82.6H27.3L4.6,43.3L27.3,4H72.7 M75,0H25L0,43.3l25,43.3h50l25-43.3L75,0L75,0z"/>
</g>
<g>
	<polygon class="st1" points="75,86.6 25,86.6 27.3,82.6 72.7,82.6 	"/>
</g>
<g>
	<path class="st1" d="M30.9,72.1v-2.3h3.9V61h-3.7v-2h1.1c1,0,1.7-0.2,2.3-0.7c0.5-0.4,0.7-1.1,0.7-2.1h2.6v13.6h3.8v2.3H30.9z"/>
	<path class="st1" d="M47.6,72.1h-2.8V55.3h2.8V66l4.5-5.2h3.2l-4.1,4.6l4.5,6.8h-3.2l-3.2-5L47.6,69V72.1z"/>
	<path class="st1" d="M57.4,60.7h2.3v1.6h0.1c0.3-1.1,1-1.9,2.4-1.9c1.3,0,2,0.8,2.2,1.9h0.1c0.3-1,0.9-1.9,2.4-1.9
		c1.6,0,2.3,1,2.3,2.9v8.8h-2.5v-7.9c0-0.9-0.2-1.4-0.9-1.4c-0.8,0-1.2,0.7-1.2,1.9v7.5H62v-7.9c0-0.9-0.2-1.4-0.9-1.4
		c-0.8,0-1.2,0.7-1.2,1.9v7.5h-2.5V60.7z"/>
</g>
</svg>
